<?xml version="1.0" standalone="no"?>
<!DOCTYPE svg PUBLIC "-//W3C//DTD SVG 1.1//EN" "http://www.w3.org/Graphics/SVG/1.1/DTD/svg11.dtd" >
<svg xmlns="http://www.w3.org/2000/svg" xmlns:xlink="http://www.w3.org/1999/xlink" version="1.1">
<metadata>
Created by FontForge 20201107 at Tue Mar 19 19:27:14 2019
 By 
Luciole (c) Laurent Bourcellier &#38; Jonathan Perez - 2019
</metadata>
<defs>
<font id="Luciole-BoldItalic" horiz-adv-x="660" >
  <font-face 
    font-family="Luciole"
    font-weight="600"
    font-style="italic"
    font-stretch="normal"
    units-per-em="1000"
    panose-1="2 11 8 0 2 2 0 0 0 3"
    ascent="800"
    descent="-200"
    x-height="544"
    cap-height="763"
    bbox="-214 -388 1870.99 1387"
    underline-thickness="120"
    underline-position="-190"
    slope="-15"
    unicode-range="U+0020-FB04"
  />
<missing-glyph horiz-adv-x="840" 
d="M760 802v-1037h-680v1037h680zM670 712h-500v-857h500v857zM603 466q0 -34 -15 -66t-64 -87q-55 -61 -72 -100t-17 -82h-101q-1 54 17 100.5t75 111.5q38 44 49 66.5t11 45.5q0 43 -25 67t-69 24q-40 0 -82.5 -17t-72.5 -45v111q34 25 78 38.5t89 13.5q90 0 144.5 -48.5
t54.5 -132.5zM463 -10q0 -32 -23 -55t-55 -23t-55 23t-23 55t23 55t55 23t55 -23t23 -55z" />
    <glyph glyph-name="f_f" unicode="ff" horiz-adv-x="958" 
d="M345 395l-106 -395h-200l106 395h-82l40 150h83q43 134 119 195t198 61q37 0 72 -5t70 -15l-43 -162q-29 10 -55 14t-56 4q-44 0 -68 -21t-37 -71h143l-40 -150h-144zM824 395l-106 -395h-200l106 395h-82l40 150h83q43 134 119 195t198 61q37 0 72 -5t70 -15l-43 -162
q-29 10 -55 14t-56 4q-44 0 -68 -21t-37 -71h143l-40 -150h-144z" />
    <glyph glyph-name="fi" unicode="fi" horiz-adv-x="839" 
d="M905 744q-13 -50 -56.5 -83.5t-93.5 -33.5q-52 0 -77.5 33.5t-12.5 83.5q14 50 57.5 83t94.5 33t76.5 -33t11.5 -83zM345 395l-106 -395h-200l106 395h-82l40 150h83q43 134 119 195t198 61q37 0 72 -5t70 -15l-43 -162q-29 10 -55 14t-56 4q-44 0 -68 -21t-37 -71h143
l-40 -150h-144zM832 545l-146 -545h-200l146 545h200z" />
    <glyph glyph-name="fl" unicode="fl" horiz-adv-x="839" 
d="M345 395l-106 -395h-200l106 395h-82l40 150h83q43 134 119 195t198 61q37 0 72 -5t70 -15l-43 -162q-29 10 -55 14t-56 4q-44 0 -68 -21t-37 -71h143l-40 -150h-144zM898 791l-212 -791h-200l212 791h200z" />
    <glyph glyph-name="f_f_i" unicode="ffi" horiz-adv-x="1318" 
d="M1384 744q-13 -50 -56.5 -83.5t-93.5 -33.5q-52 0 -77.5 33.5t-12.5 83.5q14 50 57.5 83t94.5 33t76.5 -33t11.5 -83zM345 395l-106 -395h-200l106 395h-82l40 150h83q43 134 119 195t198 61q37 0 72 -5t70 -15l-43 -162q-29 10 -55 14t-56 4q-44 0 -68 -21t-37 -71h143
l-40 -150h-144zM824 395l-106 -395h-200l106 395h-82l40 150h83q43 134 119 195t198 61q37 0 72 -5t70 -15l-43 -162q-29 10 -55 14t-56 4q-44 0 -68 -21t-37 -71h143l-40 -150h-144zM1311 545l-146 -545h-200l146 545h200z" />
    <glyph glyph-name="f_f_l" unicode="ffl" horiz-adv-x="1318" 
d="M345 395l-106 -395h-200l106 395h-82l40 150h83q43 134 119 195t198 61q37 0 72 -5t70 -15l-43 -162q-29 10 -55 14t-56 4q-44 0 -68 -21t-37 -71h143l-40 -150h-144zM824 395l-106 -395h-200l106 395h-82l40 150h83q43 134 119 195t198 61q37 0 72 -5t70 -15l-43 -162
q-29 10 -55 14t-56 4q-44 0 -68 -21t-37 -71h143l-40 -150h-144zM1377 791l-212 -791h-200l212 791h200z" />
    <glyph glyph-name=".notdef" horiz-adv-x="840" 
d="M760 802v-1037h-680v1037h680zM670 712h-500v-857h500v857zM603 466q0 -34 -15 -66t-64 -87q-55 -61 -72 -100t-17 -82h-101q-1 54 17 100.5t75 111.5q38 44 49 66.5t11 45.5q0 43 -25 67t-69 24q-40 0 -82.5 -17t-72.5 -45v111q34 25 78 38.5t89 13.5q90 0 144.5 -48.5
t54.5 -132.5zM463 -10q0 -32 -23 -55t-55 -23t-55 23t-23 55t23 55t55 23t55 -23t23 -55z" />
    <glyph glyph-name=".null" horiz-adv-x="0" 
 />
    <glyph glyph-name="nonmarkingreturn" horiz-adv-x="333" 
 />
    <glyph glyph-name="space" unicode=" " horiz-adv-x="390" 
 />
    <glyph glyph-name="exclam" unicode="!" horiz-adv-x="324" 
d="M127 474q27 116 42 176.5t28 112.5h211q-12 -47 -28 -102t-48 -161q-29 -97 -42 -141.5t-22 -79.5h-188q8 31 17.5 70.5t29.5 124.5zM256 104q-14 -50 -57.5 -83.5t-94.5 -33.5q-53 0 -79.5 33.5t-12.5 83.5q13 50 57.5 83t96.5 33q51 0 77 -33t13 -83z" />
    <glyph glyph-name="quotedbl" unicode="&#x22;" horiz-adv-x="523" 
d="M391 754l-193 -310l-122 37l143 305zM622 754l-193 -310l-122 37l143 305z" />
    <glyph glyph-name="numbersign" unicode="#" horiz-adv-x="864" 
d="M302 0l99 181h-98l-99 -181h-182l99 181h-96l43 160h141l40 74h-89l43 160h134l103 188h182l-103 -188h98l103 188h182l-103 -188h96l-43 -160h-141l-40 -74h89l-43 -160h-134l-99 -181h-182zM391 341h98l40 74h-98z" />
    <glyph glyph-name="dollar" unicode="$" horiz-adv-x="644" 
d="M576 204q-21 -84 -86 -137t-168 -70l-20 -75h-200l20 72q-40 4 -73 12t-65 21l50 186q41 -28 96.5 -43t116.5 -15q48 0 76 15t36 45q6 23 -9 43t-76 55q-57 32 -83 53.5t-41 45.5q-22 32 -27 70.5t6 84.5q17 70 68 118.5t128 70.5l31 114h200l-27 -100q49 -4 87.5 -14.5
t66.5 -26.5l-52 -196q-30 33 -83 52.5t-112 19.5q-42 0 -65 -11.5t-29 -35.5q-7 -25 8.5 -46.5t80.5 -60.5q55 -33 80.5 -53.5t41.5 -43.5q22 -31 28 -68.5t-5 -81.5z" />
    <glyph glyph-name="percent" unicode="%" horiz-adv-x="1332" 
d="M618 501q-29 -120 -102 -177.5t-193 -55.5q-111 2 -160 76t-20 191q30 120 103.5 177.5t193.5 55.5q112 -2 159.5 -74.5t18.5 -192.5zM1052 763l-533 -763h-182l533 763h182zM434 504q19 74 12.5 105.5t-38.5 32.5q-26 0 -46.5 -28.5t-35.5 -81.5q-19 -75 -13 -106
t38 -31q26 -1 47.5 27.5t35.5 81.5zM1328 224q-29 -120 -102 -177.5t-193 -55.5q-111 2 -160 76t-20 191q30 120 103.5 177.5t193.5 55.5q112 -2 159.5 -74.5t18.5 -192.5zM1144 227q19 74 12.5 105.5t-38.5 32.5q-26 0 -46.5 -28.5t-35.5 -81.5q-19 -75 -13 -106t38 -31
q26 -1 47.5 27.5t35.5 81.5z" />
    <glyph glyph-name="ampersand" unicode="&#x26;" horiz-adv-x="855" 
d="M348 554q-12 -42 12 -65t81 -23h427l-44 -162h-132l-13 -49q-14 -54 -5 -73.5t43 -19.5q13 0 32.5 3t50.5 11l-44 -163q-36 -12 -70.5 -17.5t-68.5 -5.5q-58 0 -97 25t-53 72q-19 -17 -41 -32t-48 -28q-36 -18 -72.5 -27.5t-72.5 -9.5q-107 0 -160 75.5t-19 179.5
q16 50 62.5 90.5t100.5 51.5l1 4q-42 24 -59 79t0 122q22 84 104 133.5t208 49.5q63 0 121.5 -12.5t96.5 -34.5l-49 -184q-17 14 -39 26.5t-49 22.5q-25 9 -50 13.5t-50 4.5q-43 0 -69.5 -14.5t-34.5 -42.5zM253 242q-12 -41 8 -64.5t67 -23.5q44 0 80 15t60 44l24 91h-86
q-78 0 -111 -14.5t-42 -47.5z" />
    <glyph glyph-name="quotesingle" unicode="'" horiz-adv-x="292" 
d="M379 754l-193 -310l-122 37l143 305z" />
    <glyph glyph-name="parenleft" unicode="(" horiz-adv-x="393" 
d="M273 312q-30 -114 -31 -230.5t27 -246.5l-146 -82q-63 114 -75.5 266t28.5 326q29 125 113.5 253t204.5 225l119 -95q-90 -96 -150.5 -201t-89.5 -215z" />
    <glyph glyph-name="parenright" unicode=")" horiz-adv-x="393" 
d="M136 255q30 114 31 230.5t-27 246.5l146 82q63 -114 75.5 -266t-28.5 -326q-29 -125 -113.5 -253t-204.5 -225l-119 95q90 96 150.5 201t89.5 215z" />
    <glyph glyph-name="asterisk" unicode="*" horiz-adv-x="594" 
d="M492 506l62 -114l-165 -90l-45 105l-97 -105l-124 107l111 96l-117 35l97 171l111 -47l16 127h182l-39 -124l132 44l8 -166z" />
    <glyph glyph-name="plus" unicode="+" horiz-adv-x="742" 
d="M630 192h-195l-52 -192h-170l52 192h-197l43 160h196l52 192h170l-52 -192h196z" />
    <glyph glyph-name="comma" unicode="," horiz-adv-x="308" 
d="M240 76l-246 -281l-105 64l199 286z" />
    <glyph glyph-name="hyphen" unicode="-" horiz-adv-x="480" 
d="M462 353l-43 -160h-400l43 160h400z" />
    <glyph glyph-name="period" unicode="." horiz-adv-x="324" 
d="M238 104q-14 -50 -57.5 -83.5t-94.5 -33.5q-53 0 -79.5 33.5t-12.5 83.5q13 50 57.5 83t96.5 33q51 0 77 -33t13 -83z" />
    <glyph glyph-name="slash" unicode="/" horiz-adv-x="529" 
d="M479 870h200l-563 -948h-200z" />
    <glyph glyph-name="zero" unicode="0" horiz-adv-x="760" 
d="M725 359q-43 -182 -147 -276t-261 -91q-150 2 -209.5 116t-11.5 299q47 183 149.5 275t256.5 89q152 -2 210.5 -110t12.5 -302zM521 362q34 124 21.5 181.5t-72.5 58.5q-57 1 -100 -49t-70 -149q-35 -127 -22 -184.5t73 -58.5q57 -1 100 49.5t70 151.5z" />
    <glyph glyph-name="one" unicode="1" horiz-adv-x="564" 
d="M505 164l-44 -164h-484l44 164h142l95 353h-142l39 146q19 0 36.5 2.5t33.5 7.5q17 5 32 13.5t28 19.5q15 13 24.5 27.5t13.5 29.5h200l-160 -599h142z" />
    <glyph glyph-name="two" unicode="2" horiz-adv-x="621" 
d="M532 164l-44 -164h-511l45 168q245 184 314.5 249.5t82.5 113.5q11 41 -7 60t-67 19q-52 0 -104 -14t-103 -41l46 173q52 23 112 35t122 12q114 0 172 -69t28 -175q-21 -75 -96.5 -154t-245.5 -209l2 -4h254z" />
    <glyph glyph-name="three" unicode="3" horiz-adv-x="617" 
d="M206 -10q-29 0 -56 1.5t-53 4.5q-35 5 -61.5 11t-43.5 13l48 176q20 -9 44 -16.5t52 -13.5q27 -6 52 -9t48 -3q54 0 86 17.5t42 51.5q12 42 -14.5 61.5t-101.5 19.5h-91l44 162h91q62 0 98.5 19.5t46.5 57.5q10 35 -7.5 51.5t-61.5 16.5q-27 0 -56 -5t-60 -15t-58 -21.5
t-50 -25.5l49 184q49 22 115 34.5t129 12.5q117 0 172.5 -64.5t28.5 -160.5q-14 -51 -55.5 -93.5t-98.5 -65.5l-1 -4q45 -20 67.5 -72t8.5 -113q-22 -101 -114.5 -156.5t-238.5 -55.5z" />
    <glyph glyph-name="four" unicode="4" horiz-adv-x="708" 
d="M306 0l44 163h-339l40 152l408 448h251l-119 -444h79l-41 -156h-79l-44 -163h-200zM269 322v-3h122l46 141q9 29 19.5 58t22.5 58h-3q-25 -27 -49.5 -56t-48.5 -60z" />
    <glyph glyph-name="five" unicode="5" horiz-adv-x="643" 
d="M196 -11q-26 0 -50.5 1.5t-48.5 4.5q-31 4 -55 9.5t-40 12.5l46 175q20 -8 43.5 -15t50.5 -12q27 -6 51.5 -9t45.5 -3q54 0 91.5 22t47.5 58q18 67 -37.5 88.5t-240.5 11.5l115 430h469l-43 -164h-269l-31 -112q140 4 203.5 -63.5t33.5 -190.5q-29 -118 -127 -181
t-255 -63z" />
    <glyph glyph-name="six" unicode="6" horiz-adv-x="711" 
d="M642 213q-30 -102 -118.5 -160.5t-215.5 -55.5q-147 3 -203 116t-7 304q47 181 161.5 273t292.5 92q49 0 94.5 -6.5t73.5 -18.5l-49 -182q-36 21 -76.5 32t-84.5 11q-81 0 -132 -41t-72 -122q36 21 75 31.5t79 10.5q114 0 166.5 -78.5t15.5 -205.5zM449 246
q10 48 -7.5 76t-57.5 28q-29 0 -59 -10t-54 -28q-18 -68 -1 -108t67 -43q42 -2 73 21t39 64z" />
    <glyph glyph-name="seven" unicode="7" horiz-adv-x="580" 
d="M641 611l-407 -611h-236l416 597v2h-306l43 164h530z" />
    <glyph glyph-name="eight" unicode="8" horiz-adv-x="724" 
d="M643 181q-27 -88 -115.5 -139.5t-216.5 -51.5q-141 0 -211 70.5t-40 175.5q14 49 57 93t107 76q-38 43 -49.5 85t-0.5 91q19 89 101 140.5t205 51.5q122 0 184 -62t41 -156q-10 -45 -47 -85t-93 -65q59 -39 79 -96.5t-1 -127.5zM505 546q9 31 -7.5 51t-51.5 20
q-30 0 -50 -13t-26 -37q-8 -31 9 -55t58 -40q31 19 46.5 36.5t21.5 37.5zM448 214q7 36 -18 63t-96 55q-32 -19 -53.5 -44.5t-29.5 -53.5q-11 -39 14 -63.5t77 -24.5q43 0 71.5 18t34.5 50z" />
    <glyph glyph-name="nine" unicode="9" horiz-adv-x="711" 
d="M131 562q30 102 118.5 160.5t215.5 55.5q147 -3 203 -116t7 -304q-47 -181 -161.5 -273t-292.5 -92q-49 0 -94.5 6.5t-73.5 18.5l49 182q36 -21 76.5 -32t84.5 -11q81 0 132 41t72 122q-36 -21 -75 -31.5t-79 -10.5q-114 0 -166.5 78.5t-15.5 205.5zM324 529
q-10 -48 7.5 -76t57.5 -28q29 0 59 10t54 28q18 68 1 108t-67 43q-42 2 -73 -21t-39 -64z" />
    <glyph glyph-name="colon" unicode=":" horiz-adv-x="324" 
d="M328 440q-14 -50 -57.5 -83.5t-94.5 -33.5q-53 0 -79.5 33.5t-12.5 83.5q13 50 57.5 83t96.5 33q51 0 77 -33t13 -83zM238 104q-14 -50 -57.5 -83.5t-94.5 -33.5q-53 0 -79.5 33.5t-12.5 83.5q13 50 57.5 83t96.5 33q51 0 77 -33t13 -83z" />
    <glyph glyph-name="semicolon" unicode=";" horiz-adv-x="343" 
d="M352 467q-14 -50 -57.5 -83.5t-94.5 -33.5q-53 0 -79.5 33.5t-12.5 83.5q13 50 57.5 83t96.5 33q51 0 77 -33t13 -83zM230 76l-246 -281l-105 64l199 286z" />
    <glyph glyph-name="less" unicode="&#x3c;" horiz-adv-x="742" 
d="M612 133l-91 -144l-450 213l38 141l564 213l15 -163l-346 -131z" />
    <glyph glyph-name="equal" unicode="=" horiz-adv-x="742" 
d="M711 492l-43 -160h-562l43 160h562zM636 212l-43 -160h-562l43 160h562z" />
    <glyph glyph-name="greater" unicode="&#x3e;" horiz-adv-x="742" 
d="M649 202l-564 -213l-16 165l343 130l-267 128l92 144l450 -213z" />
    <glyph glyph-name="question" unicode="?" horiz-adv-x="537" 
d="M582 591q-10 -39 -37 -73.5t-98 -89.5q-67 -52 -92 -83t-34 -66h-183q13 53 47.5 98.5t117.5 107.5q41 31 54.5 45t16.5 26q7 28 -10 41t-61 13q-42 0 -88 -13.5t-99 -41.5l46 173q48 21 108 34t111 13q114 0 169.5 -50t31.5 -134zM312 104q-14 -50 -57.5 -83.5
t-94.5 -33.5q-53 0 -79.5 33.5t-12.5 83.5q13 50 57.5 83t96.5 33q51 0 77 -33t13 -83z" />
    <glyph glyph-name="at" unicode="@" horiz-adv-x="849" 
d="M375 -82q49 0 105 9.5t87 24.5l-41 -152q-30 -15 -80.5 -24t-107.5 -9q-86 0 -154.5 35t-110.5 100q-39 61 -48 139t14 163q47 171 169.5 261.5t311.5 90.5q166 0 232.5 -81.5t24.5 -236.5l-64 -238h-155l-6 52l-4 1q-44 -35 -81.5 -49.5t-79.5 -14.5q-67 0 -103 57
t-16 127q24 83 94.5 120t204.5 37h35q2 4 4 10t2 7q7 25 -27 40.5t-96 15.5q-103 0 -180 -56.5t-103 -145.5q-34 -119 14.5 -201t158.5 -82zM550 216q-42 0 -63.5 -10.5t-26.5 -35.5q-4 -18 5.5 -30t27.5 -12q23 0 47 10t36 25l14 53h-40z" />
    <glyph glyph-name="A" unicode="A" horiz-adv-x="774" 
d="M259 140l-80 -140h-232l456 763h228l49 -763h-219l1 140h-203zM466 566q-12 -30 -32.5 -75t-37.5 -76l-62 -111h131l1 111q1 45 3 90t4 61h-7z" />
    <glyph glyph-name="B" unicode="B" horiz-adv-x="724" 
d="M515 763q121 0 176 -59t25 -159q-17 -57 -58 -94.5t-105 -54.5v-2q63 -11 91 -67.5t7 -135.5q-24 -90 -106 -140.5t-209 -50.5h-329l204 763h304zM351 470h61q34 0 56 16.5t30 48.5q9 31 -4.5 46.5t-47.5 15.5h-61zM269 166h78q39 0 66 19.5t36 53.5q8 30 -9.5 47.5
t-56.5 17.5h-77z" />
    <glyph glyph-name="C" unicode="C" horiz-adv-x="668" 
d="M304 405q-29 -110 -3 -169.5t101 -60.5q50 -1 107.5 15.5t107.5 45.5l-49 -189q-58 -31 -126 -46t-129 -11q-146 10 -208.5 133.5t-11.5 308.5q43 157 159.5 249t278.5 92q62 0 108.5 -10t84.5 -32l-53 -194q-32 27 -68 39.5t-84 12.5q-82 0 -136.5 -47t-78.5 -137z" />
    <glyph glyph-name="D" unicode="D" horiz-adv-x="775" 
d="M747 316q-40 -143 -164.5 -229.5t-299.5 -86.5h-276l204 763h263q183 0 257 -121t16 -326zM419 589h-36l-111 -415h58q74 0 130.5 50t78.5 129q32 120 2.5 178t-122.5 58z" />
    <glyph glyph-name="E" unicode="E" horiz-adv-x="644" 
d="M563 164l-44 -164h-512l204 763h481l-43 -164h-263l-35 -130h251l-44 -164h-251l-38 -141h294z" />
    <glyph glyph-name="F" unicode="F" horiz-adv-x="623" 
d="M211 763h481l-43 -164h-263l-35 -130h251l-44 -164h-251l-82 -305h-218z" />
    <glyph glyph-name="G" unicode="G" horiz-adv-x="775" 
d="M426 436h313l-103 -384q-81 -32 -149.5 -47t-137.5 -15q-89 0 -156 36t-101 103q-29 58 -31.5 134t22.5 169q44 164 165.5 252.5t300.5 88.5q75 0 129.5 -9.5t116.5 -35.5l-52 -193q-47 34 -94 50t-102 16q-103 0 -166.5 -53.5t-93.5 -165.5q-29 -109 -0.5 -165.5
t112.5 -56.5q12 0 25 1.5t24 4.5l29 106h-95z" />
    <glyph glyph-name="H" unicode="H" horiz-adv-x="812" 
d="M305 300l-80 -300h-218l204 763h218l-77 -289h216l77 289h218l-204 -763h-218l80 300h-216z" />
    <glyph glyph-name="I" unicode="I" horiz-adv-x="563" 
d="M474 164l-44 -164h-443l44 164h113l117 435h-113l43 164h443l-43 -164h-112l-117 -435h112z" />
    <glyph glyph-name="J" unicode="J" horiz-adv-x="603" 
d="M530 297q-43 -158 -130 -232.5t-230 -74.5q-52 0 -109 9.5t-78 22.5l53 197q34 -22 72 -32.5t72 -7.5q62 5 89.5 33.5t46.5 101.5l77 285h-233l43 164h451z" />
    <glyph glyph-name="K" unicode="K" horiz-adv-x="740" 
d="M303 291l-78 -291h-218l204 763h218l-76 -285q34 0 52 14t49 55q12 17 29.5 42t45.5 66q7 11 25.5 38t47.5 70h248l-221 -279q-26 -33 -51 -54.5t-55 -34.5l-1 -4q15 -11 28 -35.5t25 -63.5l92 -292h-235q-8 35 -11.5 53t-7.5 33q-6 27 -10.5 47t-7.5 36q-8 30 -13.5 50
t-11.5 33q-9 22 -20.5 30.5t-46.5 8.5z" />
    <glyph glyph-name="L" unicode="L" horiz-adv-x="614" 
d="M558 174l-47 -174h-504l204 763h218l-157 -589h286z" />
    <glyph glyph-name="M" unicode="M" horiz-adv-x="1022" 
d="M277 235l-66 -235h-219l257 763h219l19 -399q2 -39 2.5 -76t-1.5 -69h4q14 32 33.5 69t43.5 76l246 399h218l-149 -763h-220l62 235q13 49 26.5 96t27.5 91h-5q-20 -44 -45 -91.5t-55 -97.5l-137 -233h-193l-15 234q-3 50 -4 97t0 91h-5q-8 -45 -19 -92t-25 -95z" />
    <glyph glyph-name="N" unicode="N" horiz-adv-x="812" 
d="M299 315l-84 -315h-208l204 763h200l95 -311q10 -32 18.5 -63t16.5 -60l4 1q6 31 12.5 61t14.5 60l83 312h208l-204 -763h-200l-94 314q-9 32 -17.5 62.5t-16.5 60.5l-5 -1q-5 -30 -12 -60.5t-15 -60.5z" />
    <glyph glyph-name="O" unicode="O" horiz-adv-x="828" 
d="M814 350q-47 -175 -172 -268.5t-304 -87.5q-163 6 -236.5 123.5t-26.5 294.5q47 175 171 269.5t302 87.5q166 -5 240 -123t26 -296zM595 360q31 116 7.5 176.5t-100.5 61.5q-73 1 -128.5 -51t-80.5 -144q-31 -117 -8 -177t100 -61q74 -1 129.5 51t80.5 144z" />
    <glyph glyph-name="P" unicode="P" horiz-adv-x="695" 
d="M284 223l-60 -223h-217l204 763h258q154 0 220.5 -75.5t29.5 -213.5q-32 -121 -130 -186t-246 -65h-59zM437 593h-54l-54 -200h43q51 0 86.5 24t47.5 70q14 52 -3.5 79t-65.5 27z" />
    <glyph glyph-name="Q" unicode="Q" horiz-adv-x="828" 
d="M750 56l-160 -117l-51 86q-45 -17 -95.5 -25t-105.5 -6q-163 6 -236.5 123.5t-26.5 294.5q47 175 171 269.5t302 87.5q166 -5 240 -123t26 -296q-18 -69 -49.5 -126t-73.5 -100zM385 165q13 0 25 1.5t24 4.5l-72 85l157 118l51 -82q7 15 13.5 32t11.5 36
q31 116 7.5 176.5t-100.5 61.5q-73 1 -128.5 -51t-80.5 -144q-31 -117 -8 -177t100 -61z" />
    <glyph glyph-name="R" unicode="R" horiz-adv-x="731" 
d="M291 251l-67 -251h-217l204 763h253q155 0 224.5 -66t39.5 -188q-17 -68 -58 -119t-102 -80l70 -310h-228l-38 253q-13 -1 -29.5 -1.5t-30.5 -0.5h-21zM435 593h-52l-46 -172h48q49 0 81.5 21.5t43.5 61.5q12 41 -9.5 65t-65.5 24z" />
    <glyph glyph-name="S" unicode="S" horiz-adv-x="644" 
d="M576 204q-25 -102 -115.5 -158t-233.5 -56q-82 0 -137 8.5t-106 28.5l50 186q41 -28 96.5 -43t116.5 -15q48 0 76 15t36 45q6 23 -9 43t-76 55q-57 32 -83 53.5t-41 45.5q-22 32 -27 70.5t6 84.5q23 97 110.5 151.5t219.5 54.5q74 0 130.5 -11t93.5 -33l-52 -196
q-30 33 -83 52.5t-112 19.5q-42 0 -65 -11.5t-29 -35.5q-7 -25 8.5 -46.5t80.5 -60.5q55 -33 80.5 -53.5t41.5 -43.5q22 -31 28 -68.5t-5 -81.5z" />
    <glyph glyph-name="T" unicode="T" horiz-adv-x="608" 
d="M497 589l-158 -589h-216l158 589h-196l46 174h608l-46 -174h-196z" />
    <glyph glyph-name="U" unicode="U" horiz-adv-x="812" 
d="M635 93q-48 -54 -116 -78.5t-173 -24.5q-173 1 -231.5 96.5t-5.5 290.5l103 386h218l-106 -396q-14 -54 -18 -78.5t-4 -42.5q2 -36 22 -53t60 -17q36 0 63 16t47 49q12 19 22 46t24 80l106 396h218l-102 -381q-29 -108 -59.5 -176.5t-67.5 -112.5z" />
    <glyph glyph-name="V" unicode="V" horiz-adv-x="774" 
d="M885 763l-460 -763h-222l-52 763h219l-3 -539h4l283 539h231z" />
    <glyph glyph-name="W" unicode="W" horiz-adv-x="1072" 
d="M581 450l-241 -450h-218l49 763h220l-32 -253q-5 -40 -14 -96t-23 -128h5q33 67 61 123t52 102l131 252h187v-253q0 -44 -1 -100t-3 -124h5q23 72 42.5 128t36.5 96l106 253h219l-357 -763h-219l-2 450h-4z" />
    <glyph glyph-name="X" unicode="X" horiz-adv-x="747" 
d="M354 223l-173 -223h-240l347 417l-135 346h237l62 -210h4l166 210h237l-341 -394l146 -369h-236l-71 223h-3z" />
    <glyph glyph-name="Y" unicode="Y" horiz-adv-x="724" 
d="M473 281l-75 -281h-216l75 281l-136 482h237l35 -199q5 -30 8 -55.5t4 -52.5h6q33 60 43 76t21 32l140 199h244z" />
    <glyph glyph-name="Z" unicode="Z" horiz-adv-x="654" 
d="M578 174l-47 -174h-547l36 159l402 427l-1 3h-276l46 174h530l-41 -169l-400 -417l2 -3h296z" />
    <glyph glyph-name="bracketleft" unicode="[" horiz-adv-x="379" 
d="M466 635h-109l-188 -703h109l-42 -156h-309l272 1015h309z" />
    <glyph glyph-name="backslash" unicode="\" horiz-adv-x="529" 
d="M127 870h182l148 -948h-182z" />
    <glyph glyph-name="bracketright" unicode="]" horiz-adv-x="379" 
d="M216 635h-109l42 156h309l-272 -1015h-309l42 156h109z" />
    <glyph glyph-name="asciicircum" unicode="^" horiz-adv-x="792" 
d="M702 290v-217l-306 221l-306 -221v217l259 186h94z" />
    <glyph glyph-name="underscore" unicode="_" horiz-adv-x="570" 
d="M485 -64l-43 -160h-580l43 160h580z" />
    <glyph glyph-name="grave" unicode="`" horiz-adv-x="338" 
d="M251 925l179 -225l-101 -88l-220 189z" />
    <glyph glyph-name="a" unicode="a" horiz-adv-x="611" 
d="M303 53q-45 -36 -82.5 -50t-81.5 -14q-69 0 -103 55.5t-12 132.5q21 76 92.5 114.5t192.5 38.5h48q2 3 3 6.5t4 15.5q7 27 -12 39.5t-66 12.5q-45 0 -85.5 -7.5t-86.5 -24.5l42 157q47 13 96.5 19.5t100.5 6.5q135 0 181.5 -66.5t9.5 -204.5l-76 -284h-155l-6 52z
M308 228q-40 0 -62 -12.5t-30 -42.5q-6 -24 3 -38.5t32 -14.5q19 0 42.5 10.5t35.5 24.5l19 73h-40z" />
    <glyph glyph-name="b" unicode="b" horiz-adv-x="665" 
d="M625 272q-31 -131 -129.5 -206.5t-240.5 -75.5q-52 0 -107 14t-128 45l199 742h200l-78 -290l2 -2q40 32 79.5 46t84.5 11q79 -5 113 -83.5t5 -200.5zM250 159q11 -6 23 -9t25 -3q44 0 76.5 31t46.5 81q19 70 6 104.5t-57 34.5q-19 0 -35 -6.5t-28 -18.5z" />
    <glyph glyph-name="c" unicode="c" horiz-adv-x="510" 
d="M405 28q-46 -20 -88 -29.5t-82 -8.5q-120 4 -170.5 93.5t-13.5 231.5q28 107 116.5 173.5t209.5 66.5q47 0 83.5 -9t61.5 -27l-44 -163q-21 19 -50.5 30t-62.5 11q-46 0 -78.5 -29t-43.5 -80q-14 -62 1 -97t56 -38q37 -3 70.5 6t79.5 37z" />
    <glyph glyph-name="d" unicode="d" horiz-adv-x="666" 
d="M323 43q-31 -27 -70 -41.5t-78 -12.5q-85 4 -122.5 92t-3.5 220q28 111 107.5 183.5t175.5 71.5q34 -1 64.5 -8.5t53.5 -20.5l6 3l70 261h200l-212 -791h-200l11 41zM418 388q-8 7 -21.5 10.5t-28.5 3.5q-46 0 -78.5 -32t-46.5 -89q-16 -66 -2.5 -103t53.5 -37
q19 0 35.5 7.5t30.5 21.5z" />
    <glyph glyph-name="e" unicode="e" horiz-adv-x="585" 
d="M454 21q-50 -16 -98 -24t-99 -8q-129 0 -186.5 89.5t-18.5 238.5q28 109 116.5 176t206.5 63q143 -4 182 -99.5t-41 -233.5h-301q-5 -43 20 -63t84 -20q33 0 68 5.5t107 26.5zM405 359q10 35 -4.5 54.5t-49.5 19.5q-43 0 -70.5 -24t-41.5 -74h158q1 2 3 6.5t5 17.5z" />
    <glyph glyph-name="f" unicode="f" horiz-adv-x="479" 
d="M345 395l-106 -395h-200l106 395h-82l40 150h83q43 134 119 195t198 61q37 0 72 -5t70 -15l-43 -162q-29 10 -55 14t-56 4q-44 0 -68 -21t-37 -71h143l-40 -150h-144z" />
    <glyph glyph-name="g" unicode="g" horiz-adv-x="632" 
d="M-46 -79q7 24 27.5 46.5t51.5 41.5q-17 16 -22.5 37.5t1.5 47.5q7 27 31 58.5t72 76.5q-23 30 -28.5 69.5t7.5 85.5q23 79 95.5 125t181.5 46q42 0 76 -7t63 -21l161 38l-42 -157h-47q2 -65 -29 -119t-89 -87q-51 -30 -113.5 -37.5t-128.5 8.5q-8 -8 -14 -16t-8 -15
q-3 -12 2.5 -17t20.5 -5h135q89 0 132 -49.5t23 -126.5q-21 -82 -107.5 -130.5t-215.5 -48.5t-192.5 42.5t-43.5 113.5zM397 359q9 34 -2.5 52t-43.5 18t-54 -18.5t-31 -51.5t3.5 -51.5t43.5 -18.5q32 0 53.5 18t30.5 52zM183 -20h-18.5t-8.5 1q-7 -5 -12 -14t-8 -19
q-8 -30 11 -43t72 -13q50 0 79.5 12.5t35.5 36.5q6 21 -3 30t-37 9h-111z" />
    <glyph glyph-name="h" unicode="h" horiz-adv-x="686" 
d="M308 377l-101 -377h-200l212 791h200l-75 -281l3 -3q37 24 77.5 36.5t82.5 12.5q82 0 114 -54.5t6 -152.5l-94 -349h-200l85 317q12 44 5.5 64t-33.5 20q-19 0 -42 -7t-40 -17z" />
    <glyph glyph-name="i" unicode="i" horiz-adv-x="360" 
d="M426 744q-13 -50 -56.5 -83.5t-93.5 -33.5q-52 0 -77.5 33.5t-12.5 83.5q14 50 57.5 83t94.5 33t76.5 -33t11.5 -83zM353 545l-146 -545h-200l146 545h200z" />
    <glyph glyph-name="j" unicode="j" horiz-adv-x="360" 
d="M426 744q-13 -50 -56.5 -83.5t-93.5 -33.5q-52 0 -77.5 33.5t-12.5 83.5q14 50 57.5 83t94.5 33t76.5 -33t11.5 -83zM-167 -57q42 -4 73 -0.5t53 15.5q23 14 38.5 40t27.5 70l128 477h200l-126 -471q-26 -95 -64 -157t-93 -97q-51 -33 -122 -46t-162 -5z" />
    <glyph glyph-name="k" unicode="k" horiz-adv-x="626" 
d="M266 216l-59 -216h-200l212 791h200l-113 -425q26 0 42.5 14.5t54.5 61.5q10 14 25.5 33.5t53.5 69.5h202l-159 -183q-26 -30 -50 -48.5t-39 -21.5v-3q13 -3 28.5 -21.5t23.5 -43.5l70 -224h-202q-10 36 -14 51.5t-8 27.5q-8 29 -13 47.5t-9 31.5q-11 34 -19 46t-27 12z
" />
    <glyph glyph-name="l" unicode="l" horiz-adv-x="360" 
d="M419 791l-212 -791h-200l212 791h200z" />
    <glyph glyph-name="m" unicode="m" horiz-adv-x="994" 
d="M308 377l-101 -377h-200l146 545h200l-12 -45l3 -3q46 31 87.5 45t84.5 14q40 0 68 -17t41 -49q52 33 101.5 49.5t93.5 16.5q80 0 111 -52.5t6 -145.5l-96 -358h-200l86 319q12 44 6.5 63t-31.5 19q-17 0 -36 -6t-41 -18l-101 -377h-200l86 319q12 43 6 62.5t-32 19.5
q-17 0 -38.5 -7t-37.5 -17z" />
    <glyph glyph-name="n" unicode="n" horiz-adv-x="686" 
d="M308 377l-101 -377h-200l146 545h200l-9 -35l3 -3q37 24 77 36.5t83 12.5q81 0 113.5 -54t6.5 -150l-94 -352h-200l87 326q10 39 3.5 57t-32.5 18q-19 0 -42.5 -6.5t-40.5 -17.5z" />
    <glyph glyph-name="o" unicode="o" horiz-adv-x="639" 
d="M594 246q-31 -121 -121.5 -189t-220.5 -66q-129 2 -186.5 87t-19.5 219q34 123 123.5 191t216.5 66q131 -2 187 -85.5t21 -222.5zM396 261q19 72 9 106t-50 35q-39 1 -67 -29.5t-44 -89.5q-19 -72 -9 -105.5t50 -34.5q39 -1 67 29t44 89z" />
    <glyph glyph-name="p" unicode="p" horiz-adv-x="666" 
d="M211 15l-64 -239h-200l206 769h200l-11 -40l3 -2q33 28 71.5 41.5t78.5 11.5q83 -4 121 -86.5t9 -202.5q-29 -124 -108.5 -201t-182.5 -77q-33 0 -63.5 7.5t-53.5 21.5zM373 404q-19 0 -35.5 -7.5t-30.5 -21.5l-58 -218q9 -7 22 -10.5t28 -3.5q44 0 77.5 32t46.5 85
q16 68 3.5 106t-53.5 38z" />
    <glyph glyph-name="q" unicode="q" horiz-adv-x="666" 
d="M323 43q-29 -26 -68 -40.5t-79 -13.5q-86 3 -122 90t-5 216q29 120 107.5 190.5t188.5 70.5q34 0 65.5 -9t56.5 -26l196 34l-209 -779h-200l71 265zM418 388q-8 7 -21.5 10.5t-28.5 3.5q-45 0 -77 -31t-46 -86q-18 -67 -5.5 -105.5t53.5 -38.5q20 0 36.5 7.5t30.5 21.5z
" />
    <glyph glyph-name="r" unicode="r" horiz-adv-x="491" 
d="M285 292l-78 -292h-200l146 545h200l-17 -65l3 -3q48 43 86.5 61t76.5 18q10 0 21 -1t23 -4l-55 -205q-18 3 -25.5 3.5t-13.5 0.5q-58 0 -97 -13.5t-70 -44.5z" />
    <glyph glyph-name="s" unicode="s" horiz-adv-x="534" 
d="M451 148q-17 -74 -87.5 -117t-173.5 -43q-59 0 -109 8.5t-87 24.5l42 160q33 -21 77.5 -34.5t84.5 -13.5q30 0 46 6.5t20 19.5q4 15 -6 26.5t-52 31.5q-45 22 -66 38t-34 36q-15 24 -18.5 54.5t4.5 68.5q15 67 83 104t177 37q51 0 93 -6t82 -19l-42 -155q-22 15 -66 25.5
t-86 10.5q-27 0 -40 -5.5t-17 -19.5q-4 -13 6.5 -24t51.5 -30q45 -20 66 -35t34 -32q17 -23 21 -52t-4 -65z" />
    <glyph glyph-name="t" unicode="t" horiz-adv-x="500" 
d="M400 13q-36 -11 -73 -17t-76 -6q-97 0 -141 62.5t-17 162.5l48 180h-88l40 150h88l39 144h200l-39 -144h152l-40 -150h-152l-36 -136q-13 -48 -1.5 -72.5t47.5 -24.5q17 0 40.5 3.5t52.5 10.5z" />
    <glyph glyph-name="u" unicode="u" horiz-adv-x="686" 
d="M341 44q-40 -28 -80.5 -42t-81.5 -14q-78 0 -111.5 57t-8.5 151l94 348h200l-86 -321q-11 -42 -5 -61t30 -19q21 0 45 8.5t43 22.5l99 370h200l-146 -544h-200l11 41z" />
    <glyph glyph-name="v" unicode="v" horiz-adv-x="593" 
d="M666 545l-353 -545h-180l-60 545h206l-5 -246q0 -36 -2 -61.5t-5 -39.5h3q5 14 17 39.5t30 61.5l126 246h223z" />
    <glyph glyph-name="w" unicode="w" horiz-adv-x="856" 
d="M374 144l-76 -144h-169l-56 545h199l-4 -228q-1 -30 -2 -51.5t-3 -33.5h2q3 13 12 34t24 51l111 228h173l-7 -228q-1 -30 -1.5 -51.5t-0.5 -33.5h2q2 13 10 34t23 51l116 228h202l-326 -545h-169l-3 144q-1 39 -0.5 68t2.5 49h-4q-7 -20 -21 -49t-34 -68z" />
    <glyph glyph-name="x" unicode="x" horiz-adv-x="619" 
d="M272 136l-115 -136h-220l268 292l-106 253h211l43 -126h3l96 126h220l-256 -280l113 -265h-210l-43 136h-4z" />
    <glyph glyph-name="y" unicode="y" horiz-adv-x="613" 
d="M323 0q-94 -140 -168 -187t-189 -47q-15 0 -32.5 0.5t-35.5 2.5l47 174l27 -1.5t16 -0.5q54 0 93.5 17t61.5 49l-70 538h210l5 -246q1 -32 0.5 -55t-2.5 -36h3q3 13 13.5 36t28.5 55l136 246h219z" />
    <glyph glyph-name="z" unicode="z" horiz-adv-x="554" 
d="M484 162l-43 -162h-464l34 128l282 251l-1 4h-202l43 162h443l-34 -128l-284 -252l1 -3h225z" />
    <glyph glyph-name="braceleft" unicode="{" horiz-adv-x="383" 
d="M32 51q25 36 34.5 53.5t12.5 31.5q8 26 -4.5 49t-41.5 32l36 132q34 9 58 32t31 49q4 14 4 31.5t-5 53.5q-6 39 -6 58.5t4 36.5q28 103 118.5 151.5t227.5 33.5l-39 -146q-52 5 -76 -8.5t-34 -49.5q-4 -17 -4.5 -36.5t3.5 -57.5q4 -39 3.5 -59t-5.5 -38q-10 -37 -33 -62
t-75 -55q36 -30 45.5 -55t-0.5 -62q-4 -18 -14 -38t-36 -59q-25 -38 -34.5 -57.5t-14.5 -36.5q-9 -36 7.5 -49.5t71.5 -8.5l-39 -146q-146 -15 -210 33.5t-37 151.5q5 17 15.5 37t36.5 58z" />
    <glyph glyph-name="bar" unicode="|" horiz-adv-x="360" 
d="M-53 -224l272 1015h200l-272 -1015h-200z" />
    <glyph glyph-name="braceright" unicode="}" horiz-adv-x="383" 
d="M358 516q-25 -36 -34.5 -53.5t-13.5 -31.5q-7 -26 5.5 -49t41.5 -32l-36 -132q-34 -9 -58 -32t-31 -49q-4 -14 -4 -31.5t5 -53.5q6 -38 6 -58t-5 -37q-27 -102 -117 -151t-228 -34l39 146q51 -5 75.5 8.5t34.5 49.5q4 17 4.5 36.5t-3.5 57.5q-4 39 -3.5 59t5.5 38
q10 37 32.5 61.5t75.5 55.5q-36 31 -45.5 55.5t-0.5 61.5q5 18 15 38t36 59q25 38 34.5 57.5t14.5 36.5q9 36 -8 49.5t-71 8.5l39 146q146 15 210 -34t37 -151q-5 -17 -15.5 -37t-36.5 -58z" />
    <glyph glyph-name="asciitilde" unicode="~" horiz-adv-x="791" 
d="M425 356q35 -21 50 -27t27 -6q26 0 37.5 21t11.5 74h147q15 -126 -32 -205t-138 -79q-35 0 -70 11.5t-93 46.5q-34 21 -49 27t-26 6q-27 0 -38 -20.5t-11 -74.5h-147q-14 126 32.5 205t136.5 79q35 0 70 -11.5t92 -46.5z" />
    <glyph glyph-name="exclamdown" unicode="&#xa1;" horiz-adv-x="324" 
d="M73 435q14 50 57.5 83.5t94.5 33.5q53 0 79.5 -33.5t12.5 -83.5q-13 -50 -57.5 -83t-96.5 -33q-51 0 -77 33t-13 83zM202 65q-27 -116 -42 -176.5t-28 -112.5h-211q12 47 28 102t48 161q29 97 42 141.5t22 79.5h188q-8 -31 -17.5 -70.5t-29.5 -124.5z" />
    <glyph glyph-name="cent" unicode="&#xa2;" horiz-adv-x="510" 
d="M406 138q-23 -10 -45.5 -17.5t-44.5 -12.5l-28 -108h-200l34 129h6q-62 36 -82.5 113.5t6.5 182.5q21 79 76 137.5t133 84.5l31 116h200l-29 -107q18 -5 33 -11.5t27 -15.5l-44 -163q-21 19 -50.5 30t-62.5 11q-46 0 -78.5 -29t-43.5 -80q-14 -62 1 -97t56 -38
q37 -3 70.5 6t79.5 37z" />
    <glyph glyph-name="sterling" unicode="&#xa3;" horiz-adv-x="688" 
d="M609 164l-44 -164h-578l44 164h86q29 33 46.5 69t24.5 77h-104l44 164h69q2 25 4.5 48.5t7.5 41.5q25 101 107 155t211 54q65 0 123.5 -13.5t84.5 -34.5l-45 -170q-18 22 -65.5 39.5t-94.5 17.5q-63 0 -93 -18t-40 -58q-2 -6 -4 -22.5t-5 -39.5h258l-44 -164h-236
q-1 -2 -1.5 -4t-0.5 -4q-10 -41 -25 -75.5t-34 -62.5h304z" />
    <glyph glyph-name="currency" unicode="&#xa4;" horiz-adv-x="691" 
d="M592 90l-143 -113l-72 97q-21 -7 -43.5 -11t-45.5 -4t-43.5 3.5t-37.5 10.5l-123 -96l-83 113l123 97q-2 19 0 40.5t8 44.5t15.5 44.5t21.5 41.5l-70 96l144 113l70 -96q21 7 43.5 10.5t45.5 3.5t43.5 -4t37.5 -11l123 97l84 -113l-124 -98q2 -19 0 -40t-8 -44t-15.5 -44
t-21.5 -40zM406 272q7 28 -5 44.5t-40 16.5t-49 -16.5t-28 -44.5q-8 -28 4.5 -44.5t40.5 -16.5q27 0 48 16.5t29 44.5z" />
    <glyph glyph-name="yen" unicode="&#xa5;" horiz-adv-x="744" 
d="M595 115h-156l-31 -115h-216l31 115h-172l27 101h172l17 65l-1 4h-170l27 101h114l-106 377h237l35 -199q5 -30 8 -55.5t4 -52.5h6q33 60 43 76t21 32l140 199h244l-302 -377h100l-27 -101h-154l-3 -4l-17 -65h156z" />
    <glyph glyph-name="brokenbar" unicode="&#xa6;" horiz-adv-x="360" 
d="M112 390l107 401h200l-107 -401h-200zM-53 -224l108 405h200l-108 -405h-200z" />
    <glyph glyph-name="section" unicode="&#xa7;" horiz-adv-x="724" 
d="M563 9q-32 -120 -129.5 -182t-254.5 -62q-63 0 -114.5 9t-100.5 28l50 186q41 -28 96.5 -43t115.5 -15q49 0 76.5 15t35.5 45q6 20 -12 36t-88 43q-64 25 -94.5 41.5t-50.5 36.5q-31 29 -39.5 67.5t3.5 85.5q12 42 38.5 77.5t71.5 66.5q-10 21 -10.5 46.5t6.5 54.5
q29 108 124 168t237 60q58 0 111 -11.5t88 -32.5l-52 -196q-30 33 -83 52.5t-112 19.5q-42 0 -65 -11.5t-29 -35.5q-6 -22 13 -39.5t94 -47.5q62 -25 91 -40.5t48 -33.5q33 -28 43 -63.5t-2 -79.5q-12 -42 -38 -78t-75 -72q11 -20 13 -44t-6 -51zM376 218q16 -6 29.5 -11
t24.5 -10q9 9 16 21t11 27q5 19 -13.5 35t-91.5 42q-19 7 -34.5 13t-28.5 11q-9 -7 -15.5 -17.5t-10.5 -25.5q-5 -21 15 -38.5t98 -46.5z" />
    <glyph glyph-name="dieresis" unicode="&#xa8;" horiz-adv-x="524" 
d="M298 874q44 0 65 -28.5t9 -71.5q-11 -42 -47.5 -70.5t-79.5 -28.5q-44 0 -65.5 28.5t-10.5 70.5q12 43 48.5 71.5t80.5 28.5zM548 873q43 0 65 -28.5t10 -70.5q-11 -42 -48 -70.5t-80 -28.5q-44 0 -65.5 28.5t-10.5 70.5q12 42 48.5 70.5t80.5 28.5z" />
    <glyph glyph-name="copyright" unicode="&#xa9;" horiz-adv-x="838" 
d="M449 773q165 0 272 -111t107 -281t-107 -280.5t-272 -110.5t-272 110.5t-107 280.5t107 281t272 111zM449 676q-123 0 -203 -83.5t-80 -211.5t80 -211.5t203 -83.5t203 83.5t80 211.5t-80 211.5t-203 83.5zM577 188q-32 -13 -63 -19t-62 -6q-95 0 -151 61t-56 160t54 155
t153 56q37 0 66 -6t57 -19v-133q-19 10 -42 15.5t-50 5.5q-38 0 -57.5 -19t-19.5 -55q0 -40 19 -59.5t58 -19.5q28 0 51 5.5t43 16.5v-139z" />
    <glyph glyph-name="ordfeminine" unicode="&#xaa;" horiz-adv-x="480" 
d="M339 480q-32 -24 -57 -33t-54 -9q-48 0 -71 34t-9 83q15 54 62 78t135 24h27q1 3 2 5.5t2 5.5q4 17 -8.5 24.5t-44.5 7.5q-28 0 -53 -4.5t-63 -16.5l29 106q32 9 66 13t71 4q88 0 122 -44.5t11 -131.5l-49 -181h-111l-5 34zM340 583q-24 0 -37 -5t-19 -20
q-5 -11 1.5 -20.5t18.5 -9.5q15 0 30 6t22 15l9 34h-25zM457 392l-32 -118h-360l32 118h360z" />
    <glyph glyph-name="guillemotleft" unicode="&#xab;" horiz-adv-x="768" 
d="M340 120l-124 -120l-200 204l36 137l310 204l70 -139l-216 -152zM694 120l-124 -120l-200 204l36 137l310 204l70 -139l-216 -152z" />
    <glyph glyph-name="logicalnot" unicode="&#xac;" horiz-adv-x="742" 
d="M111 352h562l-94 -352h-170l51 192h-392z" />
    <glyph glyph-name="hyphensoft" unicode="&#xad;" horiz-adv-x="480" 
d="M462 353l-43 -160h-400l43 160h400z" />
    <glyph glyph-name="registered" unicode="&#xae;" horiz-adv-x="721" 
d="M422 826q140 0 230.5 -93t90.5 -237q0 -143 -90.5 -236t-230.5 -93q-139 0 -229.5 93t-90.5 236q0 144 90.5 237t229.5 93zM422 733q-98 0 -162.5 -67t-64.5 -170q0 -102 64.5 -169t162.5 -67q99 0 163.5 67t64.5 169q0 103 -64.5 170t-163.5 67zM408 442v-93h-105v304
h122q65 0 98.5 -25.5t33.5 -74.5q0 -26 -10 -48t-28 -35l54 -121h-117l-32 93h-16zM425 574h-17v-52h12q16 0 23.5 6.5t7.5 20.5q0 12 -7 18.5t-19 6.5z" />
    <glyph glyph-name="macron" unicode="&#xaf;" horiz-adv-x="422" 
d="M564 840l-35 -132h-402l35 132h402z" />
    <glyph glyph-name="degree" unicode="&#xb0;" horiz-adv-x="482" 
d="M137 589q22 86 84 135.5t150 49.5q82 0 124.5 -57.5t19.5 -140.5q-22 -83 -87 -133.5t-148 -50.5q-82 0 -123 56.5t-20 140.5zM414 576q12 44 -6.5 71t-61.5 27q-38 0 -67.5 -23.5t-39.5 -61.5q-11 -43 7 -69.5t59 -26.5q37 0 68 23.5t41 59.5z" />
    <glyph glyph-name="plusminus" unicode="&#xb1;" horiz-adv-x="742" 
d="M622 160l-43 -160h-562l43 160h196l24 88h-197l43 160h197l36 136h170l-36 -136h195l-43 -160h-195l-24 -88h196z" />
    <glyph glyph-name="twosuperior" unicode="&#xb2;" horiz-adv-x="474" 
d="M451 395l-33 -122h-379l33 121q131 90 185.5 136.5t63.5 78.5q5 19 -8 28.5t-44 9.5q-33 0 -64 -7t-66 -23l35 128q44 15 92.5 22t93.5 4q80 -5 120.5 -49t20.5 -110q-14 -46 -62.5 -96t-141.5 -118l1 -3h153z" />
    <glyph glyph-name="threesuperior" unicode="&#xb3;" horiz-adv-x="475" 
d="M456 391q-16 -61 -84.5 -92.5t-187.5 -31.5q-43 0 -79 4t-64 12l35 130q44 -12 81.5 -18t68.5 -6q27 0 41 8.5t19 28.5q5 17 -7.5 24.5t-47.5 7.5h-71l32 121h71q29 0 45 8.5t21 27.5q4 17 -6.5 25.5t-37.5 8.5q-16 0 -36 -4t-44 -13q-20 -7 -38.5 -15t-35.5 -17l37 139
q39 15 90 23.5t99 8.5q88 0 129.5 -38.5t25.5 -98.5q-10 -38 -38 -67t-67 -45l-1 -4q36 -17 49 -49.5t1 -77.5z" />
    <glyph glyph-name="acute" unicode="&#xb4;" horiz-adv-x="440" 
d="M525 803l-274 -188l-70 92l231 217z" />
    <glyph glyph-name="mu.math" unicode="&#xb5;" horiz-adv-x="686" 
d="M339 38q-31 -20 -65 -32.5t-70 -15.5l-57 -214h-200l126 470v0l80 299h200l-87 -326q-12 -42 -6 -58.5t33 -16.5q20 0 44 6.5t41 17.5l101 377h200l-146 -544h-200l9 34z" />
    <glyph glyph-name="paragraph" unicode="&#xb6;" horiz-adv-x="854" 
d="M616 763l-225 -841h-200l94 351q-102 0 -153 77t-21 190q28 108 107 165.5t198 57.5h200zM706 763h200l-225 -841h-200z" />
    <glyph glyph-name="periodcentered" unicode="&#xb7;" horiz-adv-x="324" 
d="M288 309q-14 -50 -57.5 -83.5t-94.5 -33.5q-53 0 -79.5 33.5t-12.5 83.5q13 50 57.5 83t96.5 33q51 0 77 -33t13 -83z" />
    <glyph glyph-name="cedilla" unicode="&#xb8;" horiz-adv-x="320" 
d="M198 -107q-15 -57 -68.5 -93t-118.5 -36q-34 0 -65 5.5t-56 15.5l34 124q17 -9 30.5 -13t27.5 -4q21 0 35.5 12t20.5 33q5 19 0 36t-26 40l123 23q32 -26 42 -37t16 -23q9 -18 10.5 -38.5t-5.5 -44.5z" />
    <glyph glyph-name="onesuperior" unicode="&#xb9;" horiz-adv-x="428" 
d="M421 395l-33 -122h-362l33 122h90l53 197h-85l29 109q18 0 33.5 3.5t27.5 11.5q17 9 27 20.5t13 26.5h181l-98 -368h91z" />
    <glyph glyph-name="ordmasculine" unicode="&#xba;" horiz-adv-x="505" 
d="M541 607q-22 -83 -84 -127t-156 -43q-84 2 -123.5 57t-16.5 140q21 81 82 123t155 41q83 -2 124 -55.5t19 -135.5zM399 616q12 42 5 62.5t-32 21.5q-25 0 -42.5 -20t-29.5 -62q-11 -43 -4.5 -63t31.5 -21q25 0 43 20.5t29 61.5zM469 392l-32 -118h-360l32 118h360z" />
    <glyph glyph-name="guillemotright" unicode="&#xbb;" horiz-adv-x="763" 
d="M425 425l124 120l200 -204l-36 -137l-310 -204l-70 139l216 152zM71 425l124 120l200 -204l-36 -137l-310 -204l-70 139l216 152z" />
    <glyph glyph-name="onequarter" unicode="&#xbc;" horiz-adv-x="1233" 
d="M452 395l-33 -122h-362l33 122h90l53 197h-85l29 109q18 0 33.5 3.5t27.5 11.5q17 9 27 20.5t13 26.5h181l-98 -368h91zM1000 763l-533 -763h-182l533 763h182zM921 0l27 100h-237l30 114l262 276h229l-73 -273h49l-31 -117h-49l-27 -100h-180zM913 219l-2 -2h68l21 62
q3 10 12.5 38t15.5 44h-2q-9 -16 -33 -45t-31 -37z" />
    <glyph glyph-name="onehalf" unicode="&#xbd;" horiz-adv-x="1236" 
d="M452 395l-33 -122h-362l33 122h90l53 197h-85l29 109q18 0 33.5 3.5t27.5 11.5q17 9 27 20.5t13 26.5h181l-98 -368h91zM1000 763l-533 -763h-182l533 763h182zM1194 122l-33 -122h-379l33 121q131 90 185.5 136.5t63.5 78.5q5 19 -8 28.5t-44 9.5q-33 0 -64 -7t-66 -23
l35 128q44 15 92.5 22t93.5 4q80 -5 120.5 -49t20.5 -110q-14 -46 -62.5 -96t-141.5 -118l1 -3h153z" />
    <glyph glyph-name="threequarters" unicode="&#xbe;" horiz-adv-x="1229" 
d="M475 391q-16 -61 -84.5 -92.5t-187.5 -31.5q-43 0 -79 4t-64 12l35 130q44 -12 81.5 -18t68.5 -6q27 0 41 8.5t19 28.5q5 17 -7.5 24.5t-47.5 7.5h-71l32 121h71q29 0 45 8.5t21 27.5q4 17 -6.5 25.5t-37.5 8.5q-16 0 -36 -4t-44 -13q-20 -7 -38.5 -15t-35.5 -17l37 139
q39 15 90 23.5t99 8.5q88 0 129.5 -38.5t25.5 -98.5q-10 -38 -38 -67t-67 -45l-1 -4q36 -17 49 -49.5t1 -77.5zM996 763l-533 -763h-182l533 763h182zM917 0l27 100h-237l30 114l262 276h229l-73 -273h49l-31 -117h-49l-27 -100h-180zM909 219l-2 -2h68l21 62q3 10 12.5 38
t15.5 44h-2q-9 -16 -33 -45t-31 -37z" />
    <glyph glyph-name="questiondown" unicode="&#xbf;" horiz-adv-x="537" 
d="M225 437q14 50 57.5 83.5t94.5 33.5q53 0 79.5 -33.5t12.5 -83.5q-13 -50 -57.5 -83t-96.5 -33q-51 0 -77 33t-13 83zM-45 -50q10 39 37 73.5t98 89.5q67 52 92 83t34 66h183q-13 -53 -47.5 -98.5t-117.5 -107.5q-41 -31 -54.5 -45t-16.5 -26q-7 -28 10 -41t61 -13
q42 0 88 13.5t99 41.5l-46 -173q-48 -21 -108 -34t-111 -13q-114 0 -169.5 50t-31.5 134z" />
    <glyph glyph-name="Agrave" unicode="&#xc0;" horiz-adv-x="774" 
d="M545 807l-297 153l130 131l250 -186zM259 140l-80 -140h-232l456 763h228l49 -763h-219l1 140h-203zM466 566q-12 -30 -32.5 -75t-37.5 -76l-62 -111h131l1 111q1 45 3 90t4 61h-7z" />
    <glyph glyph-name="Aacute" unicode="&#xc1;" horiz-adv-x="774" 
d="M833 938l-334 -139l-34 121l306 170zM259 140l-80 -140h-232l456 763h228l49 -763h-219l1 140h-203zM466 566q-12 -30 -32.5 -75t-37.5 -76l-62 -111h131l1 111q1 45 3 90t4 61h-7z" />
    <glyph glyph-name="Acircumflex" unicode="&#xc2;" horiz-adv-x="774" 
d="M571 919l-184 -105l-66 90l211 162h135l125 -162l-96 -90zM259 140l-80 -140h-232l456 763h228l49 -763h-219l1 140h-203zM466 566q-12 -30 -32.5 -75t-37.5 -76l-62 -111h131l1 111q1 45 3 90t4 61h-7z" />
    <glyph glyph-name="Atilde" unicode="&#xc3;" horiz-adv-x="774" 
d="M821 1041q-18 -103 -66 -156t-122 -53q-22 0 -41.5 7.5t-47.5 29.5q-18 14 -26.5 18t-16.5 4q-25 0 -38 -12.5t-25 -48.5h-129q18 103 66 156t123 53q24 0 44.5 -7t50.5 -28q19 -13 28 -17t17 -4q21 0 32.5 12.5t21.5 45.5h129zM259 140l-80 -140h-232l456 763h228
l49 -763h-219l1 140h-203zM466 566q-12 -30 -32.5 -75t-37.5 -76l-62 -111h131l1 111q1 45 3 90t4 61h-7z" />
    <glyph glyph-name="Adieresis" unicode="&#xc4;" horiz-adv-x="774" 
d="M530 944q-11 -42 -47.5 -70.5t-80.5 -28.5q-43 0 -64.5 28.5t-10.5 70.5q11 43 48 71.5t81 28.5q43 0 64 -28.5t10 -71.5zM808 944q-11 -42 -48 -70.5t-81 -28.5q-43 0 -64.5 28.5t-10.5 70.5t48 70.5t80 28.5q44 0 65.5 -28.5t10.5 -70.5zM259 140l-80 -140h-232
l456 763h228l49 -763h-219l1 140h-203zM466 566q-12 -30 -32.5 -75t-37.5 -76l-62 -111h131l1 111q1 45 3 90t4 61h-7z" />
    <glyph glyph-name="Aring" unicode="&#xc5;" horiz-adv-x="774" 
d="M592 1079q91 -2 139.5 -45t31.5 -103q-16 -59 -77.5 -95t-147.5 -35q-91 2 -138 46t-30 108q14 55 76.5 90t145.5 34zM579 989q-36 1 -61 -12t-31 -36q-6 -22 12 -35.5t54 -14.5t61 12t31 36q6 22 -12 35.5t-54 14.5zM259 140l-80 -140h-232l456 763h228l49 -763h-219
l1 140h-203zM466 566q-12 -30 -32.5 -75t-37.5 -76l-62 -111h131l1 111q1 45 3 90t4 61h-7z" />
    <glyph glyph-name="AE" unicode="&#xc6;" horiz-adv-x="1015" 
d="M-82 0l512 763h633l-43 -164h-263l-35 -130h251l-44 -164h-251l-38 -141h294l-44 -164h-512l37 140h-183l-89 -140h-225zM531 609l-194 -305h122l82 305h-10z" />
    <glyph glyph-name="Ccedilla" unicode="&#xc7;" horiz-adv-x="668" 
d="M419 -107q-15 -57 -68.5 -93t-118.5 -36q-34 0 -65 5.5t-56 15.5l34 124q17 -9 30.5 -13t27.5 -4q21 0 35.5 12t20.5 33q4 17 1 32.5t-19 34.5q-109 36 -150.5 151.5t2.5 276.5q43 157 159.5 249t278.5 92q62 0 108.5 -10t84.5 -32l-53 -194q-32 27 -68 39.5t-84 12.5
q-82 0 -136.5 -47t-78.5 -137q-29 -110 -3 -169.5t101 -60.5q50 -1 107.5 15.5t107.5 45.5l-49 -189q-38 -20 -80.5 -33.5t-84.5 -19.5q3 -5 6 -9t5 -9q9 -18 10.5 -38.5t-5.5 -44.5z" />
    <glyph glyph-name="Egrave" unicode="&#xc8;" horiz-adv-x="644" 
d="M526 807l-297 153l130 131l250 -186zM563 164l-44 -164h-512l204 763h481l-43 -164h-263l-35 -130h251l-44 -164h-251l-38 -141h294z" />
    <glyph glyph-name="Eacute" unicode="&#xc9;" horiz-adv-x="644" 
d="M730 938l-334 -139l-34 121l306 170zM563 164l-44 -164h-512l204 763h481l-43 -164h-263l-35 -130h251l-44 -164h-251l-38 -141h294z" />
    <glyph glyph-name="Ecircumflex" unicode="&#xca;" horiz-adv-x="644" 
d="M516 919l-184 -105l-66 90l211 162h135l125 -162l-96 -90zM563 164l-44 -164h-512l204 763h481l-43 -164h-263l-35 -130h251l-44 -164h-251l-38 -141h294z" />
    <glyph glyph-name="Edieresis" unicode="&#xcb;" horiz-adv-x="644" 
d="M475 944q-11 -42 -47.5 -70.5t-80.5 -28.5q-43 0 -64.5 28.5t-10.5 70.5q11 43 48 71.5t81 28.5q43 0 64 -28.5t10 -71.5zM753 944q-11 -42 -48 -70.5t-81 -28.5q-43 0 -64.5 28.5t-10.5 70.5t48 70.5t80 28.5q44 0 65.5 -28.5t10.5 -70.5zM563 164l-44 -164h-512
l204 763h481l-43 -164h-263l-35 -130h251l-44 -164h-251l-38 -141h294z" />
    <glyph glyph-name="Igrave" unicode="&#xcc;" horiz-adv-x="563" 
d="M420 807l-297 153l130 131l250 -186zM474 164l-44 -164h-443l44 164h113l117 435h-113l43 164h443l-43 -164h-112l-117 -435h112z" />
    <glyph glyph-name="Iacute" unicode="&#xcd;" horiz-adv-x="563" 
d="M708 938l-334 -139l-34 121l306 170zM474 164l-44 -164h-443l44 164h113l117 435h-113l43 164h443l-43 -164h-112l-117 -435h112z" />
    <glyph glyph-name="Icircumflex" unicode="&#xce;" horiz-adv-x="563" 
d="M465 919l-184 -105l-66 90l211 162h135l125 -162l-96 -90zM474 164l-44 -164h-443l44 164h113l117 435h-113l43 164h443l-43 -164h-112l-117 -435h112z" />
    <glyph glyph-name="Idieresis" unicode="&#xcf;" horiz-adv-x="563" 
d="M424 944q-11 -42 -47.5 -70.5t-80.5 -28.5q-43 0 -64.5 28.5t-10.5 70.5q11 43 48 71.5t81 28.5q43 0 64 -28.5t10 -71.5zM702 944q-11 -42 -48 -70.5t-81 -28.5q-43 0 -64.5 28.5t-10.5 70.5t48 70.5t80 28.5q44 0 65.5 -28.5t10.5 -70.5zM474 164l-44 -164h-443l44 164
h113l117 435h-113l43 164h443l-43 -164h-112l-117 -435h112z" />
    <glyph glyph-name="Eth" unicode="&#xd0;" horiz-adv-x="775" 
d="M747 316q-40 -143 -164.5 -229.5t-299.5 -86.5h-276l84 313h-92l43 160h91l78 290h263q183 0 257 -121t16 -326zM272 174h58q74 0 130.5 50t78.5 129q32 120 2.5 178t-122.5 58h-36l-31 -116h90l-43 -160h-90z" />
    <glyph glyph-name="Ntilde" unicode="&#xd1;" horiz-adv-x="812" 
d="M840 1041q-18 -103 -66 -156t-122 -53q-22 0 -41.5 7.5t-47.5 29.5q-18 14 -26.5 18t-16.5 4q-25 0 -38 -12.5t-25 -48.5h-129q18 103 66 156t123 53q24 0 44.5 -7t50.5 -28q19 -13 28 -17t17 -4q21 0 32.5 12.5t21.5 45.5h129zM299 315l-84 -315h-208l204 763h200
l95 -311q10 -32 18.5 -63t16.5 -60l4 1q6 31 12.5 61t14.5 60l83 312h208l-204 -763h-200l-94 314q-9 32 -17.5 62.5t-16.5 60.5l-5 -1q-5 -30 -12 -60.5t-15 -60.5z" />
    <glyph glyph-name="Ograve" unicode="&#xd2;" horiz-adv-x="828" 
d="M599 807l-297 153l130 131l250 -186zM814 350q-47 -175 -172 -268.5t-304 -87.5q-163 6 -236.5 123.5t-26.5 294.5q47 175 171 269.5t302 87.5q166 -5 240 -123t26 -296zM595 360q31 116 7.5 176.5t-100.5 61.5q-73 1 -128.5 -51t-80.5 -144q-31 -117 -8 -177t100 -61
q74 -1 129.5 51t80.5 144z" />
    <glyph glyph-name="Oacute" unicode="&#xd3;" horiz-adv-x="828" 
d="M855 938l-334 -139l-34 121l306 170zM814 350q-47 -175 -172 -268.5t-304 -87.5q-163 6 -236.5 123.5t-26.5 294.5q47 175 171 269.5t302 87.5q166 -5 240 -123t26 -296zM595 360q31 116 7.5 176.5t-100.5 61.5q-73 1 -128.5 -51t-80.5 -144q-31 -117 -8 -177t100 -61
q74 -1 129.5 51t80.5 144z" />
    <glyph glyph-name="Ocircumflex" unicode="&#xd4;" horiz-adv-x="828" 
d="M599 919l-184 -105l-66 90l211 162h135l125 -162l-96 -90zM814 350q-47 -175 -172 -268.5t-304 -87.5q-163 6 -236.5 123.5t-26.5 294.5q47 175 171 269.5t302 87.5q166 -5 240 -123t26 -296zM595 360q31 116 7.5 176.5t-100.5 61.5q-73 1 -128.5 -51t-80.5 -144
q-31 -117 -8 -177t100 -61q74 -1 129.5 51t80.5 144z" />
    <glyph glyph-name="Otilde" unicode="&#xd5;" horiz-adv-x="828" 
d="M849 1042q-18 -103 -66 -156t-122 -53q-22 0 -41.5 7.5t-47.5 29.5q-18 14 -26.5 18t-16.5 4q-25 0 -38 -12.5t-25 -48.5h-129q18 103 66 156t123 53q24 0 44.5 -7t50.5 -28q19 -13 28 -17t17 -4q21 0 32.5 12.5t21.5 45.5h129zM814 350q-47 -175 -172 -268.5t-304 -87.5
q-163 6 -236.5 123.5t-26.5 294.5q47 175 171 269.5t302 87.5q166 -5 240 -123t26 -296zM595 360q31 116 7.5 176.5t-100.5 61.5q-73 1 -128.5 -51t-80.5 -144q-31 -117 -8 -177t100 -61q74 -1 129.5 51t80.5 144z" />
    <glyph glyph-name="Odieresis" unicode="&#xd6;" horiz-adv-x="828" 
d="M558 944q-11 -42 -47.5 -70.5t-80.5 -28.5q-43 0 -64.5 28.5t-10.5 70.5q11 43 48 71.5t81 28.5q43 0 64 -28.5t10 -71.5zM836 944q-11 -42 -48 -70.5t-81 -28.5q-43 0 -64.5 28.5t-10.5 70.5t48 70.5t80 28.5q44 0 65.5 -28.5t10.5 -70.5zM814 350q-47 -175 -172 -268.5
t-304 -87.5q-163 6 -236.5 123.5t-26.5 294.5q47 175 171 269.5t302 87.5q166 -5 240 -123t26 -296zM595 360q31 116 7.5 176.5t-100.5 61.5q-73 1 -128.5 -51t-80.5 -144q-31 -117 -8 -177t100 -61q74 -1 129.5 51t80.5 144z" />
    <glyph glyph-name="multiply" unicode="&#xd7;" horiz-adv-x="731" 
d="M597 110l-143 -113l-119 162l-206 -162l-83 113l206 162l-119 162l145 113l118 -161l205 161l83 -113l-205 -162z" />
    <glyph glyph-name="Oslash" unicode="&#xd8;" horiz-adv-x="828" 
d="M337 -6q-56 2 -102 18t-81 44l-83 -76l-62 60l88 81q-33 55 -39.5 129.5t16.5 161.5q47 175 171 269.5t302 87.5q57 -2 104 -18t82 -44l83 76l62 -60l-88 -81q33 -55 40 -130t-17 -162q-47 -175 -172 -268.5t-304 -87.5zM292 403q-9 -35 -13.5 -65t-4.5 -54l308 284
q-13 15 -33.5 22.5t-47.5 7.5q-73 1 -128.5 -51t-80.5 -144zM384 165q74 -1 129.5 51t80.5 144q9 34 13.5 64t4.5 54l-309 -284q14 -14 34.5 -21.5t46.5 -7.5z" />
    <glyph glyph-name="Ugrave" unicode="&#xd9;" horiz-adv-x="812" 
d="M565 807l-297 153l130 131l250 -186zM635 93q-48 -54 -116 -78.5t-173 -24.5q-173 1 -231.5 96.5t-5.5 290.5l103 386h218l-106 -396q-14 -54 -18 -78.5t-4 -42.5q2 -36 22 -53t60 -17q36 0 63 16t47 49q12 19 22 46t24 80l106 396h218l-102 -381q-29 -108 -59.5 -176.5
t-67.5 -112.5z" />
    <glyph glyph-name="Uacute" unicode="&#xda;" horiz-adv-x="812" 
d="M876 938l-334 -139l-34 121l306 170zM635 93q-48 -54 -116 -78.5t-173 -24.5q-173 1 -231.5 96.5t-5.5 290.5l103 386h218l-106 -396q-14 -54 -18 -78.5t-4 -42.5q2 -36 22 -53t60 -17q36 0 63 16t47 49q12 19 22 46t24 80l106 396h218l-102 -381q-29 -108 -59.5 -176.5
t-67.5 -112.5z" />
    <glyph glyph-name="Ucircumflex" unicode="&#xdb;" horiz-adv-x="812" 
d="M591 919l-184 -105l-66 90l211 162h135l125 -162l-96 -90zM635 93q-48 -54 -116 -78.5t-173 -24.5q-173 1 -231.5 96.5t-5.5 290.5l103 386h218l-106 -396q-14 -54 -18 -78.5t-4 -42.5q2 -36 22 -53t60 -17q36 0 63 16t47 49q12 19 22 46t24 80l106 396h218l-102 -381
q-29 -108 -59.5 -176.5t-67.5 -112.5z" />
    <glyph glyph-name="Udieresis" unicode="&#xdc;" horiz-adv-x="812" 
d="M550 944q-11 -42 -47.5 -70.5t-80.5 -28.5q-43 0 -64.5 28.5t-10.5 70.5q11 43 48 71.5t81 28.5q43 0 64 -28.5t10 -71.5zM828 944q-11 -42 -48 -70.5t-81 -28.5q-43 0 -64.5 28.5t-10.5 70.5t48 70.5t80 28.5q44 0 65.5 -28.5t10.5 -70.5zM635 93q-48 -54 -116 -78.5
t-173 -24.5q-173 1 -231.5 96.5t-5.5 290.5l103 386h218l-106 -396q-14 -54 -18 -78.5t-4 -42.5q2 -36 22 -53t60 -17q36 0 63 16t47 49q12 19 22 46t24 80l106 396h218l-102 -381q-29 -108 -59.5 -176.5t-67.5 -112.5z" />
    <glyph glyph-name="Yacute" unicode="&#xdd;" horiz-adv-x="724" 
d="M822 938l-334 -139l-34 121l306 170zM473 281l-75 -281h-216l75 281l-136 482h237l35 -199q5 -30 8 -55.5t4 -52.5h6q33 60 43 76t21 32l140 199h244z" />
    <glyph glyph-name="Thorn" unicode="&#xde;" horiz-adv-x="695" 
d="M211 763h217l-29 -109h41q154 0 220.5 -75.5t29.5 -213.5q-32 -121 -130 -186t-246 -65h-59l-31 -114h-217zM408 484h-54l-54 -200h43q51 0 86.5 24t47.5 70q14 52 -3.5 79t-65.5 27z" />
    <glyph glyph-name="germandbls" unicode="&#xdf;" horiz-adv-x="864" 
d="M39 0l106 395h-82l40 150h83q43 131 140 193.5t255 62.5q128 0 193 -60t41 -146q-13 -46 -43 -81t-101 -74q-38 -21 -50.5 -32.5t-15.5 -23.5q-4 -14 7 -25t54 -29q46 -19 67 -33t33 -31q17 -22 20.5 -51t-5.5 -65q-20 -77 -90.5 -119.5t-177.5 -42.5q-54 0 -103.5 8.5
t-85.5 24.5l42 160q33 -21 77.5 -34.5t84.5 -13.5q31 0 47 7t19 22q4 15 -6.5 26t-55.5 28q-46 18 -67 31.5t-34 29.5q-16 22 -20 50.5t6 64.5q8 31 32.5 57.5t86.5 63.5q43 26 57.5 40t18.5 28q6 25 -17.5 40.5t-68.5 15.5q-63 0 -99.5 -37t-59.5 -124l-128 -476h-200z" />
    <glyph glyph-name="agrave" unicode="&#xe0;" horiz-adv-x="611" 
d="M329 925l179 -225l-101 -88l-220 189zM303 53q-45 -36 -82.5 -50t-81.5 -14q-69 0 -103 55.5t-12 132.5q21 76 92.5 114.5t192.5 38.5h48q2 3 3 6.5t4 15.5q7 27 -12 39.5t-66 12.5q-45 0 -85.5 -7.5t-86.5 -24.5l42 157q47 13 96.5 19.5t100.5 6.5q135 0 181.5 -66.5
t9.5 -204.5l-76 -284h-155l-6 52zM308 228q-40 0 -62 -12.5t-30 -42.5q-6 -24 3 -38.5t32 -14.5q19 0 42.5 10.5t35.5 24.5l19 73h-40z" />
    <glyph glyph-name="aacute" unicode="&#xe1;" horiz-adv-x="611" 
d="M677 803l-274 -188l-70 92l231 217zM303 53q-45 -36 -82.5 -50t-81.5 -14q-69 0 -103 55.5t-12 132.5q21 76 92.5 114.5t192.5 38.5h48q2 3 3 6.5t4 15.5q7 27 -12 39.5t-66 12.5q-45 0 -85.5 -7.5t-86.5 -24.5l42 157q47 13 96.5 19.5t100.5 6.5q135 0 181.5 -66.5
t9.5 -204.5l-76 -284h-155l-6 52zM308 228q-40 0 -62 -12.5t-30 -42.5q-6 -24 3 -38.5t32 -14.5q19 0 42.5 10.5t35.5 24.5l19 73h-40z" />
    <glyph glyph-name="acircumflex" unicode="&#xe2;" horiz-adv-x="611" 
d="M425 736l-162 -127l-77 89l198 192h135l98 -192l-109 -89zM303 53q-45 -36 -82.5 -50t-81.5 -14q-69 0 -103 55.5t-12 132.5q21 76 92.5 114.5t192.5 38.5h48q2 3 3 6.5t4 15.5q7 27 -12 39.5t-66 12.5q-45 0 -85.5 -7.5t-86.5 -24.5l42 157q47 13 96.5 19.5t100.5 6.5
q135 0 181.5 -66.5t9.5 -204.5l-76 -284h-155l-6 52zM308 228q-40 0 -62 -12.5t-30 -42.5q-6 -24 3 -38.5t32 -14.5q19 0 42.5 10.5t35.5 24.5l19 73h-40z" />
    <glyph glyph-name="atilde" unicode="&#xe3;" horiz-adv-x="611" 
d="M694 879q-33 -124 -81 -181.5t-116 -54.5q-22 1 -39.5 11t-38.5 39q-16 20 -25 26t-19 6q-16 1 -30 -19.5t-25 -60.5h-127q31 120 81.5 180t115.5 55q26 -2 46 -13t43 -42q14 -18 22 -23.5t17 -5.5q13 -1 25 19t24 64h127zM303 53q-45 -36 -82.5 -50t-81.5 -14
q-69 0 -103 55.5t-12 132.5q21 76 92.5 114.5t192.5 38.5h48q2 3 3 6.5t4 15.5q7 27 -12 39.5t-66 12.5q-45 0 -85.5 -7.5t-86.5 -24.5l42 157q47 13 96.5 19.5t100.5 6.5q135 0 181.5 -66.5t9.5 -204.5l-76 -284h-155l-6 52zM308 228q-40 0 -62 -12.5t-30 -42.5
q-6 -24 3 -38.5t32 -14.5q19 0 42.5 10.5t35.5 24.5l19 73h-40z" />
    <glyph glyph-name="adieresis" unicode="&#xe4;" horiz-adv-x="611" 
d="M333 874q44 0 65 -28.5t9 -71.5q-11 -42 -47.5 -70.5t-79.5 -28.5q-44 0 -65.5 28.5t-10.5 70.5q12 43 48.5 71.5t80.5 28.5zM583 873q43 0 65 -28.5t10 -70.5q-11 -42 -48 -70.5t-80 -28.5q-44 0 -65.5 28.5t-10.5 70.5q12 42 48.5 70.5t80.5 28.5zM303 53
q-45 -36 -82.5 -50t-81.5 -14q-69 0 -103 55.5t-12 132.5q21 76 92.5 114.5t192.5 38.5h48q2 3 3 6.5t4 15.5q7 27 -12 39.5t-66 12.5q-45 0 -85.5 -7.5t-86.5 -24.5l42 157q47 13 96.5 19.5t100.5 6.5q135 0 181.5 -66.5t9.5 -204.5l-76 -284h-155l-6 52zM308 228
q-40 0 -62 -12.5t-30 -42.5q-6 -24 3 -38.5t32 -14.5q19 0 42.5 10.5t35.5 24.5l19 73h-40z" />
    <glyph glyph-name="aring" unicode="&#xe5;" horiz-adv-x="611" 
d="M460 928q68 -2 104 -51t18 -117q-16 -63 -65 -101t-115 -38q-70 0 -105 49t-16 119q16 61 66.5 100.5t112.5 38.5zM442 823q-22 0 -38 -13t-22 -35q-6 -23 4.5 -36.5t34.5 -13.5q20 0 37 13.5t22 34.5q6 23 -4 36.5t-34 13.5zM303 53q-45 -36 -82.5 -50t-81.5 -14
q-69 0 -103 55.5t-12 132.5q21 76 92.5 114.5t192.5 38.5h48q2 3 3 6.5t4 15.5q7 27 -12 39.5t-66 12.5q-45 0 -85.5 -7.5t-86.5 -24.5l42 157q47 13 96.5 19.5t100.5 6.5q135 0 181.5 -66.5t9.5 -204.5l-76 -284h-155l-6 52zM308 228q-40 0 -62 -12.5t-30 -42.5
q-6 -24 3 -38.5t32 -14.5q19 0 42.5 10.5t35.5 24.5l19 73h-40z" />
    <glyph glyph-name="ae" unicode="&#xe6;" horiz-adv-x="910" 
d="M574 -8q-56 0 -99.5 17.5t-71.5 50.5q-50 -35 -105.5 -53t-114.5 -18q-92 0 -137 52t-22 136q21 76 92.5 114.5t192.5 38.5h48q2 3 3 6t4 16q7 27 -12 39.5t-66 12.5q-45 0 -85.5 -7.5t-86.5 -24.5l42 157q47 13 96.5 19.5t100.5 6.5q53 0 93 -10t65 -31q39 23 85 35
t96 10q143 -4 182 -99.5t-41 -233.5h-301q-5 -43 20 -63t84 -20q33 0 68 5.5t107 26.5l-40 -151q-50 -16 -98 -24t-99 -8zM722 362q10 35 -4.5 54.5t-49.5 19.5q-43 0 -70.5 -24t-41.5 -74h158q1 2 3 6.5t5 17.5zM251 120q28 -3 58.5 7.5t49.5 27.5q-4 17 -5 35.5t0 37.5
h-46q-40 0 -62.5 -13t-29.5 -42q-5 -20 5.5 -35.5t29.5 -17.5z" />
    <glyph glyph-name="ccedilla" unicode="&#xe7;" horiz-adv-x="510" 
d="M320 -107q-15 -57 -68.5 -93t-118.5 -36q-34 0 -65 5.5t-56 15.5l34 124q17 -9 30.5 -13t27.5 -4q21 0 35.5 12t20.5 33q5 19 0 36t-26 40l3 1q-67 34 -90.5 113t4.5 188q28 107 116.5 173.5t209.5 66.5q47 0 83.5 -9t61.5 -27l-44 -163q-21 19 -50.5 30t-62.5 11
q-46 0 -78.5 -29t-43.5 -80q-14 -62 1 -97t56 -38q37 -3 70.5 6t79.5 37l-45 -168q-27 -12 -52.5 -20t-50.5 -13q5 -5 7.5 -9.5t5.5 -9.5q9 -18 10.5 -38.5t-5.5 -44.5z" />
    <glyph glyph-name="egrave" unicode="&#xe8;" horiz-adv-x="585" 
d="M309 925l179 -225l-101 -88l-220 189zM454 21q-50 -16 -98 -24t-99 -8q-129 0 -186.5 89.5t-18.5 238.5q28 109 116.5 176t206.5 63q143 -4 182 -99.5t-41 -233.5h-301q-5 -43 20 -63t84 -20q33 0 68 5.5t107 26.5zM405 359q10 35 -4.5 54.5t-49.5 19.5q-43 0 -70.5 -24
t-41.5 -74h158q1 2 3 6.5t5 17.5z" />
    <glyph glyph-name="eacute" unicode="&#xe9;" horiz-adv-x="585" 
d="M660 803l-274 -188l-70 92l231 217zM454 21q-50 -16 -98 -24t-99 -8q-129 0 -186.5 89.5t-18.5 238.5q28 109 116.5 176t206.5 63q143 -4 182 -99.5t-41 -233.5h-301q-5 -43 20 -63t84 -20q33 0 68 5.5t107 26.5zM405 359q10 35 -4.5 54.5t-49.5 19.5q-43 0 -70.5 -24
t-41.5 -74h158q1 2 3 6.5t5 17.5z" />
    <glyph glyph-name="ecircumflex" unicode="&#xea;" horiz-adv-x="585" 
d="M430 736l-162 -127l-77 89l198 192h135l98 -192l-109 -89zM454 21q-50 -16 -98 -24t-99 -8q-129 0 -186.5 89.5t-18.5 238.5q28 109 116.5 176t206.5 63q143 -4 182 -99.5t-41 -233.5h-301q-5 -43 20 -63t84 -20q33 0 68 5.5t107 26.5zM405 359q10 35 -4.5 54.5
t-49.5 19.5q-43 0 -70.5 -24t-41.5 -74h158q1 2 3 6.5t5 17.5z" />
    <glyph glyph-name="edieresis" unicode="&#xeb;" horiz-adv-x="585" 
d="M328 874q44 0 65 -28.5t9 -71.5q-11 -42 -47.5 -70.5t-79.5 -28.5q-44 0 -65.5 28.5t-10.5 70.5q12 43 48.5 71.5t80.5 28.5zM578 873q43 0 65 -28.5t10 -70.5q-11 -42 -48 -70.5t-80 -28.5q-44 0 -65.5 28.5t-10.5 70.5q12 42 48.5 70.5t80.5 28.5zM454 21
q-50 -16 -98 -24t-99 -8q-129 0 -186.5 89.5t-18.5 238.5q28 109 116.5 176t206.5 63q143 -4 182 -99.5t-41 -233.5h-301q-5 -43 20 -63t84 -20q33 0 68 5.5t107 26.5zM405 359q10 35 -4.5 54.5t-49.5 19.5q-43 0 -70.5 -24t-41.5 -74h158q1 2 3 6.5t5 17.5z" />
    <glyph glyph-name="igrave" unicode="&#xec;" horiz-adv-x="360" 
d="M211 925l179 -225l-101 -88l-220 189zM353 545l-146 -545h-200l146 545h200z" />
    <glyph glyph-name="iacute" unicode="&#xed;" horiz-adv-x="360" 
d="M533 803l-274 -188l-70 92l231 217zM353 545l-146 -545h-200l146 545h200z" />
    <glyph glyph-name="icircumflex" unicode="&#xee;" horiz-adv-x="360" 
d="M318 735l-162 -127l-77 89l198 192h135l98 -192l-109 -89zM353 544l-146 -545h-200l146 545h200z" />
    <glyph glyph-name="idieresis" unicode="&#xef;" horiz-adv-x="360" 
d="M216 874q44 0 65 -28.5t9 -71.5q-11 -42 -47.5 -70.5t-79.5 -28.5q-44 0 -65.5 28.5t-10.5 70.5q12 43 48.5 71.5t80.5 28.5zM466 873q43 0 65 -28.5t10 -70.5q-11 -42 -48 -70.5t-80 -28.5q-44 0 -65.5 28.5t-10.5 70.5q12 42 48.5 70.5t80.5 28.5zM353 544l-146 -545
h-200l146 545h200z" />
    <glyph glyph-name="eth" unicode="&#xf0;" horiz-adv-x="640" 
d="M601 281q-37 -140 -128.5 -216t-226.5 -76q-126 0 -182.5 82.5t-21.5 212.5q27 101 104 161t184 60q26 0 48 -2.5t40 -7.5q-10 26 -24.5 50.5t-34.5 46.5l-104 -74l-57 88l84 54q-19 13 -40.5 25.5t-44.5 23.5l159 113q23 -13 44.5 -27t40.5 -30l102 72l66 -94l-92 -53
q68 -84 91 -190t-7 -219zM233 253q-15 -58 -2.5 -84.5t52.5 -26.5t66.5 27t41.5 83q15 57 3 84.5t-51 27.5q-41 0 -68 -27t-42 -84z" />
    <glyph glyph-name="ntilde" unicode="&#xf1;" horiz-adv-x="686" 
d="M725 879q-33 -124 -81 -181.5t-116 -54.5q-22 1 -39.5 11t-38.5 39q-16 20 -25 26t-19 6q-16 1 -30 -19.5t-25 -60.5h-127q31 120 81.5 180t115.5 55q26 -2 46 -13t43 -42q14 -18 22 -23.5t17 -5.5q13 -1 25 19t24 64h127zM308 377l-101 -377h-200l146 545h200l-9 -35
l3 -3q37 24 77 36.5t83 12.5q81 0 113.5 -54t6.5 -150l-94 -352h-200l87 326q10 39 3.5 57t-32.5 18q-19 0 -42.5 -6.5t-40.5 -17.5z" />
    <glyph glyph-name="ograve" unicode="&#xf2;" horiz-adv-x="639" 
d="M335 925l179 -225l-101 -88l-220 189zM594 246q-31 -121 -121.5 -189t-220.5 -66q-129 2 -186.5 87t-19.5 219q34 123 123.5 191t216.5 66q131 -2 187 -85.5t21 -222.5zM396 261q19 72 9 106t-50 35q-39 1 -67 -29.5t-44 -89.5q-19 -72 -9 -105.5t50 -34.5q39 -1 67 29
t44 89z" />
    <glyph glyph-name="oacute" unicode="&#xf3;" horiz-adv-x="639" 
d="M682 803l-274 -188l-70 92l231 217zM594 246q-31 -121 -121.5 -189t-220.5 -66q-129 2 -186.5 87t-19.5 219q34 123 123.5 191t216.5 66q131 -2 187 -85.5t21 -222.5zM396 261q19 72 9 106t-50 35q-39 1 -67 -29.5t-44 -89.5q-19 -72 -9 -105.5t50 -34.5q39 -1 67 29
t44 89z" />
    <glyph glyph-name="ocircumflex" unicode="&#xf4;" horiz-adv-x="639" 
d="M458 736l-162 -127l-77 89l198 192h135l98 -192l-109 -89zM594 246q-31 -121 -121.5 -189t-220.5 -66q-129 2 -186.5 87t-19.5 219q34 123 123.5 191t216.5 66q131 -2 187 -85.5t21 -222.5zM396 261q19 72 9 106t-50 35q-39 1 -67 -29.5t-44 -89.5q-19 -72 -9 -105.5
t50 -34.5q39 -1 67 29t44 89z" />
    <glyph glyph-name="otilde" unicode="&#xf5;" horiz-adv-x="639" 
d="M702 879q-33 -124 -81 -181.5t-116 -54.5q-22 1 -39.5 11t-38.5 39q-16 20 -25 26t-19 6q-16 1 -30 -19.5t-25 -60.5h-127q31 120 81.5 180t115.5 55q26 -2 46 -13t43 -42q14 -18 22 -23.5t17 -5.5q13 -1 25 19t24 64h127zM594 246q-31 -121 -121.5 -189t-220.5 -66
q-129 2 -186.5 87t-19.5 219q34 123 123.5 191t216.5 66q131 -2 187 -85.5t21 -222.5zM396 261q19 72 9 106t-50 35q-39 1 -67 -29.5t-44 -89.5q-19 -72 -9 -105.5t50 -34.5q39 -1 67 29t44 89z" />
    <glyph glyph-name="odieresis" unicode="&#xf6;" horiz-adv-x="639" 
d="M356 874q44 0 65 -28.5t9 -71.5q-11 -42 -47.5 -70.5t-79.5 -28.5q-44 0 -65.5 28.5t-10.5 70.5q12 43 48.5 71.5t80.5 28.5zM606 873q43 0 65 -28.5t10 -70.5q-11 -42 -48 -70.5t-80 -28.5q-44 0 -65.5 28.5t-10.5 70.5q12 42 48.5 70.5t80.5 28.5zM594 246
q-31 -121 -121.5 -189t-220.5 -66q-129 2 -186.5 87t-19.5 219q34 123 123.5 191t216.5 66q131 -2 187 -85.5t21 -222.5zM396 261q19 72 9 106t-50 35q-39 1 -67 -29.5t-44 -89.5q-19 -72 -9 -105.5t50 -34.5q39 -1 67 29t44 89z" />
    <glyph glyph-name="divide" unicode="&#xf7;" horiz-adv-x="732" 
d="M534 506q-12 -43 -51 -73.5t-82 -30.5t-65.5 30.5t-10.5 73.5q11 43 50 73.5t81 30.5q44 0 66.5 -30.5t11.5 -73.5zM668 352l-43 -160h-562l43 160h562zM408 38q-11 -43 -50 -73.5t-83 -30.5q-42 0 -64.5 30.5t-11.5 73.5q12 43 50.5 73.5t81.5 30.5t66 -30.5t11 -73.5z
" />
    <glyph glyph-name="oslash" unicode="&#xf8;" horiz-adv-x="639" 
d="M251 -9q-45 1 -81.5 12t-63.5 31l-61 -54l-46 50l61 55q-25 39 -29 93.5t14 118.5q34 123 123.5 191t216.5 66q46 -1 83.5 -12t64.5 -32l61 55l47 -50l-62 -56q22 -39 26 -93.5t-12 -119.5q-31 -121 -121.5 -189t-220.5 -66zM243 283q-3 -11 -5.5 -21.5t-3.5 -20.5
l161 145q-7 8 -17 12t-24 4q-39 1 -67 -29.5t-44 -89.5zM284 143q39 -1 67 29t44 89q3 11 5.5 21.5t3.5 19.5l-160 -143q7 -8 17 -12t23 -4z" />
    <glyph glyph-name="ugrave" unicode="&#xf9;" horiz-adv-x="686" 
d="M365 925l179 -225l-101 -88l-220 189zM341 44q-40 -28 -80.5 -42t-81.5 -14q-78 0 -111.5 57t-8.5 151l94 348h200l-86 -321q-11 -42 -5 -61t30 -19q21 0 45 8.5t43 22.5l99 370h200l-146 -544h-200l11 41z" />
    <glyph glyph-name="uacute" unicode="&#xfa;" horiz-adv-x="686" 
d="M706 803l-274 -188l-70 92l231 217zM341 44q-40 -28 -80.5 -42t-81.5 -14q-78 0 -111.5 57t-8.5 151l94 348h200l-86 -321q-11 -42 -5 -61t30 -19q21 0 45 8.5t43 22.5l99 370h200l-146 -544h-200l11 41z" />
    <glyph glyph-name="ucircumflex" unicode="&#xfb;" horiz-adv-x="686" 
d="M481 736l-162 -127l-77 89l198 192h135l98 -192l-109 -89zM341 44q-40 -28 -80.5 -42t-81.5 -14q-78 0 -111.5 57t-8.5 151l94 348h200l-86 -321q-11 -42 -5 -61t30 -19q21 0 45 8.5t43 22.5l99 370h200l-146 -544h-200l11 41z" />
    <glyph glyph-name="udieresis" unicode="&#xfc;" horiz-adv-x="686" 
d="M379 874q44 0 65 -28.5t9 -71.5q-11 -42 -47.5 -70.5t-79.5 -28.5q-44 0 -65.5 28.5t-10.5 70.5q12 43 48.5 71.5t80.5 28.5zM629 873q43 0 65 -28.5t10 -70.5q-11 -42 -48 -70.5t-80 -28.5q-44 0 -65.5 28.5t-10.5 70.5q12 42 48.5 70.5t80.5 28.5zM341 44
q-40 -28 -80.5 -42t-81.5 -14q-78 0 -111.5 57t-8.5 151l94 348h200l-86 -321q-11 -42 -5 -61t30 -19q21 0 45 8.5t43 22.5l99 370h200l-146 -544h-200l11 41z" />
    <glyph glyph-name="yacute" unicode="&#xfd;" horiz-adv-x="613" 
d="M675 803l-274 -188l-70 92l231 217zM323 0q-94 -140 -168 -187t-189 -47q-15 0 -32.5 0.5t-35.5 2.5l47 174l27 -1.5t16 -0.5q54 0 93.5 17t61.5 49l-70 538h210l5 -246q1 -32 0.5 -55t-2.5 -36h3q3 13 13.5 36t28.5 55l136 246h219z" />
    <glyph glyph-name="thorn" unicode="&#xfe;" horiz-adv-x="666" 
d="M334 -11q-33 0 -63.5 7.5t-53.5 21.5l-6 -3l-64 -239h-200l272 1015h200l-77 -286l3 -2q33 28 71.5 41.5t78.5 11.5q83 -4 121 -86.5t9 -202.5q-29 -124 -108.5 -201t-182.5 -77zM373 404q-19 0 -35.5 -7.5t-30.5 -21.5l-58 -218q9 -7 22 -10.5t28 -3.5q44 0 77.5 32
t46.5 85q16 68 3.5 106t-53.5 38z" />
    <glyph glyph-name="ydieresis" unicode="&#xff;" horiz-adv-x="613" 
d="M342 874q44 0 65 -28.5t9 -71.5q-11 -42 -47.5 -70.5t-79.5 -28.5q-44 0 -65.5 28.5t-10.5 70.5q12 43 48.5 71.5t80.5 28.5zM592 873q43 0 65 -28.5t10 -70.5q-11 -42 -48 -70.5t-80 -28.5q-44 0 -65.5 28.5t-10.5 70.5q12 42 48.5 70.5t80.5 28.5zM323 0
q-94 -140 -168 -187t-189 -47q-15 0 -32.5 0.5t-35.5 2.5l47 174l27 -1.5t16 -0.5q54 0 93.5 17t61.5 49l-70 538h210l5 -246q1 -32 0.5 -55t-2.5 -36h3q3 13 13.5 36t28.5 55l136 246h219z" />
    <glyph glyph-name="Amacron" unicode="&#x100;" horiz-adv-x="774" 
d="M806 1010l-36 -132h-442l36 132h442zM259 140l-80 -140h-232l456 763h228l49 -763h-219l1 140h-203zM466 566q-12 -30 -32.5 -75t-37.5 -76l-62 -111h131l1 111q1 45 3 90t4 61h-7z" />
    <glyph glyph-name="amacron" unicode="&#x101;" horiz-adv-x="611" 
d="M660 840l-35 -132h-402l35 132h402zM303 53q-45 -36 -82.5 -50t-81.5 -14q-69 0 -103 55.5t-12 132.5q21 76 92.5 114.5t192.5 38.5h48q2 3 3 6.5t4 15.5q7 27 -12 39.5t-66 12.5q-45 0 -85.5 -7.5t-86.5 -24.5l42 157q47 13 96.5 19.5t100.5 6.5q135 0 181.5 -66.5
t9.5 -204.5l-76 -284h-155l-6 52zM308 228q-40 0 -62 -12.5t-30 -42.5q-6 -24 3 -38.5t32 -14.5q19 0 42.5 10.5t35.5 24.5l19 73h-40z" />
    <glyph glyph-name="Abreve" unicode="&#x102;" horiz-adv-x="774" 
d="M813 1043q-26 -105 -93.5 -162.5t-167.5 -57.5q-102 0 -151.5 65t-24.5 155h122q-8 -39 11.5 -61.5t63.5 -22.5t75 22.5t44 61.5h121zM259 140l-80 -140h-232l456 763h228l49 -763h-219l1 140h-203zM466 566q-12 -30 -32.5 -75t-37.5 -76l-62 -111h131l1 111q1 45 3 90
t4 61h-7z" />
    <glyph glyph-name="abreve" unicode="&#x103;" horiz-adv-x="566" 
d="M663 859q-29 -113 -95.5 -174.5t-160.5 -59.5q-92 2 -134 69.5t-16 164.5h126q-10 -44 3.5 -70t47.5 -26q35 0 62.5 26t40.5 70h126zM303 53q-45 -36 -82.5 -50t-81.5 -14q-69 0 -103 55.5t-12 132.5q21 76 92.5 114.5t192.5 38.5h48q2 3 3 6.5t4 15.5q7 27 -12 39.5
t-66 12.5q-45 0 -85.5 -7.5t-86.5 -24.5l42 157q47 13 96.5 19.5t100.5 6.5q135 0 181.5 -66.5t9.5 -204.5l-76 -284h-155l-6 52zM308 228q-40 0 -62 -12.5t-30 -42.5q-6 -24 3 -38.5t32 -14.5q19 0 42.5 10.5t35.5 24.5l19 73h-40z" />
    <glyph glyph-name="Aogonek" unicode="&#x104;" horiz-adv-x="774" 
d="M623 -215q-29 -10 -63 -15.5t-68 -5.5q-66 0 -100 36t-19 93q9 34 31 61t56 46l1 1l1 139h-203l-80 -140h-232l456 763h228l49 -763h1q-50 -9 -86 -32t-42 -47q-4 -14 4 -21.5t28 -7.5q16 0 33.5 4t38.5 13zM466 566q-12 -30 -32.5 -75t-37.5 -76l-62 -111h131l1 111
q1 45 3 90t4 61h-7z" />
    <glyph glyph-name="aogonek" unicode="&#x105;" horiz-adv-x="566" 
d="M410 -215q-29 -10 -63 -15.5t-68 -5.5q-66 0 -100 36t-19 93q9 34 31 61t56 46q14 8 30 15t33 13l-3 24l-4 1q-45 -36 -82.5 -50t-81.5 -14q-69 0 -103 55.5t-12 132.5q21 76 92.5 114.5t192.5 38.5h48q2 3 3 6.5t4 15.5q7 27 -12 39.5t-66 12.5q-45 0 -85.5 -7.5
t-86.5 -24.5l42 157q47 13 96.5 19.5t100.5 6.5q135 0 181.5 -66.5t9.5 -204.5l-76 -284q-50 -9 -86 -32t-42 -47q-4 -14 4 -21.5t28 -7.5q16 0 33.5 4t38.5 13zM308 228q-40 0 -62 -12.5t-30 -42.5q-6 -24 3 -38.5t32 -14.5q19 0 42.5 10.5t35.5 24.5l19 73h-40z" />
    <glyph glyph-name="Cacute" unicode="&#x106;" horiz-adv-x="668" 
d="M816 938l-334 -139l-34 121l306 170zM304 405q-29 -110 -3 -169.5t101 -60.5q50 -1 107.5 15.5t107.5 45.5l-49 -189q-58 -31 -126 -46t-129 -11q-146 10 -208.5 133.5t-11.5 308.5q43 157 159.5 249t278.5 92q62 0 108.5 -10t84.5 -32l-53 -194q-32 27 -68 39.5
t-84 12.5q-82 0 -136.5 -47t-78.5 -137z" />
    <glyph glyph-name="cacute" unicode="&#x107;" horiz-adv-x="510" 
d="M650 803l-274 -188l-70 92l231 217zM405 28q-46 -20 -88 -29.5t-82 -8.5q-120 4 -170.5 93.5t-13.5 231.5q28 107 116.5 173.5t209.5 66.5q47 0 83.5 -9t61.5 -27l-44 -163q-21 19 -50.5 30t-62.5 11q-46 0 -78.5 -29t-43.5 -80q-14 -62 1 -97t56 -38q37 -3 70.5 6
t79.5 37z" />
    <glyph glyph-name="Ccircumflex" unicode="&#x108;" horiz-adv-x="668" 
d="M589 919l-184 -105l-66 90l211 162h135l125 -162l-96 -90zM304 405q-29 -110 -3 -169.5t101 -60.5q50 -1 107.5 15.5t107.5 45.5l-49 -189q-58 -31 -126 -46t-129 -11q-146 10 -208.5 133.5t-11.5 308.5q43 157 159.5 249t278.5 92q62 0 108.5 -10t84.5 -32l-53 -194
q-32 27 -68 39.5t-84 12.5q-82 0 -136.5 -47t-78.5 -137z" />
    <glyph glyph-name="ccircumflex" unicode="&#x109;" horiz-adv-x="510" 
d="M440 736l-162 -127l-77 89l198 192h135l98 -192l-109 -89zM405 28q-46 -20 -88 -29.5t-82 -8.5q-120 4 -170.5 93.5t-13.5 231.5q28 107 116.5 173.5t209.5 66.5q47 0 83.5 -9t61.5 -27l-44 -163q-21 19 -50.5 30t-62.5 11q-46 0 -78.5 -29t-43.5 -80q-14 -62 1 -97
t56 -38q37 -3 70.5 6t79.5 37z" />
    <glyph glyph-name="Cdotaccent" unicode="&#x10a;" horiz-adv-x="668" 
d="M592 942q-13 -50 -56.5 -83.5t-93.5 -33.5q-52 0 -77.5 33.5t-12.5 83.5q14 50 57.5 83t94.5 33t76.5 -33t11.5 -83zM304 405q-29 -110 -3 -169.5t101 -60.5q50 -1 107.5 15.5t107.5 45.5l-49 -189q-58 -31 -126 -46t-129 -11q-146 10 -208.5 133.5t-11.5 308.5
q43 157 159.5 249t278.5 92q62 0 108.5 -10t84.5 -32l-53 -194q-32 27 -68 39.5t-84 12.5q-82 0 -136.5 -47t-78.5 -137z" />
    <glyph glyph-name="cdotaccent" unicode="&#x10b;" horiz-adv-x="510" 
d="M545 744q-13 -50 -56.5 -83.5t-93.5 -33.5q-52 0 -77.5 33.5t-12.5 83.5q14 50 57.5 83t94.5 33t76.5 -33t11.5 -83zM405 28q-46 -20 -88 -29.5t-82 -8.5q-120 4 -170.5 93.5t-13.5 231.5q28 107 116.5 173.5t209.5 66.5q47 0 83.5 -9t61.5 -27l-44 -163q-21 19 -50.5 30
t-62.5 11q-46 0 -78.5 -29t-43.5 -80q-14 -62 1 -97t56 -38q37 -3 70.5 6t79.5 37z" />
    <glyph glyph-name="Ccaron" unicode="&#x10c;" horiz-adv-x="668" 
d="M573 953l186 112l66 -89l-211 -162h-135l-118 168l91 79zM304 405q-29 -110 -3 -169.5t101 -60.5q50 -1 107.5 15.5t107.5 45.5l-49 -189q-58 -31 -126 -46t-129 -11q-146 10 -208.5 133.5t-11.5 308.5q43 157 159.5 249t278.5 92q62 0 108.5 -10t84.5 -32l-53 -194
q-32 27 -68 39.5t-84 12.5q-82 0 -136.5 -47t-78.5 -137z" />
    <glyph glyph-name="ccaron" unicode="&#x10d;" horiz-adv-x="510" 
d="M409 760l159 136l75 -90l-198 -192h-135l-98 192l111 90zM405 28q-46 -20 -88 -29.5t-82 -8.5q-120 4 -170.5 93.5t-13.5 231.5q28 107 116.5 173.5t209.5 66.5q47 0 83.5 -9t61.5 -27l-44 -163q-21 19 -50.5 30t-62.5 11q-46 0 -78.5 -29t-43.5 -80q-14 -62 1 -97
t56 -38q37 -3 70.5 6t79.5 37z" />
    <glyph glyph-name="Dcaron" unicode="&#x10e;" horiz-adv-x="775" 
d="M542 953l186 112l66 -89l-211 -162h-135l-118 168l91 79zM747 316q-40 -143 -164.5 -229.5t-299.5 -86.5h-276l204 763h263q183 0 257 -121t16 -326zM419 589h-36l-111 -415h58q74 0 130.5 50t78.5 129q32 120 2.5 178t-122.5 58z" />
    <glyph glyph-name="dcaron" unicode="&#x10f;" horiz-adv-x="666" 
d="M1025 893l-186 -269l-116 39l128 272zM323 43q-31 -27 -70 -41.5t-78 -12.5q-85 4 -122.5 92t-3.5 220q28 111 107.5 183.5t175.5 71.5q34 -1 64.5 -8.5t53.5 -20.5l6 3l70 261h200l-212 -791h-200l11 41zM418 388q-8 7 -21.5 10.5t-28.5 3.5q-46 0 -78.5 -32t-46.5 -89
q-16 -66 -2.5 -103t53.5 -37q19 0 35.5 7.5t30.5 21.5z" />
    <glyph glyph-name="Dcroat" unicode="&#x110;" horiz-adv-x="775" 
d="M747 316q-40 -143 -164.5 -229.5t-299.5 -86.5h-276l84 313h-92l43 160h91l78 290h263q183 0 257 -121t16 -326zM272 174h58q74 0 130.5 50t78.5 129q32 120 2.5 178t-122.5 58h-36l-31 -116h90l-43 -160h-90z" />
    <glyph glyph-name="dcroat" unicode="&#x111;" horiz-adv-x="666" 
d="M323 43q-31 -27 -70 -41.5t-78 -12.5q-85 4 -122.5 92t-3.5 220q28 111 107.5 183.5t175.5 71.5q34 -1 64.5 -8.5t53.5 -20.5l6 3l23 84h-159l26 96h158l22 81h200l-22 -81h55l-26 -96h-54l-165 -614h-200l11 41zM418 388q-8 7 -21.5 10.5t-28.5 3.5q-46 0 -78.5 -32
t-46.5 -89q-16 -66 -2.5 -103t53.5 -37q19 0 35.5 7.5t30.5 21.5z" />
    <glyph glyph-name="Emacron" unicode="&#x112;" horiz-adv-x="644" 
d="M751 1010l-36 -132h-442l36 132h442zM563 164l-44 -164h-512l204 763h481l-43 -164h-263l-35 -130h251l-44 -164h-251l-38 -141h294z" />
    <glyph glyph-name="emacron" unicode="&#x113;" horiz-adv-x="585" 
d="M657 840l-35 -132h-402l35 132h402zM454 21q-50 -16 -98 -24t-99 -8q-129 0 -186.5 89.5t-18.5 238.5q28 109 116.5 176t206.5 63q143 -4 182 -99.5t-41 -233.5h-301q-5 -43 20 -63t84 -20q33 0 68 5.5t107 26.5zM405 359q10 35 -4.5 54.5t-49.5 19.5q-43 0 -70.5 -24
t-41.5 -74h158q1 2 3 6.5t5 17.5z" />
    <glyph glyph-name="Ebreve" unicode="&#x114;" horiz-adv-x="644" 
d="M757 1043q-26 -105 -93.5 -162.5t-167.5 -57.5q-102 0 -151.5 65t-24.5 155h122q-8 -39 11.5 -61.5t63.5 -22.5t75 22.5t44 61.5h121zM563 164l-44 -164h-512l204 763h481l-43 -164h-263l-35 -130h251l-44 -164h-251l-38 -141h294z" />
    <glyph glyph-name="ebreve" unicode="&#x115;" horiz-adv-x="585" 
d="M669 859q-29 -113 -95.5 -174.5t-160.5 -59.5q-92 2 -134 69.5t-16 164.5h126q-10 -44 3.5 -70t47.5 -26q35 0 62.5 26t40.5 70h126zM454 21q-50 -16 -98 -24t-99 -8q-129 0 -186.5 89.5t-18.5 238.5q28 109 116.5 176t206.5 63q143 -4 182 -99.5t-41 -233.5h-301
q-5 -43 20 -63t84 -20q33 0 68 5.5t107 26.5zM405 359q10 35 -4.5 54.5t-49.5 19.5q-43 0 -70.5 -24t-41.5 -74h158q1 2 3 6.5t5 17.5z" />
    <glyph glyph-name="Edotaccent" unicode="&#x116;" horiz-adv-x="644" 
d="M521 942q-13 -50 -56.5 -83.5t-93.5 -33.5q-52 0 -77.5 33.5t-12.5 83.5q14 50 57.5 83t94.5 33t76.5 -33t11.5 -83zM563 164l-44 -164h-512l204 763h481l-43 -164h-263l-35 -130h251l-44 -164h-251l-38 -141h294z" />
    <glyph glyph-name="edotaccent" unicode="&#x117;" horiz-adv-x="585" 
d="M558 744q-13 -50 -56.5 -83.5t-93.5 -33.5q-52 0 -77.5 33.5t-12.5 83.5q14 50 57.5 83t94.5 33t76.5 -33t11.5 -83zM454 21q-50 -16 -98 -24t-99 -8q-129 0 -186.5 89.5t-18.5 238.5q28 109 116.5 176t206.5 63q143 -4 182 -99.5t-41 -233.5h-301q-5 -43 20 -63t84 -20
q33 0 68 5.5t107 26.5zM405 359q10 35 -4.5 54.5t-49.5 19.5q-43 0 -70.5 -24t-41.5 -74h158q1 2 3 6.5t5 17.5z" />
    <glyph glyph-name="Eogonek" unicode="&#x118;" horiz-adv-x="644" 
d="M453 -215q-29 -10 -63 -15.5t-68 -5.5q-66 0 -100 36t-19 93q9 34 31 61t56 46h-283l204 763h481l-43 -164h-263l-35 -130h251l-44 -164h-251l-38 -141h294l-44 -164h-8q-50 -9 -86 -32t-42 -47q-4 -14 4 -21.5t28 -7.5q16 0 33.5 4t38.5 13z" />
    <glyph glyph-name="eogonek" unicode="&#x119;" horiz-adv-x="585" 
d="M316 -215q-29 -10 -63 -15.5t-68 -5.5q-66 0 -100 36t-19 93q9 34 31 61t56 46q2 1 4.5 2.5t4.5 2.5q-80 30 -110.5 112t0.5 200q28 109 116.5 176t206.5 63q143 -4 182 -99.5t-41 -233.5h-301q-5 -43 20 -63t84 -20q33 0 68 5.5t107 26.5l-40 -151q-20 -7 -40.5 -12
t-39.5 -9v0q-50 -9 -86 -32t-42 -47q-4 -14 4 -21.5t28 -7.5q16 0 33.5 4t38.5 13zM405 359q10 35 -4.5 54.5t-49.5 19.5q-43 0 -70.5 -24t-41.5 -74h158q1 2 3 6.5t5 17.5z" />
    <glyph glyph-name="Ecaron" unicode="&#x11a;" horiz-adv-x="644" 
d="M503 953l186 112l66 -89l-211 -162h-135l-118 168l91 79zM563 164l-44 -164h-512l204 763h481l-43 -164h-263l-35 -130h251l-44 -164h-251l-38 -141h294z" />
    <glyph glyph-name="ecaron" unicode="&#x11b;" horiz-adv-x="585" 
d="M429 760l159 136l75 -90l-198 -192h-135l-98 192l111 90zM454 21q-50 -16 -98 -24t-99 -8q-129 0 -186.5 89.5t-18.5 238.5q28 109 116.5 176t206.5 63q143 -4 182 -99.5t-41 -233.5h-301q-5 -43 20 -63t84 -20q33 0 68 5.5t107 26.5zM405 359q10 35 -4.5 54.5
t-49.5 19.5q-43 0 -70.5 -24t-41.5 -74h158q1 2 3 6.5t5 17.5z" />
    <glyph glyph-name="Gcircumflex" unicode="&#x11c;" horiz-adv-x="775" 
d="M613 919l-184 -105l-66 90l211 162h135l125 -162l-96 -90zM426 436h313l-103 -384q-81 -32 -149.5 -47t-137.5 -15q-89 0 -156 36t-101 103q-29 58 -31.5 134t22.5 169q44 164 165.5 252.5t300.5 88.5q75 0 129.5 -9.5t116.5 -35.5l-52 -193q-47 34 -94 50t-102 16
q-103 0 -166.5 -53.5t-93.5 -165.5q-29 -109 -0.5 -165.5t112.5 -56.5q12 0 25 1.5t24 4.5l29 106h-95z" />
    <glyph glyph-name="gcircumflex" unicode="&#x11d;" horiz-adv-x="632" 
d="M452 736l-162 -127l-77 89l198 192h135l98 -192l-109 -89zM-46 -79q7 24 27.5 46.5t51.5 41.5q-17 16 -22.5 37.5t1.5 47.5q7 27 31 58.5t72 76.5q-23 30 -28.5 69.5t7.5 85.5q23 79 95.5 125t181.5 46q42 0 76 -7t63 -21l161 38l-42 -157h-47q2 -65 -29 -119t-89 -87
q-51 -30 -113.5 -37.5t-128.5 8.5q-8 -8 -14 -16t-8 -15q-3 -12 2.5 -17t20.5 -5h135q89 0 132 -49.5t23 -126.5q-21 -82 -107.5 -130.5t-215.5 -48.5t-192.5 42.5t-43.5 113.5zM397 359q9 34 -2.5 52t-43.5 18t-54 -18.5t-31 -51.5t3.5 -51.5t43.5 -18.5q32 0 53.5 18
t30.5 52zM183 -20h-18.5t-8.5 1q-7 -5 -12 -14t-8 -19q-8 -30 11 -43t72 -13q50 0 79.5 12.5t35.5 36.5q6 21 -3 30t-37 9h-111z" />
    <glyph glyph-name="Gbreve" unicode="&#x11e;" horiz-adv-x="775" 
d="M861 1043q-26 -105 -93.5 -162.5t-167.5 -57.5q-102 0 -151.5 65t-24.5 155h122q-8 -39 11.5 -61.5t63.5 -22.5t75 22.5t44 61.5h121zM426 436h313l-103 -384q-81 -32 -149.5 -47t-137.5 -15q-89 0 -156 36t-101 103q-29 58 -31.5 134t22.5 169q44 164 165.5 252.5
t300.5 88.5q75 0 129.5 -9.5t116.5 -35.5l-52 -193q-47 34 -94 50t-102 16q-103 0 -166.5 -53.5t-93.5 -165.5q-29 -109 -0.5 -165.5t112.5 -56.5q12 0 25 1.5t24 4.5l29 106h-95z" />
    <glyph glyph-name="gbreve" unicode="&#x11f;" horiz-adv-x="632" 
d="M670 859q-29 -113 -95.5 -174.5t-160.5 -59.5q-92 2 -134 69.5t-16 164.5h126q-10 -44 3.5 -70t47.5 -26q35 0 62.5 26t40.5 70h126zM-46 -79q7 24 27.5 46.5t51.5 41.5q-17 16 -22.5 37.5t1.5 47.5q7 27 31 58.5t72 76.5q-23 30 -28.5 69.5t7.5 85.5q23 79 95.5 125
t181.5 46q42 0 76 -7t63 -21l161 38l-42 -157h-47q2 -65 -29 -119t-89 -87q-51 -30 -113.5 -37.5t-128.5 8.5q-8 -8 -14 -16t-8 -15q-3 -12 2.5 -17t20.5 -5h135q89 0 132 -49.5t23 -126.5q-21 -82 -107.5 -130.5t-215.5 -48.5t-192.5 42.5t-43.5 113.5zM397 359
q9 34 -2.5 52t-43.5 18t-54 -18.5t-31 -51.5t3.5 -51.5t43.5 -18.5q32 0 53.5 18t30.5 52zM183 -20h-18.5t-8.5 1q-7 -5 -12 -14t-8 -19q-8 -30 11 -43t72 -13q50 0 79.5 12.5t35.5 36.5q6 21 -3 30t-37 9h-111z" />
    <glyph glyph-name="Gdotaccent" unicode="&#x120;" horiz-adv-x="775" 
d="M624 942q-13 -50 -56.5 -83.5t-93.5 -33.5q-52 0 -77.5 33.5t-12.5 83.5q14 50 57.5 83t94.5 33t76.5 -33t11.5 -83zM426 436h313l-103 -384q-81 -32 -149.5 -47t-137.5 -15q-89 0 -156 36t-101 103q-29 58 -31.5 134t22.5 169q44 164 165.5 252.5t300.5 88.5
q75 0 129.5 -9.5t116.5 -35.5l-52 -193q-47 34 -94 50t-102 16q-103 0 -166.5 -53.5t-93.5 -165.5q-29 -109 -0.5 -165.5t112.5 -56.5q12 0 25 1.5t24 4.5l29 106h-95z" />
    <glyph glyph-name="gdotaccent" unicode="&#x121;" horiz-adv-x="632" 
d="M558 744q-13 -50 -56.5 -83.5t-93.5 -33.5q-52 0 -77.5 33.5t-12.5 83.5q14 50 57.5 83t94.5 33t76.5 -33t11.5 -83zM-46 -79q7 24 27.5 46.5t51.5 41.5q-17 16 -22.5 37.5t1.5 47.5q7 27 31 58.5t72 76.5q-23 30 -28.5 69.5t7.5 85.5q23 79 95.5 125t181.5 46
q42 0 76 -7t63 -21l161 38l-42 -157h-47q2 -65 -29 -119t-89 -87q-51 -30 -113.5 -37.5t-128.5 8.5q-8 -8 -14 -16t-8 -15q-3 -12 2.5 -17t20.5 -5h135q89 0 132 -49.5t23 -126.5q-21 -82 -107.5 -130.5t-215.5 -48.5t-192.5 42.5t-43.5 113.5zM397 359q9 34 -2.5 52
t-43.5 18t-54 -18.5t-31 -51.5t3.5 -51.5t43.5 -18.5q32 0 53.5 18t30.5 52zM183 -20h-18.5t-8.5 1q-7 -5 -12 -14t-8 -19q-8 -30 11 -43t72 -13q50 0 79.5 12.5t35.5 36.5q6 21 -3 30t-37 9h-111z" />
    <glyph glyph-name="Gcommaaccent" unicode="&#x122;" horiz-adv-x="775" 
d="M426 436h313l-103 -384q-81 -32 -149.5 -47t-137.5 -15q-89 0 -156 36t-101 103q-29 58 -31.5 134t22.5 169q44 164 165.5 252.5t300.5 88.5q75 0 129.5 -9.5t116.5 -35.5l-52 -193q-47 34 -94 50t-102 16q-103 0 -166.5 -53.5t-93.5 -165.5q-29 -109 -0.5 -165.5
t112.5 -56.5q12 0 25 1.5t24 4.5l29 106h-95zM419 -164l-242 -157l-63 85l198 186z" />
    <glyph glyph-name="gcommaaccent" unicode="&#x123;" horiz-adv-x="632" 
d="M290 748l275 188l69 -92l-230 -217zM-46 -79q7 24 27.5 46.5t51.5 41.5q-17 16 -22.5 37.5t1.5 47.5q7 27 31 58.5t72 76.5q-23 30 -28.5 69.5t7.5 85.5q23 79 95.5 125t181.5 46q42 0 76 -7t63 -21l161 38l-42 -157h-47q2 -65 -29 -119t-89 -87q-51 -30 -113.5 -37.5
t-128.5 8.5q-8 -8 -14 -16t-8 -15q-3 -12 2.5 -17t20.5 -5h135q89 0 132 -49.5t23 -126.5q-21 -82 -107.5 -130.5t-215.5 -48.5t-192.5 42.5t-43.5 113.5zM397 359q9 34 -2.5 52t-43.5 18t-54 -18.5t-31 -51.5t3.5 -51.5t43.5 -18.5q32 0 53.5 18t30.5 52zM183 -20h-18.5
t-8.5 1q-7 -5 -12 -14t-8 -19q-8 -30 11 -43t72 -13q50 0 79.5 12.5t35.5 36.5q6 21 -3 30t-37 9h-111z" />
    <glyph glyph-name="Hcircumflex" unicode="&#x124;" horiz-adv-x="812" 
d="M590 919l-184 -105l-66 90l211 162h135l125 -162l-96 -90zM305 300l-80 -300h-218l204 763h218l-77 -289h216l77 289h218l-204 -763h-218l80 300h-216z" />
    <glyph glyph-name="hcircumflex" unicode="&#x125;" horiz-adv-x="686" 
d="M318 942l-162 -127l-77 89l198 192h135l98 -192l-109 -89zM308 377l-101 -377h-200l212 791h200l-75 -281l3 -3q37 24 77.5 36.5t82.5 12.5q82 0 114 -54.5t6 -152.5l-94 -349h-200l85 317q12 44 5.5 64t-33.5 20q-19 0 -42 -7t-40 -17z" />
    <glyph glyph-name="Hbar" unicode="&#x126;" horiz-adv-x="762" 
d="M305 300l-80 -300h-218l146 545h-49l28 109h50l29 109h218l-29 -109h216l29 109h218l-29 -109h50l-28 -109h-51l-146 -545h-218l80 300h-216zM352 474h216l19 71h-216z" />
    <glyph glyph-name="hbar" unicode="&#x127;" horiz-adv-x="686" 
d="M308 377l-101 -377h-200l165 614h-55l26 96h54l22 81h200l-22 -81h159l-26 -96h-158l-28 -104l3 -3q37 24 77.5 36.5t82.5 12.5q82 0 114 -54.5t6 -152.5l-94 -349h-200l85 317q12 44 5.5 64t-33.5 20q-19 0 -42 -7t-40 -17z" />
    <glyph glyph-name="Itilde" unicode="&#x128;" horiz-adv-x="563" 
d="M715 1041q-18 -103 -66 -156t-122 -53q-22 0 -41.5 7.5t-47.5 29.5q-18 14 -26.5 18t-16.5 4q-25 0 -38 -12.5t-25 -48.5h-129q18 103 66 156t123 53q24 0 44.5 -7t50.5 -28q19 -13 28 -17t17 -4q21 0 32.5 12.5t21.5 45.5h129zM475 164l-44 -164h-443l44 164h113
l117 435h-113l43 164h443l-43 -164h-112l-117 -435h112z" />
    <glyph glyph-name="itilde" unicode="&#x129;" horiz-adv-x="360" 
d="M562 879q-33 -124 -81 -181.5t-116 -54.5q-22 1 -39.5 11t-38.5 39q-16 20 -25 26t-19 6q-16 1 -30 -19.5t-25 -60.5h-127q31 120 81.5 180t115.5 55q26 -2 46 -13t43 -42q14 -18 22 -23.5t17 -5.5q13 -1 25 19t24 64h127zM353 545l-146 -545h-200l146 545h200z" />
    <glyph glyph-name="Imacron" unicode="&#x12a;" horiz-adv-x="563" 
d="M700 1010l-36 -132h-442l36 132h442zM474 164l-44 -164h-443l44 164h113l117 435h-113l43 164h443l-43 -164h-112l-117 -435h112z" />
    <glyph glyph-name="imacron" unicode="&#x12b;" horiz-adv-x="360" 
d="M533 840l-35 -132h-402l35 132h402zM353 545l-146 -545h-200l146 545h200z" />
    <glyph glyph-name="Ibreve" unicode="&#x12c;" horiz-adv-x="563" 
d="M706 1043q-26 -105 -93.5 -162.5t-167.5 -57.5q-102 0 -151.5 65t-24.5 155h122q-8 -39 11.5 -61.5t63.5 -22.5t75 22.5t44 61.5h121zM474 164l-44 -164h-443l44 164h113l117 435h-113l43 164h443l-43 -164h-112l-117 -435h112z" />
    <glyph glyph-name="ibreve" unicode="&#x12d;" horiz-adv-x="360" 
d="M540 859q-29 -113 -95.5 -174.5t-160.5 -59.5q-92 2 -134 69.5t-16 164.5h126q-10 -44 3.5 -70t47.5 -26q35 0 62.5 26t40.5 70h126zM353 545l-146 -545h-200l146 545h200z" />
    <glyph glyph-name="Iogonek" unicode="&#x12e;" horiz-adv-x="563" 
d="M302 -215q-29 -10 -63 -15.5t-68 -5.5q-66 0 -100 36t-19 93q9 34 31 61t56 46h-152l44 164h113l117 435h-113l43 164h443l-43 -164h-112l-117 -435h112l-44 -164h-70q-50 -9 -86 -32t-42 -47q-4 -14 4 -21.5t28 -7.5q16 0 33.5 4t38.5 13z" />
    <glyph glyph-name="iogonek" unicode="&#x12f;" horiz-adv-x="360" 
d="M425 744q-13 -50 -56.5 -83.5t-93.5 -33.5q-52 0 -77.5 33.5t-12.5 83.5q14 50 57.5 83t94.5 33t76.5 -33t11.5 -83zM148 -215q-29 -10 -63 -15.5t-68 -5.5q-66 0 -100 36t-19 93q9 34 31 61t56 46l12 6l12 6l143 533h200l-146 -545q-50 -9 -86 -32t-42 -47
q-4 -14 4 -21.5t28 -7.5q16 0 33.5 4t38.5 13z" />
    <glyph glyph-name="Idotaccent" unicode="&#x130;" horiz-adv-x="563" 
d="M474 942q-13 -50 -56.5 -83.5t-93.5 -33.5q-52 0 -77.5 33.5t-12.5 83.5q14 50 57.5 83t94.5 33t76.5 -33t11.5 -83zM474 164l-44 -164h-443l44 164h113l117 435h-113l43 164h443l-43 -164h-112l-117 -435h112z" />
    <glyph glyph-name="dotlessi" unicode="&#x131;" horiz-adv-x="360" 
d="M353 545l-146 -545h-200l146 545h200z" />
    <glyph glyph-name="IJ" unicode="&#x132;" horiz-adv-x="1166" 
d="M1093 297q-43 -158 -130 -232.5t-230 -74.5q-52 0 -109 9.5t-78 22.5l53 197q34 -22 72 -32.5t72 -7.5q62 5 89.5 33.5t46.5 101.5l77 285h-233l43 164h451zM474 164l-44 -164h-443l44 164h113l117 435h-113l43 164h443l-43 -164h-112l-117 -435h112z" />
    <glyph glyph-name="ij" unicode="&#x133;" horiz-adv-x="720" 
d="M426 744q-13 -50 -56.5 -83.5t-93.5 -33.5q-52 0 -77.5 33.5t-12.5 83.5q14 50 57.5 83t94.5 33t76.5 -33t11.5 -83zM786 743q-13 -50 -56.5 -83.5t-93.5 -33.5q-52 0 -77.5 33.5t-12.5 83.5q14 50 57.5 83t94.5 33t76.5 -33t11.5 -83zM353 545l-146 -545h-200l146 545
h200zM193 -58q42 -4 73 -0.5t53 15.5q23 14 38.5 40t27.5 70l128 477h200l-126 -471q-26 -95 -64 -157t-93 -97q-51 -33 -122 -46t-162 -5z" />
    <glyph glyph-name="Jcircumflex" unicode="&#x134;" horiz-adv-x="603" 
d="M487 919l-184 -105l-66 90l211 162h135l125 -162l-96 -90zM530 297q-43 -158 -130 -232.5t-230 -74.5q-52 0 -109 9.5t-78 22.5l53 197q34 -22 72 -32.5t72 -7.5q62 5 89.5 33.5t46.5 101.5l77 285h-233l43 164h451z" />
    <glyph glyph-name="jcircumflex" unicode="&#x135;" horiz-adv-x="360" 
d="M316 736l-162 -127l-77 89l198 192h135l98 -192l-109 -89zM-167 -57q42 -4 73 -0.5t53 15.5q23 14 38.5 40t27.5 70l128 477h200l-126 -471q-26 -95 -64 -157t-93 -97q-51 -33 -122 -46t-162 -5z" />
    <glyph glyph-name="Kcommaaccent" unicode="&#x136;" horiz-adv-x="740" 
d="M303 291l-78 -291h-218l204 763h218l-76 -285q34 0 52 14t49 55q12 17 29.5 42t45.5 66q7 11 25.5 38t47.5 70h248l-221 -279q-26 -33 -51 -54.5t-55 -34.5l-1 -4q15 -11 28 -35.5t25 -63.5l92 -292h-235q-8 35 -11.5 53t-7.5 33q-6 27 -10.5 47t-7.5 36q-8 30 -13.5 50
t-11.5 33q-9 22 -20.5 30.5t-46.5 8.5zM388 -164l-242 -157l-63 85l198 186z" />
    <glyph glyph-name="kcommaaccent" unicode="&#x137;" horiz-adv-x="626" 
d="M266 216l-59 -216h-200l212 791h200l-113 -425q26 0 42.5 14.5t54.5 61.5q10 14 25.5 33.5t53.5 69.5h202l-159 -183q-26 -30 -50 -48.5t-39 -21.5v-3q13 -3 28.5 -21.5t23.5 -43.5l70 -224h-202q-10 36 -14 51.5t-8 27.5q-8 29 -13 47.5t-9 31.5q-11 34 -19 46t-27 12z
M348 -164l-242 -157l-63 85l198 186z" />
    <glyph glyph-name="kgreenlandic" unicode="&#x138;" horiz-adv-x="626" 
d="M250 181l-48 -181h-205l146 545h205l-50 -185q25 0 36 9t28 34q8 11 18 28t25 43q8 12 17.5 28.5t24.5 42.5h235l-140 -178q-29 -37 -49.5 -56.5t-38.5 -27.5l-1 -4q11 -9 20.5 -30t20.5 -65l49 -184h-224q-3 23 -5 40t-4 31q-3 25 -6 42t-6 29q-6 22 -13.5 30.5
t-34.5 8.5z" />
    <glyph glyph-name="Lacute" unicode="&#x139;" horiz-adv-x="614" 
d="M624 938l-334 -139l-34 121l306 170zM558 174l-47 -174h-504l204 763h218l-157 -589h286z" />
    <glyph glyph-name="lacute" unicode="&#x13a;" horiz-adv-x="360" 
d="M519 1038l-274 -188l-70 92l231 217zM419 791l-212 -791h-200l212 791h200z" />
    <glyph glyph-name="Lcommaaccent" unicode="&#x13b;" horiz-adv-x="614" 
d="M558 174l-47 -174h-504l204 763h218l-157 -589h286zM338 -164l-242 -157l-63 85l198 186z" />
    <glyph glyph-name="lcommaaccent" unicode="&#x13c;" horiz-adv-x="360" 
d="M419 791l-212 -791h-200l212 791h200zM180 -164l-242 -157l-63 85l198 186z" />
    <glyph glyph-name="Lcaron" unicode="&#x13d;" horiz-adv-x="614" 
d="M748 883l-186 -269l-116 39l128 272zM558 174l-47 -174h-504l204 763h218l-157 -589h286z" />
    <glyph glyph-name="lcaron" unicode="&#x13e;" horiz-adv-x="360" 
d="M716 893l-186 -269l-116 39l128 272zM419 791l-212 -791h-200l212 791h200z" />
    <glyph glyph-name="Ldot" unicode="&#x13f;" horiz-adv-x="614" 
d="M558 174l-47 -174h-504l204 763h218l-157 -589h286zM657 479q-13 -50 -56.5 -83.5t-93.5 -33.5q-52 0 -77.5 33.5t-12.5 83.5q14 50 57.5 83t94.5 33t76.5 -33t11.5 -83z" />
    <glyph glyph-name="ldot" unicode="&#x140;" horiz-adv-x="469" 
d="M419 791l-212 -791h-200l212 791h200zM643 509q-13 -50 -56.5 -83.5t-93.5 -33.5q-52 0 -77.5 33.5t-12.5 83.5q14 50 57.5 83t94.5 33t76.5 -33t11.5 -83z" />
    <glyph glyph-name="Lslash" unicode="&#x141;" horiz-adv-x="614" 
d="M558 174l-47 -174h-504l54 204l-51 -36v130l94 65l107 400h218l-57 -214l120 83v-130l-163 -113l-57 -215h286z" />
    <glyph glyph-name="lslash" unicode="&#x142;" horiz-adv-x="360" 
d="M403 462l-84 -45l-112 -417h-200l78 292l-79 -42l31 115l79 42l103 384h200l-69 -259l84 45z" />
    <glyph glyph-name="Nacute" unicode="&#x143;" horiz-adv-x="812" 
d="M871 938l-334 -139l-34 121l306 170zM299 315l-84 -315h-208l204 763h200l95 -311q10 -32 18.5 -63t16.5 -60l4 1q6 31 12.5 61t14.5 60l83 312h208l-204 -763h-200l-94 314q-9 32 -17.5 62.5t-16.5 60.5l-5 -1q-5 -30 -12 -60.5t-15 -60.5z" />
    <glyph glyph-name="nacute" unicode="&#x144;" horiz-adv-x="686" 
d="M713 803l-274 -188l-70 92l231 217zM308 377l-101 -377h-200l146 545h200l-9 -35l3 -3q37 24 77 36.5t83 12.5q81 0 113.5 -54t6.5 -150l-94 -352h-200l87 326q10 39 3.5 57t-32.5 18q-19 0 -42.5 -6.5t-40.5 -17.5z" />
    <glyph glyph-name="Ncommaaccent" unicode="&#x145;" horiz-adv-x="812" 
d="M299 315l-84 -315h-208l204 763h200l95 -311q10 -32 18.5 -63t16.5 -60l4 1q6 31 12.5 61t14.5 60l83 312h208l-204 -763h-200l-94 314q-9 32 -17.5 62.5t-16.5 60.5l-5 -1q-5 -30 -12 -60.5t-15 -60.5zM430 -164l-242 -157l-63 85l198 186z" />
    <glyph glyph-name="ncommaaccent" unicode="&#x146;" horiz-adv-x="686" 
d="M308 377l-101 -377h-200l146 545h200l-9 -35l3 -3q37 24 77 36.5t83 12.5q81 0 113.5 -54t6.5 -150l-94 -352h-200l87 326q10 39 3.5 57t-32.5 18q-19 0 -42.5 -6.5t-40.5 -17.5zM354 -164l-242 -157l-63 85l198 186z" />
    <glyph glyph-name="Ncaron" unicode="&#x147;" horiz-adv-x="812" 
d="M579 953l186 112l66 -89l-211 -162h-135l-118 168l91 79zM299 315l-84 -315h-208l204 763h200l95 -311q10 -32 18.5 -63t16.5 -60l4 1q6 31 12.5 61t14.5 60l83 312h208l-204 -763h-200l-94 314q-9 32 -17.5 62.5t-16.5 60.5l-5 -1q-5 -30 -12 -60.5t-15 -60.5z" />
    <glyph glyph-name="ncaron" unicode="&#x148;" horiz-adv-x="686" 
d="M467 760l159 136l75 -90l-198 -192h-135l-98 192l111 90zM308 377l-101 -377h-200l146 545h200l-9 -35l3 -3q37 24 77 36.5t83 12.5q81 0 113.5 -54t6.5 -150l-94 -352h-200l87 326q10 39 3.5 57t-32.5 18q-19 0 -42.5 -6.5t-40.5 -17.5z" />
    <glyph glyph-name="napostrophe" unicode="&#x149;" horiz-adv-x="686" 
d="M233 754l-193 -310l-122 37l143 305zM308 377l-101 -377h-200l146 545h200l-9 -35l3 -3q37 24 77 36.5t83 12.5q81 0 113.5 -54t6.5 -150l-94 -352h-200l87 326q10 39 3.5 57t-32.5 18q-19 0 -42.5 -6.5t-40.5 -17.5z" />
    <glyph glyph-name="Eng" unicode="&#x14a;" horiz-adv-x="812" 
d="M659 0h-1q-39 -120 -110.5 -177.5t-181.5 -57.5q-44 0 -95.5 9.5t-71.5 22.5l52 197q30 -19 63 -29.5t62 -10.5t48.5 10.5t34.5 35.5l-94 314q-9 32 -17.5 62.5t-16.5 60.5l-5 -1q-5 -30 -12 -60.5t-15 -60.5l-84 -315h-208l204 763h200l95 -311q10 -32 18.5 -63
t16.5 -60l4 1q6 31 12.5 61t14.5 60l83 312h208l-183 -686l-11 -40q-1 -3 -2 -6.5t-2 -6.5z" />
    <glyph glyph-name="eng" unicode="&#x14b;" horiz-adv-x="686" 
d="M396 -180q-51 -33 -122 -46t-162 -5l47 174q42 -4 73 -0.5t53 15.5q23 14 38.5 40t27.5 70v0l69 258q10 39 3.5 57t-32.5 18q-19 0 -42.5 -6.5t-40.5 -17.5l-101 -377h-200l146 545h200l-9 -35l3 -3q37 24 77 36.5t83 12.5q81 0 113 -54t7 -150l-74 -279v0
q-26 -95 -64.5 -156.5t-92.5 -96.5z" />
    <glyph glyph-name="Omacron" unicode="&#x14c;" horiz-adv-x="828" 
d="M834 1010l-36 -132h-442l36 132h442zM814 350q-47 -175 -172 -268.5t-304 -87.5q-163 6 -236.5 123.5t-26.5 294.5q47 175 171 269.5t302 87.5q166 -5 240 -123t26 -296zM595 360q31 116 7.5 176.5t-100.5 61.5q-73 1 -128.5 -51t-80.5 -144q-31 -117 -8 -177t100 -61
q74 -1 129.5 51t80.5 144z" />
    <glyph glyph-name="omacron" unicode="&#x14d;" horiz-adv-x="639" 
d="M673 840l-35 -132h-402l35 132h402zM594 246q-31 -121 -121.5 -189t-220.5 -66q-129 2 -186.5 87t-19.5 219q34 123 123.5 191t216.5 66q131 -2 187 -85.5t21 -222.5zM396 261q19 72 9 106t-50 35q-39 1 -67 -29.5t-44 -89.5q-19 -72 -9 -105.5t50 -34.5q39 -1 67 29
t44 89z" />
    <glyph glyph-name="Obreve" unicode="&#x14e;" horiz-adv-x="828" 
d="M840 1043q-26 -105 -93.5 -162.5t-167.5 -57.5q-102 0 -151.5 65t-24.5 155h122q-8 -39 11.5 -61.5t63.5 -22.5t75 22.5t44 61.5h121zM814 350q-47 -175 -172 -268.5t-304 -87.5q-163 6 -236.5 123.5t-26.5 294.5q47 175 171 269.5t302 87.5q166 -5 240 -123t26 -296z
M595 360q31 116 7.5 176.5t-100.5 61.5q-73 1 -128.5 -51t-80.5 -144q-31 -117 -8 -177t100 -61q74 -1 129.5 51t80.5 144z" />
    <glyph glyph-name="obreve" unicode="&#x14f;" horiz-adv-x="639" 
d="M680 859q-29 -113 -95.5 -174.5t-160.5 -59.5q-92 2 -134 69.5t-16 164.5h126q-10 -44 3.5 -70t47.5 -26q35 0 62.5 26t40.5 70h126zM594 246q-31 -121 -121.5 -189t-220.5 -66q-129 2 -186.5 87t-19.5 219q34 123 123.5 191t216.5 66q131 -2 187 -85.5t21 -222.5z
M396 261q19 72 9 106t-50 35q-39 1 -67 -29.5t-44 -89.5q-19 -72 -9 -105.5t50 -34.5q39 -1 67 29t44 89z" />
    <glyph glyph-name="Ohungarumlaut" unicode="&#x150;" horiz-adv-x="828" 
d="M707 985l-313 -201l-64 103l278 224zM1021 941l-328 -157l-44 116l299 187zM814 350q-47 -175 -172 -268.5t-304 -87.5q-163 6 -236.5 123.5t-26.5 294.5q47 175 171 269.5t302 87.5q166 -5 240 -123t26 -296zM595 360q31 116 7.5 176.5t-100.5 61.5q-73 1 -128.5 -51
t-80.5 -144q-31 -117 -8 -177t100 -61q74 -1 129.5 51t80.5 144z" />
    <glyph glyph-name="ohungarumlaut" unicode="&#x151;" horiz-adv-x="639" 
d="M541 855l-234 -237l-97 66l182 253zM783 797l-269 -197l-74 88l223 224zM594 246q-31 -121 -121.5 -189t-220.5 -66q-129 2 -186.5 87t-19.5 219q34 123 123.5 191t216.5 66q131 -2 187 -85.5t21 -222.5zM396 261q19 72 9 106t-50 35q-39 1 -67 -29.5t-44 -89.5
q-19 -72 -9 -105.5t50 -34.5q39 -1 67 29t44 89z" />
    <glyph glyph-name="OE" unicode="&#x152;" horiz-adv-x="1134" 
d="M498 0l3 12q-37 -10 -78 -14.5t-85 -3.5q-163 6 -236.5 123.5t-26.5 294.5q47 175 171 269.5t302 87.5q42 -1 79 -10.5t67 -25.5l8 30h481l-43 -164h-263l-35 -130h251l-44 -164h-249q-2 -5 -4 -10.5t-4 -10.5l-32 -120h294l-44 -164h-512zM385 165q69 -1 122.5 45
t80.5 128l14 53q22 101 -3 153.5t-97 53.5q-73 1 -128.5 -51t-80.5 -144q-31 -117 -8 -177t100 -61z" />
    <glyph glyph-name="oe" unicode="&#x153;" horiz-adv-x="955" 
d="M825 21q-50 -16 -98 -24t-99 -8q-53 0 -95 16t-70 45q-42 -30 -95.5 -45t-115.5 -14q-129 2 -186.5 87t-19.5 219q34 123 123.5 191t216.5 66q52 -1 92.5 -15t68.5 -40q41 29 92 44t107 13q143 -4 182 -99.5t-41 -233.5h-300q0 -2 -0.5 -3l-1.5 -3q-2 -40 23 -58.5
t82 -18.5q33 0 68 5.5t107 26.5zM776 359q10 35 -4.5 54.5t-49.5 19.5q-43 0 -70.5 -24t-41.5 -74h158q1 2 3 6.5t5 17.5zM396 261q19 72 9 106t-50 35q-39 1 -67 -29.5t-44 -89.5q-19 -72 -9 -105.5t50 -34.5q39 -1 67 29t44 89z" />
    <glyph glyph-name="Racute" unicode="&#x154;" horiz-adv-x="731" 
d="M786 938l-334 -139l-34 121l306 170zM291 251l-67 -251h-217l204 763h253q155 0 224.5 -66t39.5 -188q-17 -68 -58 -119t-102 -80l70 -310h-228l-38 253q-13 -1 -29.5 -1.5t-30.5 -0.5h-21zM435 593h-52l-46 -172h48q49 0 81.5 21.5t43.5 61.5q12 41 -9.5 65t-65.5 24z
" />
    <glyph glyph-name="racute" unicode="&#x155;" horiz-adv-x="491" 
d="M650 803l-274 -188l-70 92l231 217zM285 292l-78 -292h-200l146 545h200l-17 -65l3 -3q48 43 86.5 61t76.5 18q10 0 21 -1t23 -4l-55 -205q-18 3 -25.5 3.5t-13.5 0.5q-58 0 -97 -13.5t-70 -44.5z" />
    <glyph glyph-name="Rcommaaccent" unicode="&#x156;" horiz-adv-x="731" 
d="M291 251l-67 -251h-217l204 763h253q155 0 224.5 -66t39.5 -188q-17 -68 -58 -119t-102 -80l70 -310h-228l-38 253q-13 -1 -29.5 -1.5t-30.5 -0.5h-21zM435 593h-52l-46 -172h48q49 0 81.5 21.5t43.5 61.5q12 41 -9.5 65t-65.5 24zM379 -164l-242 -157l-63 85l198 186z
" />
    <glyph glyph-name="rcommaaccent" unicode="&#x157;" horiz-adv-x="491" 
d="M285 292l-78 -292h-200l146 545h200l-17 -65l3 -3q48 43 86.5 61t76.5 18q10 0 21 -1t23 -4l-55 -205q-18 3 -25.5 3.5t-13.5 0.5q-58 0 -97 -13.5t-70 -44.5zM212 -164l-242 -157l-63 85l198 186z" />
    <glyph glyph-name="Rcaron" unicode="&#x158;" horiz-adv-x="731" 
d="M522 953l186 112l66 -89l-211 -162h-135l-118 168l91 79zM291 251l-67 -251h-217l204 763h253q155 0 224.5 -66t39.5 -188q-17 -68 -58 -119t-102 -80l70 -310h-228l-38 253q-13 -1 -29.5 -1.5t-30.5 -0.5h-21zM435 593h-52l-46 -172h48q49 0 81.5 21.5t43.5 61.5
q12 41 -9.5 65t-65.5 24z" />
    <glyph glyph-name="rcaron" unicode="&#x159;" horiz-adv-x="491" 
d="M396 760l159 136l75 -90l-198 -192h-135l-98 192l111 90zM285 292l-78 -292h-200l146 545h200l-17 -65l3 -3q48 43 86.5 61t76.5 18q10 0 21 -1t23 -4l-55 -205q-18 3 -25.5 3.5t-13.5 0.5q-58 0 -97 -13.5t-70 -44.5z" />
    <glyph glyph-name="Sacute" unicode="&#x15a;" horiz-adv-x="644" 
d="M755 938l-334 -139l-34 121l306 170zM576 204q-25 -102 -115.5 -158t-233.5 -56q-82 0 -137 8.5t-106 28.5l50 186q41 -28 96.5 -43t116.5 -15q48 0 76 15t36 45q6 23 -9 43t-76 55q-57 32 -83 53.5t-41 45.5q-22 32 -27 70.5t6 84.5q23 97 110.5 151.5t219.5 54.5
q74 0 130.5 -11t93.5 -33l-52 -196q-30 33 -83 52.5t-112 19.5q-42 0 -65 -11.5t-29 -35.5q-7 -25 8.5 -46.5t80.5 -60.5q55 -33 80.5 -53.5t41.5 -43.5q22 -31 28 -68.5t-5 -81.5z" />
    <glyph glyph-name="sacute" unicode="&#x15b;" horiz-adv-x="534" 
d="M626 803l-274 -188l-70 92l231 217zM451 148q-17 -74 -87.5 -117t-173.5 -43q-59 0 -109 8.5t-87 24.5l42 160q33 -21 77.5 -34.5t84.5 -13.5q30 0 46 6.5t20 19.5q4 15 -6 26.5t-52 31.5q-45 22 -66 38t-34 36q-15 24 -18.5 54.5t4.5 68.5q15 67 83 104t177 37
q51 0 93 -6t82 -19l-42 -155q-22 15 -66 25.5t-86 10.5q-27 0 -40 -5.5t-17 -19.5q-4 -13 6.5 -24t51.5 -30q45 -20 66 -35t34 -32q17 -23 21 -52t-4 -65z" />
    <glyph glyph-name="Scircumflex" unicode="&#x15c;" horiz-adv-x="644" 
d="M506 919l-184 -105l-66 90l211 162h135l125 -162l-96 -90zM576 204q-25 -102 -115.5 -158t-233.5 -56q-82 0 -137 8.5t-106 28.5l50 186q41 -28 96.5 -43t116.5 -15q48 0 76 15t36 45q6 23 -9 43t-76 55q-57 32 -83 53.5t-41 45.5q-22 32 -27 70.5t6 84.5
q23 97 110.5 151.5t219.5 54.5q74 0 130.5 -11t93.5 -33l-52 -196q-30 33 -83 52.5t-112 19.5q-42 0 -65 -11.5t-29 -35.5q-7 -25 8.5 -46.5t80.5 -60.5q55 -33 80.5 -53.5t41.5 -43.5q22 -31 28 -68.5t-5 -81.5z" />
    <glyph glyph-name="scircumflex" unicode="&#x15d;" horiz-adv-x="534" 
d="M407 736l-162 -127l-77 89l198 192h135l98 -192l-109 -89zM451 148q-17 -74 -87.5 -117t-173.5 -43q-59 0 -109 8.5t-87 24.5l42 160q33 -21 77.5 -34.5t84.5 -13.5q30 0 46 6.5t20 19.5q4 15 -6 26.5t-52 31.5q-45 22 -66 38t-34 36q-15 24 -18.5 54.5t4.5 68.5
q15 67 83 104t177 37q51 0 93 -6t82 -19l-42 -155q-22 15 -66 25.5t-86 10.5q-27 0 -40 -5.5t-17 -19.5q-4 -13 6.5 -24t51.5 -30q45 -20 66 -35t34 -32q17 -23 21 -52t-4 -65z" />
    <glyph glyph-name="Scedilla" unicode="&#x15e;" horiz-adv-x="644" 
d="M386 -107q-15 -57 -68.5 -93t-118.5 -36q-34 0 -65 5.5t-56 15.5l34 124q17 -9 30.5 -13t27.5 -4q21 0 35.5 12t20.5 33q4 14 2.5 26.5t-10.5 26.5q-78 0 -131 9t-103 28l50 186q41 -28 96.5 -43t116.5 -15q48 0 76 15t36 45q6 23 -9 43t-76 55q-57 32 -83 53.5t-41 45.5
q-22 32 -27 70.5t6 84.5q23 97 110.5 151.5t219.5 54.5q74 0 130.5 -11t93.5 -33l-52 -196q-30 33 -83 52.5t-112 19.5q-42 0 -65 -11.5t-29 -35.5q-7 -25 8.5 -46.5t80.5 -60.5q55 -33 80.5 -53.5t41.5 -43.5q22 -31 28 -68.5t-5 -81.5q-19 -76 -74.5 -127t-142.5 -72
q10 -9 14 -15.5t8 -13.5q9 -18 10.5 -38.5t-5.5 -44.5z" />
    <glyph glyph-name="scedilla" unicode="&#x15f;" horiz-adv-x="534" 
d="M313 -107q-15 -57 -68.5 -93t-118.5 -36q-34 0 -65 5.5t-56 15.5l34 124q17 -9 30.5 -13t27.5 -4q21 0 35.5 12t20.5 33q4 14 2.5 26t-10.5 26q-44 3 -82.5 11t-68.5 21l42 160q33 -21 77.5 -34.5t84.5 -13.5q30 0 46 6.5t20 19.5q4 15 -6 26.5t-52 31.5q-45 22 -66 38
t-34 36q-15 24 -18.5 54.5t4.5 68.5q15 67 83 104t177 37q51 0 93 -6t82 -19l-42 -155q-22 15 -66 25.5t-86 10.5q-27 0 -40 -5.5t-17 -19.5q-4 -13 6.5 -24t51.5 -30q45 -20 66 -35t34 -32q17 -23 21 -52t-4 -65q-13 -54 -55 -92.5t-105 -55.5q7 -7 10.5 -12.5t6.5 -11.5
q9 -18 10.5 -38.5t-5.5 -44.5z" />
    <glyph glyph-name="Scaron" unicode="&#x160;" horiz-adv-x="644" 
d="M495 953l186 112l66 -89l-211 -162h-135l-118 168l91 79zM576 204q-25 -102 -115.5 -158t-233.5 -56q-82 0 -137 8.5t-106 28.5l50 186q41 -28 96.5 -43t116.5 -15q48 0 76 15t36 45q6 23 -9 43t-76 55q-57 32 -83 53.5t-41 45.5q-22 32 -27 70.5t6 84.5
q23 97 110.5 151.5t219.5 54.5q74 0 130.5 -11t93.5 -33l-52 -196q-30 33 -83 52.5t-112 19.5q-42 0 -65 -11.5t-29 -35.5q-7 -25 8.5 -46.5t80.5 -60.5q55 -33 80.5 -53.5t41.5 -43.5q22 -31 28 -68.5t-5 -81.5z" />
    <glyph glyph-name="scaron" unicode="&#x161;" horiz-adv-x="534" 
d="M390 760l159 136l75 -90l-198 -192h-135l-98 192l111 90zM451 148q-17 -74 -87.5 -117t-173.5 -43q-59 0 -109 8.5t-87 24.5l42 160q33 -21 77.5 -34.5t84.5 -13.5q30 0 46 6.5t20 19.5q4 15 -6 26.5t-52 31.5q-45 22 -66 38t-34 36q-15 24 -18.5 54.5t4.5 68.5
q15 67 83 104t177 37q51 0 93 -6t82 -19l-42 -155q-22 15 -66 25.5t-86 10.5q-27 0 -40 -5.5t-17 -19.5q-4 -13 6.5 -24t51.5 -30q45 -20 66 -35t34 -32q17 -23 21 -52t-4 -65z" />
    <glyph glyph-name="Tcaron" unicode="&#x164;" horiz-adv-x="608" 
d="M477 953l186 112l66 -89l-211 -162h-135l-118 168l91 79zM497 589l-158 -589h-216l158 589h-196l46 174h608l-46 -174h-196z" />
    <glyph glyph-name="tcaron" unicode="&#x165;" horiz-adv-x="500" 
d="M740 863l-186 -269l-116 39l128 272zM400 13q-36 -11 -73 -17t-76 -6q-97 0 -141 62.5t-17 162.5l48 180h-88l40 150h88l39 144h200l-39 -144h152l-40 -150h-152l-36 -136q-13 -48 -1.5 -72.5t47.5 -24.5q17 0 40.5 3.5t52.5 10.5z" />
    <glyph glyph-name="Tbar" unicode="&#x166;" horiz-adv-x="608" 
d="M598 339h-168l-91 -339h-216l91 339h-204v109h233l38 141h-196l46 174h608l-46 -174h-196l-38 -141h139v-109z" />
    <glyph glyph-name="tbar" unicode="&#x167;" horiz-adv-x="500" 
d="M400 13q-36 -11 -73 -17t-76 -6q-97 0 -141 62.5t-17 162.5l3 10h-79l26 96h78l20 74h-88l40 150h88l39 144h200l-39 -144h152l-40 -150h-152l-20 -74h141l-26 -96h-137q-3 -31 10 -47t42 -16q17 0 40.5 3.5t52.5 10.5z" />
    <glyph glyph-name="Utilde" unicode="&#x168;" horiz-adv-x="812" 
d="M840 1041q-18 -103 -66 -156t-122 -53q-22 0 -41.5 7.5t-47.5 29.5q-18 14 -26.5 18t-16.5 4q-25 0 -38 -12.5t-25 -48.5h-129q18 103 66 156t123 53q24 0 44.5 -7t50.5 -28q19 -13 28 -17t17 -4q21 0 32.5 12.5t21.5 45.5h129zM635 93q-48 -54 -116 -78.5t-173 -24.5
q-173 1 -231.5 96.5t-5.5 290.5l103 386h218l-106 -396q-14 -54 -18 -78.5t-4 -42.5q2 -36 22 -53t60 -17q36 0 63 16t47 49q12 19 22 46t24 80l106 396h218l-102 -381q-29 -108 -59.5 -176.5t-67.5 -112.5z" />
    <glyph glyph-name="utilde" unicode="&#x169;" horiz-adv-x="686" 
d="M742 879q-33 -124 -81 -181.5t-116 -54.5q-22 1 -39.5 11t-38.5 39q-16 20 -25 26t-19 6q-16 1 -30 -19.5t-25 -60.5h-127q31 120 81.5 180t115.5 55q26 -2 46 -13t43 -42q14 -18 22 -23.5t17 -5.5q13 -1 25 19t24 64h127zM341 44q-40 -28 -80.5 -42t-81.5 -14
q-78 0 -111.5 57t-8.5 151l94 348h200l-86 -321q-11 -42 -5 -61t30 -19q21 0 45 8.5t43 22.5l99 370h200l-146 -544h-200l11 41z" />
    <glyph glyph-name="Umacron" unicode="&#x16a;" horiz-adv-x="812" 
d="M826 1010l-36 -132h-442l36 132h442zM635 93q-48 -54 -116 -78.5t-173 -24.5q-173 1 -231.5 96.5t-5.5 290.5l103 386h218l-106 -396q-14 -54 -18 -78.5t-4 -42.5q2 -36 22 -53t60 -17q36 0 63 16t47 49q12 19 22 46t24 80l106 396h218l-102 -381q-29 -108 -59.5 -176.5
t-67.5 -112.5z" />
    <glyph glyph-name="umacron" unicode="&#x16b;" horiz-adv-x="686" 
d="M696 840l-35 -132h-402l35 132h402zM341 44q-40 -28 -80.5 -42t-81.5 -14q-78 0 -111.5 57t-8.5 151l94 348h200l-86 -321q-11 -42 -5 -61t30 -19q21 0 45 8.5t43 22.5l99 370h200l-146 -544h-200l11 41z" />
    <glyph glyph-name="Ubreve" unicode="&#x16c;" horiz-adv-x="812" 
d="M832 1043q-26 -105 -93.5 -162.5t-167.5 -57.5q-102 0 -151.5 65t-24.5 155h122q-8 -39 11.5 -61.5t63.5 -22.5t75 22.5t44 61.5h121zM635 91q-48 -54 -116 -78.5t-173 -24.5q-173 1 -231.5 96.5t-5.5 290.5l103 386h218l-106 -396q-14 -54 -18 -78.5t-4 -42.5
q2 -36 22 -53t60 -17q36 0 63 16t47 49q12 19 22 46t24 80l106 396h218l-102 -381q-29 -108 -59.5 -176.5t-67.5 -112.5z" />
    <glyph glyph-name="ubreve" unicode="&#x16d;" horiz-adv-x="686" 
d="M703 860q-29 -113 -95.5 -174.5t-160.5 -59.5q-92 2 -134 69.5t-16 164.5h126q-10 -44 3.5 -70t47.5 -26q35 0 62.5 26t40.5 70h126zM341 44q-40 -28 -80.5 -42t-81.5 -14q-78 0 -111.5 57t-8.5 151l94 348h200l-86 -321q-11 -42 -5 -61t30 -19q21 0 45 8.5t43 22.5
l99 370h200l-146 -544h-200l11 41z" />
    <glyph glyph-name="Uring" unicode="&#x16e;" horiz-adv-x="812" 
d="M612 1079q91 -2 139.5 -45t31.5 -103q-16 -59 -77.5 -95t-147.5 -35q-91 2 -138 46t-30 108q14 55 76.5 90t145.5 34zM599 989q-36 1 -61 -12t-31 -36q-6 -22 12 -35.5t54 -14.5t61 12t31 36q6 22 -12 35.5t-54 14.5zM635 93q-48 -54 -116 -78.5t-173 -24.5
q-173 1 -231.5 96.5t-5.5 290.5l103 386h218l-106 -396q-14 -54 -18 -78.5t-4 -42.5q2 -36 22 -53t60 -17q36 0 63 16t47 49q12 19 22 46t24 80l106 396h218l-102 -381q-29 -108 -59.5 -176.5t-67.5 -112.5z" />
    <glyph glyph-name="uring" unicode="&#x16f;" horiz-adv-x="686" 
d="M506 928q68 -2 104 -51t18 -117q-16 -63 -65 -101t-115 -38q-70 0 -105 49t-16 119q16 61 66.5 100.5t112.5 38.5zM488 823q-22 0 -38 -13t-22 -35q-6 -23 4.5 -36.5t34.5 -13.5q20 0 37 13.5t22 34.5q6 23 -4 36.5t-34 13.5zM341 44q-40 -28 -80.5 -42t-81.5 -14
q-78 0 -111.5 57t-8.5 151l94 348h200l-86 -321q-11 -42 -5 -61t30 -19q21 0 45 8.5t43 22.5l99 370h200l-146 -544h-200l11 41z" />
    <glyph glyph-name="Uhungarumlaut" unicode="&#x170;" horiz-adv-x="812" 
d="M696 985l-313 -201l-64 103l278 224zM1010 941l-328 -157l-44 116l299 187zM635 93q-48 -54 -116 -78.5t-173 -24.5q-173 1 -231.5 96.5t-5.5 290.5l103 386h218l-106 -396q-14 -54 -18 -78.5t-4 -42.5q2 -36 22 -53t60 -17q36 0 63 16t47 49q12 19 22 46t24 80l106 396
h218l-102 -381q-29 -108 -59.5 -176.5t-67.5 -112.5z" />
    <glyph glyph-name="uhungarumlaut" unicode="&#x171;" horiz-adv-x="686" 
d="M575 855l-234 -237l-97 66l182 253zM817 797l-269 -197l-74 88l223 224zM341 44q-40 -28 -80.5 -42t-81.5 -14q-78 0 -111.5 57t-8.5 151l94 348h200l-86 -321q-11 -42 -5 -61t30 -19q21 0 45 8.5t43 22.5l99 370h200l-146 -544h-200l11 41z" />
    <glyph glyph-name="Uogonek" unicode="&#x172;" horiz-adv-x="812" 
d="M388 -215q-29 -10 -63 -15.5t-68 -5.5q-66 0 -100 36t-19 93q9 34 31 61t56 46q2 1 3.5 2t3.5 2q-105 29 -135.5 122t12.5 251l103 386h218l-106 -396q-14 -54 -18 -78.5t-4 -42.5q2 -36 22 -53t60 -17q36 0 63 16t47 49q12 19 22 46t24 80l106 396h218l-102 -381
q-29 -108 -59.5 -176.5t-67.5 -112.5q-39 -44 -91.5 -68.5t-126.5 -31.5q-40 -12 -67 -32t-32 -40q-4 -14 4 -21.5t28 -7.5q16 0 33.5 4t38.5 13z" />
    <glyph glyph-name="uogonek" unicode="&#x173;" horiz-adv-x="686" 
d="M475 -215q-29 -10 -63 -15.5t-68 -5.5q-66 0 -100 36t-19 93q9 34 31 61t56 46l12 6l12 6l8 29l-3 3q-40 -28 -80.5 -42t-81.5 -14q-78 0 -111.5 57t-8.5 151l94 348h200l-86 -321q-11 -42 -5 -61t30 -19q21 0 45 8.5t43 22.5l99 370h200l-146 -544q-50 -9 -86 -32
t-42 -47q-4 -14 4 -21.5t28 -7.5q16 0 33.5 4t38.5 13z" />
    <glyph glyph-name="Wcircumflex" unicode="&#x174;" horiz-adv-x="1072" 
d="M720 919l-184 -105l-66 90l211 162h135l125 -162l-96 -90zM581 450l-241 -450h-218l49 763h220l-32 -253q-5 -40 -14 -96t-23 -128h5q33 67 61 123t52 102l131 252h187v-253q0 -44 -1 -100t-3 -124h5q23 72 42.5 128t36.5 96l106 253h219l-357 -763h-219l-2 450h-4z" />
    <glyph glyph-name="wcircumflex" unicode="&#x175;" horiz-adv-x="856" 
d="M566 736l-162 -127l-77 89l198 192h135l98 -192l-109 -89zM374 144l-76 -144h-169l-56 545h199l-4 -228q-1 -30 -2 -51.5t-3 -33.5h2q3 13 12 34t24 51l111 228h173l-7 -228q-1 -30 -1.5 -51.5t-0.5 -33.5h2q2 13 10 34t23 51l116 228h202l-326 -545h-169l-3 144
q-1 39 -0.5 68t2.5 49h-4q-7 -20 -21 -49t-34 -68z" />
    <glyph glyph-name="Ycircumflex" unicode="&#x176;" horiz-adv-x="724" 
d="M546 919l-184 -105l-66 90l211 162h135l125 -162l-96 -90zM473 281l-75 -281h-216l75 281l-136 482h237l35 -199q5 -30 8 -55.5t4 -52.5h6q33 60 43 76t21 32l140 199h244z" />
    <glyph glyph-name="ycircumflex" unicode="&#x177;" horiz-adv-x="613" 
d="M445 736l-162 -127l-77 89l198 192h135l98 -192l-109 -89zM323 0q-94 -140 -168 -187t-189 -47q-15 0 -32.5 0.5t-35.5 2.5l47 174l27 -1.5t16 -0.5q54 0 93.5 17t61.5 49l-70 538h210l5 -246q1 -32 0.5 -55t-2.5 -36h3q3 13 13.5 36t28.5 55l136 246h219z" />
    <glyph glyph-name="Ydieresis" unicode="&#x178;" horiz-adv-x="724" 
d="M505 944q-11 -42 -47.5 -70.5t-80.5 -28.5q-43 0 -64.5 28.5t-10.5 70.5q11 43 48 71.5t81 28.5q43 0 64 -28.5t10 -71.5zM783 944q-11 -42 -48 -70.5t-81 -28.5q-43 0 -64.5 28.5t-10.5 70.5t48 70.5t80 28.5q44 0 65.5 -28.5t10.5 -70.5zM473 281l-75 -281h-216l75 281
l-136 482h237l35 -199q5 -30 8 -55.5t4 -52.5h6q33 60 43 76t21 32l140 199h244z" />
    <glyph glyph-name="Zacute" unicode="&#x179;" horiz-adv-x="654" 
d="M793 938l-334 -139l-34 121l306 170zM578 174l-47 -174h-547l36 159l402 427l-1 3h-276l46 174h530l-41 -169l-400 -417l2 -3h296z" />
    <glyph glyph-name="zacute" unicode="&#x17a;" horiz-adv-x="564" 
d="M622 803l-274 -188l-70 92l231 217zM484 162l-43 -162h-464l34 128l282 251l-1 4h-202l43 162h443l-34 -128l-284 -252l1 -3h225z" />
    <glyph glyph-name="Zdotaccent" unicode="&#x17b;" horiz-adv-x="654" 
d="M614 942q-13 -50 -56.5 -83.5t-93.5 -33.5q-52 0 -77.5 33.5t-12.5 83.5q14 50 57.5 83t94.5 33t76.5 -33t11.5 -83zM578 174l-47 -174h-547l36 159l402 427l-1 3h-276l46 174h530l-41 -169l-400 -417l2 -3h296z" />
    <glyph glyph-name="zdotaccent" unicode="&#x17c;" horiz-adv-x="564" 
d="M528 744q-13 -50 -56.5 -83.5t-93.5 -33.5q-52 0 -77.5 33.5t-12.5 83.5q14 50 57.5 83t94.5 33t76.5 -33t11.5 -83zM484 162l-43 -162h-464l34 128l282 251l-1 4h-202l43 162h443l-34 -128l-284 -252l1 -3h225z" />
    <glyph glyph-name="Zcaron" unicode="&#x17d;" horiz-adv-x="654" 
d="M500 953l186 112l66 -89l-211 -162h-135l-118 168l91 79zM578 174l-47 -174h-547l36 159l402 427l-1 3h-276l46 174h530l-41 -169l-400 -417l2 -3h296z" />
    <glyph glyph-name="zcaron" unicode="&#x17e;" horiz-adv-x="564" 
d="M407 760l159 136l75 -90l-198 -192h-135l-98 192l111 90zM484 162l-43 -162h-464l34 128l282 251l-1 4h-202l43 162h443l-34 -128l-284 -252l1 -3h225z" />
    <glyph glyph-name="longs" unicode="&#x17f;" horiz-adv-x="479" 
d="M385 545l-146 -545h-200l106 395h-82l40 150h83q41 136 117.5 196t205.5 60q33 0 67.5 -5t68.5 -15l-43 -162q-29 10 -55 14t-56 4q-44 0 -68 -20.5t-38 -71.5z" />
    <glyph glyph-name="Schwa" unicode="&#x18f;" horiz-adv-x="797" 
d="M215 729q66 24 130.5 35t128.5 9q178 -7 253.5 -127.5t22.5 -327.5q-41 -158 -164 -250.5t-292 -82.5q-93 5 -153 48t-79 117q-15 61 0 136.5t59 158.5h444q7 77 -31 112t-126 35q-51 0 -106 -10t-136 -36zM252 263q-16 -58 8.5 -91.5t82.5 -33.5q67 0 116 42t74 122
h-267q-3 -4 -6 -12t-8 -27z" />
    <glyph glyph-name="florin" unicode="&#x192;" horiz-adv-x="498" 
d="M219 22q-44 -132 -127.5 -194.5t-215.5 -62.5q-22 0 -42 1t-39 3l47 174q77 -10 119 11t60 75l97 288h-91l40 150h102l26 78q44 130 124 193t199 63q33 0 67.5 -5t68.5 -15l-43 -162q-29 10 -55 14t-56 4q-41 0 -64 -19t-41 -73l-26 -78h124l-40 -150h-135z" />
    <glyph glyph-name="Aringacute" unicode="&#x1fa;" horiz-adv-x="774" 
d="M771 1235l-334 -139l-34 121l306 170zM590 1079q91 -2 139.5 -45t31.5 -103q-16 -59 -77.5 -95t-147.5 -35q-91 2 -138 46t-30 108q14 55 76.5 90t145.5 34zM577 989q-36 1 -61 -12t-31 -36q-6 -22 12 -35.5t54 -14.5t61 12t31 36q6 22 -12 35.5t-54 14.5zM259 140
l-80 -140h-232l456 763h228l49 -763h-219l1 140h-203zM466 566q-12 -30 -32.5 -75t-37.5 -76l-62 -111h131l1 111q1 45 3 90t4 61h-7z" />
    <glyph glyph-name="aringacute" unicode="&#x1fb;" horiz-adv-x="566" 
d="M686 1047l-334 -139l-34 121l306 170zM465 894q68 -2 104 -51t18 -117q-16 -63 -65 -101t-115 -38q-70 0 -105 49t-16 119q16 61 66.5 100.5t112.5 38.5zM447 789q-22 0 -38 -13t-22 -35q-6 -23 4.5 -36.5t34.5 -13.5q20 0 37 13.5t22 34.5q6 23 -4 36.5t-34 13.5z
M303 53q-45 -36 -82.5 -50t-81.5 -14q-69 0 -103 55.5t-12 132.5q21 76 92.5 114.5t192.5 38.5h48q2 3 3 6.5t4 15.5q7 27 -12 39.5t-66 12.5q-45 0 -85.5 -7.5t-86.5 -24.5l42 157q47 13 96.5 19.5t100.5 6.5q135 0 181.5 -66.5t9.5 -204.5l-76 -284h-155l-6 52zM308 228
q-40 0 -62 -12.5t-30 -42.5q-6 -24 3 -38.5t32 -14.5q19 0 42.5 10.5t35.5 24.5l19 73h-40z" />
    <glyph glyph-name="AEacute" unicode="&#x1fc;" horiz-adv-x="1015" 
d="M1055 938l-334 -139l-34 121l306 170zM-82 0l512 763h633l-43 -164h-263l-35 -130h251l-44 -164h-251l-38 -141h294l-44 -164h-512l37 140h-183l-89 -140h-225zM531 609l-194 -305h122l82 305h-10z" />
    <glyph glyph-name="aeacute" unicode="&#x1fd;" horiz-adv-x="900" 
d="M835 803l-274 -188l-70 92l231 217zM574 -8q-56 0 -99.5 17.5t-71.5 50.5q-50 -35 -105.5 -53t-114.5 -18q-92 0 -137 52t-22 136q21 76 92.5 114.5t192.5 38.5h48q2 3 3 6t4 16q7 27 -12 39.5t-66 12.5q-45 0 -85.5 -7.5t-86.5 -24.5l42 157q47 13 96.5 19.5t100.5 6.5
q53 0 93 -10t65 -31q39 23 85 35t96 10q143 -4 182 -99.5t-41 -233.5h-301q-5 -43 20 -63t84 -20q33 0 68 5.5t107 26.5l-40 -151q-50 -16 -98 -24t-99 -8zM722 362q10 35 -4.5 54.5t-49.5 19.5q-43 0 -70.5 -24t-41.5 -74h158q1 2 3 6.5t5 17.5zM251 120q28 -3 58.5 7.5
t49.5 27.5q-4 17 -5 35.5t0 37.5h-46q-40 0 -62.5 -13t-29.5 -42q-5 -20 5.5 -35.5t29.5 -17.5z" />
    <glyph glyph-name="Oslashacute" unicode="&#x1fe;" horiz-adv-x="828" 
d="M888 938l-334 -139l-34 121l306 170zM337 -6q-56 2 -102 18t-81 44l-83 -76l-62 60l88 81q-33 55 -39.5 129.5t16.5 161.5q47 175 171 269.5t302 87.5q57 -2 104 -18t82 -44l83 76l62 -60l-88 -81q33 -55 40 -130t-17 -162q-47 -175 -172 -268.5t-304 -87.5zM292 403
q-9 -35 -13.5 -65t-4.5 -54l308 284q-13 15 -33.5 22.5t-47.5 7.5q-73 1 -128.5 -51t-80.5 -144zM384 165q74 -1 129.5 51t80.5 144q9 34 13.5 64t4.5 54l-309 -284q14 -14 34.5 -21.5t46.5 -7.5z" />
    <glyph glyph-name="oslashacute" unicode="&#x1ff;" horiz-adv-x="639" 
d="M674 803l-274 -188l-70 92l231 217zM251 -9q-45 1 -81.5 12t-63.5 31l-61 -54l-46 50l61 55q-25 39 -29 93.5t14 118.5q34 123 123.5 191t216.5 66q46 -1 83.5 -12t64.5 -32l61 55l47 -50l-62 -56q22 -39 26 -93.5t-12 -119.5q-31 -121 -121.5 -189t-220.5 -66zM243 283
q-3 -11 -5.5 -21.5t-3.5 -20.5l161 145q-7 8 -17 12t-24 4q-39 1 -67 -29.5t-44 -89.5zM284 143q39 -1 67 29t44 89q3 11 5.5 21.5t3.5 19.5l-160 -143q7 -8 17 -12t23 -4z" />
    <glyph glyph-name="Scommaaccent" unicode="&#x218;" horiz-adv-x="644" 
d="M576 204q-25 -102 -115.5 -158t-233.5 -56q-82 0 -137 8.5t-106 28.5l50 186q41 -28 96.5 -43t116.5 -15q48 0 76 15t36 45q6 23 -9 43t-76 55q-57 32 -83 53.5t-41 45.5q-22 32 -27 70.5t6 84.5q23 97 110.5 151.5t219.5 54.5q74 0 130.5 -11t93.5 -33l-52 -196
q-30 33 -83 52.5t-112 19.5q-42 0 -65 -11.5t-29 -35.5q-7 -25 8.5 -46.5t80.5 -60.5q55 -33 80.5 -53.5t41.5 -43.5q22 -31 28 -68.5t-5 -81.5zM354 -164l-242 -157l-63 85l198 186z" />
    <glyph glyph-name="scommaaccent" unicode="&#x219;" horiz-adv-x="534" 
d="M451 148q-17 -74 -87.5 -117t-173.5 -43q-59 0 -109 8.5t-87 24.5l42 160q33 -21 77.5 -34.5t84.5 -13.5q30 0 46 6.5t20 19.5q4 15 -6 26.5t-52 31.5q-45 22 -66 38t-34 36q-15 24 -18.5 54.5t4.5 68.5q15 67 83 104t177 37q51 0 93 -6t82 -19l-42 -155q-22 15 -66 25.5
t-86 10.5q-27 0 -40 -5.5t-17 -19.5q-4 -13 6.5 -24t51.5 -30q45 -20 66 -35t34 -32q17 -23 21 -52t-4 -65zM277 -164l-242 -157l-63 85l198 186z" />
    <glyph glyph-name="Tcommaaccent" unicode="&#x21a;" horiz-adv-x="608" 
d="M497 589l-158 -589h-216l158 589h-196l46 174h608l-46 -174h-196zM310 -164l-242 -157l-63 85l198 186z" />
    <glyph glyph-name="tcommaaccent" unicode="&#x21b;" horiz-adv-x="500" 
d="M400 13q-36 -11 -73 -17t-76 -6q-97 0 -141 62.5t-17 162.5l48 180h-88l40 150h88l39 144h200l-39 -144h152l-40 -150h-152l-36 -136q-13 -48 -1.5 -72.5t47.5 -24.5q17 0 40.5 3.5t52.5 10.5zM303 -164l-242 -157l-63 85l198 186z" />
    <glyph glyph-name="dotlessj" unicode="&#x237;" horiz-adv-x="360" 
d="M-167 -57q42 -4 73 -0.5t53 15.5q23 14 38.5 40t27.5 70l128 477h200l-126 -471q-26 -95 -64 -157t-93 -97q-51 -33 -122 -46t-162 -5z" />
    <glyph glyph-name="circumflex" unicode="&#x2c6;" horiz-adv-x="491" 
d="M383 736l-162 -127l-77 89l198 192h135l98 -192l-109 -89z" />
    <glyph glyph-name="caron" unicode="&#x2c7;" horiz-adv-x="491" 
d="M370 760l159 136l75 -90l-198 -192h-135l-98 192l111 90z" />
    <glyph glyph-name="breve" unicode="&#x2d8;" horiz-adv-x="466" 
d="M593 859q-29 -113 -95.5 -174.5t-160.5 -59.5q-92 2 -134 69.5t-16 164.5h126q-10 -44 3.5 -70t47.5 -26q35 0 62.5 26t40.5 70h126z" />
    <glyph glyph-name="dotaccent" unicode="&#x2d9;" horiz-adv-x="360" 
d="M427 744q-13 -50 -56.5 -83.5t-93.5 -33.5q-52 0 -77.5 33.5t-12.5 83.5q14 50 57.5 83t94.5 33t76.5 -33t11.5 -83z" />
    <glyph glyph-name="ring" unicode="&#x2da;" horiz-adv-x="308" 
d="M317 928q68 -2 104 -51t18 -117q-16 -63 -65 -101t-115 -38q-70 0 -105 49t-16 119q16 61 66.5 100.5t112.5 38.5zM299 823q-22 0 -38 -13t-22 -35q-6 -23 4.5 -36.5t34.5 -13.5q20 0 37 13.5t22 34.5q6 23 -4 36.5t-34 13.5z" />
    <glyph glyph-name="ogonek" unicode="&#x2db;" horiz-adv-x="339" 
d="M-73 -107q9 34 31 61t56 46q27 15 58.5 26t67.5 19l95 -45q-50 -9 -86 -32t-42 -47q-4 -14 4 -21.5t28 -7.5q16 0 33.5 4t38.5 13l-34 -124q-29 -10 -63 -15.5t-68 -5.5q-66 0 -100 36t-19 93z" />
    <glyph glyph-name="tilde" unicode="&#x2dc;" horiz-adv-x="498" 
d="M631 879q-33 -124 -81 -181.5t-116 -54.5q-22 1 -39.5 11t-38.5 39q-16 20 -25 26t-19 6q-16 1 -30 -19.5t-25 -60.5h-127q31 120 81.5 180t115.5 55q26 -2 46 -13t43 -42q14 -18 22 -23.5t17 -5.5q13 -1 25 19t24 64h127z" />
    <glyph glyph-name="hungarumlaut" unicode="&#x2dd;" horiz-adv-x="582" 
d="M461 855l-234 -237l-97 66l182 253zM703 797l-269 -197l-74 88l223 224z" />
    <glyph glyph-name="Omega" unicode="&#x3a9;" horiz-adv-x="848" 
d="M149 171q-37 38 -53.5 124.5t5.5 169.5q36 141 154.5 224.5t279.5 83.5q78 0 142.5 -24.5t107.5 -70.5q45 -49 59 -115.5t-6 -141.5q-19 -73 -74 -142.5t-119 -107.5h109l-46 -171h-300l46 173q63 55 101 111t56 121q24 91 -3 143t-100 52q-72 0 -124 -50.5t-75 -144.5
q-17 -67 -9.5 -122.5t40.5 -109.5l-46 -173h-300l46 171h109z" />
    <glyph glyph-name="alpha" unicode="&#x3b1;" horiz-adv-x="731" 
d="M744 545l-160 -272l24 -273h-165l-3 105q-51 -57 -108.5 -86.5t-119.5 -29.5q-105 0 -152 88.5t-14 217.5q30 116 115.5 188.5t190.5 72.5q69 0 116 -29t63 -79l47 97h166zM196 287q-11 -41 14.5 -67t75.5 -26t90 19t61 55q-6 40 -37.5 61t-83.5 21q-45 0 -79 -17.5
t-41 -45.5z" />
    <glyph glyph-name="delta" unicode="&#x3b4;" horiz-adv-x="644" 
d="M592 226q-28 -101 -125.5 -169t-211.5 -68q-125 0 -187.5 79t-28.5 198q18 63 73.5 123.5t127.5 92.5q-40 36 -51 69.5t1 80.5q18 66 99 118t181 52q75 0 138 -11t124 -35l-104 -173q-50 17 -101 26.5t-92 9.5q-25 0 -39 -6t-17 -17q-4 -13 18 -31t79 -51
q85 -49 114 -121t2 -167zM192 269q-12 -46 14 -70t88 -24q60 0 102 24t53 65q10 40 -17 74t-85 54q-48 -9 -96 -46t-59 -77z" />
    <glyph glyph-name="epsilon" unicode="&#x3b5;" horiz-adv-x="560" 
d="M364 383q-42 0 -67.5 -8.5t-29.5 -23.5q-4 -13 5.5 -21t30.5 -8q34 7 68.5 11.5t62.5 4.5l-37 -135q-24 0 -51.5 3t-70.5 11q-28 0 -46.5 -7.5t-21.5 -20.5q-5 -15 15.5 -21.5t70.5 -6.5q54 0 94.5 5.5t73.5 16.5l11 -127q-51 -33 -122.5 -50t-157.5 -17
q-100 0 -151 46.5t-33 118.5q10 39 45.5 71t88.5 48q-43 31 -55 64t1 78q18 65 94.5 103t194.5 38q68 0 123.5 -17.5t85.5 -47.5l-81 -131q-37 12 -71.5 17.5t-69.5 5.5z" />
    <glyph glyph-name="theta" unicode="&#x3b8;" horiz-adv-x="573" 
d="M427 797q111 0 149 -112t-11 -294t-147 -294t-209 -112q-110 0 -148 112t11 294t146.5 294t208.5 112zM374 599q-40 0 -75.5 -41.5t-61.5 -117.5h189q14 77 1 118t-53 41zM262 183q40 0 76 42t63 120h-190q-15 -78 -2 -120t53 -42z" />
    <glyph glyph-name="lambda" unicode="&#x3bb;" horiz-adv-x="613" 
d="M125 605q-7 0 -16 -0.5t-28 -1.5l46 174q20 2 37 2.5t33 0.5q115 0 164.5 -47t67.5 -187l70 -545h-215l-4 246q0 33 1 55.5t4 35.5h-3q-4 -13 -15 -35.5t-30 -55.5l-137 -246h-214l363 545q-6 29 -37.5 44t-86.5 15z" />
    <glyph glyph-name="nu" unicode="&#x3bd;" horiz-adv-x="643" 
d="M155 0q0 168 -19 292t-63 253h216q19 -58 26.5 -162t0.5 -204h2q46 60 96 159t88 207h214q-56 -126 -170.5 -290t-204.5 -255h-186z" />
    <glyph glyph-name="pi" unicode="&#x3c0;" horiz-adv-x="741" 
d="M43 395l40 150h681l-40 -150h-102l-38 -140q-13 -49 -6 -71t34 -22q14 0 27.5 3t35.5 11l-44 -163q-35 -14 -57.5 -18.5t-51.5 -4.5q-97 0 -138.5 53t-16.5 148l55 204h-96l-106 -395h-200l106 395h-83z" />
    <glyph glyph-name="rho" unicode="&#x3c1;" horiz-adv-x="644" 
d="M168 31l-27 -255h-194l206 769h160l-19 -72q36 38 83 59.5t93 21.5q96 0 131.5 -79.5t-1.5 -218.5q-33 -121 -112.5 -193.5t-179.5 -72.5q-44 0 -79.5 10.5t-60.5 30.5zM362 340q-32 0 -62.5 -11.5t-54.5 -33.5l-25 -94q19 -10 43.5 -15.5t46.5 -5.5q55 1 91.5 21.5
t45.5 56.5q11 41 -10 61.5t-75 20.5z" />
    <glyph glyph-name="Wgrave" unicode="&#x1e80;" horiz-adv-x="1072" 
d="M716 807l-297 153l130 131l250 -186zM581 450l-241 -450h-218l49 763h220l-32 -253q-5 -40 -14 -96t-23 -128h5q33 67 61 123t52 102l131 252h187v-253q0 -44 -1 -100t-3 -124h5q23 72 42.5 128t36.5 96l106 253h219l-357 -763h-219l-2 450h-4z" />
    <glyph glyph-name="wgrave" unicode="&#x1e81;" horiz-adv-x="856" 
d="M445 925l179 -225l-101 -88l-220 189zM374 144l-76 -144h-169l-56 545h199l-4 -228q-1 -30 -2 -51.5t-3 -33.5h2q3 13 12 34t24 51l111 228h173l-7 -228q-1 -30 -1.5 -51.5t-0.5 -33.5h2q2 13 10 34t23 51l116 228h202l-326 -545h-169l-3 144q-1 39 -0.5 68t2.5 49h-4
q-7 -20 -21 -49t-34 -68z" />
    <glyph glyph-name="Wacute" unicode="&#x1e82;" horiz-adv-x="1072" 
d="M962 938l-334 -139l-34 121l306 170zM581 450l-241 -450h-218l49 763h220l-32 -253q-5 -40 -14 -96t-23 -128h5q33 67 61 123t52 102l131 252h187v-253q0 -44 -1 -100t-3 -124h5q23 72 42.5 128t36.5 96l106 253h219l-357 -763h-219l-2 450h-4z" />
    <glyph glyph-name="wacute" unicode="&#x1e83;" horiz-adv-x="856" 
d="M783 803l-274 -188l-70 92l231 217zM374 144l-76 -144h-169l-56 545h199l-4 -228q-1 -30 -2 -51.5t-3 -33.5h2q3 13 12 34t24 51l111 228h173l-7 -228q-1 -30 -1.5 -51.5t-0.5 -33.5h2q2 13 10 34t23 51l116 228h202l-326 -545h-169l-3 144q-1 39 -0.5 68t2.5 49h-4
q-7 -20 -21 -49t-34 -68z" />
    <glyph glyph-name="Wdieresis" unicode="&#x1e84;" horiz-adv-x="1072" 
d="M679 944q-11 -42 -47.5 -70.5t-80.5 -28.5q-43 0 -64.5 28.5t-10.5 70.5q11 43 48 71.5t81 28.5q43 0 64 -28.5t10 -71.5zM957 944q-11 -42 -48 -70.5t-81 -28.5q-43 0 -64.5 28.5t-10.5 70.5t48 70.5t80 28.5q44 0 65.5 -28.5t10.5 -70.5zM581 450l-241 -450h-218
l49 763h220l-32 -253q-5 -40 -14 -96t-23 -128h5q33 67 61 123t52 102l131 252h187v-253q0 -44 -1 -100t-3 -124h5q23 72 42.5 128t36.5 96l106 253h219l-357 -763h-219l-2 450h-4z" />
    <glyph glyph-name="wdieresis" unicode="&#x1e85;" horiz-adv-x="856" 
d="M464 874q44 0 65 -28.5t9 -71.5q-11 -42 -47.5 -70.5t-79.5 -28.5q-44 0 -65.5 28.5t-10.5 70.5q12 43 48.5 71.5t80.5 28.5zM714 873q43 0 65 -28.5t10 -70.5q-11 -42 -48 -70.5t-80 -28.5q-44 0 -65.5 28.5t-10.5 70.5q12 42 48.5 70.5t80.5 28.5zM374 144l-76 -144
h-169l-56 545h199l-4 -228q-1 -30 -2 -51.5t-3 -33.5h2q3 13 12 34t24 51l111 228h173l-7 -228q-1 -30 -1.5 -51.5t-0.5 -33.5h2q2 13 10 34t23 51l116 228h202l-326 -545h-169l-3 144q-1 39 -0.5 68t2.5 49h-4q-7 -20 -21 -49t-34 -68z" />
    <glyph glyph-name="Ygrave" unicode="&#x1ef2;" horiz-adv-x="724" 
d="M505 807l-297 153l130 131l250 -186zM473 281l-75 -281h-216l75 281l-136 482h237l35 -199q5 -30 8 -55.5t4 -52.5h6q33 60 43 76t21 32l140 199h244z" />
    <glyph glyph-name="ygrave" unicode="&#x1ef3;" horiz-adv-x="613" 
d="M326 925l179 -225l-101 -88l-220 189zM323 0q-94 -140 -168 -187t-189 -47q-15 0 -32.5 0.5t-35.5 2.5l47 174l27 -1.5t16 -0.5q54 0 93.5 17t61.5 49l-70 538h210l5 -246q1 -32 0.5 -55t-2.5 -36h3q3 13 13.5 36t28.5 55l136 246h219z" />
    <glyph glyph-name="thinspace" unicode="&#x2009;" horiz-adv-x="180" 
 />
    <glyph glyph-name="endash" unicode="&#x2013;" horiz-adv-x="700" 
d="M662 353l-43 -160h-580l43 160h580z" />
    <glyph glyph-name="emdash" unicode="&#x2014;" horiz-adv-x="870" 
d="M832 353l-43 -160h-750l43 160h750z" />
    <glyph glyph-name="quoteleft" unicode="&#x2018;" horiz-adv-x="367" 
d="M311 444l-193 310l172 32l143 -305z" />
    <glyph glyph-name="quoteright" unicode="&#x2019;" horiz-adv-x="292" 
d="M378 754l-193 -310l-122 37l143 305z" />
    <glyph glyph-name="quotesinglbase" unicode="&#x201a;" horiz-adv-x="308" 
d="M240 76l-246 -281l-105 64l199 286z" />
    <glyph glyph-name="quotedblleft" unicode="&#x201c;" horiz-adv-x="592" 
d="M304 444l-193 310l172 32l143 -305zM546 444l-193 310l172 32l143 -305z" />
    <glyph glyph-name="quotedblright" unicode="&#x201d;" horiz-adv-x="534" 
d="M378 754l-193 -310l-122 37l143 305zM620 754l-193 -310l-122 37l143 305z" />
    <glyph glyph-name="quotedblbase" unicode="&#x201e;" horiz-adv-x="601" 
d="M240 76l-246 -281l-105 64l199 286zM533 76l-246 -281l-105 64l199 286z" />
    <glyph glyph-name="dagger" unicode="&#x2020;" horiz-adv-x="560" 
d="M572 430l-167 13l-98 -443h-200l138 443l-173 -13l49 182l163 -9l27 160h200l-59 -160h1l168 9z" />
    <glyph glyph-name="daggerdbl" unicode="&#x2021;" horiz-adv-x="560" 
d="M334 160v0l-27 -160h-200l58 160l-169 -13l49 182l159 -9l8 72l23 51l-163 -13l49 182l163 -9l27 160h200l-59 -160h1l168 9l-49 -182l-156 13v0l-5 -51l-30 -72l164 9l-49 -182z" />
    <glyph glyph-name="bullet" unicode="&#x2022;" horiz-adv-x="426" 
d="M261 446q72 0 108.5 -50.5t17.5 -122.5t-83 -122.5t-136 -50.5t-109 50.5t-18 122.5t83.5 122.5t136.5 50.5z" />
    <glyph glyph-name="ellipsis" unicode="&#x2026;" horiz-adv-x="976" 
d="M890 104q-14 -50 -57.5 -83.5t-94.5 -33.5q-53 0 -79.5 33.5t-12.5 83.5q13 50 57.5 83t96.5 33q51 0 77 -33t13 -83zM564 104q-14 -50 -57.5 -83.5t-94.5 -33.5q-53 0 -79.5 33.5t-12.5 83.5q13 50 57.5 83t96.5 33q51 0 77 -33t13 -83zM238 104q-14 -50 -57.5 -83.5
t-94.5 -33.5q-53 0 -79.5 33.5t-12.5 83.5q13 50 57.5 83t96.5 33q51 0 77 -33t13 -83z" />
    <glyph glyph-name="perthousand" unicode="&#x2030;" horiz-adv-x="1864" 
d="M618 502q-29 -120 -102 -177.5t-193 -55.5q-111 2 -160 76t-20 191q30 120 103.5 177.5t193.5 55.5q112 -2 159.5 -74.5t18.5 -192.5zM1052 764l-533 -763h-182l533 763h182zM434 505q19 74 12.5 105.5t-38.5 32.5q-26 0 -46.5 -28.5t-35.5 -81.5q-19 -75 -13 -106
t38 -31q26 -1 47.5 27.5t35.5 81.5zM1328 225q-29 -120 -102 -177.5t-193 -55.5q-111 2 -160 76t-20 191q30 120 103.5 177.5t193.5 55.5q112 -2 159.5 -74.5t18.5 -192.5zM1860 224q-29 -120 -102 -177.5t-193 -55.5q-111 2 -160 76t-20 191q30 120 103.5 177.5t193.5 55.5
q112 -2 159.5 -74.5t18.5 -192.5zM1144 228q19 74 12.5 105.5t-38.5 32.5q-26 0 -46.5 -28.5t-35.5 -81.5q-19 -75 -13 -106t38 -31q26 -1 47.5 27.5t35.5 81.5zM1676 227q19 74 12.5 105.5t-38.5 32.5q-26 0 -46.5 -28.5t-35.5 -81.5q-19 -75 -13 -106t38 -31
q26 -1 47.5 27.5t35.5 81.5z" />
    <glyph glyph-name="guilsinglleft" unicode="&#x2039;" horiz-adv-x="414" 
d="M340 120l-124 -120l-200 204l36 137l310 204l70 -139l-216 -152z" />
    <glyph glyph-name="guilsinglright" unicode="&#x203a;" horiz-adv-x="414" 
d="M78 423l124 122l200 -204l-36 -137l-310 -204l-70 139l216 150z" />
    <glyph glyph-name="asterism" unicode="&#x2042;" horiz-adv-x="1224" 
d="M786 506l62 -114l-165 -90l-45 105l-97 -105l-124 107l111 96l-117 35l97 171l111 -47l16 127h182l-39 -124l132 44l8 -166zM356 -20l62 -114l-165 -90l-45 105l-97 -105l-124 107l111 96l-117 35l97 171l111 -47l16 127h182l-39 -124l132 44l8 -166zM986 -20l62 -114
l-165 -90l-45 105l-97 -105l-124 107l111 96l-117 35l97 171l111 -47l16 127h182l-39 -124l132 44l8 -166z" />
    <glyph glyph-name="fraction" unicode="&#x2044;" horiz-adv-x="556" 
d="M663 763l-533 -763h-182l533 763h182z" />
    <glyph glyph-name="zerosuperior" unicode="&#x2070;" horiz-adv-x="584" 
d="M599 501q-29 -120 -102 -177.5t-193 -55.5q-111 2 -160 76t-20 191q30 120 103.5 177.5t193.5 55.5q112 -2 159.5 -74.5t18.5 -192.5zM415 504q19 74 12.5 105.5t-38.5 32.5q-26 0 -46.5 -28.5t-35.5 -81.5q-19 -75 -13 -106t38 -31q26 -1 47.5 27.5t35.5 81.5z" />
    <glyph glyph-name="i.superior" unicode="&#x2071;" horiz-adv-x="311" 
d="M382 749q-10 -37 -46 -61.5t-79 -24.5q-46 0 -69 24.5t-13 61.5t46 61t81 24q44 0 67 -24t13 -61zM341 623l-94 -350h-183l94 350h183z" />
    <glyph glyph-name="foursuperior" unicode="&#x2074;" horiz-adv-x="542" 
d="M261 273l27 100h-237l30 114l262 276h229l-73 -273h49l-31 -117h-49l-27 -100h-180zM253 492l-2 -2h68l21 62q3 10 12.5 38t15.5 44h-2q-9 -16 -33 -45t-31 -37z" />
    <glyph glyph-name="fivesuperior" unicode="&#x2075;" horiz-adv-x="489" 
d="M481 429q-22 -83 -91.5 -123t-189.5 -40q-44 0 -80.5 3.5t-65.5 10.5l35 130q37 -11 72.5 -16.5t68.5 -5.5q30 0 49 11.5t24 32.5q8 35 -35.5 44.5t-151.5 2.5l76 284h352l-33 -123h-171l-12 -47q93 2 134 -41.5t19 -122.5z" />
    <glyph glyph-name="sixsuperior" unicode="&#x2076;" horiz-adv-x="550" 
d="M547 426q-21 -78 -88 -121.5t-165 -38.5q-108 5 -153.5 81.5t-12.5 198.5q31 112 110.5 168t208.5 56q39 0 82.5 -5.5t65.5 -14.5l-36 -136q-28 16 -62.5 25t-70.5 9q-49 0 -77.5 -21.5t-41.5 -70.5q26 13 58 20.5t63 7.5q71 0 104.5 -43.5t14.5 -114.5zM371 425
q6 21 0 34t-24 15q-10 2 -26.5 -4t-31.5 -18q-8 -30 0 -49.5t32 -19.5q17 0 31 11t19 31z" />
    <glyph glyph-name="sevensuperior" unicode="&#x2077;" horiz-adv-x="449" 
d="M508 654l-268 -381h-186l265 367l1 1h-211l32 122h396z" />
    <glyph glyph-name="eightsuperior" unicode="&#x2078;" horiz-adv-x="549" 
d="M529 398q-15 -57 -85 -94t-163 -37q-101 0 -152.5 44t-34.5 108q9 34 36 63t69 50q-23 19 -31.5 51.5t3.5 68.5q17 50 78 83.5t145 33.5q95 0 141.5 -37.5t30.5 -98.5q-7 -28 -31 -54t-58 -42q36 -23 50 -58.5t2 -80.5zM391 617q5 17 -1.5 26t-22.5 9q-12 0 -19.5 -6
t-10.5 -17q-4 -14 3 -24t28 -20q14 13 17.5 19t5.5 13zM340 454q-8 5 -23 12.5t-20 10.5q-17 -16 -25.5 -28t-11.5 -22q-5 -21 7 -32.5t41 -11.5q20 0 35 9t19 23q3 11 -2.5 20.5t-19.5 18.5z" />
    <glyph glyph-name="ninesuperior" unicode="&#x2079;" horiz-adv-x="550" 
d="M133 610q21 78 88 121.5t165 38.5q108 -5 153.5 -81.5t12.5 -198.5q-31 -112 -110.5 -168t-208.5 -56q-39 0 -82.5 5.5t-65.5 14.5l36 136q28 -16 62.5 -25t70.5 -9q49 0 77.5 21.5t41.5 70.5q-26 -13 -58 -20.5t-63 -7.5q-71 0 -104.5 43.5t-14.5 114.5zM309 611
q-6 -21 0 -34t24 -15q10 -2 26.5 4t31.5 18q8 30 0 49.5t-32 19.5q-17 0 -31 -11t-19 -31z" />
    <glyph glyph-name="n.superior" unicode="&#x207f;" horiz-adv-x="532" 
d="M310 508l-63 -235h-183l94 350h183l-6 -21l3 -2q24 15 49 22.5t50 7.5q57 0 81.5 -39t7.5 -103l-58 -215h-183l56 209q5 17 3.5 25t-9.5 8q-4 0 -10.5 -2t-14.5 -5z" />
    <glyph glyph-name="zeroinferior" unicode="&#x2080;" horiz-adv-x="584" 
d="M488 4q-29 -120 -102 -177.5t-193 -55.5q-111 2 -160 76t-20 191q30 120 103.5 177.5t193.5 55.5q112 -2 159.5 -74.5t18.5 -192.5zM304 7q19 74 12.5 105.5t-38.5 32.5q-26 0 -46.5 -28.5t-35.5 -81.5q-19 -75 -13 -106t38 -31q26 -1 47.5 27.5t35.5 81.5z" />
    <glyph glyph-name="oneinferior" unicode="&#x2081;" horiz-adv-x="428" 
d="M353 -102l-33 -122h-362l33 122h90l53 197h-85l29 109q18 0 33.5 3.5t27.5 11.5q17 9 27 20.5t13 26.5h181l-98 -368h91z" />
    <glyph glyph-name="twoinferior" unicode="&#x2082;" horiz-adv-x="474" 
d="M366 -102l-33 -122h-379l33 121q131 90 185.5 136.5t63.5 78.5q5 19 -8 28.5t-44 9.5q-33 0 -64 -7t-66 -23l35 128q44 15 92.5 22t93.5 4q80 -5 120.5 -49t20.5 -110q-14 -46 -62.5 -96t-141.5 -118l1 -3h153z" />
    <glyph glyph-name="threeinferior" unicode="&#x2083;" horiz-adv-x="475" 
d="M361 -106q-16 -61 -84.5 -92.5t-187.5 -31.5q-43 0 -79 4t-64 12l35 130q44 -12 81.5 -18t68.5 -6q27 0 41 8.5t19 28.5q5 17 -7.5 24.5t-47.5 7.5h-71l32 121h71q29 0 45 8.5t21 27.5q4 17 -6.5 25.5t-37.5 8.5q-16 0 -36 -4t-44 -13q-20 -7 -38.5 -15t-35.5 -17l37 139
q39 15 90 23.5t99 8.5q88 0 129.5 -38.5t25.5 -98.5q-10 -38 -38 -67t-67 -45l-1 -4q36 -17 49 -49.5t1 -77.5z" />
    <glyph glyph-name="fourinferior" unicode="&#x2084;" horiz-adv-x="542" 
d="M165 -224l27 100h-237l30 114l262 276h229l-73 -273h49l-31 -117h-49l-27 -100h-180zM157 -5l-2 -2h68l21 62q3 10 12.5 38t15.5 44h-2q-9 -16 -33 -45t-31 -37z" />
    <glyph glyph-name="fiveinferior" unicode="&#x2085;" horiz-adv-x="489" 
d="M369 -68q-22 -83 -91.5 -123t-189.5 -40q-44 0 -80.5 3.5t-65.5 10.5l35 130q37 -11 72.5 -16.5t68.5 -5.5q30 0 49 11.5t24 32.5q8 35 -35.5 44.5t-151.5 2.5l76 284h352l-33 -123h-171l-12 -47q93 2 134 -41.5t19 -122.5z" />
    <glyph glyph-name="sixinferior" unicode="&#x2086;" horiz-adv-x="550" 
d="M435 -71q-21 -78 -88 -121.5t-165 -38.5q-108 5 -153.5 81.5t-12.5 198.5q31 112 110.5 168t208.5 56q39 0 82.5 -5.5t65.5 -14.5l-36 -136q-28 16 -62.5 25t-70.5 9q-49 0 -77.5 -21.5t-41.5 -70.5q26 13 58 20.5t63 7.5q71 0 104.5 -43.5t14.5 -114.5zM259 -72
q6 21 0 34t-24 15q-10 2 -26.5 -4t-31.5 -18q-8 -30 0 -49.5t32 -19.5q17 0 31 11t19 31z" />
    <glyph glyph-name="seveninferior" unicode="&#x2087;" horiz-adv-x="449" 
d="M387 157l-268 -381h-186l265 367l1 1h-211l32 122h396z" />
    <glyph glyph-name="eightinferior" unicode="&#x2088;" horiz-adv-x="549" 
d="M416 -99q-15 -57 -85 -94t-163 -37q-101 0 -152.5 44t-34.5 108q9 34 36 63t69 50q-23 19 -31.5 51.5t3.5 68.5q17 50 78 83.5t145 33.5q95 0 141.5 -37.5t30.5 -98.5q-7 -28 -31 -54t-58 -42q36 -23 50 -58.5t2 -80.5zM278 120q5 17 -1.5 26t-22.5 9q-12 0 -19.5 -6
t-10.5 -17q-4 -14 3 -24t28 -20q14 13 17.5 19t5.5 13zM227 -43q-8 5 -23 12.5t-20 10.5q-17 -16 -25.5 -28t-11.5 -22q-5 -21 7 -32.5t41 -11.5q20 0 35 9t19 23q3 11 -2.5 20.5t-19.5 18.5z" />
    <glyph glyph-name="nineinferior" unicode="&#x2089;" horiz-adv-x="550" 
d="M37 114q21 78 88 121.5t165 38.5q108 -5 153.5 -81.5t12.5 -198.5q-31 -112 -110.5 -168t-208.5 -56q-39 0 -82.5 5.5t-65.5 14.5l36 136q28 -16 62.5 -25t70.5 -9q49 0 77.5 21.5t41.5 70.5q-26 -13 -58 -20.5t-63 -7.5q-71 0 -104.5 43.5t-14.5 114.5zM213 115
q-6 -21 0 -34t24 -15q10 -2 26.5 4t31.5 18q8 30 0 49.5t-32 19.5q-17 0 -31 -11t-19 -31z" />
    <glyph glyph-name="Euro" unicode="&#x20ac;" horiz-adv-x="714" 
d="M614 47q-58 -31 -126 -46t-129 -11q-106 7 -169.5 76t-71.5 180h-104l27 101h80l6 34t8 35h-76l27 101h84q55 119 161.5 187.5t245.5 68.5q62 0 108.5 -10t84.5 -32l-53 -194q-32 27 -68 39.5t-84 12.5q-51 0 -91.5 -18.5t-69.5 -53.5h204l-27 -101h-228q-1 -3 -1.5 -5.5
t-1.5 -5.5q-4 -15 -7 -30t-5 -28h225l-27 -101h-193q11 -34 37.5 -52t67.5 -19q50 -1 107.5 15.5t107.5 45.5z" />
    <glyph glyph-name="litre" unicode="&#x2113;" horiz-adv-x="523" 
d="M396 26q-31 -16 -77.5 -26t-88.5 -10q-66 0 -107 40.5t-51 110.5l-60 -43l-45 103l114 76l61 226q43 158 113 228.5t188 70.5q90 0 129.5 -63t11.5 -162q-22 -77 -99.5 -157.5t-205.5 -157.5q-11 -54 2.5 -78t53.5 -24q19 0 43 6.5t61 22.5zM353 546l-34 -128
q41 34 66.5 74.5t39.5 94.5q11 39 8.5 56.5t-18.5 17.5q-18 0 -31 -25t-31 -90z" />
    <glyph glyph-name="Ndblstruck" unicode="&#x2115;" horiz-adv-x="807" 
d="M230 293l-79 -293h-121l176 658v0l28 105h125l245 -308q9 -11 18.5 -26t19.5 -35h3q5 24 9 43t8 33l78 293h121l-176 -658v0l-28 -105h-125l-244 308q-9 12 -18.5 27t-19.5 34h-3q-5 -23 -9 -42t-8 -34zM571 121h5q3 23 10.5 55.5t21.5 85.5l-272 353q-7 9 -10.5 15
t-5.5 15h-4q-2 -20 -9 -51.5t-24 -92.5l272 -353q10 -14 12.5 -18t3.5 -9z" />
    <glyph glyph-name="numero" unicode="&#x2116;" horiz-adv-x="1247" 
d="M1283 607q-22 -83 -84 -127t-156 -43q-84 2 -123.5 57t-16.5 140q21 81 82 123t155 41q83 -2 124 -55.5t19 -135.5zM299 315l-84 -315h-208l204 763h200l95 -311q10 -32 18.5 -63t16.5 -60l4 1q6 31 12.5 61t14.5 60l83 312h208l-204 -763h-200l-94 314q-9 32 -17.5 62.5
t-16.5 60.5l-5 -1q-5 -30 -12 -60.5t-15 -60.5zM1141 616q12 42 5 62.5t-32 21.5q-25 0 -42.5 -20t-29.5 -62q-11 -43 -4.5 -63t31.5 -21q25 0 43 20.5t29 61.5zM1211 392l-32 -118h-360l32 118h360z" />
    <glyph glyph-name="soundcopyright" unicode="&#x2117;" horiz-adv-x="838" 
d="M449 773q165 0 272 -111t107 -281t-107 -280.5t-272 -110.5t-272 110.5t-107 280.5t107 281t272 111zM449 676q-123 0 -203 -83.5t-80 -211.5t80 -211.5t203 -83.5t203 83.5t80 211.5t-80 211.5t-203 83.5zM451 273v-115h-161v433h187q92 0 144 -40t52 -113
q0 -79 -53.5 -122t-149.5 -43h-19zM481 472h-30v-80h30q13 0 23.5 11.5t10.5 28.5q0 19 -9 29.5t-25 10.5z" />
    <glyph glyph-name="Rdblstruck" unicode="&#x211d;" horiz-adv-x="898" 
d="M316 654l-175 -654h-121l204 763h412q137 0 204.5 -69.5t37.5 -182.5q-19 -70 -57 -115t-101 -71l78 -325h-121l-65 302q-16 -3 -34.5 -4.5t-47.5 -1.5l50 -296h-110l-42 293l-28 -1l-78 -292h-111l175 654h-70zM770 524q17 66 -12 103.5t-95 37.5q26 -20 35.5 -57
t-0.5 -78q-13 -51 -44 -89t-76 -59q77 2 126 38t66 104zM590 527q18 67 -7 103t-83 34l-75 -281q63 2 104.5 38.5t60.5 105.5z" />
    <glyph glyph-name="trademark" unicode="&#x2122;" horiz-adv-x="1179" 
d="M433 619l-93 -346h-182l93 346h-129l39 144h439l-38 -144h-129zM705 351l-20 -78h-181l182 490h161l17 -202q1 -25 2 -54.5t0 -60.5h4q4 6 8 14l13 26q14 31 22.5 46t15.5 28l121 203h177l-77 -490h-181l21 78l17.5 70t15.5 66h-5q-17 -31 -36 -65.5t-40 -72.5l-41 -76
h-151l-2 78q-1 37 -3.5 70.5t-4.5 63.5h-5q-6 -32 -13.5 -65.5t-16.5 -68.5z" />
    <glyph glyph-name="Zdblstruck" unicode="&#x2124;" horiz-adv-x="735" 
d="M180 654l29 109h595l-27 -104l-406 -547l2 -3h266l-29 -109h-615l28 105l405 546l-2 3h-246zM156 109h85l404 542l-2 3h-85l-404 -542z" />
    <glyph glyph-name="estimated" unicode="&#x212e;" horiz-adv-x="771" 
d="M667 203h6v-77q-45 -65 -116 -100.5t-155 -35.5q-146 0 -244 95t-98 241q0 140 91.5 232t234.5 92t234 -95t91 -239q0 -11 -0.5 -21t-2.5 -21h-522v-133q38 -46 95 -71t122 -25q82 0 155.5 44.5t108.5 113.5zM577 519q-37 38 -85.5 57.5t-105.5 19.5q-61 0 -112.5 -22.5
t-87.5 -64.5v-183h391v193z" />
    <glyph glyph-name="arrowleft" unicode="&#x2190;" horiz-adv-x="1022" 
d="M971 222h-623v-130l-347 180v1l347 180v-130h623v-101z" />
    <glyph glyph-name="arrowup" unicode="&#x2191;" horiz-adv-x="363" 
d="M131 -213v623h-130l180 347h1l180 -347h-130v-623h-101z" />
    <glyph glyph-name="arrowright" unicode="&#x2192;" horiz-adv-x="1022" 
d="M51 323h623v130l347 -180v-1l-347 -180v130h-623v101z" />
    <glyph glyph-name="arrowdown" unicode="&#x2193;" horiz-adv-x="363" 
d="M232 757v-623h130l-180 -347h-1l-180 347h130v623h101z" />
    <glyph glyph-name="arrowleftfrombar" unicode="&#x21a4;" horiz-adv-x="1022" 
d="M328 456l-143 -133h685v130h101v-361h-101v130h-684l142 -133l-72 -72l-255 255v1l255 255z" />
    <glyph glyph-name="arrowupfrombar" unicode="&#x21a5;" horiz-adv-x="513" 
d="M425 430l-133 143v-685h130v-101h-361v101h130v684l-133 -142l-72 72l255 255h1l255 -255z" />
    <glyph glyph-name="arrowrightfrombar" unicode="&#x21a6;" horiz-adv-x="1022" 
d="M694 89l143 133h-685v-130h-101v361h101v-130h684l-142 133l72 72l255 -255v-1l-255 -255z" />
    <glyph glyph-name="arrowdownfrombar" unicode="&#x21a7;" horiz-adv-x="513" 
d="M73 114l133 -143v685h-130v101h361v-101h-130v-684l133 142l72 -72l-255 -255h-1l-255 255z" />
    <glyph glyph-name="dblarrowleftstroke" unicode="&#x21cd;" horiz-adv-x="1122" 
d="M520 -144l124 265h-348l133 -133l-72 -72l-356 356v1l356 356l72 -72l-133 -133h489l144 308l92 -43l-124 -265h174v-101h-221l-47 -101h268v-101h-315l-144 -308zM194 323l-50 -50v-1l50 -50h497l47 101h-544z" />
    <glyph glyph-name="dblarrowleftrightstroke" unicode="&#x21ce;" horiz-adv-x="1441" 
d="M471 -144l124 265h-299l133 -133l-72 -72l-356 356v1l356 356l72 -72l-133 -133h440l144 308l92 -43l-124 -265h297l-133 133l72 72l356 -356v-1l-356 -356l-72 72l133 133h-438l-144 -308zM194 323l-50 -50v-1l50 -50h448l47 101h-495zM1247 222l50 50v1l-50 50h-446
l-47 -101h493z" />
    <glyph glyph-name="dblarrowrightstroke" unicode="&#x21cf;" horiz-adv-x="1122" 
d="M101 -144l124 265h-174v101h221l47 101h-268v101h315l144 308l92 -43l-124 -265h348l-133 133l72 72l356 -356v-1l-356 -356l-72 72l133 133h-489l-144 -308zM928 222l50 50v1l-50 50h-497l-47 -101h544z" />
    <glyph glyph-name="arrowdblleft" unicode="&#x21d0;" horiz-adv-x="1122" 
d="M429 557l-133 -133h775v-101h-877l-50 -50v-1l50 -50h877v-101h-775l133 -133l-72 -72l-356 356v1l356 356z" />
    <glyph glyph-name="arrowdblright" unicode="&#x21d2;" horiz-adv-x="1122" 
d="M693 -12l133 133h-775v101h877l50 50v1l-50 50h-877v101h775l-133 133l72 72l356 -356v-1l-356 -356z" />
    <glyph glyph-name="arrowdblboth" unicode="&#x21d4;" horiz-adv-x="1441" 
d="M429 557l-133 -133h849l-133 133l72 72l356 -356v-1l-356 -356l-72 72l133 133h-849l133 -133l-72 -72l-356 356v1l356 356zM1247 222l50 50v1l-50 50h-1053l-50 -50v-1l50 -50h1053z" />
    <glyph glyph-name="partialdiff" unicode="&#x2202;" horiz-adv-x="641" 
d="M608 294q-34 -138 -128 -221.5t-218 -83.5q-133 0 -192 85t-25 213q33 121 122.5 193.5t212.5 75.5q-29 35 -72.5 66.5t-100.5 59.5l151 130q152 -80 220.5 -219t29.5 -299zM244 272q-18 -68 -7.5 -99.5t49.5 -31.5q40 0 68 32t46 99t7 99.5t-51 32.5q-39 0 -66.5 -32
t-45.5 -100z" />
    <glyph glyph-name="emptyset" unicode="&#x2205;" horiz-adv-x="867" 
d="M371 -11q-53 1 -99.5 14.5t-83.5 40.5l-64 -64l-62 60l64 64q-4 5 -7.5 10.5t-6.5 10.5q-37 60 -45.5 137t14.5 158q46 165 174.5 261.5t302.5 92.5q55 -1 102.5 -14.5t84.5 -38.5l63 62l62 -60l-62 -61q3 -4 5.5 -7.5t5.5 -7.5q40 -58 49 -133.5t-13 -157.5
q-46 -172 -176 -271.5t-308 -95.5zM295 397q-11 -39 -12.5 -72t6.5 -59l300 298q-15 8 -32.5 12.5t-37.5 4.5q-78 1 -140.5 -51t-83.5 -133zM411 182q78 -1 140.5 51t84.5 134q10 38 11.5 70.5t-6.5 57.5l-298 -297q13 -8 30.5 -12t37.5 -4z" />
    <glyph glyph-name="increment" unicode="&#x2206;" horiz-adv-x="804" 
d="M-48 0l3 12l569 751h12l173 -751l-3 -12h-754zM495 161l-52 273l-194 -273h246z" />
    <glyph glyph-name="element" unicode="&#x2208;" horiz-adv-x="794" 
d="M714 230l-43 -156h-257q-180 0 -268.5 98t-55.5 250q32 145 135 209.5t309 64.5h303l-43 -155h-328q-62 0 -107 -18t-71 -53h431l-43 -160h-410q17 -40 65.5 -60t128.5 -20h254z" />
    <glyph glyph-name="notelement" unicode="&#x2209;" horiz-adv-x="794" 
d="M414 74q-14 0 -28 0.5t-27 2.5l-52 -77h-112l66 98q-104 36 -150 122t-21 202q32 145 135 209.5t309 64.5h134l45 67h112l-45 -67h57l-43 -155h-120l-48 -71h93l-43 -160h-159l-54 -80h251l-43 -156h-257zM466 541q-62 0 -107 -18t-71 -53h226l48 71h-96zM266 310
q11 -25 34 -42.5t58 -26.5l47 69h-139z" />
    <glyph glyph-name="suchthat" unicode="&#x220b;" horiz-adv-x="794" 
d="M761 354q-32 -145 -135 -209.5t-309 -64.5h-303l43 155h328q64 0 110.5 19.5t71.5 57.5h-459l43 160h431q-18 37 -66 55.5t-125 18.5h-254l43 156h257q180 0 268.5 -98t55.5 -250z" />
    <glyph glyph-name="notcontains" unicode="&#x220c;" horiz-adv-x="794" 
d="M317 80h-136l-54 -80h-112l54 80h-55l43 155h118l52 77h-119l43 160h184l51 74h-249l43 156h257q14 0 27 -0.5t26 -1.5l43 63h112l-57 -84q105 -36 151.5 -122.5t21.5 -202.5q-32 -145 -135 -209.5t-309 -64.5zM447 472h135q-11 23 -34 39t-57 25zM385 235
q64 0 110.5 19.5t71.5 57.5h-228l-52 -77h98z" />
    <glyph glyph-name="product" unicode="&#x220f;" horiz-adv-x="850" 
d="M447 -78l191 711h-190l-191 -711h-200l191 711h-91l43 160h750l-43 -160h-69l-191 -711h-200z" />
    <glyph glyph-name="summation" unicode="&#x2211;" horiz-adv-x="604" 
d="M652 602h-299l172 -255l-311 -264h299l-43 -161h-524l37 136l337 289l-185 280l36 136h524z" />
    <glyph glyph-name="minus" unicode="&#x2212;" horiz-adv-x="742" 
d="M673 352l-43 -160h-562l43 160h562z" />
    <glyph glyph-name="bulletoperator" unicode="&#x2219;" horiz-adv-x="324" 
d="M400 309q-14 -50 -57.5 -83.5t-94.5 -33.5q-53 0 -79.5 33.5t-12.5 83.5q13 50 57.5 83t96.5 33q51 0 77 -33t13 -83z" />
    <glyph glyph-name="radical" unicode="&#x221a;" horiz-adv-x="677" 
d="M9 232l43 160h262l-2 -93q-1 -36 -2.5 -61.5t-4.5 -39.5h3q5 14 16.5 39.5t30.5 61.5l238 464h215l-465 -763h-180l-25 232h-129z" />
    <glyph glyph-name="infinity" unicode="&#x221e;" horiz-adv-x="1023" 
d="M805 545q54 0 96.5 -27t65.5 -76q19 -41 21 -92t-13 -109q-29 -111 -112 -176t-193 -65q-71 0 -121 30.5t-85 98.5q-45 -58 -111.5 -93.5t-134.5 -35.5q-102 0 -151.5 86t-17.5 218q26 109 107 175t184 66q78 0 126.5 -26.5t90.5 -102.5q45 58 112 93.5t136 35.5z
M204 287q-15 -56 4.5 -91t61.5 -35q44 0 84.5 22t70.5 62q-10 70 -35 104.5t-67 34.5q-38 0 -72.5 -28t-46.5 -69zM818 254q16 59 -3 94.5t-63 35.5t-85 -22.5t-70 -62.5q11 -72 36 -105t67 -33q38 0 73 27t45 66z" />
    <glyph glyph-name="intersection" unicode="&#x2229;" horiz-adv-x="782" 
d="M85 283q57 213 149.5 302t251.5 89q149 0 212 -97.5t17 -265.5l-84 -311h-160l83 305q31 113 8.5 164t-101.5 51q-80 0 -128.5 -49.5t-81.5 -169.5l-82 -301h-160z" />
    <glyph glyph-name="union" unicode="&#x222a;" horiz-adv-x="782" 
d="M733 380q-57 -213 -149.5 -302t-251.5 -89q-149 0 -212 97.5t-17 265.5l84 311h160l-83 -305q-31 -113 -8.5 -164t101.5 -51q80 0 128.5 49.5t81.5 169.5l82 301h160z" />
    <glyph glyph-name="integral" unicode="&#x222b;" horiz-adv-x="485" 
d="M497 637q-43 0 -67 -20.5t-38 -71.5l-143 -524q-34 -124 -117 -190t-206 -66q-33 0 -68 5t-69 15l44 162q29 -10 55 -14t56 -4q43 0 67 20.5t38 71.5l143 524q34 124 117 190t206 66q33 0 67.5 -5t68.5 -15l-43 -162q-29 10 -55 14t-56 4z" />
    <glyph glyph-name="approxequal" unicode="&#x2248;" horiz-adv-x="791" 
d="M487 533q29 -21 42.5 -27t25.5 -6q27 0 44 21t31 74h147q-19 -126 -87.5 -205t-159.5 -79q-35 0 -67 11.5t-80 46.5q-28 21 -41.5 27t-24.5 6q-27 0 -44 -20.5t-31 -74.5h-147q21 127 88.5 205.5t157.5 78.5q35 0 67 -11.5t79 -46.5zM405 226q29 -21 42.5 -27t25.5 -6
q26 0 43 21t31 74h147q-18 -126 -86.5 -205t-159.5 -79q-35 0 -67 11.5t-80 46.5q-28 21 -41.5 27t-24.5 6q-27 0 -44 -20.5t-31 -74.5h-147q20 126 87.5 205t157.5 79q35 0 67 -11.5t80 -46.5z" />
    <glyph glyph-name="notequal" unicode="&#x2260;" horiz-adv-x="724" 
d="M593 52h-324l-63 -92h-112l63 92h-126l43 160h191l82 120h-241l43 160h307l63 93h112l-63 -93h143l-43 -160h-209l-82 -120h259z" />
    <glyph glyph-name="lessequal" unicode="&#x2264;" horiz-adv-x="742" 
d="M668 337l-73 -136l-474 143l37 139v0l11 40l550 142v-146l-372 -92zM643 160l-43 -160h-562l43 160h562z" />
    <glyph glyph-name="greaterequal" unicode="&#x2265;" horiz-adv-x="742" 
d="M692 344l-550 -143v146l372 91l-320 91l72 136l474 -142l-37 -139v0zM656 160l-43 -160h-562l43 160h562z" />
    <glyph glyph-name="propersubset" unicode="&#x2282;" horiz-adv-x="794" 
d="M410 80q-180 0 -268.5 98t-55.5 250q32 145 135 209.5t309 64.5h303l-43 -155h-328q-84 0 -137 -33.5t-66 -96.5q-20 -92 28.5 -136.5t168.5 -44.5h254l-43 -156h-257z" />
    <glyph glyph-name="propersuperset" unicode="&#x2283;" horiz-adv-x="794" 
d="M437 702q180 0 268.5 -98t55.5 -250q-32 -145 -135 -209.5t-309 -64.5h-303l43 155h328q84 0 137 33.5t66 96.5q20 92 -28.5 136.5t-168.5 44.5h-254l43 156h257z" />
    <glyph glyph-name="intersectionarray" unicode="&#x22c2;" horiz-adv-x="782" 
d="M85 283q57 213 149.5 302t251.5 89q149 0 212 -97.5t17 -265.5l-84 -311h-160l83 305q31 113 8.5 164t-101.5 51q-80 0 -128.5 -49.5t-81.5 -169.5l-82 -301h-160z" />
    <glyph glyph-name="unionarray" unicode="&#x22c3;" horiz-adv-x="782" 
d="M733 380q-57 -213 -149.5 -302t-251.5 -89q-149 0 -212 97.5t-17 265.5l84 311h160l-83 -305q-31 -113 -8.5 -164t101.5 -51q80 0 128.5 49.5t81.5 169.5l82 301h160z" />
    <glyph glyph-name="triangleupblack" unicode="&#x25b2;" horiz-adv-x="480" 
d="M240 450l200 -354h-400z" />
    <glyph glyph-name="trianglerightblack" unicode="&#x25b6;" horiz-adv-x="468" 
d="M80 477l348 -204l-348 -203v407z" />
    <glyph glyph-name="triangledownblack" unicode="&#x25bc;" horiz-adv-x="480" 
d="M240 96l-200 354h400z" />
    <glyph glyph-name="triangleleftblack" unicode="&#x25c0;" horiz-adv-x="468" 
d="M388 70l-348 204l348 203v-407z" />
    <glyph glyph-name="lozenge" unicode="&#x25ca;" horiz-adv-x="629" 
d="M638 382v-2l-397 -391h-4l-188 391v2l398 392h4zM311 259l118 122l-52 122l-119 -122z" />
    <glyph glyph-name="circlewhite" unicode="&#x25cb;" horiz-adv-x="454" 
d="M404 273q0 -73 -51.5 -125t-125.5 -52q-73 0 -125 52t-52 125q0 74 52 125.5t125 51.5q74 0 125.5 -51.5t51.5 -125.5zM314 273q0 36 -25.5 61.5t-61.5 25.5t-61.5 -25.5t-25.5 -61.5t25.5 -61.5t61.5 -25.5t61.5 25.5t25.5 61.5z" />
    <glyph glyph-name="circleblack" unicode="&#x25cf;" horiz-adv-x="454" 
d="M404 273q0 -73 -51.5 -125t-125.5 -52q-73 0 -125 52t-52 125q0 74 52 125.5t125 51.5q74 0 125.5 -51.5t51.5 -125.5z" />
    <glyph glyph-name="largecircle" unicode="&#x25ef;" horiz-adv-x="646" 
d="M47 304q31 117 122.5 185t217.5 66q124 -2 186 -92t27 -218q-32 -116 -126 -186t-215 -68q-125 2 -186 92t-26 221zM409 259q12 44 -5 73t-56 32t-69.5 -19.5t-41.5 -59.5q-12 -42 6 -71t56 -31q39 -2 70 20t40 56z" />
    <glyph glyph-name="squaremediumwhite" unicode="&#x25fb;" horiz-adv-x="474" 
d="M414 450v-354h-354v354h354zM324 360h-174v-174h174v174z" />
    <glyph glyph-name="squaremediumblack" unicode="&#x25fc;" horiz-adv-x="474" 
d="M414 450v-354h-354v354h354z" />
    <glyph glyph-name="checkbox" unicode="&#x2610;" horiz-adv-x="723" 
d="M80 545h563v-545h-563v545zM533 449h-343v-353h343v353z" />
    <glyph glyph-name="checkboxchekced" unicode="&#x2611;" horiz-adv-x="723" 
d="M712 533l-69 -77v-456h-563v545h539l38 42zM190 96h343v237l-163 -182l-144 180l58 50l88 -111l161 179h-343v-353z" />
    <glyph glyph-name="checkboxx" unicode="&#x2612;" horiz-adv-x="723" 
d="M80 545h563v-545h-563v545zM239 449l122 -122l122 122h-244zM416 273l117 -118v235zM190 389v-233l117 117zM239 96h244l-122 122z" />
    <glyph glyph-name="parendblleft" unicode="&#x2e28;" horiz-adv-x="702" 
d="M273 312q-30 -114 -31 -230.5t27 -246.5l-146 -82q-63 114 -75.5 266t28.5 326q29 125 113.5 253t204.5 225l119 -95q-90 -96 -150.5 -201t-89.5 -215zM582 312q-30 -114 -31 -230.5t27 -246.5l-146 -82q-63 114 -75.5 266t28.5 326q29 125 113.5 253t204.5 225l119 -95
q-90 -96 -150.5 -201t-89.5 -215z" />
    <glyph glyph-name="parendblright" unicode="&#x2e29;" horiz-adv-x="702" 
d="M136 255q30 114 31 230.5t-27 246.5l146 82q63 -114 75.5 -266t-28.5 -326q-29 -125 -113.5 -253t-204.5 -225l-119 95q90 96 150.5 201t89.5 215zM445 255q30 114 31 230.5t-27 246.5l146 82q63 -114 75.5 -266t-28.5 -326q-29 -125 -113.5 -253t-204.5 -225l-119 95
q90 96 150.5 201t89.5 215z" />
    <glyph glyph-name="whitesquarebracketleft" unicode="&#x301a;" horiz-adv-x="688" 
d="M587 -68l-42 -156h-618l272 1015h309l-42 -156h-109l-188 -703h109l230 859h309l-42 -156h-109l-188 -703h109z" />
    <glyph glyph-name="whitesquarebracketright" unicode="&#x301b;" horiz-adv-x="688" 
d="M107 635l42 156h618l-272 -1015h-309l42 156h109l188 703h-109l-230 -859h-309l42 156h109l188 703h-109z" />
    <glyph glyph-name="beta" unicode="&#xa7b5;" horiz-adv-x="646" 
d="M168 31l-27 -255h-194l205 766q34 128 117 194t209 66q108 0 162.5 -63.5t27.5 -157.5q-16 -58 -51.5 -102t-92.5 -77q48 -27 63.5 -83.5t-4.5 -131.5q-23 -86 -99.5 -141.5t-176.5 -55.5q-37 0 -74.5 11t-64.5 30zM426 603q-56 1 -85.5 -21t-42.5 -72l-80 -299
q20 -13 47 -19.5t58 -6.5q52 0 82.5 17t39.5 51q8 32 -8.5 48.5t-58.5 16.5q-23 -4 -40 -5.5t-37 -1.5l46 171q16 0 34.5 -1.5t39.5 -3.5q27 0 50 18t30 44q10 34 -6.5 48.5t-68.5 15.5z" />
    <glyph glyph-name="A.small" unicode="&#xe000;" horiz-adv-x="636" 
d="M203 81l-41 -81h-215l341 545h205l50 -545h-205l3 81h-138zM348 389q-4 -14 -20.5 -52t-31.5 -64l-26 -45h82l-1 44q-1 36 0 71.5t4 45.5h-7z" />
    <glyph glyph-name="B.small" unicode="&#xe00d;" horiz-adv-x="610" 
d="M429 545q82 0 121.5 -44t18.5 -112q-11 -35 -45.5 -64.5t-79.5 -41.5v-1q52 -10 75.5 -50t7.5 -95q-20 -69 -88 -103t-186 -34h-243l146 545h273zM295 340h35q18 0 28.5 7.5t14.5 23.5q5 16 -2 23.5t-26 7.5h-33zM242 143h57q16 0 28.5 8.5t16.5 22.5q4 16 -3.5 24.5
t-26.5 8.5h-55z" />
    <glyph glyph-name="C.small" unicode="&#xe00e;" horiz-adv-x="544" 
d="M244 289q-17 -61 -1 -91.5t65 -30.5q39 0 83.5 12.5t82.5 33.5l-48 -178q-43 -21 -91.5 -31.5t-105.5 -10.5q-117 0 -169.5 85t-19.5 210q33 128 124 196t232 68q47 0 80.5 -6t63.5 -20l-50 -180q-25 17 -53.5 25t-68.5 8q-52 0 -81 -21t-43 -69z" />
    <glyph glyph-name="D.small" unicode="&#xe014;" horiz-adv-x="641" 
d="M597 250q-30 -120 -122.5 -185t-234.5 -65h-231l146 545h209q144 0 205.5 -79t27.5 -216zM328 385h-12l-60 -225h24q46 0 74.5 24.5t41.5 75.5q16 64 -0.5 94.5t-67.5 30.5z" />
    <glyph glyph-name="E.small" unicode="&#xe017;" horiz-adv-x="557" 
d="M465 147l-39 -147h-420l146 545h406l-39 -147h-202l-16 -60h183l-36 -133h-183l-16 -58h216z" />
    <glyph glyph-name="F.small" unicode="&#xe027;" horiz-adv-x="538" 
d="M138 545h407l-39 -147h-203l-16 -60h184l-36 -133h-184l-55 -205h-204z" />
    <glyph glyph-name="G.small" unicode="&#xe028;" horiz-adv-x="642" 
d="M376 297h205l-69 -258q-57 -24 -111 -35t-120 -11q-128 0 -192 89t-28 223q33 122 132 184.5t261 62.5q49 0 89 -4t85 -14l-49 -168q-25 15 -57 21.5t-93 6.5q-73 0 -112.5 -26.5t-57.5 -87.5q-19 -65 -2.5 -97t68.5 -32h11z" />
    <glyph glyph-name="H.small" unicode="&#xe02d;" horiz-adv-x="678" 
d="M263 193l-52 -193h-204l146 545h204l-51 -192h110l51 192h204l-146 -545h-204l52 193h-110z" />
    <glyph glyph-name="I.small" unicode="&#xe030;" horiz-adv-x="490" 
d="M396 147l-39 -147h-370l39 147h83l68 251h-83l39 147h370l-39 -147h-82l-68 -251h82z" />
    <glyph glyph-name="J.small" unicode="&#xe03b;" horiz-adv-x="517" 
d="M453 217q-31 -114 -101 -169t-185 -55q-46 0 -94.5 8t-68.5 20l48 180q26 -15 55 -22.5t61 -7.5q34 0 56 18t32 55l41 154h-175l39 147h380z" />
    <glyph glyph-name="K.small" unicode="&#xe03d;" horiz-adv-x="626" 
d="M250 181l-48 -181h-205l146 545h205l-50 -185q25 0 36 9t28 34q8 11 18 28t25 43q8 12 17.5 28.5t24.5 42.5h235l-140 -178q-29 -37 -49.5 -56.5t-38.5 -27.5l-1 -4q11 -9 20.5 -30t20.5 -65l49 -184h-224q-3 23 -5 40t-4 31q-3 25 -6 42t-6 29q-6 22 -13.5 30.5
t-34.5 8.5z" />
    <glyph glyph-name="L.small" unicode="&#xe03f;" horiz-adv-x="526" 
d="M463 160l-43 -160h-416l146 545h204l-103 -385h212z" />
    <glyph glyph-name="M.small" unicode="&#xe045;" horiz-adv-x="848" 
d="M222 87l-22 -87h-201l202 545h179l19 -225q2 -27 3 -60t0 -68h4q4 7 8.5 16l14.5 29q16 34 25.5 51t17.5 31l134 226h197l-86 -545h-201l23 87q11 40 20 77.5t17 73.5h-5q-19 -34 -40.5 -72.5t-44.5 -81.5l-45 -84h-168l-3 87q-1 41 -3.5 78.5t-5.5 70.5h-5
q-7 -36 -15.5 -73t-18.5 -76z" />
    <glyph glyph-name="N.small" unicode="&#xe046;" horiz-adv-x="678" 
d="M246 174l-46 -174h-193l146 545h177l53 -161q11 -33 18.5 -59.5t11.5 -46.5l4 1q1 21 5.5 46.5t12.5 54.5l44 165h192l-146 -545h-176l-52 170q-9 29 -16 55.5t-13 49.5l-4 -2q-2 -24 -6.5 -49t-11.5 -50z" />
    <glyph glyph-name="O.small" unicode="&#xe04b;" horiz-adv-x="667" 
d="M624 255q-33 -131 -123.5 -197t-234.5 -64q-132 2 -194.5 86.5t-27.5 210.5q37 131 126 196.5t229 63.5q132 -2 194.5 -85.5t30.5 -210.5zM420 258q18 66 4 99t-59 34t-74 -25t-43 -78q-18 -67 -5 -100t58 -34t75 25.5t44 78.5z" />
    <glyph glyph-name="P.small" unicode="&#xe057;" horiz-adv-x="593" 
d="M233 144l-39 -144h-203l146 545h236q112 0 164.5 -63t21.5 -165q-24 -80 -97.5 -126.5t-177.5 -46.5h-51zM331 395h-31l-27 -101h33q23 0 39.5 13.5t22.5 37.5q5 22 -5.5 36t-31.5 14z" />
    <glyph glyph-name="Q.small" unicode="&#xe058;" horiz-adv-x="659" 
d="M572 26l-144 -106l-45 88q-29 -7 -61.5 -10.5t-67.5 -3.5q-132 2 -194.5 86.5t-27.5 210.5q37 131 126 196.5t229 63.5q132 -2 194.5 -85.5t30.5 -210.5q-14 -54 -37 -97t-56 -75zM408 258q18 66 4 99t-59 34t-74 -25t-43 -78q-18 -67 -5 -100t58 -34t75 25.5t44 78.5z
" />
    <glyph glyph-name="R.small" unicode="&#xe059;" horiz-adv-x="613" 
d="M222 157l-42 -157h-203l146 545l233 -1q116 -1 168.5 -53.5t28.5 -143.5q-12 -46 -41.5 -81.5t-72.5 -57.5l51 -208h-215l-7 159q-10 -1 -22 -1.5t-20 -0.5h-4zM321 395h-35l-24 -89h35q21 0 37 12t22 32q5 21 -4.5 33t-30.5 12z" />
    <glyph glyph-name="S.small" unicode="&#xe05d;" horiz-adv-x="549" 
d="M470 132q-17 -67 -88 -103t-188 -36q-73 0 -118 6t-86 19l45 169q35 -21 78.5 -31.5t98.5 -10.5q30 0 43.5 5.5t16.5 19.5q2 10 -7.5 18t-48.5 22q-49 17 -72 31.5t-37 32.5q-18 24 -22 55t6 70q18 73 89.5 113t186.5 40q57 0 104 -9t77 -27l-44 -163q-28 21 -72.5 33
t-94.5 12q-27 0 -38 -4t-15 -16t6.5 -23t53.5 -30q47 -22 69.5 -37.5t36.5 -32.5q19 -25 24 -55.5t-4 -67.5z" />
    <glyph glyph-name="T.small" unicode="&#xe065;" horiz-adv-x="489" 
d="M376 385l-103 -385h-203l103 385h-143l43 160h489l-43 -160h-143z" />
    <glyph glyph-name="U.small" unicode="&#xe06a;" horiz-adv-x="678" 
d="M585 268q-42 -158 -109 -216.5t-207 -58.5q-132 0 -184.5 71.5t-17.5 203.5l74 277h204l-78 -290q-13 -51 -4.5 -69.5t37.5 -18.5q27 0 45.5 18.5t31.5 69.5l78 290h204z" />
    <glyph glyph-name="V.small" unicode="&#xe075;" horiz-adv-x="636" 
d="M689 545l-344 -545h-200l-52 545h206l-2 -332h4l174 332h214z" />
    <glyph glyph-name="W.small" unicode="&#xe076;" horiz-adv-x="856" 
d="M374 177l-98 -177h-197l34 545h198l-22 -135q-11 -64 -17.5 -101.5t-8.5 -47.5h5q6 11 12.5 24.5t19.5 41.5q16 34 24.5 51.5t16.5 31.5l76 135h164l5 -137q1 -31 1.5 -60.5t0.5 -88.5h5q7 28 20 69.5t25 78.5l48 138h203l-255 -545h-190l-6 175q-2 47 -2 75.5t2 56.5h-4
q-28 -67 -38 -87.5t-22 -42.5z" />
    <glyph glyph-name="X.small" unicode="&#xe07b;" horiz-adv-x="618" 
d="M263 132l-108 -132h-218l269 300l-113 245h219l47 -126h4l98 126h218l-267 -283l123 -262h-218l-52 132h-2z" />
    <glyph glyph-name="Y.small" unicode="&#xe07c;" horiz-adv-x="589" 
d="M368 164l-44 -164h-203l44 164l-102 381h224l13 -118q3 -25 3.5 -45t-0.5 -59h6q3 6 6.5 12.5t9.5 18.5q13 25 21.5 40t17.5 30l75 121h233z" />
    <glyph glyph-name="Z.small" unicode="&#xe081;" horiz-adv-x="539" 
d="M459 160l-43 -160h-439l37 140l274 243l-1 2h-199l43 160h424l-39 -146l-272 -237l1 -2h214z" />
    <glyph glyph-name="ring.cap" unicode="&#xe0ff;" horiz-adv-x="454" 
d="M432 1079q91 -2 139.5 -45t31.5 -103q-16 -59 -77.5 -95t-147.5 -35q-91 2 -138 46t-30 108q14 55 76.5 90t145.5 34zM419 989q-36 1 -61 -12t-31 -36q-6 -22 12 -35.5t54 -14.5t61 12t31 36q6 22 -12 35.5t-54 14.5z" />
    <glyph glyph-name="commaaccent" unicode="&#xf6c3;" horiz-adv-x="500" 
d="M301 -164l-242 -157l-63 85l198 186z" />
    <glyph glyph-name="commainferior" unicode="&#xf6e1;" horiz-adv-x="285" 
d="M143 -172l-199 -216l-94 57l160 218z" />
    <glyph glyph-name="commasuperior" unicode="&#xf6e2;" horiz-adv-x="285" 
d="M258 259l-198 -216l-94 57l159 218z" />
    <glyph glyph-name="NULL" horiz-adv-x="0" 
 />
    <glyph glyph-name="CR" horiz-adv-x="357" 
 />
    <glyph glyph-name="germandbls.cap" horiz-adv-x="1240" 
d="M576 204q-25 -102 -115.5 -158t-233.5 -56q-82 0 -137 8.5t-106 28.5l50 186q41 -28 96.5 -43t116.5 -15q48 0 76 15t36 45q6 23 -9 43t-76 55q-57 32 -83 53.5t-41 45.5q-22 32 -27 70.5t6 84.5q23 97 110.5 151.5t219.5 54.5q74 0 130.5 -11t93.5 -33l-52 -196
q-30 33 -83 52.5t-112 19.5q-42 0 -65 -11.5t-29 -35.5q-7 -25 8.5 -46.5t80.5 -60.5q55 -33 80.5 -53.5t41.5 -43.5q22 -31 28 -68.5t-5 -81.5zM1172 204q-25 -102 -115.5 -158t-233.5 -56q-82 0 -137 8.5t-106 28.5l50 186q41 -28 96.5 -43t116.5 -15q48 0 76 15t36 45
q6 23 -9 43t-76 55q-57 32 -83 53.5t-41 45.5q-22 32 -27 70.5t6 84.5q23 97 110.5 151.5t219.5 54.5q74 0 130.5 -11t93.5 -33l-52 -196q-30 33 -83 52.5t-112 19.5q-42 0 -65 -11.5t-29 -35.5q-7 -25 8.5 -46.5t80.5 -60.5q55 -33 80.5 -53.5t41.5 -43.5q22 -31 28 -68.5
t-5 -81.5z" />
    <glyph glyph-name="uni021A" horiz-adv-x="608" 
d="M497 589l-158 -589h-216l158 589h-196l46 174h608l-46 -174h-196zM311 -164l-242 -157l-63 85l198 186z" />
    <glyph glyph-name="idotaccent" horiz-adv-x="360" 
d="M426 744q-13 -50 -56.5 -83.5t-93.5 -33.5q-52 0 -77.5 33.5t-12.5 83.5q14 50 57.5 83t94.5 33t76.5 -33t11.5 -83zM353 545l-146 -545h-200l146 545h200z" />
    <glyph glyph-name="schwa" horiz-adv-x="585" 
d="M131 525q50 16 98 24t99 8q129 0 186.5 -89.5t18.5 -238.5q-28 -109 -116.5 -176t-206.5 -63q-143 4 -182 99.5t41 233.5h301q5 43 -20 63t-84 20q-33 0 -68 -5.5t-107 -26.5zM180 187q-10 -35 4.5 -54.5t49.5 -19.5q43 0 70.5 24t41.5 74h-158q-1 -2 -3 -6.5t-5 -17.5z
" />
    <glyph glyph-name="a.superior" horiz-adv-x="470" 
d="M260 308q-40 -29 -61 -35.5t-48 -6.5q-45 0 -67.5 35t-8.5 84q14 51 63 75.5t135 24.5h30q2 4 2.5 6t1.5 4q2 9 -14.5 13.5t-52.5 4.5q-23 0 -45.5 -3t-65.5 -13l32 119q34 7 70 10t73 3q106 0 143 -47.5t10 -145.5l-44 -163h-144l-6 35h-3zM273 414q-20 0 -30 -5
t-13 -19q-3 -11 1.5 -17.5t14.5 -6.5q8 0 18 5t15 13l8 30h-14z" />
    <glyph glyph-name="b.superior" horiz-adv-x="516" 
d="M525 447q-24 -86 -93 -133t-174 -47q-37 0 -83 10t-102 29l127 475h182l-50 -187l1 -1q30 22 57.5 31t55.5 6q55 -5 77.5 -54.5t1.5 -128.5zM277 388q3 -2 6.5 -3.5t8.5 -1.5q19 0 32 16t21 51q7 36 3 49.5t-21 13.5q-6 0 -10.5 -2t-8.5 -6z" />
    <glyph glyph-name="c.superior" horiz-adv-x="393" 
d="M355 292q-29 -13 -58.5 -19t-62.5 -6q-84 0 -125 62t-16 146q24 78 83 116t155 38q33 0 57 -5.5t47 -18.5l-30 -113q-13 10 -30.5 15t-38.5 5q-25 0 -42 -14t-26 -42q-9 -29 1.5 -48t34.5 -19q20 0 40.5 5.5t42.5 16.5z" />
    <glyph glyph-name="d.superior" horiz-adv-x="517" 
d="M278 301q-23 -20 -49.5 -29t-54.5 -6q-60 6 -82.5 63.5t2.5 150.5q19 67 67 108.5t111 41.5q18 0 41 -5.5t44 -14.5l6 2l45 169h182l-136 -508h-182l7 27zM336 511q-3 2 -6.5 3.5t-8.5 1.5q-18 0 -30.5 -13.5t-18.5 -41.5q-10 -42 -7.5 -61.5t19.5 -19.5q6 0 10.5 2
t8.5 6z" />
    <glyph glyph-name="e.superior" horiz-adv-x="430" 
d="M388 287q-36 -11 -72 -16t-73 -5q-91 0 -136.5 58t-21.5 148q19 73 79 115.5t148 42.5q82 0 123 -41.5t22 -104.5q-5 -15 -12.5 -31t-15.5 -28h-195q-3 -26 12 -36.5t58 -10.5q28 0 57 5t57 15zM314 511q5 17 0 25.5t-20 8.5q-16 0 -29 -14.5t-18 -36.5h60q2 3 3.5 7
t3.5 10z" />
    <glyph glyph-name="f.superior" horiz-adv-x="391" 
d="M332 511l-64 -238h-182l64 238h-56l30 112h57q29 83 88.5 123.5t153.5 40.5q27 0 56 -3.5t57 -9.5l-32 -121q-32 7 -50 9t-39 2t-34 -11t-17 -30h96l-30 -112h-98z" />
    <glyph glyph-name="g.superior" horiz-adv-x="484" 
d="M30 216q5 17 18.5 32t40.5 31q-18 14 -21 28t2 34q4 17 24 39t45 37q-19 19 -23.5 41.5t3.5 53.5q14 55 70 86t146 31q23 0 44 -4t44 -13l124 26l-31 -115h-26q-1 -4 -3.5 -12t-3.5 -11q-18 -67 -82.5 -100.5t-160.5 -22.5q-3 -1 -6 -4.5t-4 -6.5q-1 -4 0.5 -6t5.5 -2
h111q54 0 82.5 -35.5t16.5 -83.5q-14 -59 -74 -88t-167 -29q-93 0 -140 25.5t-35 68.5zM308 530q-11 0 -18.5 -8t-10.5 -22q-4 -13 0 -21t15 -8q10 0 18 8t11 22q4 13 0 21t-15 8zM219 258h-10t-5 1q-3 -2 -5.5 -6.5t-3.5 -10.5q-3 -11 5.5 -16.5t31.5 -5.5t35.5 5t15.5 16
q2 9 -1 13t-12 4h-51z" />
    <glyph glyph-name="h.superior" horiz-adv-x="532" 
d="M310 508l-63 -235h-183l136 508h183l-48 -179l3 -2q23 15 48.5 22.5t50.5 7.5q61 0 83.5 -38.5t3.5 -110.5l-56 -208h-183l55 204q5 20 4 29t-9 9q-6 0 -12 -1.5t-13 -5.5z" />
    <glyph glyph-name="j.superior" horiz-adv-x="310" 
d="M380 749q-10 -37 -46 -61.5t-79 -24.5q-46 0 -69 24.5t-13 61.5t46 61t81 24q44 0 67 -24t13 -61zM-48 258q27 -4 48.5 -3t35.5 7q14 8 25 23.5t16 36.5l81 301h183l-79 -295q-17 -62 -44.5 -103.5t-67.5 -65.5q-40 -23 -98 -31.5t-135 -1.5z" />
    <glyph glyph-name="k.superior" horiz-adv-x="495" 
d="M281 403l-35 -130h-182l136 508h182l-71 -266q11 0 18 9t24 39q5 8 11 19.5t22 40.5h188l-104 -112q-27 -29 -38 -38.5t-19 -12.5l-1 -2q11 -2 20.5 -14t15.5 -29l44 -142h-170q-7 34 -9.5 47.5t-4.5 22.5q-7 38 -11.5 49t-15.5 11z" />
    <glyph glyph-name="l.superior" horiz-adv-x="311" 
d="M383 781l-136 -508h-183l136 508h183z" />
    <glyph glyph-name="m.superior" horiz-adv-x="740" 
d="M310 508l-63 -235h-183l94 350h183l-8 -30l2 -2q34 21 61 30t54 9t45.5 -11.5t27.5 -33.5q26 21 61.5 33t70.5 12q53 0 75 -38.5t5 -101.5l-59 -217h-182l56 210q5 18 4.5 24.5t-5.5 7.5t-11.5 -0.5t-13.5 -6.5l-63 -235h-182l57 212q4 16 3.5 22.5t-7.5 7.5q-5 1 -11 -1
t-11 -6z" />
    <glyph glyph-name="o.superior" horiz-adv-x="489" 
d="M496 427q-21 -80 -82.5 -120.5t-158.5 -38.5q-96 1 -143 55.5t-25 137.5t85.5 126t160.5 41q97 -1 141.5 -56t21.5 -145zM313 431q16 61 13.5 73t-15.5 13q-13 0 -22 -11t-19 -49q-14 -54 -11.5 -65.5t15.5 -12.5q13 0 21.5 10t17.5 42z" />
    <glyph glyph-name="p.superior" horiz-adv-x="517" 
d="M249 284l-41 -155h-182l132 494h182l-7 -26l2 -1q20 17 46 25.5t57 8.5q58 0 82.5 -56.5t2.5 -142.5q-19 -77 -68 -121t-118 -44q-17 0 -39.5 5.5t-42.5 14.5zM329 518q-6 0 -11 -2t-8 -6l-34 -125q3 -2 6.5 -3.5t8.5 -1.5q19 0 32 17t23 54q10 36 5.5 51.5t-22.5 15.5z
" />
    <glyph glyph-name="q.superior" horiz-adv-x="517" 
d="M278 301q-16 -16 -43 -25.5t-57 -9.5q-63 0 -87.5 54t-2.5 142q20 81 69 124.5t122 43.5q25 0 50 -6.5t44 -18.5l177 25l-134 -501h-182l45 171zM336 512q-2 2 -6 3.5t-8 1.5q-19 0 -32 -17t-23 -54q-10 -36 -6 -51.5t23 -15.5q6 0 10.5 2t8.5 6z" />
    <glyph glyph-name="r.superior" horiz-adv-x="399" 
d="M292 441l-45 -168h-183l94 350h183l-11 -42l1 -2q43 34 63.5 42.5t40.5 8.5q7 0 15 -1t21 -3l-42 -155q-9 2 -18 2.5t-18 0.5q-38 0 -59.5 -7t-41.5 -26z" />
    <glyph glyph-name="s.superior" horiz-adv-x="413" 
d="M396 371q-12 -46 -63 -76t-118 -30q-53 0 -92 4.5t-68 14.5l32 118q29 -14 62 -22t57 -8q12 0 17 3.5t6 11.5q1 7 -5.5 12t-30.5 14q-57 20 -72 48t-4 72q12 47 61.5 71.5t134.5 24.5q41 0 69 -3t58 -10l-31 -115q-10 8 -45 15t-63 7q-10 0 -14 -3t-4 -10t7 -12.5
t32 -14.5q55 -22 69.5 -47.5t4.5 -64.5z" />
    <glyph glyph-name="t.superior" horiz-adv-x="405" 
d="M378 283q-29 -8 -59.5 -12t-61.5 -4q-79 0 -115 45.5t-15 122.5l20 77h-60l30 111h60l25 92h182l-25 -92h104l-30 -111h-104l-19 -72q-7 -26 1 -34.5t32 -8.5q8 0 23 2t45 7z" />
    <glyph glyph-name="u.superior" horiz-adv-x="532" 
d="M289 296q-23 -15 -48.5 -22.5t-50.5 -7.5q-59 0 -81.5 43t-2.5 117l53 197h183l-55 -204q-6 -22 -5 -30t10 -8q4 0 10.5 2t14.5 5l63 235h183l-94 -349h-183l6 20z" />
    <glyph glyph-name="v.superior" horiz-adv-x="471" 
d="M555 623l-241 -350h-158l-52 350h193l-17 -132q-5 -35 -8 -58.5t-5 -36.5h2q5 13 15 36.5t24 58.5l53 132h194z" />
    <glyph glyph-name="w.superior" horiz-adv-x="640" 
d="M500 273l-140 -1l4 58q3 38 5 66.5t3 47.5h-3q-9 -19 -22 -47t-30 -66l-26 -59l-150 1l-33 350h174l-16 -136q-2 -18 -3.5 -32.5t-2.5 -24.5h1q4 9 10.5 23.5t14.5 33.5l59 134h142l-15 -134q-2 -18 -3 -32.5t-2 -24.5q4 10 10 24.5t13 32.5l56 136h168z" />
    <glyph glyph-name="x.superior" horiz-adv-x="500" 
d="M267 348l-50 -75h-200l179 182l-80 168h199l15 -69h2l39 69h200l-174 -178l87 -172h-199l-14 75h-4z" />
    <glyph glyph-name="y.superior" horiz-adv-x="495" 
d="M326 273q-65 -90 -119 -121t-143 -31q-20 0 -35 1t-30 3l36 133q7 -2 18.5 -2.5t28.5 -0.5q30 0 52.5 4.5t33.5 13.5l-64 350h193l-5 -132q-1 -24 -3 -42.5t-4 -31.5h2q5 13 13.5 31.5t20.5 42.5l64 132h194z" />
    <glyph glyph-name="z.superior" horiz-adv-x="431" 
d="M427 395l-33 -122h-350l24 90l174 135v3h-131l33 122h337l-24 -90l-171 -136l1 -2h140z" />
    <glyph glyph-name="zero.slash" horiz-adv-x="691" 
d="M725 359q-43 -182 -147 -276t-261 -91q-150 2 -209.5 116t-11.5 299q47 183 149.5 275t256.5 89q152 -2 210.5 -110t12.5 -302zM300 404q-9 -32 -14.5 -59.5t-8.5 -49.5l241 293q-9 7 -21 10.5t-27 3.5q-57 1 -100 -49t-70 -149zM351 161q57 -1 100 49.5t70 151.5
q9 34 15 63.5t9 53.5l-247 -299q9 -10 22.5 -14.5t30.5 -4.5z" />
    <glyph glyph-name="zero.slashosf" horiz-adv-x="690" 
d="M627 252q-32 -128 -120 -194t-223 -64q-136 3 -194.5 85.5t-24.5 214.5q32 127 120 193t222 64q137 -2 195.5 -83t24.5 -216zM266 290q-4 -15 -6.5 -28.5t-3.5 -24.5l121 167q-39 0 -67.5 -30t-43.5 -84zM315 141q39 -1 67 29t43 86q4 16 7 30.5t4 26.5l-124 -172h3z" />
    <glyph glyph-name="zero.osf" horiz-adv-x="690" 
d="M627 252q-32 -128 -120 -194t-223 -64q-136 3 -194.5 85.5t-24.5 214.5q32 127 120 193t222 64q137 -2 195.5 -83t24.5 -216zM425 256q20 74 8.5 110.5t-54.5 37.5q-40 1 -69 -29t-44 -85q-19 -72 -7 -110t56 -39q39 -1 67 29t43 86z" />
    <glyph glyph-name="one.osf" horiz-adv-x="510" 
d="M445 141l-38 -141h-430l38 141h119l56 210h-117l34 126q15 0 28.5 1.5t25.5 4.5q14 3 26 8.5t22 12.5q14 9 22 19.5t11 21.5h192l-108 -404h119z" />
    <glyph glyph-name="two.osf" horiz-adv-x="563" 
d="M468 141l-38 -141h-453l37 138q228 135 271 167t50 58q6 24 -13.5 35.5t-66.5 11.5q-42 0 -83 -11t-86 -33l39 147q47 19 106 30t116 11q94 0 143.5 -46.5t33.5 -115.5q-14 -63 -74.5 -119t-186.5 -128l2 -4h203z" />
    <glyph glyph-name="three.osf" horiz-adv-x="617" 
d="M155 -229q-29 0 -56 1.5t-53 4.5q-35 5 -61.5 11t-43.5 13l48 176q20 -9 44 -16.5t52 -13.5q27 -6 52 -9t48 -3q54 0 86 17.5t42 51.5q12 42 -14.5 61.5t-101.5 19.5h-91l44 162h91q62 0 98.5 19.5t46.5 57.5q10 35 -7.5 51.5t-61.5 16.5q-27 0 -56 -5t-60 -15t-58 -21.5
t-50 -25.5l49 184q49 22 115 34.5t129 12.5q117 0 172.5 -64.5t28.5 -160.5q-14 -51 -55.5 -93.5t-98.5 -65.5l-1 -4q45 -20 67.5 -72t8.5 -113q-22 -101 -114.5 -156.5t-238.5 -55.5z" />
    <glyph glyph-name="four.osf" horiz-adv-x="708" 
d="M280 -218l44 163h-339l40 152l408 448h251l-119 -444h79l-41 -156h-79l-44 -163h-200zM243 104v-3h122l46 141q9 29 19.5 58t22.5 58h-3q-25 -27 -49.5 -56t-48.5 -60z" />
    <glyph glyph-name="five.osf" horiz-adv-x="643" 
d="M131 -230q-26 0 -50.5 1.5t-48.5 4.5q-31 4 -55 9.5t-40 12.5l46 175q20 -8 43.5 -15t50.5 -12q27 -6 51.5 -9t45.5 -3q54 0 91.5 22t47.5 58q18 67 -37.5 88.5t-240.5 11.5l115 430h469l-43 -164h-269l-31 -112q140 4 203.5 -63.5t33.5 -190.5q-29 -118 -127 -181
t-255 -63z" />
    <glyph glyph-name="six.osf" horiz-adv-x="711" 
d="M647 213q-30 -102 -118.5 -160.5t-215.5 -55.5q-147 3 -203 116t-7 304q47 181 161.5 273t292.5 92q49 0 94.5 -6.5t73.5 -18.5l-49 -182q-36 21 -76.5 32t-84.5 11q-81 0 -132 -41t-72 -122q36 21 75 31.5t79 10.5q114 0 166.5 -78.5t15.5 -205.5zM454 246
q10 48 -7.5 76t-57.5 28q-29 0 -59 -10t-54 -28q-18 -68 -1 -108t67 -43q42 -2 73 21t39 64z" />
    <glyph glyph-name="seven.osf" horiz-adv-x="580" 
d="M576 393l-407 -611h-236l416 597v2h-306l43 164h530z" />
    <glyph glyph-name="eight.osf" horiz-adv-x="724" 
d="M643 181q-27 -88 -115.5 -139.5t-216.5 -51.5q-141 0 -211 70.5t-40 175.5q14 49 57 93t107 76q-38 43 -49.5 85t-0.5 91q19 89 101 140.5t205 51.5q122 0 184 -62t41 -156q-10 -45 -47 -85t-93 -65q59 -39 79 -96.5t-1 -127.5zM505 546q9 31 -7.5 51t-51.5 20
q-30 0 -50 -13t-26 -37q-8 -31 9 -55t58 -40q31 19 46.5 36.5t21.5 37.5zM448 214q7 36 -18 63t-96 55q-32 -19 -53.5 -44.5t-29.5 -53.5q-11 -39 14 -63.5t77 -24.5q43 0 71.5 18t34.5 50z" />
    <glyph glyph-name="nine.osf" horiz-adv-x="711" 
d="M67 344q30 102 118.5 160.5t215.5 55.5q147 -3 203 -116t7 -304q-47 -181 -161.5 -273t-292.5 -92q-49 0 -94.5 6.5t-73.5 18.5l49 182q36 -21 76.5 -32t84.5 -11q81 0 132 41t72 122q-36 -21 -75 -31.5t-79 -10.5q-114 0 -166.5 78.5t-15.5 205.5zM260 311
q-10 -48 7.5 -76t57.5 -28q29 0 59 10t54 28q18 68 1 108t-67 43q-42 2 -73 -21t-39 -64z" />
    <glyph glyph-name="dollar.osf" horiz-adv-x="534" 
d="M451 147q-14 -63 -68 -104t-133 -52l-19 -69h-112l18 67q-42 3 -78.5 11t-64.5 20l42 160q33 -21 77.5 -34.5t84.5 -13.5q30 0 46 6.5t20 19.5q4 15 -6 26.5t-52 31.5q-45 22 -66 38t-34 36q-15 24 -18.5 54.5t4.5 68.5q13 57 63.5 92t131.5 45l20 73h112l-19 -70
q35 -3 66 -8.5t61 -15.5l-42 -155q-22 15 -66 25.5t-86 10.5q-27 0 -40 -5.5t-17 -19.5q-4 -13 6.5 -24t51.5 -30q45 -20 66 -35t34 -32q17 -23 21 -52t-4 -65z" />
    <glyph glyph-name="cent.osf" horiz-adv-x="510" 
d="M405 28q-33 -14 -63.5 -23t-59.5 -13l-19 -70h-112l21 78q-87 25 -120 109t-1 206q25 94 96.5 157.5t172.5 78.5l19 72h112l-19 -71q27 -4 50 -12.5t40 -20.5l-44 -163q-21 19 -50.5 30t-62.5 11q-46 0 -78.5 -29t-43.5 -80q-14 -62 1 -97t56 -38q37 -3 70.5 6t79.5 37z
" />
    <glyph glyph-name="sterling.osf" horiz-adv-x="553" 
d="M468 141l-38 -141h-453l38 141h60q10 10 17 20t12 20q4 9 6.5 17t3.5 18h-66l25 95h29q-5 29 -4 49t6 40q19 76 87 115t181 39q59 0 108.5 -9.5t77.5 -25.5l-42 -154q-27 20 -63.5 31t-76.5 11q-56 0 -79.5 -13.5t-31.5 -44.5q-2 -7 -2 -17t1 -21h174l-25 -95h-140
q-1 -19 -8 -37.5t-18 -37.5h221z" />
    <glyph glyph-name="yen.osf" horiz-adv-x="609" 
d="M493 78h-138l-21 -78h-203l21 78h-145l27 101h137l-12 46h-113l27 101h59l-59 219h224l13 -118q3 -25 3.5 -44.5t-0.5 -56.5h8q2 5 5.5 11.5t8.5 16.5q13 25 21.5 40t17.5 30l75 121h233l-175 -219h52l-27 -101h-105l-37 -46h130z" />
    <glyph glyph-name="Euro.osf" horiz-adv-x="592" 
d="M474 35q-43 -21 -91.5 -31.5t-105.5 -10.5q-102 0 -155.5 65t-44.5 166h-61l27 101h56q39 110 127 168.5t218 58.5q47 0 80.5 -6t63.5 -20l-50 -180q-25 17 -53.5 25t-68.5 8q-41 0 -67.5 -13t-42.5 -41h153l-27 -101h-148q2 -28 20 -42.5t52 -14.5q39 0 83.5 12.5
t82.5 33.5z" />
    <glyph glyph-name="florin.osf" horiz-adv-x="498" 
d="M219 22q-44 -132 -127.5 -194.5t-215.5 -62.5q-22 0 -42 1t-39 3l47 174q77 -10 119 11t60 75l97 288h-91l40 150h102l26 78q44 130 124 193t199 63q33 0 67.5 -5t68.5 -15l-43 -162q-29 10 -55 14t-56 4q-41 0 -64 -19t-41 -73l-26 -78h124l-40 -150h-135z" />
    <glyph glyph-name="numbersign.osf" horiz-adv-x="824" 
d="M311 0l42 76h-98l-42 -76h-182l42 76h-76l43 160h120l41 74h-69l43 160h114l41 75h182l-41 -75h98l41 75h182l-41 -75h76l-43 -160h-121l-41 -74h70l-43 -160h-114l-42 -76h-182zM342 236h98l41 74h-98z" />
    <glyph glyph-name="hyphen.cap" horiz-adv-x="480" 
d="M497 473l-43 -160h-400l43 160h400z" />
    <glyph glyph-name="endash.cap" 
d="M677 473l-43 -160h-580l43 160h580z" />
    <glyph glyph-name="emdash.cap" horiz-adv-x="830" 
d="M843 472l-43 -160h-750l43 160h750z" />
    <glyph glyph-name="parenleft.cap" horiz-adv-x="393" 
d="M305 431q-30 -114 -31 -230.5t27 -246.5l-146 -82q-63 114 -75.5 266t28.5 326q29 125 113.5 253t204.5 225l119 -95q-90 -96 -150.5 -201t-89.5 -215z" />
    <glyph glyph-name="bracketleft.cap" horiz-adv-x="379" 
d="M510 757h-109l-188 -703h109l-42 -156h-309l272 1015h309z" />
    <glyph glyph-name="braceleft.cap" horiz-adv-x="383" 
d="M51 161q25 36 34.5 53.5t12.5 31.5q8 26 -4.5 49t-41.5 32l36 132q34 9 58 32t31 49q4 14 4 31.5t-5 53.5q-6 39 -6 58.5t4 36.5q28 103 118.5 151.5t227.5 33.5l-39 -146q-52 5 -76 -8.5t-34 -49.5q-4 -17 -4.5 -36.5t3.5 -57.5q4 -39 3.5 -59t-5.5 -38q-10 -37 -33 -62
t-75 -55q36 -30 45.5 -55t-0.5 -62q-4 -18 -14 -38t-36 -59q-25 -38 -34.5 -57.5t-14.5 -36.5q-9 -36 7.5 -49.5t71.5 -8.5l-39 -146q-146 -15 -210 33.5t-37 151.5q5 17 15.5 37t36.5 58z" />
    <glyph glyph-name="parenright.cap" horiz-adv-x="393" 
d="M157 353q30 114 31 230.5t-27 246.5l146 82q63 -114 75.5 -266t-28.5 -326q-29 -125 -113.5 -253t-204.5 -225l-119 95q90 96 150.5 201t89.5 215z" />
    <glyph glyph-name="bracketright.cap" horiz-adv-x="379" 
d="M249 758h-109l42 156h309l-272 -1015h-309l42 156h109z" />
    <glyph glyph-name="braceright.cap" horiz-adv-x="383" 
d="M374 625q-25 -36 -34 -53.5t-13 -31.5q-7 -26 5 -49t41 -32l-35 -132q-34 -9 -58.5 -32t-31.5 -49q-4 -14 -4 -31.5t6 -53.5q6 -38 5.5 -58t-4.5 -37q-28 -102 -118 -151t-228 -34l39 146q51 -5 75.5 8.5t34.5 49.5q4 17 5 36.5t-4 57.5q-4 39 -3.5 59t5.5 38
q10 37 33 61.5t75 55.5q-36 31 -45.5 55.5t0.5 61.5q4 18 14 38t36 59q25 38 34.5 57.5t14.5 36.5q10 36 -7.5 49.5t-71.5 8.5l39 146q146 15 210 -34t37 -151q-5 -17 -15 -37t-37 -58z" />
    <glyph glyph-name="guilsinglleft.cap" horiz-adv-x="414" 
d="M371 239l-124 -120l-200 204l36 137l310 204l70 -139l-216 -152z" />
    <glyph glyph-name="guillemotleft.cap" horiz-adv-x="768" 
d="M370 239l-124 -120l-200 204l36 137l310 204l70 -139l-216 -152zM724 239l-124 -120l-200 204l36 137l310 204l70 -139l-216 -152z" />
    <glyph glyph-name="guilsinglright.cap" horiz-adv-x="414" 
d="M101 536l133 129l201 -204l-37 -137l-310 -204l-64 129l206 143z" />
    <glyph glyph-name="guillemotright.cap" horiz-adv-x="768" 
d="M456 545l124 120l200 -204l-36 -137l-310 -204l-70 139l216 152zM102 545l124 120l200 -204l-36 -137l-310 -204l-70 139l216 152z" />
    <glyph glyph-name="periodcentered.cap" horiz-adv-x="324" 
d="M309 395q-14 -50 -57.5 -83.5t-94.5 -33.5q-53 0 -79.5 33.5t-12.5 83.5q13 50 57.5 83t96.5 33q51 0 77 -33t13 -83z" />
    <glyph glyph-name="questiondown.cap" horiz-adv-x="537" 
d="M267 660q14 50 57.5 83.5t94.5 33.5q53 0 79.5 -33.5t12.5 -83.5q-13 -50 -57.5 -83t-96.5 -33q-51 0 -77 33t-13 83zM-3 173q10 39 37 73.5t98 89.5q67 52 92 83t34 66h183q-13 -53 -47.5 -98.5t-117.5 -107.5q-41 -31 -54.5 -45t-16.5 -26q-7 -28 10 -41t61 -13
q42 0 88 13.5t99 41.5l-46 -173q-48 -21 -108 -34t-111 -13q-114 0 -169.5 50t-31.5 134z" />
    <glyph glyph-name="exclamdown.cap" horiz-adv-x="324" 
d="M140 659q14 50 57.5 83.5t94.5 33.5q53 0 79.5 -33.5t12.5 -83.5q-13 -50 -57.5 -83t-96.5 -33q-51 0 -77 33t-13 83zM269 289q-27 -116 -42 -176.5t-28 -112.5h-211q12 47 28 102t48 161q29 97 42 141.5t22 79.5h188q-8 -31 -17.5 -70.5t-29.5 -124.5z" />
    <glyph glyph-name="verticalbar" horiz-adv-x="360" 
d="M-53 -224l272 1015h200l-272 -1015h-200z" />
    <glyph glyph-name="at.cap" horiz-adv-x="849" 
d="M437 136q49 0 105 9.5t87 24.5l-41 -152q-30 -15 -80.5 -24t-107.5 -9q-86 0 -154.5 35t-110.5 100q-39 61 -48 139t14 163q47 171 169.5 261.5t311.5 90.5q166 0 232.5 -81.5t24.5 -236.5l-64 -238h-155l-6 52l-4 1q-44 -35 -81.5 -49.5t-79.5 -14.5q-67 0 -103 57
t-16 127q24 83 94.5 120t204.5 37h35q2 4 4 10t2 7q7 25 -27 40.5t-96 15.5q-103 0 -180 -56.5t-103 -145.5q-34 -119 14.5 -201t158.5 -82zM612 434q-42 0 -63.5 -10.5t-26.5 -35.5q-4 -18 5.5 -30t27.5 -12q23 0 47 10t36 25l14 53h-40z" />
    <glyph glyph-name="zero.slashLP" horiz-adv-x="760" 
d="M725 359q-43 -182 -147 -276t-261 -91q-150 2 -209.5 116t-11.5 299q47 183 149.5 275t256.5 89q152 -2 210.5 -110t12.5 -302zM300 404q-9 -32 -14.5 -59.5t-8.5 -49.5l241 293q-9 7 -21 10.5t-27 3.5q-57 1 -100 -49t-70 -149zM351 161q57 -1 100 49.5t70 151.5
q9 34 15 63.5t9 53.5l-247 -299q9 -10 22.5 -14.5t30.5 -4.5z" />
    <glyph glyph-name="zero.LP" horiz-adv-x="760" 
d="M725 359q-43 -182 -147 -276t-261 -91q-150 2 -209.5 116t-11.5 299q47 183 149.5 275t256.5 89q152 -2 210.5 -110t12.5 -302zM521 362q34 124 21.5 181.5t-72.5 58.5q-57 1 -100 -49t-70 -149q-35 -127 -22 -184.5t73 -58.5q57 -1 100 49.5t70 151.5z" />
    <glyph glyph-name="one.LP" horiz-adv-x="564" 
d="M505 164l-44 -164h-484l44 164h142l95 353h-142l39 146q19 0 36.5 2.5t33.5 7.5q17 5 32 13.5t28 19.5q15 13 24.5 27.5t13.5 29.5h200l-160 -599h142z" />
    <glyph glyph-name="two.LP" horiz-adv-x="621" 
d="M532 164l-44 -164h-511l45 168q245 184 314.5 249.5t82.5 113.5q11 41 -7 60t-67 19q-52 0 -104 -14t-103 -41l46 173q52 23 112 35t122 12q114 0 172 -69t28 -175q-21 -75 -96.5 -154t-245.5 -209l2 -4h254z" />
    <glyph glyph-name="three.LP" horiz-adv-x="617" 
d="M206 -10q-29 0 -56 1.5t-53 4.5q-35 5 -61.5 11t-43.5 13l48 176q20 -9 44 -16.5t52 -13.5q27 -6 52 -9t48 -3q54 0 86 17.5t42 51.5q12 42 -14.5 61.5t-101.5 19.5h-91l44 162h91q62 0 98.5 19.5t46.5 57.5q10 35 -7.5 51.5t-61.5 16.5q-27 0 -56 -5t-60 -15t-58 -21.5
t-50 -25.5l49 184q49 22 115 34.5t129 12.5q117 0 172.5 -64.5t28.5 -160.5q-14 -51 -55.5 -93.5t-98.5 -65.5l-1 -4q45 -20 67.5 -72t8.5 -113q-22 -101 -114.5 -156.5t-238.5 -55.5z" />
    <glyph glyph-name="four.LP" horiz-adv-x="708" 
d="M306 0l44 163h-339l40 152l408 448h251l-119 -444h79l-41 -156h-79l-44 -163h-200zM269 322v-3h122l46 141q9 29 19.5 58t22.5 58h-3q-25 -27 -49.5 -56t-48.5 -60z" />
    <glyph glyph-name="five.LP" horiz-adv-x="643" 
d="M196 -11q-26 0 -50.5 1.5t-48.5 4.5q-31 4 -55 9.5t-40 12.5l46 175q20 -8 43.5 -15t50.5 -12q27 -6 51.5 -9t45.5 -3q54 0 91.5 22t47.5 58q18 67 -37.5 88.5t-240.5 11.5l115 430h469l-43 -164h-269l-31 -112q140 4 203.5 -63.5t33.5 -190.5q-29 -118 -127 -181
t-255 -63z" />
    <glyph glyph-name="six.LP" horiz-adv-x="711" 
d="M642 213q-30 -102 -118.5 -160.5t-215.5 -55.5q-147 3 -203 116t-7 304q47 181 161.5 273t292.5 92q49 0 94.5 -6.5t73.5 -18.5l-49 -182q-36 21 -76.5 32t-84.5 11q-81 0 -132 -41t-72 -122q36 21 75 31.5t79 10.5q114 0 166.5 -78.5t15.5 -205.5zM449 246
q10 48 -7.5 76t-57.5 28q-29 0 -59 -10t-54 -28q-18 -68 -1 -108t67 -43q42 -2 73 21t39 64z" />
    <glyph glyph-name="seven.LP" horiz-adv-x="580" 
d="M641 611l-407 -611h-236l416 597v2h-306l43 164h530z" />
    <glyph glyph-name="eight.LP" horiz-adv-x="724" 
d="M643 181q-27 -88 -115.5 -139.5t-216.5 -51.5q-141 0 -211 70.5t-40 175.5q14 49 57 93t107 76q-38 43 -49.5 85t-0.5 91q19 89 101 140.5t205 51.5q122 0 184 -62t41 -156q-10 -45 -47 -85t-93 -65q59 -39 79 -96.5t-1 -127.5zM505 546q9 31 -7.5 51t-51.5 20
q-30 0 -50 -13t-26 -37q-8 -31 9 -55t58 -40q31 19 46.5 36.5t21.5 37.5zM448 214q7 36 -18 63t-96 55q-32 -19 -53.5 -44.5t-29.5 -53.5q-11 -39 14 -63.5t77 -24.5q43 0 71.5 18t34.5 50z" />
    <glyph glyph-name="nine.LP" horiz-adv-x="711" 
d="M131 562q30 102 118.5 160.5t215.5 55.5q147 -3 203 -116t7 -304q-47 -181 -161.5 -273t-292.5 -92q-49 0 -94.5 6.5t-73.5 18.5l49 182q36 -21 76.5 -32t84.5 -11q81 0 132 41t72 122q-36 -21 -75 -31.5t-79 -10.5q-114 0 -166.5 78.5t-15.5 205.5zM324 529
q-10 -48 7.5 -76t57.5 -28q29 0 59 10t54 28q18 68 1 108t-67 43q-42 2 -73 -21t-39 -64z" />
    <glyph glyph-name="dollar.LP" horiz-adv-x="644" 
d="M576 204q-21 -84 -86 -137t-168 -70l-20 -75h-200l20 72q-40 4 -73 12t-65 21l50 186q41 -28 96.5 -43t116.5 -15q48 0 76 15t36 45q6 23 -9 43t-76 55q-57 32 -83 53.5t-41 45.5q-22 32 -27 70.5t6 84.5q17 70 68 118.5t128 70.5l31 114h200l-27 -100q49 -4 87.5 -14.5
t66.5 -26.5l-52 -196q-30 33 -83 52.5t-112 19.5q-42 0 -65 -11.5t-29 -35.5q-7 -25 8.5 -46.5t80.5 -60.5q55 -33 80.5 -53.5t41.5 -43.5q22 -31 28 -68.5t-5 -81.5z" />
    <glyph glyph-name="cent.LP" horiz-adv-x="510" 
d="M406 138q-23 -10 -45.5 -17.5t-44.5 -12.5l-28 -108h-200l34 129h6q-62 36 -82.5 113.5t6.5 182.5q21 79 76 137.5t133 84.5l31 116h200l-29 -107q18 -5 33 -11.5t27 -15.5l-44 -163q-21 19 -50.5 30t-62.5 11q-46 0 -78.5 -29t-43.5 -80q-14 -62 1 -97t56 -38
q37 -3 70.5 6t79.5 37z" />
    <glyph glyph-name="sterling.LP" horiz-adv-x="688" 
d="M609 164l-44 -164h-578l44 164h86q29 33 46.5 69t24.5 77h-104l44 164h69q2 25 4.5 48.5t7.5 41.5q25 101 107 155t211 54q65 0 123.5 -13.5t84.5 -34.5l-45 -170q-18 22 -65.5 39.5t-94.5 17.5q-63 0 -93 -18t-40 -58q-2 -6 -4 -22.5t-5 -39.5h258l-44 -164h-236
q-1 -2 -1.5 -4t-0.5 -4q-10 -41 -25 -75.5t-34 -62.5h304z" />
    <glyph glyph-name="yen.LP" horiz-adv-x="744" 
d="M595 115h-156l-31 -115h-216l31 115h-172l27 101h172l17 65l-1 4h-170l27 101h114l-106 377h237l35 -199q5 -30 8 -55.5t4 -52.5h6q33 60 43 76t21 32l140 199h244l-302 -377h100l-27 -101h-154l-3 -4l-17 -65h156z" />
    <glyph glyph-name="Euro.LP" horiz-adv-x="714" 
d="M614 47q-58 -31 -126 -46t-129 -11q-106 7 -169.5 76t-71.5 180h-104l27 101h80l6 34t8 35h-76l27 101h84q55 119 161.5 187.5t245.5 68.5q62 0 108.5 -10t84.5 -32l-53 -194q-32 27 -68 39.5t-84 12.5q-51 0 -91.5 -18.5t-69.5 -53.5h204l-27 -101h-228q-1 -3 -1.5 -5.5
t-1.5 -5.5q-4 -15 -7 -30t-5 -28h225l-27 -101h-193q11 -34 37.5 -52t67.5 -19q50 -1 107.5 15.5t107.5 45.5z" />
    <glyph glyph-name="florin.LP" horiz-adv-x="498" 
d="M219 22q-44 -132 -127.5 -194.5t-215.5 -62.5q-22 0 -42 1t-39 3l47 174q77 -10 119 11t60 75l97 288h-91l40 150h102l26 78q44 130 124 193t199 63q33 0 67.5 -5t68.5 -15l-43 -162q-29 10 -55 14t-56 4q-41 0 -64 -19t-41 -73l-26 -78h124l-40 -150h-135z" />
    <glyph glyph-name="numbersign.LP" horiz-adv-x="864" 
d="M302 0l99 181h-98l-99 -181h-182l99 181h-96l43 160h141l40 74h-89l43 160h134l103 188h182l-103 -188h98l103 188h182l-103 -188h96l-43 -160h-141l-40 -74h89l-43 -160h-134l-99 -181h-182zM391 341h98l40 74h-98z" />
    <glyph glyph-name="zero.slashLT" 
d="M675 359q-43 -182 -147 -276t-261 -91q-150 2 -209.5 116t-11.5 299q47 183 149.5 275t256.5 89q152 -2 210.5 -110t12.5 -302zM250 404q-9 -32 -14.5 -59.5t-8.5 -49.5l241 293q-9 7 -21 10.5t-27 3.5q-57 1 -100 -49t-70 -149zM301 161q57 -1 100 49.5t70 151.5
q9 34 15 63.5t9 53.5l-247 -299q9 -10 22.5 -14.5t30.5 -4.5z" />
    <glyph glyph-name="zero.LT" 
d="M675 359q-43 -182 -147 -276t-261 -91q-150 2 -209.5 116t-11.5 299q47 183 149.5 275t256.5 89q152 -2 210.5 -110t12.5 -302zM471 362q34 124 21.5 181.5t-72.5 58.5q-57 1 -100 -49t-70 -149q-35 -127 -22 -184.5t73 -58.5q57 -1 100 49.5t70 151.5z" />
    <glyph glyph-name="one.LT" 
d="M543 164l-44 -164h-484l44 164h142l95 353h-142l39 146q19 0 36.5 2.5t33.5 7.5q17 5 32 13.5t28 19.5q15 13 24.5 27.5t13.5 29.5h200l-160 -599h142z" />
    <glyph glyph-name="two.LT" horiz-adv-x="661" 
d="M557 164l-44 -164h-511l45 168q245 184 314.5 249.5t82.5 113.5q11 41 -7 60t-67 19q-52 0 -104 -14t-103 -41l46 173q52 23 112 35t122 12q114 0 172 -69t28 -175q-21 -75 -96.5 -154t-245.5 -209l2 -4h254z" />
    <glyph glyph-name="three.LT" horiz-adv-x="661" 
d="M218 -10q-29 0 -56 1.5t-53 4.5q-35 5 -61.5 11t-43.5 13l48 176q20 -9 44 -16.5t52 -13.5q27 -6 52 -9t48 -3q54 0 86 17.5t42 51.5q12 42 -14.5 61.5t-101.5 19.5h-91l44 162h91q62 0 98.5 19.5t46.5 57.5q10 35 -7.5 51.5t-61.5 16.5q-27 0 -56 -5t-60 -15t-58 -21.5
t-50 -25.5l49 184q49 22 115 34.5t129 12.5q117 0 172.5 -64.5t28.5 -160.5q-14 -51 -55.5 -93.5t-98.5 -65.5l-1 -4q45 -20 67.5 -72t8.5 -113q-22 -101 -114.5 -156.5t-238.5 -55.5z" />
    <glyph glyph-name="four.LT" 
d="M287 0l44 163h-339l40 152l408 448h251l-119 -444h79l-41 -156h-79l-44 -163h-200zM250 322v-3h122l46 141q9 29 19.5 58t22.5 58h-3q-25 -27 -49.5 -56t-48.5 -60z" />
    <glyph glyph-name="five.LT" 
d="M197 -11q-26 0 -50.5 1.5t-48.5 4.5q-31 4 -55 9.5t-40 12.5l46 175q20 -8 43.5 -15t50.5 -12q27 -6 51.5 -9t45.5 -3q54 0 91.5 22t47.5 58q18 67 -37.5 88.5t-240.5 11.5l115 430h469l-43 -164h-269l-31 -112q140 4 203.5 -63.5t33.5 -190.5q-29 -118 -127 -181
t-255 -63z" />
    <glyph glyph-name="six.LT" 
d="M614 213q-30 -102 -118.5 -160.5t-215.5 -55.5q-147 3 -203 116t-7 304q47 181 161.5 273t292.5 92q49 0 94.5 -6.5t73.5 -18.5l-49 -182q-36 21 -76.5 32t-84.5 11q-81 0 -132 -41t-72 -122q36 21 75 31.5t79 10.5q114 0 166.5 -78.5t15.5 -205.5zM421 246
q10 48 -7.5 76t-57.5 28q-29 0 -59 -10t-54 -28q-18 -68 -1 -108t67 -43q42 -2 73 21t39 64z" />
    <glyph glyph-name="seven.LT" 
d="M686 611l-407 -611h-236l416 597v2h-306l43 164h530z" />
    <glyph glyph-name="eight.LT" 
d="M611 181q-27 -88 -115.5 -139.5t-216.5 -51.5q-141 0 -211 70.5t-40 175.5q14 49 57 93t107 76q-38 43 -49.5 85t-0.5 91q19 89 101 140.5t205 51.5q122 0 184 -62t41 -156q-10 -45 -47 -85t-93 -65q59 -39 79 -96.5t-1 -127.5zM473 546q9 31 -7.5 51t-51.5 20
q-30 0 -50 -13t-26 -37q-8 -31 9 -55t58 -40q31 19 46.5 36.5t21.5 37.5zM416 214q7 36 -18 63t-96 55q-32 -19 -53.5 -44.5t-29.5 -53.5q-11 -39 14 -63.5t77 -24.5q43 0 71.5 18t34.5 50z" />
    <glyph glyph-name="nine.LT" 
d="M108 562q30 102 118.5 160.5t215.5 55.5q147 -3 203 -116t7 -304q-47 -181 -161.5 -273t-292.5 -92q-49 0 -94.5 6.5t-73.5 18.5l49 182q36 -21 76.5 -32t84.5 -11q81 0 132 41t72 122q-36 -21 -75 -31.5t-79 -10.5q-114 0 -166.5 78.5t-15.5 205.5zM301 529
q-10 -48 7.5 -76t57.5 -28q29 0 59 10t54 28q18 68 1 108t-67 43q-42 2 -73 -21t-39 -64z" />
    <glyph glyph-name="dollar.LT" 
d="M584 204q-21 -84 -86 -137t-168 -70l-20 -75h-200l20 72q-40 4 -73 12t-65 21l50 186q41 -28 96.5 -43t116.5 -15q48 0 76 15t36 45q6 23 -9 43t-76 55q-57 32 -83 53.5t-41 45.5q-22 32 -27 70.5t6 84.5q17 70 68 118.5t128 70.5l31 114h200l-27 -100q49 -4 87.5 -14.5
t66.5 -26.5l-52 -196q-30 33 -83 52.5t-112 19.5q-42 0 -65 -11.5t-29 -35.5q-7 -25 8.5 -46.5t80.5 -60.5q55 -33 80.5 -53.5t41.5 -43.5q22 -31 28 -68.5t-5 -81.5z" />
    <glyph glyph-name="cent.LT" 
d="M481 138q-23 -10 -45.5 -17.5t-44.5 -12.5l-28 -108h-200l34 129h6q-62 36 -82.5 113.5t6.5 182.5q21 79 76 137.5t133 84.5l31 116h200l-29 -107q18 -5 33 -11.5t27 -15.5l-44 -163q-21 19 -50.5 30t-62.5 11q-46 0 -78.5 -29t-43.5 -80q-14 -62 1 -97t56 -38
q37 -3 70.5 6t79.5 37z" />
    <glyph glyph-name="sterling.LT" 
d="M590 164l-44 -164h-578l44 164h86q29 33 46.5 69t24.5 77h-104l44 164h69q2 25 4.5 48.5t7.5 41.5q25 101 107 155t211 54q65 0 123.5 -13.5t84.5 -34.5l-45 -170q-18 22 -65.5 39.5t-94.5 17.5q-63 0 -93 -18t-40 -58q-2 -6 -4 -22.5t-5 -39.5h258l-44 -164h-236
q-1 -2 -1.5 -4t-0.5 -4q-10 -41 -25 -75.5t-34 -62.5h304z" />
    <glyph glyph-name="yen.LT" 
d="M553 115h-156l-31 -115h-216l31 115h-172l27 101h172l17 65l-1 4h-170l27 101h114l-106 377h237l35 -199q5 -30 8 -55.5t4 -52.5h6q33 60 43 76t21 32l140 199h244l-302 -377h100l-27 -101h-154l-3 -4l-17 -65h156z" />
    <glyph glyph-name="Euro.LT" 
d="M592 47q-58 -31 -126 -46t-129 -11q-106 7 -169.5 76t-71.5 180h-104l27 101h80l6 34t8 35h-76l27 101h84q55 119 161.5 187.5t245.5 68.5q62 0 108.5 -10t84.5 -32l-53 -194q-32 27 -68 39.5t-84 12.5q-51 0 -91.5 -18.5t-69.5 -53.5h204l-27 -101h-228q-1 -3 -1.5 -5.5
t-1.5 -5.5q-4 -15 -7 -30t-5 -28h225l-27 -101h-193q11 -34 37.5 -52t67.5 -19q50 -1 107.5 15.5t107.5 45.5z" />
    <glyph glyph-name="florin.LT" 
d="M305 22q-44 -132 -127.5 -194.5t-215.5 -62.5q-22 0 -42 1t-39 3l47 174q77 -10 119 11t60 75l97 288h-91l40 150h102l26 78q44 130 124 193t199 63q33 0 67.5 -5t68.5 -15l-43 -162q-29 10 -55 14t-56 4q-41 0 -64 -19t-41 -73l-26 -78h124l-40 -150h-135z" />
    <glyph glyph-name="numbersign.LT" 
d="M200 0l99 181h-98l-99 -181h-182l99 181h-96l43 160h141l40 74h-89l43 160h134l103 188h182l-103 -188h98l103 188h182l-103 -188h96l-43 -160h-141l-40 -74h89l-43 -160h-134l-99 -181h-182zM289 341h98l40 74h-98z" />
    <glyph glyph-name="zero.slashOP" horiz-adv-x="690" 
d="M627 252q-32 -128 -120 -194t-223 -64q-136 3 -194.5 85.5t-24.5 214.5q32 127 120 193t222 64q137 -2 195.5 -83t24.5 -216zM266 290q-4 -15 -6.5 -28.5t-3.5 -24.5l121 167q-39 0 -67.5 -30t-43.5 -84zM315 141q39 -1 67 29t43 86q4 16 7 30.5t4 26.5l-124 -172h3z" />
    <glyph glyph-name="zero.OP" horiz-adv-x="690" 
d="M627 252q-32 -128 -120 -194t-223 -64q-136 3 -194.5 85.5t-24.5 214.5q32 127 120 193t222 64q137 -2 195.5 -83t24.5 -216zM425 256q20 74 8.5 110.5t-54.5 37.5q-40 1 -69 -29t-44 -85q-19 -72 -7 -110t56 -39q39 -1 67 29t43 86z" />
    <glyph glyph-name="one.OP" horiz-adv-x="510" 
d="M445 141l-38 -141h-430l38 141h119l56 210h-117l34 126q15 0 28.5 1.5t25.5 4.5q14 3 26 8.5t22 12.5q14 9 22 19.5t11 21.5h192l-108 -404h119z" />
    <glyph glyph-name="two.OP" horiz-adv-x="563" 
d="M468 141l-38 -141h-453l37 138q228 135 271 167t50 58q6 24 -13.5 35.5t-66.5 11.5q-42 0 -83 -11t-86 -33l39 147q47 19 106 30t116 11q94 0 143.5 -46.5t33.5 -115.5q-14 -63 -74.5 -119t-186.5 -128l2 -4h203z" />
    <glyph glyph-name="three.OP" horiz-adv-x="617" 
d="M155 -229q-29 0 -56 1.5t-53 4.5q-35 5 -61.5 11t-43.5 13l48 176q20 -9 44 -16.5t52 -13.5q27 -6 52 -9t48 -3q54 0 86 17.5t42 51.5q12 42 -14.5 61.5t-101.5 19.5h-91l44 162h91q62 0 98.5 19.5t46.5 57.5q10 35 -7.5 51.5t-61.5 16.5q-27 0 -56 -5t-60 -15t-58 -21.5
t-50 -25.5l49 184q49 22 115 34.5t129 12.5q117 0 172.5 -64.5t28.5 -160.5q-14 -51 -55.5 -93.5t-98.5 -65.5l-1 -4q45 -20 67.5 -72t8.5 -113q-22 -101 -114.5 -156.5t-238.5 -55.5z" />
    <glyph glyph-name="four.OP" horiz-adv-x="708" 
d="M280 -218l44 163h-339l40 152l408 448h251l-119 -444h79l-41 -156h-79l-44 -163h-200zM243 104v-3h122l46 141q9 29 19.5 58t22.5 58h-3q-25 -27 -49.5 -56t-48.5 -60z" />
    <glyph glyph-name="five.OP" horiz-adv-x="643" 
d="M143 -230q-26 0 -50.5 1.5t-48.5 4.5q-31 4 -55 9.5t-40 12.5l46 175q20 -8 43.5 -15t50.5 -12q27 -6 51.5 -9t45.5 -3q54 0 91.5 22t47.5 58q18 67 -37.5 88.5t-240.5 11.5l115 430h469l-43 -164h-269l-31 -112q140 4 203.5 -63.5t33.5 -190.5q-29 -118 -127 -181
t-255 -63z" />
    <glyph glyph-name="six.OP" horiz-adv-x="721" 
d="M647 213q-30 -102 -118.5 -160.5t-215.5 -55.5q-147 3 -203 116t-7 304q47 181 161.5 273t292.5 92q49 0 94.5 -6.5t73.5 -18.5l-49 -182q-36 21 -76.5 32t-84.5 11q-81 0 -132 -41t-72 -122q36 21 75 31.5t79 10.5q114 0 166.5 -78.5t15.5 -205.5zM454 246
q10 48 -7.5 76t-57.5 28q-29 0 -59 -10t-54 -28q-18 -68 -1 -108t67 -43q42 -2 73 21t39 64z" />
    <glyph glyph-name="seven.OP" horiz-adv-x="580" 
d="M576 393l-407 -611h-236l416 597v2h-306l43 164h530z" />
    <glyph glyph-name="eight.OP" horiz-adv-x="724" 
d="M643 181q-27 -88 -115.5 -139.5t-216.5 -51.5q-141 0 -211 70.5t-40 175.5q14 49 57 93t107 76q-38 43 -49.5 85t-0.5 91q19 89 101 140.5t205 51.5q122 0 184 -62t41 -156q-10 -45 -47 -85t-93 -65q59 -39 79 -96.5t-1 -127.5zM505 546q9 31 -7.5 51t-51.5 20
q-30 0 -50 -13t-26 -37q-8 -31 9 -55t58 -40q31 19 46.5 36.5t21.5 37.5zM448 214q7 36 -18 63t-96 55q-32 -19 -53.5 -44.5t-29.5 -53.5q-11 -39 14 -63.5t77 -24.5q43 0 71.5 18t34.5 50z" />
    <glyph glyph-name="nine.OP" horiz-adv-x="711" 
d="M67 344q30 102 118.5 160.5t215.5 55.5q147 -3 203 -116t7 -304q-47 -181 -161.5 -273t-292.5 -92q-49 0 -94.5 6.5t-73.5 18.5l49 182q36 -21 76.5 -32t84.5 -11q81 0 132 41t72 122q-36 -21 -75 -31.5t-79 -10.5q-114 0 -166.5 78.5t-15.5 205.5zM260 311
q-10 -48 7.5 -76t57.5 -28q29 0 59 10t54 28q18 68 1 108t-67 43q-42 2 -73 -21t-39 -64z" />
    <glyph glyph-name="dollar.OP" horiz-adv-x="534" 
d="M451 147q-14 -63 -68 -104t-133 -52l-19 -69h-112l18 67q-42 3 -78.5 11t-64.5 20l42 160q33 -21 77.5 -34.5t84.5 -13.5q30 0 46 6.5t20 19.5q4 15 -6 26.5t-52 31.5q-45 22 -66 38t-34 36q-15 24 -18.5 54.5t4.5 68.5q13 57 63.5 92t131.5 45l20 73h112l-19 -70
q35 -3 66 -8.5t61 -15.5l-42 -155q-22 15 -66 25.5t-86 10.5q-27 0 -40 -5.5t-17 -19.5q-4 -13 6.5 -24t51.5 -30q45 -20 66 -35t34 -32q17 -23 21 -52t-4 -65z" />
    <glyph glyph-name="cent.OP" horiz-adv-x="510" 
d="M405 28q-33 -14 -63.5 -23t-59.5 -13l-19 -70h-112l21 78q-87 25 -120 109t-1 206q25 94 96.5 157.5t172.5 78.5l19 72h112l-19 -71q27 -4 50 -12.5t40 -20.5l-44 -163q-21 19 -50.5 30t-62.5 11q-46 0 -78.5 -29t-43.5 -80q-14 -62 1 -97t56 -38q37 -3 70.5 6t79.5 37z
" />
    <glyph glyph-name="sterling.OP" horiz-adv-x="553" 
d="M468 141l-38 -141h-453l38 141h60q10 10 17 20t12 20q4 9 6.5 17t3.5 18h-66l25 95h29q-5 29 -4 49t6 40q19 76 87 115t181 39q59 0 108.5 -9.5t77.5 -25.5l-42 -154q-27 20 -63.5 31t-76.5 11q-56 0 -79.5 -13.5t-31.5 -44.5q-2 -7 -2 -17t1 -21h174l-25 -95h-140
q-1 -19 -8 -37.5t-18 -37.5h221z" />
    <glyph glyph-name="yen.OP" horiz-adv-x="609" 
d="M493 78h-138l-21 -78h-203l21 78h-145l27 101h137l-12 46h-113l27 101h59l-59 219h224l13 -118q3 -25 3.5 -44.5t-0.5 -56.5h8q2 5 5.5 11.5t8.5 16.5q13 25 21.5 40t17.5 30l75 121h233l-175 -219h52l-27 -101h-105l-37 -46h130z" />
    <glyph glyph-name="Euro.OP" horiz-adv-x="592" 
d="M474 35q-43 -21 -91.5 -31.5t-105.5 -10.5q-102 0 -155.5 65t-44.5 166h-61l27 101h56q39 110 127 168.5t218 58.5q47 0 80.5 -6t63.5 -20l-50 -180q-25 17 -53.5 25t-68.5 8q-41 0 -67.5 -13t-42.5 -41h153l-27 -101h-148q2 -28 20 -42.5t52 -14.5q39 0 83.5 12.5
t82.5 33.5z" />
    <glyph glyph-name="florin.OP" horiz-adv-x="498" 
d="M219 22q-44 -132 -127.5 -194.5t-215.5 -62.5q-22 0 -42 1t-39 3l47 174q77 -10 119 11t60 75l97 288h-91l40 150h102l26 78q44 130 124 193t199 63q33 0 67.5 -5t68.5 -15l-43 -162q-29 10 -55 14t-56 4q-41 0 -64 -19t-41 -73l-26 -78h124l-40 -150h-135z" />
    <glyph glyph-name="numbersign.OP" horiz-adv-x="732" 
d="M311 0l42 76h-98l-42 -76h-182l42 76h-76l43 160h120l41 74h-69l43 160h114l41 75h182l-41 -75h98l41 75h182l-41 -75h76l-43 -160h-121l-41 -74h70l-43 -160h-114l-42 -76h-182zM342 236h98l41 74h-98z" />
    <glyph glyph-name="zero.slashOT" 
d="M612 252q-32 -128 -120 -194t-223 -64q-136 3 -194.5 85.5t-24.5 214.5q32 127 120 193t222 64q137 -2 195.5 -83t24.5 -216zM251 290q-4 -15 -6.5 -28.5t-3.5 -24.5l121 167q-39 0 -67.5 -30t-43.5 -84zM300 141q39 -1 67 29t43 86q4 16 7 30.5t4 26.5l-124 -172h3z" />
    <glyph glyph-name="zero.OT" 
d="M612 252q-32 -128 -120 -194t-223 -64q-136 3 -194.5 85.5t-24.5 214.5q32 127 120 193t222 64q137 -2 195.5 -83t24.5 -216zM410 256q20 74 8.5 110.5t-54.5 37.5q-40 1 -69 -29t-44 -85q-19 -72 -7 -110t56 -39q39 -1 67 29t43 86z" />
    <glyph glyph-name="one.OT" 
d="M510 141l-38 -141h-430l38 141h119l56 210h-117l34 126q15 0 28.5 1.5t25.5 4.5q14 3 26 8.5t22 12.5q14 9 22 19.5t11 21.5h192l-108 -404h119z" />
    <glyph glyph-name="two.OT" horiz-adv-x="661" 
d="M522 141l-38 -141h-453l37 138q228 135 271 167t50 58q6 24 -13.5 35.5t-66.5 11.5q-42 0 -83 -11t-86 -33l39 147q47 19 106 30t116 11q94 0 143.5 -46.5t33.5 -115.5q-14 -63 -74.5 -119t-186.5 -128l2 -4h203z" />
    <glyph glyph-name="three.OT" horiz-adv-x="661" 
d="M167 -229q-29 0 -56 1.5t-53 4.5q-35 5 -61.5 11t-43.5 13l48 176q20 -9 44 -16.5t52 -13.5q27 -6 52 -9t48 -3q54 0 86 17.5t42 51.5q12 42 -14.5 61.5t-101.5 19.5h-91l44 162h91q62 0 98.5 19.5t46.5 57.5q10 35 -7.5 51.5t-61.5 16.5q-27 0 -56 -5t-60 -15t-58 -21.5
t-50 -25.5l49 184q49 22 115 34.5t129 12.5q117 0 172.5 -64.5t28.5 -160.5q-14 -51 -55.5 -93.5t-98.5 -65.5l-1 -4q45 -20 67.5 -72t8.5 -113q-22 -101 -114.5 -156.5t-238.5 -55.5z" />
    <glyph glyph-name="four.OT" 
d="M261 -218l44 163h-339l40 152l408 448h251l-119 -444h79l-41 -156h-79l-44 -163h-200zM224 104v-3h122l46 141q9 29 19.5 58t22.5 58h-3q-25 -27 -49.5 -56t-48.5 -60z" />
    <glyph glyph-name="five.OT" 
d="M132 -230q-26 0 -50.5 1.5t-48.5 4.5q-31 4 -55 9.5t-40 12.5l46 175q20 -8 43.5 -15t50.5 -12q27 -6 51.5 -9t45.5 -3q54 0 91.5 22t47.5 58q18 67 -37.5 88.5t-240.5 11.5l115 430h469l-43 -164h-269l-31 -112q140 4 203.5 -63.5t33.5 -190.5q-29 -118 -127 -181
t-255 -63z" />
    <glyph glyph-name="six.OT" 
d="M619 213q-30 -102 -118.5 -160.5t-215.5 -55.5q-147 3 -203 116t-7 304q47 181 161.5 273t292.5 92q49 0 94.5 -6.5t73.5 -18.5l-49 -182q-36 21 -76.5 32t-84.5 11q-81 0 -132 -41t-72 -122q36 21 75 31.5t79 10.5q114 0 166.5 -78.5t15.5 -205.5zM426 246
q10 48 -7.5 76t-57.5 28q-29 0 -59 -10t-54 -28q-18 -68 -1 -108t67 -43q42 -2 73 21t39 64z" />
    <glyph glyph-name="seven.OT" 
d="M621 393l-407 -611h-236l416 597v2h-306l43 164h530z" />
    <glyph glyph-name="eight.OT" 
d="M611 181q-27 -88 -115.5 -139.5t-216.5 -51.5q-141 0 -211 70.5t-40 175.5q14 49 57 93t107 76q-38 43 -49.5 85t-0.5 91q19 89 101 140.5t205 51.5q122 0 184 -62t41 -156q-10 -45 -47 -85t-93 -65q59 -39 79 -96.5t-1 -127.5zM473 546q9 31 -7.5 51t-51.5 20
q-30 0 -50 -13t-26 -37q-8 -31 9 -55t58 -40q31 19 46.5 36.5t21.5 37.5zM416 214q7 36 -18 63t-96 55q-32 -19 -53.5 -44.5t-29.5 -53.5q-11 -39 14 -63.5t77 -24.5q43 0 71.5 18t34.5 50z" />
    <glyph glyph-name="nine.OT" 
d="M44 344q30 102 118.5 160.5t215.5 55.5q147 -3 203 -116t7 -304q-47 -181 -161.5 -273t-292.5 -92q-49 0 -94.5 6.5t-73.5 18.5l49 182q36 -21 76.5 -32t84.5 -11q81 0 132 41t72 122q-36 -21 -75 -31.5t-79 -10.5q-114 0 -166.5 78.5t-15.5 205.5zM237 311
q-10 -48 7.5 -76t57.5 -28q29 0 59 10t54 28q18 68 1 108t-67 43q-42 2 -73 -21t-39 -64z" />
    <glyph glyph-name="dollar.OT" horiz-adv-x="661" 
d="M512 147q-14 -63 -68 -104t-133 -52l-19 -69h-112l18 67q-42 3 -78.5 11t-64.5 20l42 160q33 -21 77.5 -34.5t84.5 -13.5q30 0 46 6.5t20 19.5q4 15 -6 26.5t-52 31.5q-45 22 -66 38t-34 36q-15 24 -18.5 54.5t4.5 68.5q13 57 63.5 92t131.5 45l20 73h112l-19 -70
q35 -3 66 -8.5t61 -15.5l-42 -155q-22 15 -66 25.5t-86 10.5q-27 0 -40 -5.5t-17 -19.5q-4 -13 6.5 -24t51.5 -30q45 -20 66 -35t34 -32q17 -23 21 -52t-4 -65z" />
    <glyph glyph-name="cent.OT" 
d="M480 28q-33 -14 -63.5 -23t-59.5 -13l-19 -70h-112l21 78q-87 25 -120 109t-1 206q25 94 96.5 157.5t172.5 78.5l19 72h112l-19 -71q27 -4 50 -12.5t40 -20.5l-44 -163q-21 19 -50.5 30t-62.5 11q-46 0 -78.5 -29t-43.5 -80q-14 -62 1 -97t56 -38q37 -3 70.5 6t79.5 37z
" />
    <glyph glyph-name="sterling.OT" horiz-adv-x="661" 
d="M522 141l-38 -141h-453l38 141h60q10 10 17 20t12 20q4 9 6.5 17t3.5 18h-66l25 95h29q-5 29 -4 49t6 40q19 76 87 115t181 39q59 0 108.5 -9.5t77.5 -25.5l-42 -154q-27 20 -63.5 31t-76.5 11q-56 0 -79.5 -13.5t-31.5 -44.5q-2 -7 -2 -17t1 -21h174l-25 -95h-140
q-1 -19 -8 -37.5t-18 -37.5h221z" />
    <glyph glyph-name="yen.OT" horiz-adv-x="661" 
d="M519 78h-138l-21 -78h-203l21 78h-145l27 101h137l-12 46h-113l27 101h59l-59 219h224l13 -118q3 -25 3.5 -44.5t-0.5 -56.5h8q2 5 5.5 11.5t8.5 16.5q13 25 21.5 40t17.5 30l75 121h233l-175 -219h52l-27 -101h-105l-37 -46h130z" />
    <glyph glyph-name="Euro.OT" 
d="M513 35q-43 -21 -91.5 -31.5t-105.5 -10.5q-102 0 -155.5 65t-44.5 166h-61l27 101h56q39 110 127 168.5t218 58.5q47 0 80.5 -6t63.5 -20l-50 -180q-25 17 -53.5 25t-68.5 8q-41 0 -67.5 -13t-42.5 -41h153l-27 -101h-148q2 -28 20 -42.5t52 -14.5q39 0 83.5 12.5
t82.5 33.5z" />
    <glyph glyph-name="florin.OT" 
d="M305 22q-44 -132 -127.5 -194.5t-215.5 -62.5q-22 0 -42 1t-39 3l47 174q77 -10 119 11t60 75l97 288h-91l40 150h102l26 78q44 130 124 193t199 63q33 0 67.5 -5t68.5 -15l-43 -162q-29 10 -55 14t-56 4q-41 0 -64 -19t-41 -73l-26 -78h124l-40 -150h-135z" />
    <glyph glyph-name="numbersign.OT" 
d="M229 0l42 76h-98l-42 -76h-182l42 76h-76l43 160h120l41 74h-69l43 160h114l41 75h182l-41 -75h98l41 75h182l-41 -75h76l-43 -160h-121l-41 -74h70l-43 -160h-114l-42 -76h-182zM260 236h98l41 74h-98z" />
    <glyph glyph-name="Aacute.small" horiz-adv-x="636" 
d="M673 803l-274 -188l-70 92l231 217zM203 81l-41 -81h-215l341 545h205l50 -545h-205l3 81h-138zM348 389q-4 -14 -20.5 -52t-31.5 -64l-26 -45h82l-1 44q-1 36 0 71.5t4 45.5h-7z" />
    <glyph glyph-name="Abreve.small" horiz-adv-x="636" 
d="M678 859q-29 -113 -95.5 -174.5t-160.5 -59.5q-92 2 -134 69.5t-16 164.5h126q-10 -44 3.5 -70t47.5 -26q35 0 62.5 26t40.5 70h126zM203 81l-41 -81h-215l341 545h205l50 -545h-205l3 81h-138zM348 389q-4 -14 -20.5 -52t-31.5 -64l-26 -45h82l-1 44q-1 36 0 71.5
t4 45.5h-7z" />
    <glyph glyph-name="Acircumflex.small" horiz-adv-x="636" 
d="M456 736l-162 -127l-77 89l198 192h135l98 -192l-109 -89zM203 81l-41 -81h-215l341 545h205l50 -545h-205l3 81h-138zM348 389q-4 -14 -20.5 -52t-31.5 -64l-26 -45h82l-1 44q-1 36 0 71.5t4 45.5h-7z" />
    <glyph glyph-name="Adieresis.small" horiz-adv-x="636" 
d="M354 874q44 0 65 -28.5t9 -71.5q-11 -42 -47.5 -70.5t-79.5 -28.5q-44 0 -65.5 28.5t-10.5 70.5q12 43 48.5 71.5t80.5 28.5zM604 873q43 0 65 -28.5t10 -70.5q-11 -42 -48 -70.5t-80 -28.5q-44 0 -65.5 28.5t-10.5 70.5q12 42 48.5 70.5t80.5 28.5zM203 81l-41 -81h-215
l341 545h205l50 -545h-205l3 81h-138zM348 389q-4 -14 -20.5 -52t-31.5 -64l-26 -45h82l-1 44q-1 36 0 71.5t4 45.5h-7z" />
    <glyph glyph-name="Agrave.small" horiz-adv-x="636" 
d="M348 925l179 -225l-101 -88l-220 189zM203 81l-41 -81h-215l341 545h205l50 -545h-205l3 81h-138zM348 389q-4 -14 -20.5 -52t-31.5 -64l-26 -45h82l-1 44q-1 36 0 71.5t4 45.5h-7z" />
    <glyph glyph-name="Amacron.small" horiz-adv-x="636" 
d="M671 839l-35 -132h-402l35 132h402zM203 80l-41 -81h-215l341 545h205l50 -545h-205l3 81h-138zM348 388q-4 -14 -20.5 -52t-31.5 -64l-26 -45h82l-1 44q-1 36 0 71.5t4 45.5h-7z" />
    <glyph glyph-name="Aogonek.small" horiz-adv-x="636" 
d="M485 -215q-29 -10 -63 -15.5t-68 -5.5q-66 0 -100 36t-19 93q9 34 31 61t56 46l8 4l8 4l3 73h-138l-41 -81h-215l341 545h205l50 -545q-50 -9 -86 -32t-42 -47q-4 -14 4 -21.5t28 -7.5q16 0 33.5 4t38.5 13zM348 389q-4 -14 -20.5 -52t-31.5 -64l-26 -45h82l-1 44
q-1 36 0 71.5t4 45.5h-7z" />
    <glyph glyph-name="Aring.small" horiz-adv-x="636" 
d="M481 928q68 -2 104 -51t18 -117q-16 -63 -65 -101t-115 -38q-70 0 -105 49t-16 119q16 61 66.5 100.5t112.5 38.5zM463 823q-22 0 -38 -13t-22 -35q-6 -23 4.5 -36.5t34.5 -13.5q20 0 37 13.5t22 34.5q6 23 -4 36.5t-34 13.5zM203 81l-41 -81h-215l341 545h205l50 -545
h-205l3 81h-138zM348 389q-4 -14 -20.5 -52t-31.5 -64l-26 -45h82l-1 44q-1 36 0 71.5t4 45.5h-7z" />
    <glyph glyph-name="Aringacute.small" horiz-adv-x="636" 
d="M661 1101l-274 -188l-70 92l231 217zM481 884q68 -2 104 -51t18 -117q-16 -63 -65 -101t-115 -38q-70 0 -105 49t-16 119q16 61 66.5 100.5t112.5 38.5zM463 779q-22 0 -38 -13t-22 -35q-6 -23 4.5 -36.5t34.5 -13.5q20 0 37 13.5t22 34.5q6 23 -4 36.5t-34 13.5zM203 81
l-41 -81h-215l341 545h205l50 -545h-205l3 81h-138zM348 389q-4 -14 -20.5 -52t-31.5 -64l-26 -45h82l-1 44q-1 36 0 71.5t4 45.5h-7z" />
    <glyph glyph-name="Atilde.small" horiz-adv-x="636" 
d="M700 878q-33 -124 -81 -181.5t-116 -54.5q-22 1 -39.5 11t-38.5 39q-16 20 -25 26t-19 6q-16 1 -30 -19.5t-25 -60.5h-127q31 120 81.5 180t115.5 55q26 -2 46 -13t43 -42q14 -18 22 -23.5t17 -5.5q13 -1 25 19t24 64h127zM203 80l-41 -81h-215l341 545h205l50 -545h-205
l3 81h-138zM348 388q-4 -14 -20.5 -52t-31.5 -64l-26 -45h82l-1 44q-1 36 0 71.5t4 45.5h-7z" />
    <glyph glyph-name="AE.small" horiz-adv-x="903" 
d="M10 0l365 545h530l-39 -147h-202l-16 -60h183l-36 -133h-183l-16 -58h216l-39 -147h-420l19 72h-118l-42 -72h-202zM340 219h72l60 224z" />
    <glyph glyph-name="AEacute.small" horiz-adv-x="903" 
d="M952 803l-274 -188l-70 92l231 217zM10 0l365 545h530l-39 -147h-202l-16 -60h183l-36 -133h-183l-16 -58h216l-39 -147h-420l19 72h-118l-42 -72h-202zM340 219h72l60 224z" />
    <glyph glyph-name="Cacute.small" horiz-adv-x="544" 
d="M669 803l-274 -188l-70 92l231 217zM244 289q-17 -61 -1 -91.5t65 -30.5q39 0 83.5 12.5t82.5 33.5l-48 -178q-43 -21 -91.5 -31.5t-105.5 -10.5q-117 0 -169.5 85t-19.5 210q33 128 124 196t232 68q47 0 80.5 -6t63.5 -20l-50 -180q-25 17 -53.5 25t-68.5 8
q-52 0 -81 -21t-43 -69z" />
    <glyph glyph-name="Ccaron.small" horiz-adv-x="544" 
d="M446 760l159 136l75 -90l-198 -192h-135l-98 192l111 90zM244 289q-17 -61 -1 -91.5t65 -30.5q39 0 83.5 12.5t82.5 33.5l-48 -178q-43 -21 -91.5 -31.5t-105.5 -10.5q-117 0 -169.5 85t-19.5 210q33 128 124 196t232 68q47 0 80.5 -6t63.5 -20l-50 -180q-25 17 -53.5 25
t-68.5 8q-52 0 -81 -21t-43 -69z" />
    <glyph glyph-name="Ccedilla.small" horiz-adv-x="544" 
d="M353 -117q-15 -57 -68.5 -93t-118.5 -36q-34 0 -65 5.5t-56 15.5l34 124q17 -9 30.5 -13t27.5 -4q21 0 35.5 12t20.5 33q5 19 0.5 35.5t-23.5 37.5q-87 21 -123 100.5t-7 187.5q33 128 124 196t232 68q47 0 80.5 -6t63.5 -20l-50 -180q-25 17 -53.5 25t-68.5 8
q-52 0 -81 -21t-43 -69q-17 -61 -1 -91.5t65 -30.5q39 0 83.5 12.5t82.5 33.5l-48 -178q-25 -12 -51.5 -20.5t-54.5 -13.5q13 -12 18.5 -19.5t9.5 -15.5q9 -18 10.5 -38.5t-5.5 -44.5z" />
    <glyph glyph-name="Ccircumflex.small" horiz-adv-x="544" 
d="M454 736l-162 -127l-77 89l198 192h135l98 -192l-109 -89zM244 289q-17 -61 -1 -91.5t65 -30.5q39 0 83.5 12.5t82.5 33.5l-48 -178q-43 -21 -91.5 -31.5t-105.5 -10.5q-117 0 -169.5 85t-19.5 210q33 128 124 196t232 68q47 0 80.5 -6t63.5 -20l-50 -180
q-25 17 -53.5 25t-68.5 8q-52 0 -81 -21t-43 -69z" />
    <glyph glyph-name="Cdotaccent.small" horiz-adv-x="544" 
d="M576 744q-13 -50 -56.5 -83.5t-93.5 -33.5q-52 0 -77.5 33.5t-12.5 83.5q14 50 57.5 83t94.5 33t76.5 -33t11.5 -83zM244 289q-17 -61 -1 -91.5t65 -30.5q39 0 83.5 12.5t82.5 33.5l-48 -178q-43 -21 -91.5 -31.5t-105.5 -10.5q-117 0 -169.5 85t-19.5 210
q33 128 124 196t232 68q47 0 80.5 -6t63.5 -20l-50 -180q-25 17 -53.5 25t-68.5 8q-52 0 -81 -21t-43 -69z" />
    <glyph glyph-name="Dcaron.small" horiz-adv-x="641" 
d="M424 760l159 136l75 -90l-198 -192h-135l-98 192l111 90zM597 250q-30 -120 -122.5 -185t-234.5 -65h-231l146 545h209q144 0 205.5 -79t27.5 -216zM328 385h-12l-60 -225h24q46 0 74.5 24.5t41.5 75.5q16 64 -0.5 94.5t-67.5 30.5z" />
    <glyph glyph-name="Dcroat.small" horiz-adv-x="641" 
d="M614 250q-30 -120 -122.5 -185t-234.5 -65h-231l60 225h-54l26 96h54l60 224h209q144 0 205.5 -79t27.5 -216zM273 160h24q46 0 74.5 24.5t41.5 75.5q16 64 -0.5 94.5t-67.5 30.5h-12l-17 -64h48l-26 -96h-48z" />
    <glyph glyph-name="Eth.small" horiz-adv-x="641" 
d="M614 250q-30 -120 -122.5 -185t-234.5 -65h-231l60 225h-54l26 96h54l60 224h209q144 0 205.5 -79t27.5 -216zM273 160h24q46 0 74.5 24.5t41.5 75.5q16 64 -0.5 94.5t-67.5 30.5h-12l-17 -64h48l-26 -96h-48z" />
    <glyph glyph-name="Eacute.small" horiz-adv-x="557" 
d="M653 803l-274 -188l-70 92l231 217zM465 147l-39 -147h-420l146 545h406l-39 -147h-202l-16 -60h183l-36 -133h-183l-16 -58h216z" />
    <glyph glyph-name="Ebreve.small" horiz-adv-x="557" 
d="M648 859q-29 -113 -95.5 -174.5t-160.5 -59.5q-92 2 -134 69.5t-16 164.5h126q-10 -44 3.5 -70t47.5 -26q35 0 62.5 26t40.5 70h126zM465 147l-39 -147h-420l146 545h406l-39 -147h-202l-16 -60h183l-36 -133h-183l-16 -58h216z" />
    <glyph glyph-name="Ecaron.small" horiz-adv-x="557" 
d="M413 760l159 136l75 -90l-198 -192h-135l-98 192l111 90zM465 147l-39 -147h-420l146 545h406l-39 -147h-202l-16 -60h183l-36 -133h-183l-16 -58h216z" />
    <glyph glyph-name="Ecircumflex.small" horiz-adv-x="557" 
d="M425 736l-162 -127l-77 89l198 192h135l98 -192l-109 -89zM465 147l-39 -147h-420l146 545h406l-39 -147h-202l-16 -60h183l-36 -133h-183l-16 -58h216z" />
    <glyph glyph-name="Edieresis.small" horiz-adv-x="557" 
d="M324 874q44 0 65 -28.5t9 -71.5q-11 -42 -47.5 -70.5t-79.5 -28.5q-44 0 -65.5 28.5t-10.5 70.5q12 43 48.5 71.5t80.5 28.5zM574 873q43 0 65 -28.5t10 -70.5q-11 -42 -48 -70.5t-80 -28.5q-44 0 -65.5 28.5t-10.5 70.5q12 42 48.5 70.5t80.5 28.5zM465 147l-39 -147
h-420l146 545h406l-39 -147h-202l-16 -60h183l-36 -133h-183l-16 -58h216z" />
    <glyph glyph-name="Edotaccent.small" horiz-adv-x="557" 
d="M533 744q-13 -50 -56.5 -83.5t-93.5 -33.5q-52 0 -77.5 33.5t-12.5 83.5q14 50 57.5 83t94.5 33t76.5 -33t11.5 -83zM465 147l-39 -147h-420l146 545h406l-39 -147h-202l-16 -60h183l-36 -133h-183l-16 -58h216z" />
    <glyph glyph-name="Egrave.small" horiz-adv-x="557" 
d="M290 925l179 -225l-101 -88l-220 189zM465 147l-39 -147h-420l146 545h406l-39 -147h-202l-16 -60h183l-36 -133h-183l-16 -58h216z" />
    </font>
</defs>
</svg>
