<?xml version="1.0" standalone="no"?>
<!DOCTYPE svg PUBLIC "-//W3C//DTD SVG 1.1//EN" "http://www.w3.org/Graphics/SVG/1.1/DTD/svg11.dtd" >
<svg xmlns="http://www.w3.org/2000/svg" xmlns:xlink="http://www.w3.org/1999/xlink" version="1.1">
<metadata>
Created by FontForge 20201107 at Tue Mar 19 19:25:13 2019
 By 
Luciole (c) Laurent Bourcellier &#38; Jonathan Perez - 2019
</metadata>
<defs>
<font id="Luciole-Italic" horiz-adv-x="620" >
  <font-face 
    font-family="Luciole"
    font-weight="400"
    font-style="italic"
    font-stretch="normal"
    units-per-em="1000"
    panose-1="2 11 5 0 2 2 0 0 0 3"
    ascent="800"
    descent="-200"
    x-height="545"
    cap-height="763"
    bbox="-246 -362 1695.01 1280"
    underline-thickness="90"
    underline-position="-175"
    slope="-15"
    unicode-range="U+000D-FB02"
  />
<missing-glyph horiz-adv-x="860" 
d="M770 802v-1037h-680v1037h680zM680 712h-500v-857h500v857zM613 466q0 -34 -15 -66t-64 -87q-55 -61 -72 -100t-17 -82h-101q-1 54 17 100.5t75 111.5q38 44 49 66.5t11 45.5q0 43 -25 67t-69 24q-40 0 -82.5 -17t-72.5 -45v111q34 25 78 38.5t89 13.5q90 0 144.5 -48.5
t54.5 -132.5zM473 -10q0 -32 -23 -55t-55 -23t-55 23t-23 55t23 55t55 23t55 -23t23 -55z" />
    <glyph glyph-name="fi" unicode="fi" horiz-adv-x="704" 
d="M744 751q-9 -33 -37 -55.5t-62 -22.5q-33 0 -49.5 22.5t-7.5 55.5t37.5 55.5t61.5 22.5t49.5 -22.5t7.5 -55.5zM252 450l-121 -450h-112l121 450h-82l25 95h82q40 140 100.5 198t165.5 58q31 0 57 -4t51 -13l-28 -104q-18 11 -39.5 17t-45.5 6q-61 0 -93.5 -34
t-55.5 -124h145l-25 -95h-145zM657 545l-146 -545h-112l146 545h112z" />
    <glyph glyph-name="fl" unicode="fl" horiz-adv-x="704" 
d="M252 450l-121 -450h-112l121 450h-82l25 95h82q40 140 100.5 198t165.5 58q31 0 57 -4t51 -13l-28 -104q-18 11 -39.5 17t-45.5 6q-61 0 -93.5 -34t-55.5 -124h145l-25 -95h-145zM723 791l-212 -791h-112l212 791h112z" />
    <glyph glyph-name="f_f" unicode="ff" horiz-adv-x="824" 
d="M252 450l-121 -450h-112l121 450h-82l25 95h82q40 140 100.5 198t165.5 58q31 0 57 -4t51 -13l-28 -104q-18 11 -39.5 17t-45.5 6q-61 0 -93.5 -34t-55.5 -124h145l-25 -95h-145zM664 450l-121 -450h-112l121 450h-82l25 95h82q40 140 100.5 198t165.5 58q31 0 57 -4
t51 -13l-28 -104q-18 11 -39.5 17t-45.5 6q-61 0 -93.5 -34t-55.5 -124h145l-25 -95h-145z" />
    <glyph glyph-name="f_f_i" unicode="ffi" horiz-adv-x="1116" 
d="M1156 751q-9 -33 -37 -55.5t-62 -22.5q-33 0 -49.5 22.5t-7.5 55.5t37.5 55.5t61.5 22.5t49.5 -22.5t7.5 -55.5zM252 450l-121 -450h-112l121 450h-82l25 95h82q40 140 100.5 198t165.5 58q31 0 57 -4t51 -13l-28 -104q-18 11 -39.5 17t-45.5 6q-61 0 -93.5 -34
t-55.5 -124h145l-25 -95h-145zM664 450l-121 -450h-112l121 450h-82l25 95h82q40 140 100.5 198t165.5 58q31 0 57 -4t51 -13l-28 -104q-18 11 -39.5 17t-45.5 6q-61 0 -93.5 -34t-55.5 -124h145l-25 -95h-145zM1069 545l-146 -545h-112l146 545h112z" />
    <glyph glyph-name="f_f_l" unicode="ffl" horiz-adv-x="1116" 
d="M252 450l-121 -450h-112l121 450h-82l25 95h82q40 140 100.5 198t165.5 58q31 0 57 -4t51 -13l-28 -104q-18 11 -39.5 17t-45.5 6q-61 0 -93.5 -34t-55.5 -124h145l-25 -95h-145zM664 450l-121 -450h-112l121 450h-82l25 95h82q40 140 100.5 198t165.5 58q31 0 57 -4
t51 -13l-28 -104q-18 11 -39.5 17t-45.5 6q-61 0 -93.5 -34t-55.5 -124h145l-25 -95h-145zM1135 791l-212 -791h-112l212 791h112z" />
    <glyph glyph-name=".notdef" horiz-adv-x="860" 
d="M770 802v-1037h-680v1037h680zM680 712h-500v-857h500v857zM613 466q0 -34 -15 -66t-64 -87q-55 -61 -72 -100t-17 -82h-101q-1 54 17 100.5t75 111.5q38 44 49 66.5t11 45.5q0 43 -25 67t-69 24q-40 0 -82.5 -17t-72.5 -45v111q34 25 78 38.5t89 13.5q90 0 144.5 -48.5
t54.5 -132.5zM473 -10q0 -32 -23 -55t-55 -23t-55 23t-23 55t23 55t55 23t55 -23t23 -55z" />
    <glyph glyph-name=".null" horiz-adv-x="0" 
 />
    <glyph glyph-name="nonmarkingreturn" horiz-adv-x="333" 
 />
    <glyph glyph-name="NULL" horiz-adv-x="0" 
 />
    <glyph glyph-name="NULL" horiz-adv-x="0" 
 />
    <glyph glyph-name="CR" unicode="&#xd;" horiz-adv-x="357" 
 />
    <glyph glyph-name="space" unicode=" " horiz-adv-x="357" 
 />
    <glyph glyph-name="exclam" unicode="!" horiz-adv-x="256" 
d="M99 442q28 118 44.5 186t34.5 135h120q-17 -63 -35.5 -128t-52.5 -178q-29 -97 -43 -145.5t-25 -92.5h-97q11 41 22 86.5t32 136.5zM130 68q-8 -32 -37.5 -55t-61.5 -23t-48.5 23t-8.5 55q9 32 38 55t61 23t49 -23t8 -55z" />
    <glyph glyph-name="quotedbl" unicode="&#x22;" horiz-adv-x="434" 
d="M305 747l-169 -273l-74 23l126 272zM513 747l-169 -273l-74 23l126 272z" />
    <glyph glyph-name="numbersign" unicode="#" horiz-adv-x="786" 
d="M264 0l115 210h-158l-115 -210h-112l115 210h-95l27 101h123l73 133h-88l27 101h117l119 218h112l-119 -218h158l119 218h112l-119 -218h95l-27 -101h-124l-73 -133h89l-27 -101h-117l-115 -210h-112zM276 311h158l73 133h-158z" />
    <glyph glyph-name="dollar" unicode="$" horiz-adv-x="570" 
d="M455 180q-17 -73 -75 -120.5t-146 -63.5l-20 -74h-112l18 68q-45 2 -82.5 11.5t-71.5 27.5l32 120q31 -26 76 -40t95 -14q65 0 110 26t55 68q10 41 -6.5 74.5t-87.5 86.5q-50 37 -71 59t-34 46q-16 31 -19 67.5t8 79.5q16 64 70 107.5t134 57.5l28 103h112l-26 -97
q38 -3 69.5 -12t56.5 -24l-33 -126q-22 25 -63.5 39.5t-90.5 14.5q-55 0 -92 -21t-46 -57q-11 -41 5.5 -74t87.5 -85q50 -36 71.5 -58t33.5 -45q17 -31 20.5 -67t-6.5 -78z" />
    <glyph glyph-name="percent" unicode="%" horiz-adv-x="1240" 
d="M504 518q-33 -123 -102.5 -187.5t-170.5 -64.5t-135.5 64.5t-1.5 187.5t102.5 187.5t169.5 64.5q101 0 136 -64.5t2 -187.5zM986 763l-582 -763h-132l582 763h132zM398 518q22 82 8 121t-64 39t-85 -39t-57 -121t-8 -121t64 -39t85 39t57 121zM1174 241
q-33 -123 -102.5 -187.5t-170.5 -64.5t-135.5 64.5t-1.5 187.5t102.5 187.5t169.5 64.5q101 0 136 -64.5t2 -187.5zM1068 241q22 82 8 121t-64 39t-85 -39t-57 -121t-8 -121t64 -39t85 39t57 121z" />
    <glyph glyph-name="ampersand" unicode="&#x26;" horiz-adv-x="729" 
d="M247 568q-16 -59 25.5 -92t121.5 -33h310l-27 -101h-132l-37 -136q-17 -66 -8.5 -91t48.5 -25q17 0 36 3.5t40 10.5l-26 -96q-27 -10 -52 -14.5t-49 -4.5q-48 0 -76.5 19t-39.5 56q-15 -15 -35 -28t-46 -24q-27 -11 -55.5 -17t-57.5 -6q-96 0 -142 68t-16 172
q17 58 64 104.5t105 64.5v2q-47 25 -63 77.5t4 123.5q20 76 98 124.5t184 48.5q53 0 101 -11t76 -30l-29 -111q-13 11 -32 20.5t-44 16.5q-20 6 -41 9t-43 3q-65 0 -106.5 -26.5t-55.5 -76.5zM142 216q-16 -58 10 -92.5t86 -34.5q44 0 82.5 16.5t59.5 44.5l52 192h-65
q-101 0 -154.5 -31t-70.5 -95z" />
    <glyph glyph-name="quotesingle" unicode="'" horiz-adv-x="226" 
d="M293 747l-169 -273l-74 23l126 272z" />
    <glyph glyph-name="parenleft" unicode="(" horiz-adv-x="345" 
d="M130 121q0 -83 9.5 -154.5t32.5 -154.5l-85 -47q-33 66 -51 156t-18 186q0 204 86 385.5t246 310.5l70 -58q-137 -115 -213.5 -283.5t-76.5 -340.5z" />
    <glyph glyph-name="parenright" unicode=")" horiz-adv-x="345" 
d="M143 447q0 83 -9.5 154.5t-32.5 154.5l85 47q33 -66 51 -156t18 -186q0 -204 -86 -385.5t-246 -310.5l-70 58q137 115 213.5 283.5t76.5 340.5z" />
    <glyph glyph-name="asterisk" unicode="*" horiz-adv-x="519" 
d="M377 567l72 -123l-92 -53l-51 126l-116 -125l-71 60l130 118l-135 38l53 98l126 -54l29 139h102l-45 -139l149 53l5 -97z" />
    <glyph glyph-name="plus" unicode="+" horiz-adv-x="722" 
d="M579 222h-205l-57 -212h-110l57 212h-207l27 100h206l57 212h110l-57 -212h206z" />
    <glyph glyph-name="comma" unicode="," horiz-adv-x="252" 
d="M157 86l-209 -251l-65 37l168 258z" />
    <glyph glyph-name="hyphen" unicode="-" horiz-adv-x="436" 
d="M380 323l-28 -101h-336l28 101h336z" />
    <glyph glyph-name="period" unicode="." horiz-adv-x="256" 
d="M130 68q-8 -32 -37.5 -55t-61.5 -23t-48.5 23t-8.5 55q9 32 38 55t61 23t49 -23t8 -55z" />
    <glyph glyph-name="slash" unicode="/" horiz-adv-x="461" 
d="M458 870h123l-553 -948h-122z" />
    <glyph glyph-name="zero" unicode="0" horiz-adv-x="691" 
d="M609 339q-45 -163 -140 -256.5t-222 -93.5q-141 0 -183 109t16 324q45 165 139.5 258.5t222.5 93.5q141 0 183 -111t-16 -324zM498 367q42 160 22 231t-103 71q-78 0 -135 -69.5t-92 -207.5q-41 -159 -21 -228.5t101 -69.5q78 0 136 69t92 204z" />
    <glyph glyph-name="one" unicode="1" horiz-adv-x="537" 
d="M417 103l-28 -103h-423l28 103h154l123 461h-163l24 90q22 0 41.5 2.5t37.5 7.5q20 6 37 15t31 21q18 15 29.5 30.5t15.5 32.5h115l-176 -660h154z" />
    <glyph glyph-name="two" unicode="2" horiz-adv-x="581" 
d="M436 103l-28 -103h-451l33 123q258 195 339 277.5t98 148.5q16 60 -9 91.5t-87 31.5q-47 0 -102.5 -20t-99.5 -52l30 117q46 28 102 43t110 15q103 0 151.5 -64t21.5 -162q-24 -89 -113 -184.5t-304 -258.5l3 -3h306z" />
    <glyph glyph-name="three" unicode="3" horiz-adv-x="569" 
d="M154 -11q-25 0 -48.5 2t-44.5 6q-31 6 -52.5 14.5t-33.5 18.5l31 114q13 -11 32.5 -20.5t44.5 -16.5q20 -5 41.5 -8t44.5 -3q75 0 123 28t62 80q18 68 -21.5 103t-132.5 35h-74l27 101h87q80 0 132.5 29.5t64.5 84.5t-16 84.5t-93 29.5q-22 0 -45.5 -3.5t-47.5 -10.5
q-26 -7 -47.5 -16t-39.5 -19l30 114q36 18 88.5 28t105.5 10q102 0 153.5 -56.5t33.5 -140.5q-13 -62 -56 -109.5t-104 -67.5v-2q49 -20 68.5 -77.5t-0.5 -129.5q-27 -96 -109 -149t-204 -53z" />
    <glyph glyph-name="four" unicode="4" horiz-adv-x="651" 
d="M275 0l48 179h-328l26 96l437 488h136l-130 -488h88l-26 -96h-88l-48 -179h-115zM148 278l3 -3h198l71 242q5 17 9.5 34t11.5 45q4 16 6 23.5t4 13.5h-3q-6 -9 -29.5 -38t-65.5 -78z" />
    <glyph glyph-name="five" unicode="5" horiz-adv-x="601" 
d="M171 -11q-27 0 -51 2t-46 6q-33 6 -55.5 14t-33.5 19l30 113q13 -12 33 -22t47 -18q20 -5 42.5 -8t46.5 -3q72 0 121 33t64 91t-7.5 93t-81.5 48q-27 6 -63.5 7.5t-128.5 -4.5l109 404h396l-28 -103h-281l-53 -200q154 10 220 -57.5t32 -198.5q-26 -98 -109.5 -157
t-202.5 -59z" />
    <glyph glyph-name="six" unicode="6" horiz-adv-x="643" 
d="M532 209q-23 -99 -100 -160t-183 -61q-136 0 -181.5 108.5t6.5 310.5q46 175 152.5 271t260.5 96q38 0 76.5 -8t74.5 -23l-30 -114q-40 22 -76 32t-69 8q-101 -5 -168 -66t-99 -179q35 27 78.5 41t93.5 14q100 0 146 -75.5t18 -194.5zM418 217q18 77 -8 121.5t-91 44.5
q-44 0 -82.5 -14t-63.5 -38q-28 -119 -4.5 -181.5t97.5 -62.5q57 0 97.5 35.5t54.5 94.5z" />
    <glyph glyph-name="seven" unicode="7" horiz-adv-x="534" 
d="M565 651l-457 -651h-128l467 657v3h-343l27 103h464z" />
    <glyph glyph-name="eight" unicode="8" horiz-adv-x="674" 
d="M560 186q-25 -93 -109.5 -146.5t-207.5 -50.5q-120 2 -179 65.5t-32 164.5q15 58 73.5 113t124.5 74q-48 29 -68.5 79.5t-5.5 110.5q19 78 96.5 129.5t179.5 48.5q108 -3 161 -60.5t28 -146.5q-14 -50 -59 -96t-99 -66q63 -37 89 -94.5t8 -124.5zM503 565q14 52 -11.5 83
t-86.5 30q-50 -1 -87.5 -26t-47.5 -65q-12 -47 17.5 -84.5t92.5 -56.5q48 20 81 51.5t42 67.5zM445 195q15 59 -20 100.5t-121 65.5q-55 -18 -99.5 -58.5t-56.5 -85.5q-16 -60 14.5 -94.5t100.5 -37.5q69 -3 118.5 27t63.5 83z" />
    <glyph glyph-name="nine" unicode="9" horiz-adv-x="643" 
d="M111 553q23 99 100 160t183 61q136 0 181.5 -109t-6.5 -310q-46 -175 -152.5 -271t-260.5 -96q-38 0 -76.5 8t-74.5 23l30 114q40 -22 76 -32t69 -8q101 5 168 66t99 179q-35 -27 -78.5 -41t-93.5 -14q-100 0 -146 75.5t-18 194.5zM225 545q-18 -77 8 -121.5t91 -44.5
q44 0 82.5 14t63.5 38q28 119 4.5 181.5t-97.5 62.5q-57 0 -97.5 -35.5t-54.5 -94.5z" />
    <glyph glyph-name="colon" unicode=":" horiz-adv-x="256" 
d="M240 478q-8 -32 -37.5 -55t-61.5 -23t-48.5 23t-8.5 55t37.5 55t61.5 23t48.5 -23t8.5 -55zM130 67q-8 -32 -37.5 -55t-61.5 -23t-48.5 23t-8.5 55t37.5 55t61.5 23t48.5 -23t8.5 -55z" />
    <glyph glyph-name="semicolon" unicode=";" horiz-adv-x="278" 
d="M242 478q-8 -32 -37.5 -55t-61.5 -23t-48.5 23t-8.5 55q9 32 38 55t61 23t49 -23t8 -55zM147 86l-209 -251l-65 37l168 258z" />
    <glyph glyph-name="less" unicode="&#x3c;" horiz-adv-x="720" 
d="M562 109l-60 -99l-432 214l27 99l534 209l11 -108l-424 -156z" />
    <glyph glyph-name="equal" unicode="=" horiz-adv-x="724" 
d="M641 444l-27 -101h-524l27 101h524zM576 202l-27 -101h-524l27 101h524z" />
    <glyph glyph-name="greater" unicode="&#x3e;" horiz-adv-x="720" 
d="M587 224l-535 -211l-9 104l426 162l-349 161l61 97l432 -214z" />
    <glyph glyph-name="question" unicode="?" horiz-adv-x="486" 
d="M499 583q-11 -36 -35.5 -70t-90.5 -92q-76 -67 -106 -110t-43 -92h-109q15 62 51 116.5t122 131.5q54 48 71.5 71t22.5 45q10 44 -11 67.5t-68 23.5q-44 0 -94 -17t-88 -45l30 111q41 25 91 38.5t100 13.5q88 0 134 -55.5t23 -136.5zM216 68q-8 -32 -37.5 -55t-61.5 -23
t-48.5 23t-8.5 55q9 32 38 55t61 23t49 -23t8 -55z" />
    <glyph glyph-name="at" unicode="@" horiz-adv-x="758" 
d="M335 -131q56 0 112.5 16t123.5 51l-16 -100q-54 -30 -120 -46.5t-132 -16.5q-87 0 -152.5 39.5t-100.5 111.5q-29 62 -31.5 140.5t22.5 166.5q44 157 154 241t274 84q133 0 188.5 -64t23.5 -183l-82 -309h-81l-4 50l-3 1q-35 -30 -79.5 -46t-93.5 -16q-71 0 -105.5 54.5
t-12.5 132.5q20 71 94 113t185 42h76q2 3 4 9.5t2 7.5q13 46 -22 77t-111 31q-118 0 -194.5 -59.5t-111.5 -178.5q-45 -154 8 -251.5t185 -97.5zM489 248q-69 0 -107 -18.5t-51 -60.5q-11 -37 7 -62t57 -25q38 0 78 17t60 40l29 109h-73z" />
    <glyph glyph-name="A" unicode="A" horiz-adv-x="685" 
d="M158 175l-99 -175h-131l447 763h141l37 -763h-121l-5 175h-269zM417 642q-56 -106 -70.5 -132.5t-28.5 -51.5l-98 -174h204l-3 175q-1 105 -1 135.5v47.5h-3z" />
    <glyph glyph-name="B" unicode="B" horiz-adv-x="663" 
d="M440 763q106 0 155.5 -54.5t26.5 -148.5q-16 -65 -55.5 -107t-99.5 -58l-1 -2q59 -10 85 -61.5t6 -125.5q-24 -96 -105 -151t-201 -55h-263l204 763h248zM228 444h111q66 0 107 27.5t55 79.5q14 53 -11.5 80.5t-87.5 27.5h-116zM137 104h136q66 0 109.5 31t56.5 87
q14 56 -18 87t-105 31h-116z" />
    <glyph glyph-name="C" unicode="C" horiz-adv-x="629" 
d="M179 409q-39 -148 -3 -229t137 -81q47 0 101 17.5t108 50.5l-32 -123q-48 -27 -105 -41t-116 -14q-79 0 -134.5 40t-79.5 114q-19 57 -17 128.5t25 152.5q46 161 159.5 255.5t265.5 94.5q54 0 103 -14t75 -38l-31 -117q-34 29 -77 44.5t-88 15.5q-99 0 -179.5 -70.5
t-111.5 -185.5z" />
    <glyph glyph-name="D" unicode="D" horiz-adv-x="724" 
d="M667 354q-41 -158 -155.5 -256t-265.5 -98h-258l204 763h234q158 0 223.5 -112t17.5 -297zM397 654h-113l-146 -545h137q95 0 169.5 68.5t102.5 177.5q36 141 -3 220t-147 79z" />
    <glyph glyph-name="E" unicode="E" horiz-adv-x="573" 
d="M440 109l-29 -109h-423l204 763h396l-29 -109h-275l-55 -207h260l-29 -109h-260l-62 -229h302z" />
    <glyph glyph-name="F" unicode="F" horiz-adv-x="552" 
d="M192 763h396l-29 -109h-275l-55 -207h260l-29 -109h-260l-91 -338h-121z" />
    <glyph glyph-name="G" unicode="G" horiz-adv-x="723" 
d="M365 390h272l-89 -335q-58 -32 -125 -49t-134 -17q-151 0 -215 114.5t-15 306.5q44 172 163 268t284 96q50 0 100 -11t94 -32l-32 -118q-43 25 -91.5 38.5t-95.5 13.5q-109 0 -189.5 -67.5t-112.5 -188.5q-42 -156 -3.5 -236t153.5 -80q33 0 63.5 8t53.5 23l41 157h-152z
" />
    <glyph glyph-name="H" unicode="H" horiz-adv-x="762" 
d="M200 338l-91 -338h-121l204 763h121l-84 -316h340l84 316h121l-204 -763h-121l91 338h-340z" />
    <glyph glyph-name="I" unicode="I" horiz-adv-x="494" 
d="M351 109l-29 -109h-354l29 109h117l146 545h-117l29 109h354l-29 -109h-117l-146 -545h117z" />
    <glyph glyph-name="J" unicode="J" horiz-adv-x="524" 
d="M409 289q-46 -174 -114 -237t-201 -63q-47 0 -83 6.5t-50 16.5l31 115q18 -12 54.5 -19.5t73.5 -7.5q47 0 78 19.5t53 63.5q11 23 21.5 55t29.5 103l84 313h-232l29 109h353z" />
    <glyph glyph-name="K" unicode="K" horiz-adv-x="640" 
d="M203 356l-95 -356h-120l204 763h120l-81 -302q34 0 57.5 16t69.5 61q18 19 44 45.5t64 66.5q17 19 40.5 43.5t65.5 69.5h145l-295 -300q-10 -10 -20 -18.5t-20 -15.5q-15 -9 -27 -14t-21 -5l-1 -3q7 -1 14.5 -7.5t15.5 -18.5q6 -7 11 -16t9 -20l145 -345h-134
q-14 39 -22 61.5t-14 39.5q-12 33 -20.5 57t-16.5 43q-13 34 -22.5 57.5t-17.5 39.5q-16 33 -30 45.5t-48 12.5z" />
    <glyph glyph-name="L" unicode="L" horiz-adv-x="543" 
d="M430 109l-29 -109h-413l204 763h121l-175 -654h292z" />
    <glyph glyph-name="M" unicode="M" horiz-adv-x="926" 
d="M225 437l-130 -437h-122l240 763h138l41 -510q2 -31 3 -61t0 -62h3l24.5 45t45.5 79l309 509h140l-168 -763h-122l102 437q9 38 20.5 75t24.5 73h-3q-19 -36 -39.5 -73t-43.5 -75l-264 -437h-126l-32 437q-2 38 -3 75t0 73h-3q-6 -36 -15 -73t-20 -75z" />
    <glyph glyph-name="N" unicode="N" horiz-adv-x="762" 
d="M233 463l-124 -463h-121l204 763h121l158 -468q7 -20 14 -49t14 -67h4q7 38 13.5 68t12.5 53l124 463h121l-204 -763h-121l-157 468q-9 26 -16 55t-12 61h-4q-6 -32 -12.5 -62t-14.5 -59z" />
    <glyph glyph-name="O" unicode="O" horiz-adv-x="785" 
d="M33 255q-1 89 32.5 183.5t93.5 169.5q65 81 150 123.5t181 42.5q124 0 193.5 -69t71.5 -197q1 -89 -32.5 -183.5t-93.5 -169.5q-65 -81 -150 -123.5t-181 -42.5q-124 0 -193.5 69t-71.5 197zM470 665q-101 0 -182.5 -79t-115.5 -205q-34 -127 5.5 -205t140.5 -78
t182.5 79t115.5 205q34 127 -5.5 205t-140.5 78z" />
    <glyph glyph-name="P" unicode="P" horiz-adv-x="609" 
d="M176 250l-67 -250h-121l204 763h194q131 0 190 -74t26 -199q-30 -114 -123.5 -177t-227.5 -63h-75zM357 654h-73l-79 -295h62q90 0 142.5 34t72.5 102q20 79 -12 119t-113 40z" />
    <glyph glyph-name="Q" unicode="Q" horiz-adv-x="792" 
d="M676 56l-103 -77l-52 76q-50 -32 -106.5 -49t-116.5 -17q-124 0 -193.5 69t-71.5 197q-1 89 32.5 183.5t93.5 169.5q65 81 150 123.5t181 42.5q124 0 193.5 -69t71.5 -197q1 -89 -32.5 -183.5t-93.5 -169.5q-4 -6 -9 -11t-9 -11zM172 381q-34 -127 5.5 -205t140.5 -78
q37 0 72 11t67 32l-97 119l99 78l82 -115q25 33 44 73.5t31 85.5q34 127 -5.5 205t-140.5 78t-182.5 -79t-115.5 -205z" />
    <glyph glyph-name="R" unicode="R" horiz-adv-x="656" 
d="M187 292l-78 -292h-121l204 763h186q139 0 198 -67t28 -185q-18 -70 -66 -120t-118 -69l104 -322h-133l-81 297q-17 -2 -36 -3.5t-38 -1.5h-49zM366 654h-82l-68 -255h72q86 0 134 29.5t63 89.5q18 68 -12 102t-107 34z" />
    <glyph glyph-name="S" unicode="S" horiz-adv-x="570" 
d="M455 180q-21 -89 -102.5 -140t-204.5 -51q-55 0 -99 9.5t-83 30.5l32 120q31 -26 76 -40t95 -14q65 0 110 26t55 68q10 41 -6.5 74.5t-87.5 86.5q-50 37 -71 59t-34 46q-16 31 -19 67.5t8 79.5q20 79 95.5 125.5t187.5 46.5q50 0 90.5 -9.5t70.5 -27.5l-33 -126
q-22 25 -63.5 39.5t-90.5 14.5q-55 0 -92 -21t-46 -57q-11 -41 5.5 -74t87.5 -85q50 -36 71.5 -58t33.5 -45q17 -31 20.5 -67t-6.5 -78z" />
    <glyph glyph-name="T" unicode="T" horiz-adv-x="550" 
d="M408 654l-175 -654h-120l175 654h-205l29 109h530l-29 -109h-205z" />
    <glyph glyph-name="U" unicode="U" horiz-adv-x="762" 
d="M555 99q-46 -58 -111.5 -84.5t-157.5 -25.5q-148 3 -198.5 98t-0.5 281l105 395h121l-103 -386q-40 -150 -19 -213t116 -64q62 0 104 20t70 65q17 27 31.5 66t37.5 126l103 386h121l-102 -386q-29 -107 -56 -171t-61 -107z" />
    <glyph glyph-name="V" unicode="V" horiz-adv-x="685" 
d="M757 763l-444 -763h-143l-38 763h123l16 -635h3l354 635h129z" />
    <glyph glyph-name="W" unicode="W" horiz-adv-x="1015" 
d="M564 596l-302 -596h-149l39 763h122l-26 -373q-3 -40 -6 -78.5t-10 -97.5q-2 -29 -3.5 -42.5t-2.5 -24.5h3l18 36t32 65l40.5 81l30.5 61l188 373h139l-8 -372q-1 -32 -2.5 -67t-4.5 -97q-2 -35 -3 -51t-1 -29h3q19 42 46.5 102.5t64.5 142.5l168 371h127l-369 -763h-149
l18 596h-3z" />
    <glyph glyph-name="X" unicode="X" horiz-adv-x="644" 
d="M291 288l-227 -288h-146l341 404l-133 359h138l91 -271h3l214 271h141l-322 -387l136 -376h-140l-94 288h-2z" />
    <glyph glyph-name="Y" unicode="Y" horiz-adv-x="625" 
d="M364 348l-93 -348h-120l93 348l-148 415h127l81 -238q6 -18 11 -36.5t8 -37.5h3q12 19 25 37t26 34l199 241h145z" />
    <glyph glyph-name="Z" unicode="Z" horiz-adv-x="618" 
d="M485 109l-29 -109h-498l27 102l486 549l-2 3h-326l29 109h478l-28 -103l-485 -548l2 -3h346z" />
    <glyph glyph-name="bracketleft" unicode="[" horiz-adv-x="301" 
d="M355 697h-99l-222 -827h99l-25 -94h-211l272 1015h211z" />
    <glyph glyph-name="backslash" unicode="\" horiz-adv-x="461" 
d="M105 870h108l144 -948h-107z" />
    <glyph glyph-name="bracketright" unicode="]" horiz-adv-x="301" 
d="M193 697h-99l25 94h211l-272 -1015h-211l25 94h99z" />
    <glyph glyph-name="asciicircum" unicode="^" horiz-adv-x="712" 
d="M612 264v-137l-256 225l-256 -225v137l209 186h94z" />
    <glyph glyph-name="underscore" unicode="_" horiz-adv-x="504" 
d="M378 -123l-27 -101h-504l27 101h504z" />
    <glyph glyph-name="grave" unicode="`" horiz-adv-x="301" 
d="M260 897l141 -195l-56 -55l-176 177z" />
    <glyph glyph-name="a" unicode="a" horiz-adv-x="566" 
d="M296 51q-31 -28 -73.5 -45t-85.5 -17q-71 0 -108.5 46.5t-27.5 120.5q12 86 81 130.5t192 44.5h86q1 3 2.5 7t3.5 14q15 57 -9 80.5t-93 23.5q-44 0 -87.5 -8.5t-83.5 -25.5l30 110q39 12 82 18t90 6q130 0 167 -62t-2 -208l-77 -286h-81l-4 50zM273 248
q-74 0 -113 -20.5t-46 -63.5q-7 -39 10 -60.5t54 -21.5q39 0 79.5 17.5t60.5 41.5l28 107h-73z" />
    <glyph glyph-name="b" unicode="b" horiz-adv-x="602" 
d="M522 254q-32 -123 -115.5 -194t-194.5 -71q-60 0 -111 12.5t-103 40.5l201 749h113l-74 -277l3 -3q42 28 79.5 38t80.5 6q81 -8 117 -93t4 -208zM129 111q20 -13 45.5 -18t61.5 -3q59 4 104 49t66 122q23 83 6.5 132.5t-67.5 55.5q-38 5 -77.5 -9.5t-60.5 -38.5z" />
    <glyph glyph-name="c" unicode="c" horiz-adv-x="494" 
d="M356 26q-39 -19 -81 -28.5t-83 -8.5q-109 4 -154 90t-12 221q32 126 110.5 191t199.5 65q43 0 80 -8.5t56 -23.5l-29 -108q-23 19 -54 29t-66 10q-73 0 -120 -43t-67 -130q-20 -88 4.5 -138t88.5 -54q36 -2 80 10t75 31z" />
    <glyph glyph-name="d" unicode="d" horiz-adv-x="602" 
d="M142 -9q-80 13 -116 97t-5 204q33 127 112 195.5t191 68.5q16 0 30.5 -1t27.5 -4q20 -4 33.5 -9t20.5 -11l4 3l69 257h113l-212 -791h-113l12 47l-2 1q-33 -34 -76 -49t-89 -8zM412 429q-12 12 -40 19t-65 7q-60 0 -104 -44t-66 -126q-22 -80 -5 -130t66 -57
q37 -5 76.5 10.5t63.5 42.5z" />
    <glyph glyph-name="e" unicode="e" horiz-adv-x="559" 
d="M390 29q-51 -21 -92 -30.5t-79 -9.5q-115 0 -169 76t-30 204q25 138 112 215t205 72q125 -5 157.5 -100t-38.5 -227h-334q-12 -69 20 -105t105 -36q36 0 78 10.5t93 32.5zM387 317q28 59 8.5 104t-77.5 46q-64 2 -110.5 -37.5t-65.5 -112.5h245z" />
    <glyph glyph-name="f" unicode="f" horiz-adv-x="412" 
d="M252 450l-121 -450h-112l121 450h-82l25 95h82q40 140 100.5 198t165.5 58q31 0 57 -4t51 -13l-28 -104q-18 11 -39.5 17t-45.5 6q-61 0 -93.5 -34t-55.5 -124h145l-25 -95h-145z" />
    <glyph glyph-name="g" unicode="g" horiz-adv-x="587" 
d="M-66 -85q6 31 29.5 60.5t54.5 45.5q-19 11 -25 31t2 47q7 28 28.5 61.5t68.5 83.5q-19 25 -24 57.5t3 68.5q20 89 85 137.5t165 48.5q45 0 77.5 -8t53.5 -24l133 32l-28 -105h-58q11 -111 -58 -188.5t-189 -78.5q-34 0 -58.5 4t-45.5 13q-24 -30 -31 -42.5t-10 -25.5
q-7 -24 4 -32.5t54 -8.5h118q80 0 119.5 -40t26.5 -107q-18 -89 -91 -134.5t-198 -45.5q-111 0 -164.5 39.5t-41.5 110.5zM387 370q11 46 -11 70t-77 24q-48 0 -78.5 -24t-41.5 -70q-10 -44 13 -69.5t74 -24.5q49 1 80 25t41 69zM114 0h-16t-9 1q-15 -13 -25.5 -29.5
t-14.5 -32.5q-11 -39 17.5 -60.5t93.5 -21.5q74 0 113.5 20.5t46.5 61.5q5 30 -17.5 45.5t-72.5 15.5h-116z" />
    <glyph glyph-name="h" unicode="h" 
d="M207 402l-108 -402h-112l212 791h112l-77 -286l3 -3q46 28 89.5 41t87.5 13q83 0 109 -49.5t-1 -150.5l-95 -356h-112l86 319q20 77 10.5 107t-54.5 30q-38 0 -83 -16t-67 -38z" />
    <glyph glyph-name="i" unicode="i" horiz-adv-x="292" 
d="M332 751q-9 -33 -37 -55.5t-62 -22.5q-33 0 -49.5 22.5t-7.5 55.5t37.5 55.5t61.5 22.5t49.5 -22.5t7.5 -55.5zM245 545l-146 -545h-112l146 545h112z" />
    <glyph glyph-name="j" unicode="j" horiz-adv-x="292" 
d="M334 751q-9 -33 -37 -55.5t-62 -22.5q-33 0 -49.5 22.5t-7.5 55.5t37.5 55.5t61.5 22.5t49.5 -22.5t7.5 -55.5zM-208 -132q43 -2 75 6t56 26q26 19 42 49t35 100l133 496h112l-133 -496q-26 -97 -56.5 -150t-79.5 -85q-40 -26 -93 -38.5t-119 -10.5z" />
    <glyph glyph-name="k" unicode="k" horiz-adv-x="553" 
d="M168 252l-68 -252h-113l212 791h113l-118 -444q45 0 68 15t68 62q15 15 36 38t75 83h125l-182 -193q-23 -24 -40.5 -37.5t-28.5 -15.5l-1 -3q9 -4 16 -16.5t25 -56.5l90 -223h-124q-15 45 -22 65.5t-12 36.5q-13 37 -21.5 60t-15.5 38q-14 30 -28 41t-54 11z" />
    <glyph glyph-name="l" unicode="l" horiz-adv-x="292" 
d="M311 791l-212 -791h-112l212 791h112z" />
    <glyph glyph-name="m" unicode="m" horiz-adv-x="930" 
d="M205 397l-106 -397h-112l146 545h112l-13 -46l3 -3q56 34 96 47t80 13q46 0 74 -18.5t37 -55.5q59 38 109 56t95 18q78 0 105.5 -49.5t1.5 -145.5l-96 -361h-112l89 334q17 63 5.5 92.5t-52.5 29.5q-35 0 -76.5 -19t-67.5 -46l-105 -391h-112l88 328q18 68 7.5 98
t-52.5 30q-37 0 -78.5 -17t-65.5 -42z" />
    <glyph glyph-name="n" unicode="n" 
d="M206 398l-107 -398h-112l146 545h112l-12 -44l3 -3q49 30 93 44t86 14q82 0 108.5 -49t-0.5 -150l-96 -357h-112l86 320q21 77 11.5 106.5t-54.5 29.5q-38 0 -83.5 -17.5t-68.5 -40.5z" />
    <glyph glyph-name="o" unicode="o" horiz-adv-x="593" 
d="M510 255q-36 -124 -119.5 -195t-195.5 -71q-114 0 -160.5 82.5t-8.5 219.5q34 121 116.5 193t192.5 72q117 0 165.5 -83.5t9.5 -217.5zM401 272q22 82 -2.5 132.5t-87.5 51.5q-59 1 -107.5 -50.5t-69.5 -133.5q-22 -83 1.5 -132.5t85.5 -50.5q59 -1 108.5 50t71.5 133z
" />
    <glyph glyph-name="p" unicode="p" horiz-adv-x="602" 
d="M401 554q80 -13 116 -97t5 -204q-33 -127 -112 -195.5t-191 -68.5q-16 0 -30.5 1t-27.5 4q-20 4 -33.5 9t-20.5 11l-4 -3l-63 -235h-113l206 769h113l-12 -47l2 -1q33 34 76 49t89 8zM131 116q12 -12 40 -19t65 -7q60 0 104 44t66 126q22 80 5 130t-66 57
q-37 5 -76.5 -10.5t-63.5 -42.5z" />
    <glyph glyph-name="q" unicode="q" horiz-adv-x="602" 
d="M331 556q34 0 63 -7t51 -20l113 24l-208 -777h-113l68 255l-3 3q-42 -28 -79.5 -38t-80.5 -6q-81 8 -117 93t-4 208t115.5 194t194.5 71zM412 428q-24 16 -49 22.5t-56 4.5q-59 -4 -104 -49t-66 -122q-23 -83 -6.5 -132.5t67.5 -55.5q38 -5 77.5 9.5t60.5 38.5z" />
    <glyph glyph-name="r" unicode="r" horiz-adv-x="425" 
d="M195 360l-96 -360h-112l146 545h112l-17 -65l3 -3q38 38 83 58.5t93 20.5q9 0 17 -0.5t16 -1.5l-32 -122q-5 1 -10 1h-12q-62 0 -111.5 -19.5t-79.5 -53.5z" />
    <glyph glyph-name="s" unicode="s" horiz-adv-x="497" 
d="M376 142q-15 -73 -77.5 -113t-162.5 -40q-46 0 -88.5 12t-67.5 31q7 27 14 53.5t14 53.5q10 -13 26 -23.5t38 -18.5q17 -6 36.5 -9.5t39.5 -3.5q48 0 78 14.5t36 41.5q5 23 -8.5 41.5t-67.5 47.5q-42 22 -61 36.5t-31 30.5q-18 22 -24 49.5t0 60.5q13 72 72.5 111
t159.5 39q45 0 83 -10.5t63 -29.5l-27 -100q-34 22 -69.5 33.5t-68.5 11.5q-42 0 -69.5 -15.5t-32.5 -40.5q-5 -22 8.5 -40t68.5 -45q44 -22 63.5 -36t32.5 -30q18 -22 23.5 -50t-1.5 -62z" />
    <glyph glyph-name="t" unicode="t" horiz-adv-x="434" 
d="M296 16q-27 -13 -56 -20t-57 -7q-78 0 -108.5 56.5t-4.5 154.5l65 249h-88l26 96h88l39 144h112l-39 -144h152l-26 -96h-152l-61 -225q-19 -70 -7.5 -102t55.5 -32q16 0 38 6.5t51 19.5z" />
    <glyph glyph-name="u" unicode="u" 
d="M328 50q-45 -30 -89.5 -45.5t-87.5 -15.5q-77 0 -107.5 52t-5.5 144l96 360h112l-86 -323q-19 -71 -7.5 -102t55.5 -31q36 0 80.5 18t68.5 43l105 395h112l-146 -545h-112l14 47z" />
    <glyph glyph-name="v" unicode="v" horiz-adv-x="522" 
d="M555 545l-340 -545h-112l-50 545h115l21 -337q2 -31 2 -51t-3 -30h3q4 10 15 30.5t28 50.5l194 337h127z" />
    <glyph glyph-name="w" unicode="w" horiz-adv-x="804" 
d="M355 297l-172 -297h-113l-17 545h108l4 -314q1 -44 0 -69.5t-3 -32.5h3q0 8 11.5 33.5t35.5 68.5l175 314h113l5 -314q1 -44 0 -69.5t-4 -32.5h3q0 7 12 32.5t36 69.5l169 314h116l-311 -545h-113l-9 297q-1 41 -0.5 66.5t3.5 35.5h-3q-1 -11 -13.5 -36.5t-35.5 -65.5z
" />
    <glyph glyph-name="x" unicode="x" horiz-adv-x="526" 
d="M210 197l-165 -197h-128l255 292l-98 253h119l63 -181h3l148 181l131 -1l-244 -277l108 -267h-119l-70 197h-3z" />
    <glyph glyph-name="y" unicode="y" horiz-adv-x="522" 
d="M214 0q-84 -136 -148 -181t-156 -52q-8 -1 -17 -1h-28l27 100q17 0 25 0.5t14 1.5q60 10 102.5 44t68.5 93l-49 540h119l18 -342q2 -36 1.5 -56t-3.5 -25h3q1 5 11.5 25t30.5 56l195 342h127z" />
    <glyph glyph-name="z" unicode="z" horiz-adv-x="508" 
d="M382 99l-27 -99h-398l27 98l342 345l-2 3h-236l26 99h376l-27 -99l-341 -344l3 -3h257z" />
    <glyph glyph-name="braceleft" unicode="{" horiz-adv-x="333" 
d="M4 50q26 41 36 60.5t14 35.5q10 36 2 64.5t-33 36.5l19 72q29 8 52.5 36.5t33.5 64.5q4 16 4.5 35.5t-3.5 59.5q-5 45 -4 68t6 42q25 91 95.5 134t177.5 31l-18 -94q-67 7 -99 -10.5t-45 -64.5q-4 -16 -4.5 -36t2.5 -62q5 -45 4 -67.5t-6 -40.5q-11 -43 -36 -77t-60 -55
q25 -21 31 -55.5t-6 -76.5q-5 -18 -16 -40.5t-39 -66.5q-26 -42 -36.5 -62.5t-14.5 -36.5q-12 -47 8.5 -64t87.5 -11l-25 -94q-113 -12 -160.5 31t-23.5 134q5 19 16.5 41.5t39.5 67.5z" />
    <glyph glyph-name="bar" unicode="|" horiz-adv-x="292" 
d="M-63 -224l272 1015h112l-272 -1015h-112z" />
    <glyph glyph-name="braceright" unicode="}" horiz-adv-x="333" 
d="M255 517q-26 -41 -36 -60.5t-14 -35.5q-10 -36 -2 -64.5t33 -36.5l-20 -72q-29 -8 -52 -36.5t-33 -64.5q-4 -16 -4.5 -35.5t3.5 -59.5q4 -45 3 -68t-6 -42q-24 -91 -94.5 -134t-177.5 -31l17 94q68 -7 100 10.5t45 64.5q4 16 4.5 36t-2.5 62q-5 45 -4 67.5t6 40.5
q11 43 36 77t60 55q-24 21 -30.5 55t4.5 77q5 18 16 40t39 66q27 43 37.5 63.5t14.5 36.5q12 47 -8.5 64t-87.5 11l25 94q113 12 160.5 -31t23.5 -134q-5 -19 -16.5 -41.5t-39.5 -67.5z" />
    <glyph glyph-name="asciitilde" unicode="~" horiz-adv-x="716" 
d="M390 321q31 -23 44.5 -30t24.5 -7q26 0 37.5 21t11.5 74h107q6 -100 -32 -157t-113 -57q-31 0 -62.5 13t-82.5 51q-31 24 -44.5 30.5t-23.5 6.5q-27 0 -38 -20.5t-11 -74.5h-107q-5 101 33 157.5t111 56.5q31 0 62.5 -13t82.5 -51z" />
    <glyph glyph-name="exclamdown" unicode="&#xa1;" horiz-adv-x="256" 
d="M125 471q8 32 37.5 55t61.5 23t48.5 -23t8.5 -55q-9 -32 -38 -55t-61 -23t-49 23t-8 55zM156 97q-28 -118 -44.5 -186t-34.5 -135h-120q17 63 35.5 128t52.5 178q29 97 43 145.5t25 92.5h97q-11 -41 -22 -86.5t-32 -136.5z" />
    <glyph glyph-name="cent" unicode="&#xa2;" horiz-adv-x="484" 
d="M371 136q-26 -13 -54 -21.5t-56 -12.5l-27 -102h-112l28 108q-78 24 -107.5 105t-1.5 197q28 112 93.5 176t164.5 77l27 100h112l-27 -102q24 -3 44 -10t32 -17l-29 -108q-23 19 -54 29t-66 10q-73 0 -120 -43t-67 -130q-20 -88 4.5 -138t88.5 -54q36 -2 80 10t75 31z
" />
    <glyph glyph-name="sterling" unicode="&#xa3;" horiz-adv-x="634" 
d="M497 101l-27 -101h-504l27 101h75q28 29 47.5 59t31.5 61q10 25 15 52t6 69h-100l27 101h73q0 56 4 88.5t13 62.5q25 85 97.5 132t180.5 47q55 0 101 -12.5t75 -35.5l-32 -121q-21 29 -60 47t-86 18q-72 0 -113.5 -26t-56.5 -80q-3 -14 -5 -47t-3 -73h262l-27 -101h-239
q-1 -14 -2 -26.5t-3 -22.5q-8 -60 -28.5 -107.5t-53.5 -84.5h305z" />
    <glyph glyph-name="currency" unicode="&#xa4;" horiz-adv-x="664" 
d="M531 74l-95 -74l-75 103q-23 -11 -48.5 -16.5t-51.5 -5.5q-27 0 -49.5 5.5t-40.5 16.5l-129 -103l-55 74l130 103q-5 20 -4 44t8 51t19 50.5t28 44.5l-75 103l94 75l76 -103q23 10 48.5 15.5t51.5 5.5t48.5 -5.5t40.5 -16.5l131 104l54 -75l-131 -103q5 -21 4.5 -45
t-7.5 -50t-19 -50t-28 -45zM401 272q11 41 -7 66t-58 25t-71 -25t-42 -66q-11 -40 7 -65t58 -25t71 25t42 65z" />
    <glyph glyph-name="yen" unicode="&#xa5;" horiz-adv-x="645" 
d="M512 155h-190l-41 -155h-120l41 155h-194l28 101h193l24 89h-202l28 101h140l-113 317h127l81 -238q6 -18 11 -36.5t8 -37.5h3q12 19 25 37t26 34l199 241h145l-273 -317h125l-28 -101h-182l-24 -89h191z" />
    <glyph glyph-name="brokenbar" unicode="&#xa6;" horiz-adv-x="292" 
d="M102 390l107 401h112l-107 -401h-112zM-63 -224l108 405h112l-108 -405h-112z" />
    <glyph glyph-name="section" unicode="&#xa7;" horiz-adv-x="606" 
d="M433 -13q-28 -104 -114 -163t-211 -59q-50 0 -92.5 10t-81.5 30l32 120q34 -27 78.5 -41.5t95.5 -14.5q67 0 110 27t57 78q10 36 -9.5 64.5t-98.5 73.5q-53 30 -76.5 48t-39.5 37q-22 29 -28 63t5 75q9 35 31.5 66t59.5 60q-13 23 -15 50t6 58q26 95 105.5 150t189.5 55
q48 0 88.5 -9.5t70.5 -27.5l-33 -126q-23 26 -64.5 41t-87.5 15q-60 0 -96 -22.5t-48 -67.5q-9 -33 10 -60t96 -68q54 -30 78.5 -48.5t40.5 -37.5q23 -29 28.5 -64.5t-5.5 -77.5q-9 -35 -30.5 -66.5t-57.5 -61.5q11 -23 12.5 -49.5t-6.5 -56.5zM282 208q31 -16 52 -28
t35 -22q12 12 20 27t13 33q9 35 -11 63t-102 71q-26 14 -44.5 24.5t-31.5 19.5q-15 -11 -26 -27t-16 -36q-9 -32 11 -58t100 -67z" />
    <glyph glyph-name="dieresis" unicode="&#xa8;" horiz-adv-x="496" 
d="M514 852q33 0 49.5 -22.5t7.5 -55.5t-37 -55.5t-62 -22.5q-33 0 -49.5 22.5t-7.5 55.5t37.5 55.5t61.5 22.5zM294 852q33 0 49.5 -22.5t7.5 -55.5t-37 -55.5t-62 -22.5q-33 0 -49.5 22.5t-7.5 55.5t37.5 55.5t61.5 22.5z" />
    <glyph glyph-name="copyright" unicode="&#xa9;" horiz-adv-x="858" 
d="M429 773q165 0 272 -111t107 -281t-107 -280.5t-272 -110.5t-272 110.5t-107 280.5t107 281t272 111zM429 676q-123 0 -203 -83.5t-80 -211.5t80 -211.5t203 -83.5t203 83.5t80 211.5t-80 211.5t-203 83.5zM544 193q-18 -13 -48.5 -20.5t-68.5 -7.5q-90 0 -142 59
t-52 157t52 157.5t142 59.5q38 0 67.5 -6.5t47.5 -19.5v-103q-14 14 -45 23t-64 9q-48 0 -71 -29.5t-23 -90.5q0 -57 24 -88t68 -31q32 0 64 9t49 22v-100z" />
    <glyph glyph-name="ordfeminine" unicode="&#xaa;" horiz-adv-x="446" 
d="M296 479q-21 -20 -49.5 -30.5t-60.5 -10.5q-50 0 -75.5 35.5t-10.5 84.5q14 48 64 73.5t131 25.5h39q1 3 1.5 6t1.5 6q6 24 -7 35t-47 11q-32 0 -62.5 -5t-60.5 -16l24 90q33 9 65 13.5t64 4.5q81 0 111.5 -39.5t9.5 -116.5l-54 -201h-78l-4 33zM285 591q-40 0 -60 -8.5
t-25 -29.5q-4 -17 5.5 -27t28.5 -10q23 0 45 8.5t33 19.5l13 47h-40zM395 374l-28 -101h-336l28 101h336z" />
    <glyph glyph-name="guillemotleft" unicode="&#xab;" horiz-adv-x="698" 
d="M272 75l-70 -75l-193 228l20 77l319 240l37 -86l-266 -201zM581 75l-70 -75l-193 228l20 77l319 240l37 -86l-266 -201z" />
    <glyph glyph-name="logicalnot" unicode="&#xac;" horiz-adv-x="724" 
d="M85 323h524l-84 -313h-110l56 212h-414z" />
    <glyph glyph-name="hyphensoft" unicode="&#xad;" horiz-adv-x="436" 
d="M380 323l-28 -101h-336l28 101h336z" />
    <glyph glyph-name="registered" unicode="&#xae;" horiz-adv-x="741" 
d="M398 826q140 0 230.5 -93t90.5 -237q0 -143 -90.5 -236t-230.5 -93q-139 0 -229.5 93t-90.5 236q0 144 90.5 237t229.5 93zM398 733q-98 0 -162.5 -67t-64.5 -170q0 -102 64.5 -169t162.5 -67q99 0 163.5 67t64.5 169q0 103 -64.5 170t-163.5 67zM357 448v-100h-76v304
h104q66 0 99.5 -25t33.5 -74q0 -27 -13.5 -48t-37.5 -34l74 -123h-94l-51 101q-3 -1 -8 -1h-15h-16zM385 584h-28v-68h24q28 0 43.5 9t15.5 26q0 16 -14.5 24.5t-40.5 8.5z" />
    <glyph glyph-name="macron" unicode="&#xaf;" horiz-adv-x="402" 
d="M501 791l-25 -92h-322l25 92h322z" />
    <glyph glyph-name="degree" unicode="&#xb0;" horiz-adv-x="482" 
d="M107 589q22 86 84 135.5t150 49.5q82 0 124.5 -57.5t19.5 -140.5q-22 -83 -87 -133.5t-148 -50.5q-82 0 -123 56.5t-20 140.5zM384 576q12 44 -6.5 71t-61.5 27q-38 0 -67.5 -23.5t-39.5 -61.5q-11 -43 7 -69.5t59 -26.5q37 0 68 23.5t41 59.5z" />
    <glyph glyph-name="plusminus" unicode="&#xb1;" horiz-adv-x="724" 
d="M552 111l-27 -101h-524l27 101h206l37 138h-206l27 100h206l49 185h110l-49 -185h206l-27 -100h-206l-37 -138h208z" />
    <glyph glyph-name="twosuperior" unicode="&#xb2;" horiz-adv-x="443" 
d="M377 359l-23 -86h-333l26 96q15 11 72.5 52.5t86.5 62.5q68 51 97.5 81.5t36.5 56.5q7 29 -11 45t-58 16q-35 0 -73 -10.5t-70 -29.5l25 93q33 16 74.5 25.5t80.5 9.5q77 0 113.5 -42t16.5 -113q-13 -48 -72.5 -105.5t-191.5 -149.5l1 -2h202z" />
    <glyph glyph-name="threesuperior" unicode="&#xb3;" horiz-adv-x="433" 
d="M398 400q-15 -62 -79.5 -98t-160.5 -36q-41 0 -72 6t-51 17l26 97q12 -7 26.5 -12.5t33.5 -9.5q16 -4 32 -6t32 -2q46 0 77 17t39 46q8 30 -16 44.5t-90 14.5h-56l24 89h68q48 0 79 16t39 45q7 26 -10.5 39t-59.5 13q-17 0 -35 -2.5t-37 -8.5q-20 -5 -37 -12t-31 -15
l27 100q28 13 68 20.5t82 7.5q78 0 115.5 -39t20.5 -100q-9 -33 -39 -62t-68 -42v-2q34 -9 49 -44t4 -81z" />
    <glyph glyph-name="acute" unicode="&#xb4;" horiz-adv-x="301" 
d="M428 822l-245 -176l-47 60l213 197z" />
    <glyph glyph-name="mu.math" unicode="&#xb5;" 
d="M146 -11q-13 0 -25 1t-23 4l-58 -218h-112l126 470v0l80 299h112l-92 -345q-17 -61 -5.5 -86t54.5 -25q38 0 83.5 16t67.5 38l108 402h112l-146 -545h-112l11 40l-2 3q-46 -27 -90.5 -40.5t-88.5 -13.5z" />
    <glyph glyph-name="paragraph" unicode="&#xb6;" horiz-adv-x="698" 
d="M501 763l-225 -841h-112l94 351q-47 0 -87 23t-65 64q-22 37 -27.5 82.5t6.5 94.5q28 112 105 169t199 57h112zM591 763h112l-225 -841h-112z" />
    <glyph glyph-name="periodcentered" unicode="&#xb7;" horiz-adv-x="256" 
d="M170 273q-8 -32 -37.5 -55t-61.5 -23t-48.5 23t-8.5 55q9 32 38 55t61 23t49 -23t8 -55z" />
    <glyph glyph-name="cedilla" unicode="&#xb8;" horiz-adv-x="237" 
d="M130 -56q-16 -59 -61.5 -91t-106.5 -32q-18 0 -33.5 2t-28.5 6q6 23 12.5 46t12.5 46q11 -4 23 -6t24 -2q22 0 38.5 11t21.5 30t-1 36t-17 23l90 23q19 -18 26 -42.5t0 -49.5z" />
    <glyph glyph-name="onesuperior" unicode="&#xb9;" horiz-adv-x="406" 
d="M361 362l-24 -89h-312l24 89h106l69 256h-110l20 78q15 0 28 1.5t24 4.5q14 3 25 8.5t21 12.5q12 9 20 19t10 21h100l-107 -401h106z" />
    <glyph glyph-name="ordmasculine" unicode="&#xba;" horiz-adv-x="466" 
d="M458 597q-20 -76 -75.5 -118t-135.5 -41q-83 2 -120 60t-13 149q19 73 73.5 113.5t132.5 39.5q86 -1 123.5 -57t14.5 -146zM356 604q13 55 -0.5 83.5t-51.5 28.5q-32 0 -56.5 -22t-32.5 -59q-13 -55 0 -83.5t52 -29.5q32 -1 56 21.5t33 60.5zM400 374l-28 -101h-336
l28 101h336z" />
    <glyph glyph-name="guillemotright" unicode="&#xbb;" horiz-adv-x="698" 
d="M77 467l70 78l192 -227l-20 -77l-318 -241l-38 90l264 198zM387 467l70 78l192 -227l-20 -77l-318 -241l-38 90l264 198z" />
    <glyph glyph-name="onequarter" unicode="&#xbc;" horiz-adv-x="1121" 
d="M373 362l-24 -89h-312l24 89h106l69 256h-110l20 78q15 0 28 1.5t24 4.5q14 3 25 8.5t21 12.5q12 9 20 19t10 21h100l-107 -401h106zM936 763l-582 -763h-132l582 763h132zM830 0l29 109h-234l22 82l294 299h121l-79 -297h60l-23 -84h-60l-29 -109h-101zM757 195l2 -2
h123l35 118q1 4 6.5 22t14.5 51h-2l-10.5 -13t-20.5 -24q-8 -10 -16.5 -19t-16.5 -17z" />
    <glyph glyph-name="onehalf" unicode="&#xbd;" horiz-adv-x="1154" 
d="M373 362l-24 -89h-312l24 89h106l69 256h-110l20 78q15 0 28 1.5t24 4.5q14 3 25 8.5t21 12.5q12 9 20 19t10 21h100l-107 -401h106zM947 763l-582 -763h-132l582 763h132zM1050 86l-23 -86h-333l26 96q15 11 72.5 52.5t86.5 62.5q68 51 97.5 81.5t36.5 56.5q7 29 -11 45
t-58 16q-35 0 -73 -10.5t-70 -29.5l25 93q33 16 74.5 25.5t80.5 9.5q77 0 113.5 -42t16.5 -113q-13 -48 -72.5 -105.5t-191.5 -149.5l1 -2h202z" />
    <glyph glyph-name="threequarters" unicode="&#xbe;" horiz-adv-x="1107" 
d="M403 400q-15 -62 -79.5 -98t-160.5 -36q-41 0 -72 6t-51 17l26 97q12 -7 26.5 -12.5t33.5 -9.5q16 -4 32 -6t32 -2q46 0 77 17t39 46q8 30 -16 44.5t-90 14.5h-56l24 89h68q48 0 79 16t39 45q7 26 -10.5 39t-59.5 13q-17 0 -35 -2.5t-37 -8.5q-20 -5 -37 -12t-31 -15
l27 100q28 13 68 20.5t82 7.5q78 0 115.5 -39t20.5 -100q-9 -33 -39 -62t-68 -42v-2q34 -9 49 -44t4 -81zM925 763l-582 -763h-132l582 763h132zM816 0l29 109h-234l22 82l294 299h121l-79 -297h60l-23 -84h-60l-29 -109h-101zM743 195l2 -2h123l35 118q1 4 6.5 22t14.5 51
h-2l-10.5 -13t-20.5 -24q-8 -10 -16.5 -19t-16.5 -17z" />
    <glyph glyph-name="questiondown" unicode="&#xbf;" horiz-adv-x="486" 
d="M269 473q8 32 37.5 55t61.5 23t48.5 -23t8.5 -55q-9 -32 -38 -55t-61 -23t-49 23t-8 55zM-14 -42q11 36 35.5 70t90.5 92q76 67 106 110t43 92h109q-15 -62 -51 -116.5t-122 -131.5q-54 -48 -71.5 -71t-22.5 -45q-10 -44 11 -67.5t68 -23.5q44 0 94 17t88 45l-30 -111
q-41 -25 -91 -38.5t-100 -13.5q-88 0 -134 55.5t-23 136.5z" />
    <glyph glyph-name="Agrave" unicode="&#xc0;" horiz-adv-x="685" 
d="M221 952l74 94l201 -160l-54 -61zM158 175l-99 -175h-131l447 763h141l37 -763h-121l-5 175h-269zM417 642q-56 -106 -70.5 -132.5t-28.5 -51.5l-98 -174h204l-3 175q-1 105 -1 135.5v47.5h-3z" />
    <glyph glyph-name="Aacute" unicode="&#xc1;" horiz-adv-x="685" 
d="M707 948l-265 -123l-29 69l242 155zM158 175l-99 -175h-131l447 763h141l37 -763h-121l-5 175h-269zM417 642q-56 -106 -70.5 -132.5t-28.5 -51.5l-98 -174h204l-3 175q-1 105 -1 135.5v47.5h-3z" />
    <glyph glyph-name="Acircumflex" unicode="&#xc2;" horiz-adv-x="685" 
d="M500 933l-168 -116l-42 65l184 149h85l106 -160l-66 -54zM158 175l-99 -175h-131l447 763h141l37 -763h-121l-5 175h-269zM417 642q-56 -106 -70.5 -132.5t-28.5 -51.5l-98 -174h204l-3 175q-1 105 -1 135.5v47.5h-3z" />
    <glyph glyph-name="Atilde" unicode="&#xc3;" horiz-adv-x="685" 
d="M668 998q-12 -78 -41 -113.5t-82 -35.5q-17 0 -35.5 7t-49.5 28q-21 14 -30 18t-16 4q-14 0 -23 -14.5t-14 -44.5h-79q12 78 41 113.5t81 35.5q19 0 38.5 -7t51.5 -28q19 -13 27.5 -16.5t15.5 -3.5q14 0 23 14t13 43h79zM158 175l-99 -175h-131l447 763h141l37 -763h-121
l-5 175h-269zM417 642q-56 -106 -70.5 -132.5t-28.5 -51.5l-98 -174h204l-3 175q-1 105 -1 135.5v47.5h-3z" />
    <glyph glyph-name="Adieresis" unicode="&#xc4;" horiz-adv-x="685" 
d="M695 941q-9 -33 -37 -55.5t-62 -22.5q-33 0 -49.5 22.5t-7.5 55.5t37.5 55.5t61.5 22.5t49.5 -22.5t7.5 -55.5zM445 941q-9 -33 -37 -55.5t-62 -22.5q-33 0 -49.5 22.5t-7.5 55.5t37.5 55.5t61.5 22.5t49.5 -22.5t7.5 -55.5zM158 175l-99 -175h-131l447 763h141l37 -763
h-121l-5 175h-269zM417 642q-56 -106 -70.5 -132.5t-28.5 -51.5l-98 -174h204l-3 175q-1 105 -1 135.5v47.5h-3z" />
    <glyph glyph-name="Aring" unicode="&#xc5;" horiz-adv-x="685" 
d="M515 1044q75 -1 112.5 -39t22.5 -92q-15 -52 -66 -82t-123 -29q-76 1 -113.5 38.5t-22.5 91.5q15 53 66 83t124 29zM492 969q-31 0 -51.5 -11t-25.5 -29q-6 -24 11 -38t54 -14q32 0 54 11t26 28q6 24 -12 38.5t-56 14.5zM158 175l-99 -175h-131l447 763h141l37 -763h-121
l-5 175h-269zM417 642q-56 -106 -70.5 -132.5t-28.5 -51.5l-98 -174h204l-3 175q-1 105 -1 135.5v47.5h-3z" />
    <glyph glyph-name="AE" unicode="&#xc6;" horiz-adv-x="934" 
d="M-91 0l566 763h474l-29 -109h-275l-55 -207h260l-29 -109h-260l-62 -229h302l-29 -109h-423l47 175h-217l-124 -175h-146zM520 656l-264 -372h169l99 372h-4z" />
    <glyph glyph-name="Ccedilla" unicode="&#xc7;" horiz-adv-x="629" 
d="M352 -56q-16 -59 -61.5 -91t-106.5 -32q-18 0 -33.5 2t-28.5 6q6 23 12.5 46t12.5 46q11 -4 23 -6t24 -2q22 0 38.5 11t21.5 30q2 9 2 18.5t-3 16.5q-73 4 -124 44t-74 110q-19 57 -17 128.5t25 152.5q46 161 159.5 255.5t265.5 94.5q54 0 103 -14t75 -38l-31 -117
q-34 29 -77 44.5t-88 15.5q-99 0 -179.5 -70.5t-111.5 -185.5q-39 -148 -3 -229t137 -81q47 0 101 17.5t108 50.5l-32 -123q-31 -18 -66.5 -30t-72.5 -18q4 -12 4.5 -25.5t-3.5 -26.5z" />
    <glyph glyph-name="Egrave" unicode="&#xc8;" horiz-adv-x="573" 
d="M206 952l74 94l201 -160l-54 -61zM440 109l-29 -109h-423l204 763h396l-29 -109h-275l-55 -207h260l-29 -109h-260l-62 -229h302z" />
    <glyph glyph-name="Eacute" unicode="&#xc9;" horiz-adv-x="573" 
d="M629 948l-265 -123l-29 69l242 155zM440 109l-29 -109h-423l204 763h396l-29 -109h-275l-55 -207h260l-29 -109h-260l-62 -229h302z" />
    <glyph glyph-name="Ecircumflex" unicode="&#xca;" horiz-adv-x="573" 
d="M454 933l-168 -116l-42 65l184 149h85l106 -160l-66 -54zM440 109l-29 -109h-423l204 763h396l-29 -109h-275l-55 -207h260l-29 -109h-260l-62 -229h302z" />
    <glyph glyph-name="Edieresis" unicode="&#xcb;" horiz-adv-x="573" 
d="M649 941q-9 -33 -37 -55.5t-62 -22.5q-33 0 -49.5 22.5t-7.5 55.5t37.5 55.5t61.5 22.5t49.5 -22.5t7.5 -55.5zM399 941q-9 -33 -37 -55.5t-62 -22.5q-33 0 -49.5 22.5t-7.5 55.5t37.5 55.5t61.5 22.5t49.5 -22.5t7.5 -55.5zM440 109l-29 -109h-423l204 763h396l-29 -109
h-275l-55 -207h260l-29 -109h-260l-62 -229h302z" />
    <glyph glyph-name="Igrave" unicode="&#xcc;" horiz-adv-x="494" 
d="M138 952l74 94l201 -160l-54 -61zM351 109l-29 -109h-354l29 109h117l146 545h-117l29 109h354l-29 -109h-117l-146 -545h117z" />
    <glyph glyph-name="Iacute" unicode="&#xcd;" horiz-adv-x="494" 
d="M622 948l-265 -123l-29 69l242 155zM351 109l-29 -109h-354l29 109h117l146 545h-117l29 109h354l-29 -109h-117l-146 -545h117z" />
    <glyph glyph-name="Icircumflex" unicode="&#xce;" horiz-adv-x="494" 
d="M405 933l-168 -116l-42 65l184 149h85l106 -160l-66 -54zM351 109l-29 -109h-354l29 109h117l146 545h-117l29 109h354l-29 -109h-117l-146 -545h117z" />
    <glyph glyph-name="Idieresis" unicode="&#xcf;" horiz-adv-x="494" 
d="M600 941q-9 -33 -37 -55.5t-62 -22.5q-33 0 -49.5 22.5t-7.5 55.5t37.5 55.5t61.5 22.5t49.5 -22.5t7.5 -55.5zM350 941q-9 -33 -37 -55.5t-62 -22.5q-33 0 -49.5 22.5t-7.5 55.5t37.5 55.5t61.5 22.5t49.5 -22.5t7.5 -55.5zM351 109l-29 -109h-354l29 109h117l146 545
h-117l29 109h354l-29 -109h-117l-146 -545h117z" />
    <glyph glyph-name="Eth" unicode="&#xd0;" horiz-adv-x="724" 
d="M667 354q-41 -158 -155.5 -256t-265.5 -98h-258l91 342h-83l28 101h82l86 320h234q158 0 223.5 -112t17.5 -297zM138 109h137q95 0 169.5 68.5t102.5 177.5q36 141 -3 220t-147 79h-113l-57 -211h133l-28 -101h-132z" />
    <glyph glyph-name="Ntilde" unicode="&#xd1;" horiz-adv-x="762" 
d="M705 999q-12 -78 -41 -113.5t-82 -35.5q-17 0 -35.5 7t-49.5 28q-21 14 -30 18t-16 4q-14 0 -23 -14.5t-14 -44.5h-79q12 78 41 113.5t81 35.5q19 0 38.5 -7t51.5 -28q19 -13 27.5 -16.5t15.5 -3.5q14 0 23 14t13 43h79zM233 463l-124 -463h-121l204 763h121l158 -468
q7 -20 14 -49t14 -67h4q7 38 13.5 68t12.5 53l124 463h121l-204 -763h-121l-157 468q-9 26 -16 55t-12 61h-4q-6 -32 -12.5 -62t-14.5 -59z" />
    <glyph glyph-name="Ograve" unicode="&#xd2;" horiz-adv-x="785" 
d="M283 952l74 94l201 -160l-54 -61zM33 255q-1 89 32.5 183.5t93.5 169.5q65 81 150 123.5t181 42.5q124 0 193.5 -69t71.5 -197q1 -89 -32.5 -183.5t-93.5 -169.5q-65 -81 -150 -123.5t-181 -42.5q-124 0 -193.5 69t-71.5 197zM470 665q-101 0 -182.5 -79t-115.5 -205
q-34 -127 5.5 -205t140.5 -78t182.5 79t115.5 205q34 127 -5.5 205t-140.5 78z" />
    <glyph glyph-name="Oacute" unicode="&#xd3;" horiz-adv-x="785" 
d="M754 948l-265 -123l-29 69l242 155zM33 255q-1 89 32.5 183.5t93.5 169.5q65 81 150 123.5t181 42.5q124 0 193.5 -69t71.5 -197q1 -89 -32.5 -183.5t-93.5 -169.5q-65 -81 -150 -123.5t-181 -42.5q-124 0 -193.5 69t-71.5 197zM470 665q-101 0 -182.5 -79t-115.5 -205
q-34 -127 5.5 -205t140.5 -78t182.5 79t115.5 205q34 127 -5.5 205t-140.5 78z" />
    <glyph glyph-name="Ocircumflex" unicode="&#xd4;" horiz-adv-x="785" 
d="M551 933l-168 -116l-42 65l184 149h85l106 -160l-66 -54zM33 255q-1 89 32.5 183.5t93.5 169.5q65 81 150 123.5t181 42.5q124 0 193.5 -69t71.5 -197q1 -89 -32.5 -183.5t-93.5 -169.5q-65 -81 -150 -123.5t-181 -42.5q-124 0 -193.5 69t-71.5 197zM470 665
q-101 0 -182.5 -79t-115.5 -205q-34 -127 5.5 -205t140.5 -78t182.5 79t115.5 205q34 127 -5.5 205t-140.5 78z" />
    <glyph glyph-name="Otilde" unicode="&#xd5;" horiz-adv-x="785" 
d="M723 998q-12 -78 -41 -113.5t-82 -35.5q-17 0 -35.5 7t-49.5 28q-21 14 -30 18t-16 4q-14 0 -23 -14.5t-14 -44.5h-79q12 78 41 113.5t81 35.5q19 0 38.5 -7t51.5 -28q19 -13 27.5 -16.5t15.5 -3.5q14 0 23 14t13 43h79zM33 255q-1 89 32.5 183.5t93.5 169.5
q65 81 150 123.5t181 42.5q124 0 193.5 -69t71.5 -197q1 -89 -32.5 -183.5t-93.5 -169.5q-65 -81 -150 -123.5t-181 -42.5q-124 0 -193.5 69t-71.5 197zM470 665q-101 0 -182.5 -79t-115.5 -205q-34 -127 5.5 -205t140.5 -78t182.5 79t115.5 205q34 127 -5.5 205t-140.5 78z
" />
    <glyph glyph-name="Odieresis" unicode="&#xd6;" horiz-adv-x="785" 
d="M746 941q-9 -33 -37 -55.5t-62 -22.5q-33 0 -49.5 22.5t-7.5 55.5t37.5 55.5t61.5 22.5t49.5 -22.5t7.5 -55.5zM496 941q-9 -33 -37 -55.5t-62 -22.5q-33 0 -49.5 22.5t-7.5 55.5t37.5 55.5t61.5 22.5t49.5 -22.5t7.5 -55.5zM33 255q-1 89 32.5 183.5t93.5 169.5
q65 81 150 123.5t181 42.5q124 0 193.5 -69t71.5 -197q1 -89 -32.5 -183.5t-93.5 -169.5q-65 -81 -150 -123.5t-181 -42.5q-124 0 -193.5 69t-71.5 197zM470 665q-101 0 -182.5 -79t-115.5 -205q-34 -127 5.5 -205t140.5 -78t182.5 79t115.5 205q34 127 -5.5 205t-140.5 78z
" />
    <glyph glyph-name="multiply" unicode="&#xd7;" horiz-adv-x="666" 
d="M495 114l-95 -74l-116 158l-200 -158l-55 74l201 158l-116 158l94 75l116 -158l200 158l54 -75l-199 -157z" />
    <glyph glyph-name="Oslash" unicode="&#xd8;" horiz-adv-x="785" 
d="M297 -11q-56 0 -102 14.5t-79 42.5l-66 -66l-62 60l75 74q-15 29 -22.5 64.5t-8.5 76.5q-1 89 32.5 183.5t93.5 169.5q65 81 150 123.5t181 42.5q56 0 101.5 -14.5t78.5 -41.5l65 65l62 -60l-73 -73q14 -29 22 -64.5t9 -77.5q1 -89 -32.5 -183.5t-93.5 -169.5
q-65 -81 -150 -123.5t-181 -42.5zM171 381q-13 -49 -15 -91.5t6 -75.5l417 414q-20 18 -48 27.5t-62 9.5q-101 0 -182.5 -79t-115.5 -205zM615 382q13 49 15 92t-7 77l-417 -415q20 -18 48 -28t63 -10q101 0 182.5 79t115.5 205z" />
    <glyph glyph-name="Ugrave" unicode="&#xd9;" horiz-adv-x="762" 
d="M251 952l74 94l201 -160l-54 -61zM555 99q-46 -58 -111.5 -84.5t-157.5 -25.5q-148 3 -198.5 98t-0.5 281l105 395h121l-103 -386q-40 -150 -19 -213t116 -64q62 0 104 20t70 65q17 27 31.5 66t37.5 126l103 386h121l-102 -386q-29 -107 -56 -171t-61 -107z" />
    <glyph glyph-name="Uacute" unicode="&#xda;" horiz-adv-x="762" 
d="M753 948l-265 -123l-29 69l242 155zM555 99q-46 -58 -111.5 -84.5t-157.5 -25.5q-148 3 -198.5 98t-0.5 281l105 395h121l-103 -386q-40 -150 -19 -213t116 -64q62 0 104 20t70 65q17 27 31.5 66t37.5 126l103 386h121l-102 -386q-29 -107 -56 -171t-61 -107z" />
    <glyph glyph-name="Ucircumflex" unicode="&#xdb;" horiz-adv-x="762" 
d="M539 933l-168 -116l-42 65l184 149h85l106 -160l-66 -54zM555 99q-46 -58 -111.5 -84.5t-157.5 -25.5q-148 3 -198.5 98t-0.5 281l105 395h121l-103 -386q-40 -150 -19 -213t116 -64q62 0 104 20t70 65q17 27 31.5 66t37.5 126l103 386h121l-102 -386q-29 -107 -56 -171
t-61 -107z" />
    <glyph glyph-name="Udieresis" unicode="&#xdc;" horiz-adv-x="762" 
d="M734 941q-9 -33 -37 -55.5t-62 -22.5q-33 0 -49.5 22.5t-7.5 55.5t37.5 55.5t61.5 22.5t49.5 -22.5t7.5 -55.5zM484 941q-9 -33 -37 -55.5t-62 -22.5q-33 0 -49.5 22.5t-7.5 55.5t37.5 55.5t61.5 22.5t49.5 -22.5t7.5 -55.5zM555 99q-46 -58 -111.5 -84.5t-157.5 -25.5
q-148 3 -198.5 98t-0.5 281l105 395h121l-103 -386q-40 -150 -19 -213t116 -64q62 0 104 20t70 65q17 27 31.5 66t37.5 126l103 386h121l-102 -386q-29 -107 -56 -171t-61 -107z" />
    <glyph glyph-name="Yacute" unicode="&#xdd;" horiz-adv-x="625" 
d="M691 948l-265 -123l-29 69l242 155zM364 348l-93 -348h-120l93 348l-148 415h127l81 -238q6 -18 11 -36.5t8 -37.5h3q12 19 25 37t26 34l199 241h145z" />
    <glyph glyph-name="Thorn" unicode="&#xde;" horiz-adv-x="609" 
d="M220 136h-75l-36 -136h-121l204 763h121l-30 -114h72q131 0 190 -74t26 -199q-30 -114 -123.5 -177t-227.5 -63zM326 540h-73l-78 -295h61q90 0 142.5 34t72.5 102q20 79 -12 119t-113 40z" />
    <glyph glyph-name="germandbls" unicode="&#xdf;" horiz-adv-x="744" 
d="M18 0l121 450h-81l25 95h81q34 129 108 192.5t190 63.5q96 0 141 -46.5t26 -126.5q-9 -36 -32 -68t-81 -78q-39 -31 -52 -46.5t-17 -31.5q-5 -22 7 -40t61 -45q39 -22 56.5 -36t29.5 -29q15 -21 20 -47t0 -57q-12 -77 -76.5 -119t-168.5 -42q-47 0 -89 11t-65 29l28 107
q10 -12 26.5 -22.5t40.5 -17.5q18 -6 37.5 -9t40.5 -3q47 0 75.5 14.5t35.5 42.5q6 22 -7 40.5t-65 47.5q-38 22 -55 35.5t-28 27.5q-16 21 -20 45.5t3 54.5q9 38 31 69t78 75q41 32 56 51t20 39q10 36 -11.5 56t-69.5 20q-61 0 -100 -37t-60 -116l-147 -549h-113z" />
    <glyph glyph-name="agrave" unicode="&#xe0;" horiz-adv-x="566" 
d="M254 897l141 -195l-56 -55l-176 177zM296 51q-31 -28 -73.5 -45t-85.5 -17q-71 0 -108.5 46.5t-27.5 120.5q12 86 81 130.5t192 44.5h86q1 3 2.5 7t3.5 14q15 57 -9 80.5t-93 23.5q-44 0 -87.5 -8.5t-83.5 -25.5l30 110q39 12 82 18t90 6q130 0 167 -62t-2 -208l-77 -286
h-81l-4 50zM273 248q-74 0 -113 -20.5t-46 -63.5q-7 -39 10 -60.5t54 -21.5q39 0 79.5 17.5t60.5 41.5l28 107h-73z" />
    <glyph glyph-name="aacute" unicode="&#xe1;" horiz-adv-x="566" 
d="M570 822l-245 -176l-47 60l213 197zM296 51q-31 -28 -73.5 -45t-85.5 -17q-71 0 -108.5 46.5t-27.5 120.5q12 86 81 130.5t192 44.5h86q1 3 2.5 7t3.5 14q15 57 -9 80.5t-93 23.5q-44 0 -87.5 -8.5t-83.5 -25.5l30 110q39 12 82 18t90 6q130 0 167 -62t-2 -208l-77 -286
h-81l-4 50zM273 248q-74 0 -113 -20.5t-46 -63.5q-7 -39 10 -60.5t54 -21.5q39 0 79.5 17.5t60.5 41.5l28 107h-73z" />
    <glyph glyph-name="acircumflex" unicode="&#xe2;" horiz-adv-x="566" 
d="M370 760l-138 -123l-53 51l168 175h85l77 -181l-74 -45zM296 51q-31 -28 -73.5 -45t-85.5 -17q-71 0 -108.5 46.5t-27.5 120.5q12 86 81 130.5t192 44.5h86q1 3 2.5 7t3.5 14q15 57 -9 80.5t-93 23.5q-44 0 -87.5 -8.5t-83.5 -25.5l30 110q39 12 82 18t90 6
q130 0 167 -62t-2 -208l-77 -286h-81l-4 50zM273 248q-74 0 -113 -20.5t-46 -63.5q-7 -39 10 -60.5t54 -21.5q39 0 79.5 17.5t60.5 41.5l28 107h-73z" />
    <glyph glyph-name="atilde" unicode="&#xe3;" horiz-adv-x="566" 
d="M549 839q-15 -93 -53.5 -138.5t-94.5 -37.5q-16 2 -30.5 12.5t-33.5 37.5q-13 17 -19.5 22.5t-12.5 5.5q-14 1 -26 -18t-23 -58h-82q15 92 54 137t94 37q17 -2 31.5 -12.5t34.5 -37.5q12 -17 18 -22t12 -5q14 -1 26 18t23 59h82zM296 51q-31 -28 -73.5 -45t-85.5 -17
q-71 0 -108.5 46.5t-27.5 120.5q12 86 81 130.5t192 44.5h86q1 3 2.5 7t3.5 14q15 57 -9 80.5t-93 23.5q-44 0 -87.5 -8.5t-83.5 -25.5l30 110q39 12 82 18t90 6q130 0 167 -62t-2 -208l-77 -286h-81l-4 50zM273 248q-74 0 -113 -20.5t-46 -63.5q-7 -39 10 -60.5t54 -21.5
q39 0 79.5 17.5t60.5 41.5l28 107h-73z" />
    <glyph glyph-name="adieresis" unicode="&#xe4;" horiz-adv-x="566" 
d="M486 852q33 0 49.5 -22.5t7.5 -55.5t-37 -55.5t-62 -22.5q-33 0 -49.5 22.5t-7.5 55.5t37.5 55.5t61.5 22.5zM266 852q33 0 49.5 -22.5t7.5 -55.5t-37 -55.5t-62 -22.5q-33 0 -49.5 22.5t-7.5 55.5t37.5 55.5t61.5 22.5zM296 51q-31 -28 -73.5 -45t-85.5 -17
q-71 0 -108.5 46.5t-27.5 120.5q12 86 81 130.5t192 44.5h86q1 3 2.5 7t3.5 14q15 57 -9 80.5t-93 23.5q-44 0 -87.5 -8.5t-83.5 -25.5l30 110q39 12 82 18t90 6q130 0 167 -62t-2 -208l-77 -286h-81l-4 50zM273 248q-74 0 -113 -20.5t-46 -63.5q-7 -39 10 -60.5t54 -21.5
q39 0 79.5 17.5t60.5 41.5l28 107h-73z" />
    <glyph glyph-name="aring" unicode="&#xe5;" horiz-adv-x="566" 
d="M407 903q58 -2 85.5 -41.5t11.5 -100.5q-13 -50 -57.5 -83.5t-98.5 -32.5q-56 2 -82.5 42t-11.5 101q13 50 57 83.5t96 31.5zM391 829q-24 1 -43.5 -14.5t-23.5 -40.5q-4 -24 7.5 -39t35.5 -16t43 15t24 40t-7 39t-36 16zM296 51q-31 -28 -73.5 -45t-85.5 -17
q-71 0 -108.5 46.5t-27.5 120.5q12 86 81 130.5t192 44.5h86q1 3 2.5 7t3.5 14q15 57 -9 80.5t-93 23.5q-44 0 -87.5 -8.5t-83.5 -25.5l30 110q39 12 82 18t90 6q130 0 167 -62t-2 -208l-77 -286h-81l-4 50zM273 248q-74 0 -113 -20.5t-46 -63.5q-7 -39 10 -60.5t54 -21.5
q39 0 79.5 17.5t60.5 41.5l28 107h-73z" />
    <glyph glyph-name="ae" unicode="&#xe6;" horiz-adv-x="878" 
d="M710 29q-51 -21 -92 -30.5t-79 -9.5q-66 0 -113 26t-71 74q-63 -56 -116 -78t-107 -22q-71 0 -108.5 46.5t-27.5 120.5q12 84 79.5 125t193.5 41h84q1 4 2.5 8.5t2.5 8.5q1 6 2 8.5t1 4.5q15 57 -9 80.5t-93 23.5q-44 0 -87.5 -8.5t-83.5 -25.5l30 110q39 12 82 18t90 6
q68 0 109.5 -16t59.5 -49q41 34 91.5 50.5t106.5 14.5q125 -5 157.5 -97.5t-38.5 -224.5h-334q-12 -70 20.5 -108t104.5 -38q36 0 78 10.5t93 32.5zM707 322q28 59 8.5 101.5t-77.5 43.5q-66 2 -112 -35.5t-64 -109.5h245zM115 164q-7 -39 10 -60.5t54 -21.5q39 0 82.5 19.5
t74.5 50.5q-3 20 -3 41t2 44h-61q-78 0 -115 -16.5t-44 -56.5z" />
    <glyph glyph-name="ccedilla" unicode="&#xe7;" horiz-adv-x="494" 
d="M239 -56q-16 -59 -61.5 -91t-106.5 -32q-18 0 -33.5 2t-28.5 6q6 23 12.5 46t12.5 46q11 -4 23 -6t24 -2q22 0 38.5 11t21.5 30q3 12 1.5 23.5t-5.5 20.5q-80 23 -109.5 104t-1.5 198q32 126 110.5 191t199.5 65q43 0 80 -8.5t56 -23.5l-29 -108q-23 19 -54 29t-66 10
q-73 0 -120 -43t-67 -130q-20 -88 4.5 -138t88.5 -54q36 -2 80 10t75 31l-28 -105q-28 -14 -57.5 -22.5t-58.5 -12.5q3 -11 2.5 -23t-3.5 -24z" />
    <glyph glyph-name="egrave" unicode="&#xe8;" horiz-adv-x="559" 
d="M270 897l141 -195l-56 -55l-176 177zM390 29q-51 -21 -92 -30.5t-79 -9.5q-115 0 -169 76t-30 204q25 138 112 215t205 72q125 -5 157.5 -100t-38.5 -227h-334q-12 -69 20 -105t105 -36q36 0 78 10.5t93 32.5zM387 317q28 59 8.5 104t-77.5 46q-64 2 -110.5 -37.5
t-65.5 -112.5h245z" />
    <glyph glyph-name="eacute" unicode="&#xe9;" horiz-adv-x="559" 
d="M605 822l-245 -176l-47 60l213 197zM390 29q-51 -21 -92 -30.5t-79 -9.5q-115 0 -169 76t-30 204q25 138 112 215t205 72q125 -5 157.5 -100t-38.5 -227h-334q-12 -69 20 -105t105 -36q36 0 78 10.5t93 32.5zM387 317q28 59 8.5 104t-77.5 46q-64 2 -110.5 -37.5
t-65.5 -112.5h245z" />
    <glyph glyph-name="ecircumflex" unicode="&#xea;" horiz-adv-x="559" 
d="M399 759l-138 -123l-53 51l168 175h85l77 -181l-74 -45zM390 29q-51 -21 -92 -30.5t-79 -9.5q-115 0 -169 76t-30 204q25 138 112 215t205 72q125 -5 157.5 -100t-38.5 -227h-334q-12 -69 20 -105t105 -36q36 0 78 10.5t93 32.5zM387 317q28 59 8.5 104t-77.5 46
q-64 2 -110.5 -37.5t-65.5 -112.5h245z" />
    <glyph glyph-name="edieresis" unicode="&#xeb;" horiz-adv-x="559" 
d="M525 852q33 0 49.5 -22.5t7.5 -55.5t-37 -55.5t-62 -22.5q-33 0 -49.5 22.5t-7.5 55.5t37.5 55.5t61.5 22.5zM305 852q33 0 49.5 -22.5t7.5 -55.5t-37 -55.5t-62 -22.5q-33 0 -49.5 22.5t-7.5 55.5t37.5 55.5t61.5 22.5zM390 29q-51 -21 -92 -30.5t-79 -9.5
q-115 0 -169 76t-30 204q25 138 112 215t205 72q125 -5 157.5 -100t-38.5 -227h-334q-12 -69 20 -105t105 -36q36 0 78 10.5t93 32.5zM387 317q28 59 8.5 104t-77.5 46q-64 2 -110.5 -37.5t-65.5 -112.5h245z" />
    <glyph glyph-name="igrave" unicode="&#xec;" horiz-adv-x="292" 
d="M154 897l141 -195l-56 -55l-176 177zM245 545l-146 -545h-112l146 545h112z" />
    <glyph glyph-name="iacute" unicode="&#xed;" horiz-adv-x="292" 
d="M456 822l-245 -176l-47 60l213 197zM245 545l-146 -545h-112l146 545h112z" />
    <glyph glyph-name="icircumflex" unicode="&#xee;" horiz-adv-x="292" 
d="M265 760l-138 -123l-53 51l168 175h85l77 -181l-74 -45zM245 545l-146 -545h-112l146 545h112z" />
    <glyph glyph-name="idieresis" unicode="&#xef;" horiz-adv-x="292" 
d="M391 852q33 0 49.5 -22.5t7.5 -55.5t-37 -55.5t-62 -22.5q-33 0 -49.5 22.5t-7.5 55.5t37.5 55.5t61.5 22.5zM171 852q33 0 49.5 -22.5t7.5 -55.5t-37 -55.5t-62 -22.5q-33 0 -49.5 22.5t-7.5 55.5t37.5 55.5t61.5 22.5zM245 545l-146 -545h-112l146 545h112z" />
    <glyph glyph-name="eth" unicode="&#xf0;" horiz-adv-x="592" 
d="M519 295q-37 -138 -128 -222t-209 -84q-111 0 -154.5 73t-10.5 196q32 120 111.5 193.5t180.5 73.5q30 0 58 -7t51 -20q-10 36 -28.5 69t-45.5 62l-129 -80l-35 63l110 65q-20 15 -42 28.5t-47 25.5l89 76q28 -15 53.5 -32t47.5 -36l113 75l39 -65l-102 -61
q66 -78 87 -179.5t-9 -213.5zM132 262q-22 -82 0 -126.5t85 -44.5q64 0 110.5 45t68.5 126q23 84 1.5 128t-85.5 44q-65 0 -111 -44.5t-69 -127.5z" />
    <glyph glyph-name="ntilde" unicode="&#xf1;" 
d="M588 839q-15 -93 -53.5 -138.5t-94.5 -37.5q-16 2 -30.5 12.5t-33.5 37.5q-13 17 -19.5 22.5t-12.5 5.5q-14 1 -26 -18t-23 -58h-82q15 92 54 137t94 37q17 -2 31.5 -12.5t34.5 -37.5q12 -17 18 -22t12 -5q14 -1 26 18t23 59h82zM206 398l-107 -398h-112l146 545h112
l-12 -44l3 -3q49 30 93 44t86 14q82 0 108.5 -49t-0.5 -150l-96 -357h-112l86 320q21 77 11.5 106.5t-54.5 29.5q-38 0 -83.5 -17.5t-68.5 -40.5z" />
    <glyph glyph-name="ograve" unicode="&#xf2;" horiz-adv-x="593" 
d="M316 897l141 -195l-56 -55l-176 177zM510 255q-36 -124 -119.5 -195t-195.5 -71q-114 0 -160.5 82.5t-8.5 219.5q34 121 116.5 193t192.5 72q117 0 165.5 -83.5t9.5 -217.5zM401 272q22 82 -2.5 132.5t-87.5 51.5q-59 1 -107.5 -50.5t-69.5 -133.5q-22 -83 1.5 -132.5
t85.5 -50.5q59 -1 108.5 50t71.5 133z" />
    <glyph glyph-name="oacute" unicode="&#xf3;" horiz-adv-x="593" 
d="M624 822l-245 -176l-47 60l213 197zM510 255q-36 -124 -119.5 -195t-195.5 -71q-114 0 -160.5 82.5t-8.5 219.5q34 121 116.5 193t192.5 72q117 0 165.5 -83.5t9.5 -217.5zM401 272q22 82 -2.5 132.5t-87.5 51.5q-59 1 -107.5 -50.5t-69.5 -133.5q-22 -83 1.5 -132.5
t85.5 -50.5q59 -1 108.5 50t71.5 133z" />
    <glyph glyph-name="ocircumflex" unicode="&#xf4;" horiz-adv-x="593" 
d="M416 760l-138 -123l-53 51l168 175h85l77 -181l-74 -45zM510 255q-36 -124 -119.5 -195t-195.5 -71q-114 0 -160.5 82.5t-8.5 219.5q34 121 116.5 193t192.5 72q117 0 165.5 -83.5t9.5 -217.5zM401 272q22 82 -2.5 132.5t-87.5 51.5q-59 1 -107.5 -50.5t-69.5 -133.5
q-22 -83 1.5 -132.5t85.5 -50.5q59 -1 108.5 50t71.5 133z" />
    <glyph glyph-name="otilde" unicode="&#xf5;" horiz-adv-x="593" 
d="M593 839q-15 -93 -53.5 -138.5t-94.5 -37.5q-16 2 -30.5 12.5t-33.5 37.5q-13 17 -19.5 22.5t-12.5 5.5q-14 1 -26 -18t-23 -58h-82q15 92 54 137t94 37q17 -2 31.5 -12.5t34.5 -37.5q12 -17 18 -22t12 -5q14 -1 26 18t23 59h82zM510 255q-36 -124 -119.5 -195
t-195.5 -71q-114 0 -160.5 82.5t-8.5 219.5q34 121 116.5 193t192.5 72q117 0 165.5 -83.5t9.5 -217.5zM401 272q22 82 -2.5 132.5t-87.5 51.5q-59 1 -107.5 -50.5t-69.5 -133.5q-22 -83 1.5 -132.5t85.5 -50.5q59 -1 108.5 50t71.5 133z" />
    <glyph glyph-name="odieresis" unicode="&#xf6;" horiz-adv-x="593" 
d="M542 852q33 0 49.5 -22.5t7.5 -55.5t-37 -55.5t-62 -22.5q-33 0 -49.5 22.5t-7.5 55.5t37.5 55.5t61.5 22.5zM322 852q33 0 49.5 -22.5t7.5 -55.5t-37 -55.5t-62 -22.5q-33 0 -49.5 22.5t-7.5 55.5t37.5 55.5t61.5 22.5zM510 255q-36 -124 -119.5 -195t-195.5 -71
q-114 0 -160.5 82.5t-8.5 219.5q34 121 116.5 193t192.5 72q117 0 165.5 -83.5t9.5 -217.5zM401 272q22 82 -2.5 132.5t-87.5 51.5q-59 1 -107.5 -50.5t-69.5 -133.5q-22 -83 1.5 -132.5t85.5 -50.5q59 -1 108.5 50t71.5 133z" />
    <glyph glyph-name="divide" unicode="&#xf7;" horiz-adv-x="724" 
d="M471 498q-8 -32 -37 -55t-61 -23q-33 0 -49.5 23t-8.5 55q9 32 38 55t61 23q33 0 49.5 -23t7.5 -55zM609 323l-28 -101h-524l28 101h524zM351 47q-9 -32 -38 -55t-61 -23q-33 0 -49.5 23t-7.5 55q8 32 37 55t61 23q33 0 49.5 -23t8.5 -55z" />
    <glyph glyph-name="oslash" unicode="&#xf8;" horiz-adv-x="593" 
d="M194 -11q-36 0 -65.5 8.5t-51.5 24.5l-43 -43l-51 46l49 49q-21 39 -23.5 94.5t16.5 122.5q34 121 116.5 193t192.5 72q41 0 74.5 -11t58.5 -32l51 52l52 -46l-62 -62q17 -39 18 -90.5t-17 -111.5q-36 -124 -119.5 -195t-195.5 -71zM133 272q-8 -30 -10 -56.5t2 -47.5
l257 260q-13 13 -31 20.5t-41 7.5q-59 1 -107.5 -50.5t-69.5 -133.5zM400 272q6 24 8.5 45.5t1.5 40.5l-249 -251q11 -9 26 -13.5t33 -4.5q59 -1 108.5 50t71.5 133z" />
    <glyph glyph-name="ugrave" unicode="&#xf9;" 
d="M351 897l141 -195l-56 -55l-176 177zM328 50q-45 -30 -89.5 -45.5t-87.5 -15.5q-77 0 -107.5 52t-5.5 144l96 360h112l-86 -323q-19 -71 -7.5 -102t55.5 -31q36 0 80.5 18t68.5 43l105 395h112l-146 -545h-112l14 47z" />
    <glyph glyph-name="uacute" unicode="&#xfa;" 
d="M644 822l-245 -176l-47 60l213 197zM328 50q-45 -30 -89.5 -45.5t-87.5 -15.5q-77 0 -107.5 52t-5.5 144l96 360h112l-86 -323q-19 -71 -7.5 -102t55.5 -31q36 0 80.5 18t68.5 43l105 395h112l-146 -545h-112l14 47z" />
    <glyph glyph-name="ucircumflex" unicode="&#xfb;" 
d="M430 760l-138 -123l-53 51l168 175h85l77 -181l-74 -45zM328 50q-45 -30 -89.5 -45.5t-87.5 -15.5q-77 0 -107.5 52t-5.5 144l96 360h112l-86 -323q-19 -71 -7.5 -102t55.5 -31q36 0 80.5 18t68.5 43l105 395h112l-146 -545h-112l14 47z" />
    <glyph glyph-name="udieresis" unicode="&#xfc;" 
d="M556 852q33 0 49.5 -22.5t7.5 -55.5t-37 -55.5t-62 -22.5q-33 0 -49.5 22.5t-7.5 55.5t37.5 55.5t61.5 22.5zM336 852q33 0 49.5 -22.5t7.5 -55.5t-37 -55.5t-62 -22.5q-33 0 -49.5 22.5t-7.5 55.5t37.5 55.5t61.5 22.5zM328 50q-45 -30 -89.5 -45.5t-87.5 -15.5
q-77 0 -107.5 52t-5.5 144l96 360h112l-86 -323q-19 -71 -7.5 -102t55.5 -31q36 0 80.5 18t68.5 43l105 395h112l-146 -545h-112l14 47z" />
    <glyph glyph-name="yacute" unicode="&#xfd;" horiz-adv-x="522" 
d="M579 822l-245 -176l-47 60l213 197zM214 0q-84 -136 -148 -181t-156 -52q-8 -1 -17 -1h-28l27 100q17 0 25 0.5t14 1.5q60 10 102.5 44t68.5 93l-49 540h119l18 -342q2 -36 1.5 -56t-3.5 -25h3q1 5 11.5 25t30.5 56l195 342h127z" />
    <glyph glyph-name="thorn" unicode="&#xfe;" horiz-adv-x="602" 
d="M401 554q80 -13 116 -97t5 -204q-33 -127 -112 -195.5t-191 -68.5q-16 0 -30.5 1t-27.5 4q-20 4 -33.5 9t-20.5 11l-4 -3l-63 -235h-113l272 1015h113l-78 -293l2 -1q33 34 76 49t89 8zM131 116q12 -12 40 -19t65 -7q60 0 104 44t66 126q22 80 5 130t-66 57
q-37 5 -76.5 -10.5t-63.5 -42.5z" />
    <glyph glyph-name="ydieresis" unicode="&#xff;" horiz-adv-x="522" 
d="M506 852q33 0 49.5 -22.5t7.5 -55.5t-37 -55.5t-62 -22.5q-33 0 -49.5 22.5t-7.5 55.5t37.5 55.5t61.5 22.5zM286 852q33 0 49.5 -22.5t7.5 -55.5t-37 -55.5t-62 -22.5q-33 0 -49.5 22.5t-7.5 55.5t37.5 55.5t61.5 22.5zM214 0q-84 -136 -148 -181t-156 -52q-8 -1 -17 -1
h-28l27 100q17 0 25 0.5t14 1.5q60 10 102.5 44t68.5 93l-49 540h119l18 -342q2 -36 1.5 -56t-3.5 -25h3q1 5 11.5 25t30.5 56l195 342h127z" />
    <glyph glyph-name="Amacron" unicode="&#x100;" horiz-adv-x="685" 
d="M682 975l-24 -92h-362l24 92h362zM158 175l-99 -175h-131l447 763h141l37 -763h-121l-5 175h-269zM417 642q-56 -106 -70.5 -132.5t-28.5 -51.5l-98 -174h204l-3 175q-1 105 -1 135.5v47.5h-3z" />
    <glyph glyph-name="amacron" unicode="&#x101;" horiz-adv-x="566" 
d="M546 791l-25 -92h-322l25 92h322zM296 51q-31 -28 -73.5 -45t-85.5 -17q-71 0 -108.5 46.5t-27.5 120.5q12 86 81 130.5t192 44.5h86q1 3 2.5 7t3.5 14q15 57 -9 80.5t-93 23.5q-44 0 -87.5 -8.5t-83.5 -25.5l30 110q39 12 82 18t90 6q130 0 167 -62t-2 -208l-77 -286
h-81l-4 50zM273 248q-74 0 -113 -20.5t-46 -63.5q-7 -39 10 -60.5t54 -21.5q39 0 79.5 17.5t60.5 41.5l28 107h-73z" />
    <glyph glyph-name="Abreve" unicode="&#x102;" horiz-adv-x="685" 
d="M689 1004q-20 -84 -78 -132.5t-142 -48.5q-83 0 -121.5 52t-18.5 129h83q-9 -42 9.5 -66.5t62.5 -24.5q45 0 77 24.5t45 66.5h83zM158 175l-99 -175h-131l447 763h141l37 -763h-121l-5 175h-269zM417 642q-56 -106 -70.5 -132.5t-28.5 -51.5l-98 -174h204l-3 175
q-1 105 -1 135.5v47.5h-3z" />
    <glyph glyph-name="abreve" unicode="&#x103;" horiz-adv-x="566" 
d="M555 832q-20 -82 -74 -131.5t-127 -49.5q-76 0 -108 50.5t-11 130.5h83q-10 -42 3.5 -66.5t48.5 -24.5q36 0 62.5 24t39.5 67h83zM296 51q-31 -28 -73.5 -45t-85.5 -17q-71 0 -108.5 46.5t-27.5 120.5q12 86 81 130.5t192 44.5h86q1 3 2.5 7t3.5 14q15 57 -9 80.5
t-93 23.5q-44 0 -87.5 -8.5t-83.5 -25.5l30 110q39 12 82 18t90 6q130 0 167 -62t-2 -208l-77 -286h-81l-4 50zM273 248q-74 0 -113 -20.5t-46 -63.5q-7 -39 10 -60.5t54 -21.5q39 0 79.5 17.5t60.5 41.5l28 107h-73z" />
    <glyph glyph-name="Aogonek" unicode="&#x104;" horiz-adv-x="685" 
d="M495 -214q-20 -11 -43.5 -16.5t-45.5 -4.5q-43 2 -65 30.5t-13 69.5q8 37 33.5 68t79.5 67h-9l-5 175h-269l-99 -175h-131l447 763h141l37 -763q-44 -22 -77 -55t-37 -58q-2 -17 5.5 -25.5t24.5 -8.5q11 0 23.5 3.5t23.5 9.5zM417 642q-56 -106 -70.5 -132.5t-28.5 -51.5
l-98 -174h204l-3 175q-1 105 -1 135.5v47.5h-3z" />
    <glyph glyph-name="aogonek" unicode="&#x105;" horiz-adv-x="566" 
d="M325 -214q-20 -11 -43.5 -16.5t-45.5 -4.5q-43 2 -65 30.5t-13 69.5q8 37 33.5 68t79.5 67l12 8t18 10l-3 32l-2 1q-31 -28 -73.5 -45t-85.5 -17q-71 0 -108.5 46.5t-27.5 120.5q12 86 81 130.5t192 44.5h86q1 3 2.5 7t3.5 14q15 57 -9 80.5t-93 23.5q-44 0 -87.5 -8.5
t-83.5 -25.5l30 110q39 12 82 18t90 6q130 0 167 -62t-2 -208l-77 -286q-44 -22 -77 -55t-37 -58q-2 -17 5.5 -25.5t24.5 -8.5q11 0 23.5 3.5t23.5 9.5zM273 248q-74 0 -113 -20.5t-46 -63.5q-7 -39 10 -60.5t54 -21.5q39 0 79.5 17.5t60.5 41.5l28 107h-73z" />
    <glyph glyph-name="Cacute" unicode="&#x106;" horiz-adv-x="629" 
d="M717 948l-265 -123l-29 69l242 155zM179 409q-39 -148 -3 -229t137 -81q47 0 101 17.5t108 50.5l-32 -123q-48 -27 -105 -41t-116 -14q-79 0 -134.5 40t-79.5 114q-19 57 -17 128.5t25 152.5q46 161 159.5 255.5t265.5 94.5q54 0 103 -14t75 -38l-31 -117
q-34 29 -77 44.5t-88 15.5q-99 0 -179.5 -70.5t-111.5 -185.5z" />
    <glyph glyph-name="cacute" unicode="&#x107;" horiz-adv-x="494" 
d="M613 822l-245 -176l-47 60l213 197zM356 26q-39 -19 -81 -28.5t-83 -8.5q-109 4 -154 90t-12 221q32 126 110.5 191t199.5 65q43 0 80 -8.5t56 -23.5l-29 -108q-23 19 -54 29t-66 10q-73 0 -120 -43t-67 -130q-20 -88 4.5 -138t88.5 -54q36 -2 80 10t75 31z" />
    <glyph glyph-name="Ccircumflex" unicode="&#x108;" horiz-adv-x="629" 
d="M536 933l-168 -116l-42 65l184 149h85l106 -160l-66 -54zM179 409q-39 -148 -3 -229t137 -81q47 0 101 17.5t108 50.5l-32 -123q-48 -27 -105 -41t-116 -14q-79 0 -134.5 40t-79.5 114q-19 57 -17 128.5t25 152.5q46 161 159.5 255.5t265.5 94.5q54 0 103 -14t75 -38
l-31 -117q-34 29 -77 44.5t-88 15.5q-99 0 -179.5 -70.5t-111.5 -185.5z" />
    <glyph glyph-name="ccircumflex" unicode="&#x109;" horiz-adv-x="494" 
d="M405 760l-138 -123l-53 51l168 175h85l77 -181l-74 -45zM356 26q-39 -19 -81 -28.5t-83 -8.5q-109 4 -154 90t-12 221q32 126 110.5 191t199.5 65q43 0 80 -8.5t56 -23.5l-29 -108q-23 19 -54 29t-66 10q-73 0 -120 -43t-67 -130q-20 -88 4.5 -138t88.5 -54q36 -2 80 10
t75 31z" />
    <glyph glyph-name="Cdotaccent" unicode="&#x10a;" horiz-adv-x="629" 
d="M596 941q-9 -33 -37 -55.5t-62 -22.5q-33 0 -49.5 22.5t-7.5 55.5t37.5 55.5t61.5 22.5t49.5 -22.5t7.5 -55.5zM179 409q-39 -148 -3 -229t137 -81q47 0 101 17.5t108 50.5l-32 -123q-48 -27 -105 -41t-116 -14q-79 0 -134.5 40t-79.5 114q-19 57 -17 128.5t25 152.5
q46 161 159.5 255.5t265.5 94.5q54 0 103 -14t75 -38l-31 -117q-34 29 -77 44.5t-88 15.5q-99 0 -179.5 -70.5t-111.5 -185.5z" />
    <glyph glyph-name="cdotaccent" unicode="&#x10b;" horiz-adv-x="494" 
d="M477 751q-9 -33 -37 -55.5t-62 -22.5q-33 0 -49.5 22.5t-7.5 55.5t37.5 55.5t61.5 22.5t49.5 -22.5t7.5 -55.5zM356 26q-39 -19 -81 -28.5t-83 -8.5q-109 4 -154 90t-12 221q32 126 110.5 191t199.5 65q43 0 80 -8.5t56 -23.5l-29 -108q-23 19 -54 29t-66 10
q-73 0 -120 -43t-67 -130q-20 -88 4.5 -138t88.5 -54q36 -2 80 10t75 31z" />
    <glyph glyph-name="Ccaron" unicode="&#x10c;" horiz-adv-x="629" 
d="M512 916l168 116l42 -65l-184 -149h-85l-106 160l66 54zM179 409q-39 -148 -3 -229t137 -81q47 0 101 17.5t108 50.5l-32 -123q-48 -27 -105 -41t-116 -14q-79 0 -134.5 40t-79.5 114q-19 57 -17 128.5t25 152.5q46 161 159.5 255.5t265.5 94.5q54 0 103 -14t75 -38
l-31 -117q-34 29 -77 44.5t-88 15.5q-99 0 -179.5 -70.5t-111.5 -185.5z" />
    <glyph glyph-name="ccaron" unicode="&#x10d;" horiz-adv-x="494" 
d="M356 744l138 123l53 -51l-168 -175h-85l-77 181l74 45zM356 26q-39 -19 -81 -28.5t-83 -8.5q-109 4 -154 90t-12 221q32 126 110.5 191t199.5 65q43 0 80 -8.5t56 -23.5l-29 -108q-23 19 -54 29t-66 10q-73 0 -120 -43t-67 -130q-20 -88 4.5 -138t88.5 -54q36 -2 80 10
t75 31z" />
    <glyph glyph-name="Dcaron" unicode="&#x10e;" horiz-adv-x="724" 
d="M466 916l168 116l42 -65l-184 -149h-85l-106 160l66 54zM667 354q-41 -158 -155.5 -256t-265.5 -98h-258l204 763h234q158 0 223.5 -112t17.5 -297zM397 654h-113l-146 -545h137q95 0 169.5 68.5t102.5 177.5q36 141 -3 220t-147 79z" />
    <glyph glyph-name="dcaron" unicode="&#x10f;" horiz-adv-x="602" 
d="M878 880l-162 -252l-73 25l118 252zM142 -9q-80 13 -116 97t-5 204q33 127 112 195.5t191 68.5q16 0 30.5 -1t27.5 -4q20 -4 33.5 -9t20.5 -11l4 3l69 257h113l-212 -791h-113l12 47l-2 1q-33 -34 -76 -49t-89 -8zM412 429q-12 12 -40 19t-65 7q-60 0 -104 -44t-66 -126
q-22 -80 -5 -130t66 -57q37 -5 76.5 10.5t63.5 42.5z" />
    <glyph glyph-name="Dcroat" unicode="&#x110;" horiz-adv-x="724" 
d="M667 354q-41 -158 -155.5 -256t-265.5 -98h-258l91 342h-83l28 101h82l86 320h234q158 0 223.5 -112t17.5 -297zM138 109h137q95 0 169.5 68.5t102.5 177.5q36 141 -3 220t-147 79h-113l-57 -211h133l-28 -101h-132z" />
    <glyph glyph-name="dcroat" unicode="&#x111;" horiz-adv-x="602" 
d="M307 48q-33 -34 -76 -49t-89 -8q-80 13 -116 97t-5 204q33 127 112 195.5t191 68.5q16 0 30.5 -1t27.5 -4q20 -4 33.5 -9t20.5 -11l4 3l21 80h-180l26 96h180l22 81h113l-22 -81h70l-26 -96h-69l-165 -614h-113l12 47zM412 429q-12 12 -40 19t-65 7q-60 0 -104 -44
t-66 -126q-22 -80 -5 -130t66 -57q37 -5 76.5 10.5t63.5 42.5z" />
    <glyph glyph-name="Emacron" unicode="&#x112;" horiz-adv-x="573" 
d="M636 975l-24 -92h-362l24 92h362zM440 109l-29 -109h-423l204 763h396l-29 -109h-275l-55 -207h260l-29 -109h-260l-62 -229h302z" />
    <glyph glyph-name="emacron" unicode="&#x113;" horiz-adv-x="559" 
d="M572 791l-25 -92h-322l25 92h322zM390 29q-51 -21 -92 -30.5t-79 -9.5q-115 0 -169 76t-30 204q25 138 112 215t205 72q125 -5 157.5 -100t-38.5 -227h-334q-12 -69 20 -105t105 -36q36 0 78 10.5t93 32.5zM387 317q28 59 8.5 104t-77.5 46q-64 2 -110.5 -37.5
t-65.5 -112.5h245z" />
    <glyph glyph-name="Ebreve" unicode="&#x114;" horiz-adv-x="573" 
d="M643 1004q-20 -84 -78 -132.5t-142 -48.5q-83 0 -121.5 52t-18.5 129h83q-9 -42 9.5 -66.5t62.5 -24.5q45 0 77 24.5t45 66.5h83zM440 109l-29 -109h-423l204 763h396l-29 -109h-275l-55 -207h260l-29 -109h-260l-62 -229h302z" />
    <glyph glyph-name="ebreve" unicode="&#x115;" horiz-adv-x="559" 
d="M570 832q-20 -82 -74 -131.5t-127 -49.5q-76 0 -108 50.5t-11 130.5h83q-10 -42 3.5 -66.5t48.5 -24.5q36 0 62.5 24t39.5 67h83zM390 29q-51 -21 -92 -30.5t-79 -9.5q-115 0 -169 76t-30 204q25 138 112 215t205 72q125 -5 157.5 -100t-38.5 -227h-334q-12 -69 20 -105
t105 -36q36 0 78 10.5t93 32.5zM387 317q28 59 8.5 104t-77.5 46q-64 2 -110.5 -37.5t-65.5 -112.5h245z" />
    <glyph glyph-name="Edotaccent" unicode="&#x116;" horiz-adv-x="573" 
d="M524 941q-9 -33 -37 -55.5t-62 -22.5q-33 0 -49.5 22.5t-7.5 55.5t37.5 55.5t61.5 22.5t49.5 -22.5t7.5 -55.5zM440 109l-29 -109h-423l204 763h396l-29 -109h-275l-55 -207h260l-29 -109h-260l-62 -229h302z" />
    <glyph glyph-name="edotaccent" unicode="&#x117;" horiz-adv-x="559" 
d="M487 751q-9 -33 -37 -55.5t-62 -22.5q-33 0 -49.5 22.5t-7.5 55.5t37.5 55.5t61.5 22.5t49.5 -22.5t7.5 -55.5zM390 29q-51 -21 -92 -30.5t-79 -9.5q-115 0 -169 76t-30 204q25 138 112 215t205 72q125 -5 157.5 -100t-38.5 -227h-334q-12 -69 20 -105t105 -36
q36 0 78 10.5t93 32.5zM387 317q28 59 8.5 104t-77.5 46q-64 2 -110.5 -37.5t-65.5 -112.5h245z" />
    <glyph glyph-name="Eogonek" unicode="&#x118;" horiz-adv-x="573" 
d="M353 -214q-20 -11 -43.5 -16.5t-45.5 -4.5q-43 2 -65 30.5t-13 69.5q8 37 33.5 68t79.5 67h-311l204 763h396l-29 -109h-275l-55 -207h260l-29 -109h-260l-62 -229h302l-29 -109q-44 -22 -77 -55t-37 -58q-2 -17 5.5 -25.5t24.5 -8.5q11 0 23.5 3.5t23.5 9.5z" />
    <glyph glyph-name="eogonek" unicode="&#x119;" horiz-adv-x="559" 
d="M246 -214q-20 -11 -43.5 -16.5t-45.5 -4.5q-43 2 -65 30.5t-13 69.5q8 35 30.5 64.5t70.5 62.5q-96 12 -139 86t-21 191q25 138 112 215t205 72q125 -5 157.5 -100t-38.5 -227h-334q-12 -69 20 -105t105 -36q36 0 78 10.5t93 32.5l-28 -102q-24 -10 -45.5 -17t-40.5 -12
q-44 -22 -77 -55t-37 -58q-2 -17 5.5 -25.5t24.5 -8.5q11 0 23.5 3.5t23.5 9.5zM387 317q28 59 8.5 104t-77.5 46q-64 2 -110.5 -37.5t-65.5 -112.5h245z" />
    <glyph glyph-name="Ecaron" unicode="&#x11a;" horiz-adv-x="573" 
d="M434 916l168 116l42 -65l-184 -149h-85l-106 160l66 54zM440 109l-29 -109h-423l204 763h396l-29 -109h-275l-55 -207h260l-29 -109h-260l-62 -229h302z" />
    <glyph glyph-name="ecaron" unicode="&#x11b;" horiz-adv-x="559" 
d="M374 744l138 123l53 -51l-168 -175h-85l-77 181l74 45zM390 29q-51 -21 -92 -30.5t-79 -9.5q-115 0 -169 76t-30 204q25 138 112 215t205 72q125 -5 157.5 -100t-38.5 -227h-334q-12 -69 20 -105t105 -36q36 0 78 10.5t93 32.5zM387 317q28 59 8.5 104t-77.5 46
q-64 2 -110.5 -37.5t-65.5 -112.5h245z" />
    <glyph glyph-name="Gcircumflex" unicode="&#x11c;" horiz-adv-x="723" 
d="M549 933l-168 -116l-42 65l184 149h85l106 -160l-66 -54zM365 390h272l-89 -335q-58 -32 -125 -49t-134 -17q-151 0 -215 114.5t-15 306.5q44 172 163 268t284 96q50 0 100 -11t94 -32l-32 -118q-43 25 -91.5 38.5t-95.5 13.5q-109 0 -189.5 -67.5t-112.5 -188.5
q-42 -156 -3.5 -236t153.5 -80q33 0 63.5 8t53.5 23l41 157h-152z" />
    <glyph glyph-name="gcircumflex" unicode="&#x11d;" horiz-adv-x="587" 
d="M412 760l-138 -123l-53 51l168 175h85l77 -181l-74 -45zM-66 -85q6 31 29.5 60.5t54.5 45.5q-19 11 -25 31t2 47q7 28 28.5 61.5t68.5 83.5q-19 25 -24 57.5t3 68.5q20 89 85 137.5t165 48.5q45 0 77.5 -8t53.5 -24l133 32l-28 -105h-58q11 -111 -58 -188.5t-189 -78.5
q-34 0 -58.5 4t-45.5 13q-24 -30 -31 -42.5t-10 -25.5q-7 -24 4 -32.5t54 -8.5h118q80 0 119.5 -40t26.5 -107q-18 -89 -91 -134.5t-198 -45.5q-111 0 -164.5 39.5t-41.5 110.5zM387 370q11 46 -11 70t-77 24q-48 0 -78.5 -24t-41.5 -70q-10 -44 13 -69.5t74 -24.5
q49 1 80 25t41 69zM114 0h-16t-9 1q-15 -13 -25.5 -29.5t-14.5 -32.5q-11 -39 17.5 -60.5t93.5 -21.5q74 0 113.5 20.5t46.5 61.5q5 30 -17.5 45.5t-72.5 15.5h-116z" />
    <glyph glyph-name="Gbreve" unicode="&#x11e;" horiz-adv-x="723" 
d="M738 1004q-20 -84 -78 -132.5t-142 -48.5q-83 0 -121.5 52t-18.5 129h83q-9 -42 9.5 -66.5t62.5 -24.5q45 0 77 24.5t45 66.5h83zM365 390h272l-89 -335q-58 -32 -125 -49t-134 -17q-151 0 -215 114.5t-15 306.5q44 172 163 268t284 96q50 0 100 -11t94 -32l-32 -118
q-43 25 -91.5 38.5t-95.5 13.5q-109 0 -189.5 -67.5t-112.5 -188.5q-42 -156 -3.5 -236t153.5 -80q33 0 63.5 8t53.5 23l41 157h-152z" />
    <glyph glyph-name="gbreve" unicode="&#x11f;" horiz-adv-x="587" 
d="M583 832q-20 -82 -74 -131.5t-127 -49.5q-76 0 -108 50.5t-11 130.5h83q-10 -42 3.5 -66.5t48.5 -24.5q36 0 62.5 24t39.5 67h83zM-66 -85q6 31 29.5 60.5t54.5 45.5q-19 11 -25 31t2 47q7 28 28.5 61.5t68.5 83.5q-19 25 -24 57.5t3 68.5q20 89 85 137.5t165 48.5
q45 0 77.5 -8t53.5 -24l133 32l-28 -105h-58q11 -111 -58 -188.5t-189 -78.5q-34 0 -58.5 4t-45.5 13q-24 -30 -31 -42.5t-10 -25.5q-7 -24 4 -32.5t54 -8.5h118q80 0 119.5 -40t26.5 -107q-18 -89 -91 -134.5t-198 -45.5q-111 0 -164.5 39.5t-41.5 110.5zM387 370
q11 46 -11 70t-77 24q-48 0 -78.5 -24t-41.5 -70q-10 -44 13 -69.5t74 -24.5q49 1 80 25t41 69zM114 0h-16t-9 1q-15 -13 -25.5 -29.5t-14.5 -32.5q-11 -39 17.5 -60.5t93.5 -21.5q74 0 113.5 20.5t46.5 61.5q5 30 -17.5 45.5t-72.5 15.5h-116z" />
    <glyph glyph-name="Gdotaccent" unicode="&#x120;" horiz-adv-x="723" 
d="M628 941q-9 -33 -37 -55.5t-62 -22.5q-33 0 -49.5 22.5t-7.5 55.5t37.5 55.5t61.5 22.5t49.5 -22.5t7.5 -55.5zM365 390h272l-89 -335q-58 -32 -125 -49t-134 -17q-151 0 -215 114.5t-15 306.5q44 172 163 268t284 96q50 0 100 -11t94 -32l-32 -118q-43 25 -91.5 38.5
t-95.5 13.5q-109 0 -189.5 -67.5t-112.5 -188.5q-42 -156 -3.5 -236t153.5 -80q33 0 63.5 8t53.5 23l41 157h-152z" />
    <glyph glyph-name="gdotaccent" unicode="&#x121;" horiz-adv-x="587" 
d="M479 751q-9 -33 -37 -55.5t-62 -22.5q-33 0 -49.5 22.5t-7.5 55.5t37.5 55.5t61.5 22.5t49.5 -22.5t7.5 -55.5zM-66 -85q6 31 29.5 60.5t54.5 45.5q-19 11 -25 31t2 47q7 28 28.5 61.5t68.5 83.5q-19 25 -24 57.5t3 68.5q20 89 85 137.5t165 48.5q45 0 77.5 -8t53.5 -24
l133 32l-28 -105h-58q11 -111 -58 -188.5t-189 -78.5q-34 0 -58.5 4t-45.5 13q-24 -30 -31 -42.5t-10 -25.5q-7 -24 4 -32.5t54 -8.5h118q80 0 119.5 -40t26.5 -107q-18 -89 -91 -134.5t-198 -45.5q-111 0 -164.5 39.5t-41.5 110.5zM387 370q11 46 -11 70t-77 24
q-48 0 -78.5 -24t-41.5 -70q-10 -44 13 -69.5t74 -24.5q49 1 80 25t41 69zM114 0h-16t-9 1q-15 -13 -25.5 -29.5t-14.5 -32.5q-11 -39 17.5 -60.5t93.5 -21.5q74 0 113.5 20.5t46.5 61.5q5 30 -17.5 45.5t-72.5 15.5h-116z" />
    <glyph glyph-name="Gcommaaccent" unicode="&#x122;" horiz-adv-x="723" 
d="M365 390h272l-89 -335q-58 -32 -125 -49t-134 -17q-151 0 -215 114.5t-15 306.5q44 172 163 268t284 96q50 0 100 -11t94 -32l-32 -118q-43 25 -91.5 38.5t-95.5 13.5q-109 0 -189.5 -67.5t-112.5 -188.5q-42 -156 -3.5 -236t153.5 -80q33 0 63.5 8t53.5 23l41 157h-152z
M368 -134l-185 -117l-42 60l152 138z" />
    <glyph glyph-name="gcommaaccent" unicode="&#x123;" horiz-adv-x="587" 
d="M324 729l245 176l47 -60l-213 -197zM-66 -85q6 31 29.5 60.5t54.5 45.5q-19 11 -25 31t2 47q7 28 28.5 61.5t68.5 83.5q-19 25 -24 57.5t3 68.5q20 89 85 137.5t165 48.5q45 0 77.5 -8t53.5 -24l133 32l-28 -105h-58q11 -111 -58 -188.5t-189 -78.5q-34 0 -58.5 4
t-45.5 13q-24 -30 -31 -42.5t-10 -25.5q-7 -24 4 -32.5t54 -8.5h118q80 0 119.5 -40t26.5 -107q-18 -89 -91 -134.5t-198 -45.5q-111 0 -164.5 39.5t-41.5 110.5zM387 370q11 46 -11 70t-77 24q-48 0 -78.5 -24t-41.5 -70q-10 -44 13 -69.5t74 -24.5q49 1 80 25t41 69z
M114 0h-16t-9 1q-15 -13 -25.5 -29.5t-14.5 -32.5q-11 -39 17.5 -60.5t93.5 -21.5q74 0 113.5 20.5t46.5 61.5q5 30 -17.5 45.5t-72.5 15.5h-116z" />
    <glyph glyph-name="Hcircumflex" unicode="&#x124;" horiz-adv-x="762" 
d="M529 933l-168 -116l-42 65l184 149h85l106 -160l-66 -54zM200 338l-91 -338h-121l204 763h121l-84 -316h340l84 316h121l-204 -763h-121l91 338h-340z" />
    <glyph glyph-name="hcircumflex" unicode="&#x125;" 
d="M302 956l-138 -123l-53 51l168 175h85l77 -181l-74 -45zM207 402l-108 -402h-112l212 791h112l-77 -286l3 -3q46 28 89.5 41t87.5 13q83 0 109 -49.5t-1 -150.5l-95 -356h-112l86 319q20 77 10.5 107t-54.5 30q-38 0 -83 -16t-67 -38z" />
    <glyph glyph-name="Hbar" unicode="&#x126;" horiz-adv-x="762" 
d="M200 338l-91 -338h-121l146 545h-61l29 109h61l29 109h121l-29 -109h340l29 109h121l-29 -109h59l-29 -109h-59l-146 -545h-121l91 338h-340zM229 447h340l26 98h-340z" />
    <glyph glyph-name="hbar" unicode="&#x127;" 
d="M207 402l-108 -402h-112l165 614h-50l26 96h49l22 81h112l-22 -81h202l-26 -96h-202l-29 -109l3 -3q46 28 89.5 41t87.5 13q83 0 109 -49.5t-1 -150.5l-95 -356h-112l86 319q20 77 10.5 107t-54.5 30q-38 0 -83 -16t-67 -38z" />
    <glyph glyph-name="Itilde" unicode="&#x128;" horiz-adv-x="494" 
d="M577 998q-12 -78 -41 -113.5t-82 -35.5q-17 0 -35.5 7t-49.5 28q-21 14 -30 18t-16 4q-14 0 -23 -14.5t-14 -44.5h-79q12 78 41 113.5t81 35.5q19 0 38.5 -7t51.5 -28q19 -13 27.5 -16.5t15.5 -3.5q14 0 23 14t13 43h79zM351 109l-29 -109h-354l29 109h117l146 545h-117
l29 109h354l-29 -109h-117l-146 -545h117z" />
    <glyph glyph-name="itilde" unicode="&#x129;" horiz-adv-x="292" 
d="M442 839q-15 -93 -53.5 -138.5t-94.5 -37.5q-16 2 -30.5 12.5t-33.5 37.5q-13 17 -19.5 22.5t-12.5 5.5q-14 1 -26 -18t-23 -58h-82q15 92 54 137t94 37q17 -2 31.5 -12.5t34.5 -37.5q12 -17 18 -22t12 -5q14 -1 26 18t23 59h82zM245 545l-146 -545h-112l146 545h112z
" />
    <glyph glyph-name="Imacron" unicode="&#x12a;" horiz-adv-x="494" 
d="M587 975l-24 -92h-362l24 92h362zM351 109l-29 -109h-354l29 109h117l146 545h-117l29 109h354l-29 -109h-117l-146 -545h117z" />
    <glyph glyph-name="imacron" unicode="&#x12b;" horiz-adv-x="292" 
d="M426 791l-25 -92h-322l25 92h322zM245 545l-146 -545h-112l146 545h112z" />
    <glyph glyph-name="Ibreve" unicode="&#x12c;" horiz-adv-x="494" 
d="M594 1004q-20 -84 -78 -132.5t-142 -48.5q-83 0 -121.5 52t-18.5 129h83q-9 -42 9.5 -66.5t62.5 -24.5q45 0 77 24.5t45 66.5h83zM351 109l-29 -109h-354l29 109h117l146 545h-117l29 109h354l-29 -109h-117l-146 -545h117z" />
    <glyph glyph-name="ibreve" unicode="&#x12d;" horiz-adv-x="292" 
d="M436 832q-20 -82 -74 -131.5t-127 -49.5q-76 0 -108 50.5t-11 130.5h83q-10 -42 3.5 -66.5t48.5 -24.5q36 0 62.5 24t39.5 67h83zM245 545l-146 -545h-112l146 545h112z" />
    <glyph glyph-name="Iogonek" unicode="&#x12e;" horiz-adv-x="494" 
d="M157 -214q-20 -11 -43.5 -16.5t-45.5 -4.5q-43 2 -65 30.5t-13 69.5q8 37 33.5 68t79.5 67h-135l29 109h117l146 545h-117l29 109h354l-29 -109h-117l-146 -545h117l-29 -109h-107q-44 -22 -77 -55t-37 -58q-2 -17 5.5 -25.5t24.5 -8.5q11 0 23.5 3.5t23.5 9.5z" />
    <glyph glyph-name="iogonek" unicode="&#x12f;" horiz-adv-x="292" 
d="M331 751q-9 -33 -37 -55.5t-62 -22.5q-33 0 -49.5 22.5t-7.5 55.5t37.5 55.5t61.5 22.5t49.5 -22.5t7.5 -55.5zM50 -214q-20 -11 -43.5 -16.5t-45.5 -4.5q-43 2 -65 30.5t-13 69.5q8 37 33.5 68t79.5 67h-10l146 545h112l-145 -543l9 -2q-44 -22 -77 -55t-37 -58
q-2 -17 5.5 -25.5t24.5 -8.5q11 0 23.5 3.5t23.5 9.5z" />
    <glyph glyph-name="Idotaccent" unicode="&#x130;" horiz-adv-x="494" 
d="M475 941q-9 -33 -37 -55.5t-62 -22.5q-33 0 -49.5 22.5t-7.5 55.5t37.5 55.5t61.5 22.5t49.5 -22.5t7.5 -55.5zM351 109l-29 -109h-354l29 109h117l146 545h-117l29 109h354l-29 -109h-117l-146 -545h117z" />
    <glyph glyph-name="dotlessi" unicode="&#x131;" horiz-adv-x="292" 
d="M245 545l-146 -545h-112l146 545h112z" />
    <glyph glyph-name="IJ" unicode="&#x132;" horiz-adv-x="988" 
d="M873 289q-46 -174 -114 -237t-201 -63q-47 0 -83 6.5t-50 16.5l31 115q18 -12 54.5 -19.5t73.5 -7.5q47 0 78 19.5t53 63.5q11 23 21.5 55t29.5 103l84 313h-232l29 109h353zM351 109l-29 -109h-354l29 109h117l146 545h-117l29 109h354l-29 -109h-117l-146 -545h117z
" />
    <glyph glyph-name="ij" unicode="&#x133;" horiz-adv-x="584" 
d="M626 751q-9 -33 -37 -55.5t-62 -22.5q-33 0 -49.5 22.5t-7.5 55.5t37.5 55.5t61.5 22.5t49.5 -22.5t7.5 -55.5zM332 751q-9 -33 -37 -55.5t-62 -22.5q-33 0 -49.5 22.5t-7.5 55.5t37.5 55.5t61.5 22.5t49.5 -22.5t7.5 -55.5zM84 -132q43 -2 75 6t56 26q26 19 42 49
t35 100l133 496h112l-133 -496q-26 -97 -56.5 -150t-79.5 -85q-40 -26 -93 -38.5t-119 -10.5zM245 545l-146 -545h-112l146 545h112z" />
    <glyph glyph-name="Jcircumflex" unicode="&#x134;" horiz-adv-x="524" 
d="M413 933l-168 -116l-42 65l184 149h85l106 -160l-66 -54zM409 289q-46 -174 -114 -237t-201 -63q-47 0 -83 6.5t-50 16.5l31 115q18 -12 54.5 -19.5t73.5 -7.5q47 0 78 19.5t53 63.5q11 23 21.5 55t29.5 103l84 313h-232l29 109h353z" />
    <glyph glyph-name="jcircumflex" unicode="&#x135;" horiz-adv-x="292" 
d="M247 760l-138 -123l-53 51l168 175h85l77 -181l-74 -45zM-218 -132q43 -2 75 6t56 26q26 19 42 49t35 100l133 496h112l-133 -496q-26 -97 -56.5 -150t-79.5 -85q-40 -26 -93 -38.5t-119 -10.5z" />
    <glyph glyph-name="Kcommaaccent" unicode="&#x136;" horiz-adv-x="640" 
d="M203 356l-95 -356h-120l204 763h120l-81 -302q34 0 57.5 16t69.5 61q18 19 44 45.5t64 66.5q17 19 40.5 43.5t65.5 69.5h145l-295 -300q-10 -10 -20 -18.5t-20 -15.5q-15 -9 -27 -14t-21 -5l-1 -3q7 -1 14.5 -7.5t15.5 -18.5q6 -7 11 -16t9 -20l145 -345h-134
q-14 39 -22 61.5t-14 39.5q-12 33 -20.5 57t-16.5 43q-13 34 -22.5 57.5t-17.5 39.5q-16 33 -30 45.5t-48 12.5zM296 -134l-185 -117l-42 60l152 138z" />
    <glyph glyph-name="kcommaaccent" unicode="&#x137;" horiz-adv-x="553" 
d="M168 252l-68 -252h-113l212 791h113l-118 -444q45 0 68 15t68 62q15 15 36 38t75 83h125l-182 -193q-23 -24 -40.5 -37.5t-28.5 -15.5l-1 -3q9 -4 16 -16.5t25 -56.5l90 -223h-124q-15 45 -22 65.5t-12 36.5q-13 37 -21.5 60t-15.5 38q-14 30 -28 41t-54 11zM272 -134
l-185 -117l-42 60l152 138z" />
    <glyph glyph-name="kgreenlandic" unicode="&#x138;" horiz-adv-x="533" 
d="M140 230l-62 -230h-110l146 546h110l-58 -218q29 0 51.5 17.5t77.5 77.5q14 15 33 35.5t80 87.5h129l-210 -216q-15 -16 -31 -27.5t-34 -18.5q-3 -1 -4 -1.5l-1 -0.5l-1 -2l0.5 -0.5t2.5 -1.5q11 -8 19.5 -20t15.5 -29l112 -229h-113q-21 49 -27.5 64t-11.5 26
q-15 33 -24.5 53.5t-16.5 34.5q-16 31 -29 42t-44 10z" />
    <glyph glyph-name="Lacute" unicode="&#x139;" horiz-adv-x="543" 
d="M518 948l-265 -123l-29 69l242 155zM430 109l-29 -109h-413l204 763h121l-175 -654h292z" />
    <glyph glyph-name="lacute" unicode="&#x13a;" horiz-adv-x="292" 
d="M531 1057l-245 -176l-47 60l213 197zM311 791l-212 -791h-112l212 791h112z" />
    <glyph glyph-name="Lcommaaccent" unicode="&#x13b;" horiz-adv-x="543" 
d="M430 109l-29 -109h-413l204 763h121l-175 -654h292zM293 -134l-185 -117l-42 60l152 138z" />
    <glyph glyph-name="lcommaaccent" unicode="&#x13c;" horiz-adv-x="292" 
d="M311 791l-212 -791h-112l212 791h112zM109 -134l-185 -117l-42 60l152 138z" />
    <glyph glyph-name="Lcaron" unicode="&#x13d;" horiz-adv-x="543" 
d="M627 880l-162 -252l-73 25l118 252zM430 109l-29 -109h-413l204 763h121l-175 -654h292z" />
    <glyph glyph-name="lcaron" unicode="&#x13e;" horiz-adv-x="312" 
d="M574 880l-162 -252l-73 25l118 252zM311 791l-212 -791h-112l212 791h112z" />
    <glyph glyph-name="Ldot" unicode="&#x13f;" horiz-adv-x="543" 
d="M430 109l-29 -109h-413l204 763h121l-175 -654h292zM467 478q-9 -33 -37 -55.5t-62 -22.5q-33 0 -49.5 22.5t-7.5 55.5t37.5 55.5t61.5 22.5t49.5 -22.5t7.5 -55.5z" />
    <glyph glyph-name="ldot" unicode="&#x140;" horiz-adv-x="362" 
d="M311 791l-212 -791h-112l212 791h112zM444 516q-9 -33 -37 -55.5t-62 -22.5q-33 0 -49.5 22.5t-7.5 55.5t37.5 55.5t61.5 22.5t49.5 -22.5t7.5 -55.5z" />
    <glyph glyph-name="Lslash" unicode="&#x141;" horiz-adv-x="543" 
d="M430 109l-29 -109h-413l60 224l-96 -56l35 130l96 56l109 409h121l-87 -325l274 160l-35 -130l-274 -160l-53 -199h292z" />
    <glyph glyph-name="lslash" unicode="&#x142;" horiz-adv-x="292" 
d="M304 420l-108 -58l-97 -362h-112l78 292l-78 -42l30 115l79 42l103 384h112l-84 -314l108 58z" />
    <glyph glyph-name="Nacute" unicode="&#x143;" horiz-adv-x="762" 
d="M749 948l-265 -123l-29 69l242 155zM233 463l-124 -463h-121l204 763h121l158 -468q7 -20 14 -49t14 -67h4q7 38 13.5 68t12.5 53l124 463h121l-204 -763h-121l-157 468q-9 26 -16 55t-12 61h-4q-6 -32 -12.5 -62t-14.5 -59z" />
    <glyph glyph-name="nacute" unicode="&#x144;" 
d="M649 822l-245 -176l-47 60l213 197zM206 398l-107 -398h-112l146 545h112l-12 -44l3 -3q49 30 93 44t86 14q82 0 108.5 -49t-0.5 -150l-96 -357h-112l86 320q21 77 11.5 106.5t-54.5 29.5q-38 0 -83.5 -17.5t-68.5 -40.5z" />
    <glyph glyph-name="Ncommaaccent" unicode="&#x145;" horiz-adv-x="762" 
d="M233 463l-124 -463h-121l204 763h121l158 -468q7 -20 14 -49t14 -67h4q7 38 13.5 68t12.5 53l124 463h121l-204 -763h-121l-157 468q-9 26 -16 55t-12 61h-4q-6 -32 -12.5 -62t-14.5 -59zM354 -133l-185 -117l-42 60l152 138z" />
    <glyph glyph-name="ncommaaccent" unicode="&#x146;" 
d="M206 398l-107 -398h-112l146 545h112l-12 -44l3 -3q49 30 93 44t86 14q82 0 108.5 -49t-0.5 -150l-96 -357h-112l86 320q21 77 11.5 106.5t-54.5 29.5q-38 0 -83.5 -17.5t-68.5 -40.5zM287 -134l-185 -117l-42 60l152 138z" />
    <glyph glyph-name="Ncaron" unicode="&#x147;" horiz-adv-x="762" 
d="M503 918l168 116l42 -65l-184 -149h-85l-106 160l66 54zM233 463l-124 -463h-121l204 763h121l158 -468q7 -20 14 -49t14 -67h4q7 38 13.5 68t12.5 53l124 463h121l-204 -763h-121l-157 468q-9 26 -16 55t-12 61h-4q-6 -32 -12.5 -62t-14.5 -59z" />
    <glyph glyph-name="ncaron" unicode="&#x148;" 
d="M401 744l138 123l53 -51l-168 -175h-85l-77 181l74 45zM206 398l-107 -398h-112l146 545h112l-12 -44l3 -3q49 30 93 44t86 14q82 0 108.5 -49t-0.5 -150l-96 -357h-112l86 320q21 77 11.5 106.5t-54.5 29.5q-38 0 -83.5 -17.5t-68.5 -40.5z" />
    <glyph glyph-name="napostrophe" unicode="&#x149;" 
d="M178 747l-169 -273l-74 23l126 272zM206 398l-107 -398h-112l146 545h112l-12 -44l3 -3q49 30 93 44t86 14q82 0 108.5 -49t-0.5 -150l-96 -357h-112l86 320q21 77 11.5 106.5t-54.5 29.5q-38 0 -83.5 -17.5t-68.5 -40.5z" />
    <glyph glyph-name="Eng" unicode="&#x14a;" horiz-adv-x="762" 
d="M570 0h-2q-44 -135 -110 -185t-186 -50q-35 0 -78 7t-55 16l31 115q19 -13 53.5 -20t77.5 -7q46 0 76.5 20t52.5 64q4 10 8.5 20.5t8.5 24.5l-155 463q-9 26 -16 55t-12 61h-4q-6 -32 -12.5 -62t-14.5 -59l-124 -463h-121l204 763h121l158 -468q7 -20 14 -49t14 -67h4
q7 38 13.5 68t12.5 53l124 463h121l-164 -614v0l-7 -25z" />
    <glyph glyph-name="eng" unicode="&#x14b;" 
d="M206 398l-107 -398h-112l146 545h112l-12 -44l3 -3q49 30 93 44t86 14q81 0 108 -49t1 -146l-84 -312q-26 -96 -58 -151.5t-77 -83.5q-42 -26 -95 -38t-118 -11l27 102q45 -2 76.5 6t55.5 27q26 20 42.5 50t34.5 99l74 275q20 75 10.5 103.5t-54.5 28.5
q-38 0 -83.5 -17.5t-68.5 -40.5z" />
    <glyph glyph-name="Omacron" unicode="&#x14c;" horiz-adv-x="785" 
d="M733 975l-24 -92h-362l24 92h362zM33 255q-1 89 32.5 183.5t93.5 169.5q65 81 150 123.5t181 42.5q124 0 193.5 -69t71.5 -197q1 -89 -32.5 -183.5t-93.5 -169.5q-65 -81 -150 -123.5t-181 -42.5q-124 0 -193.5 69t-71.5 197zM470 665q-101 0 -182.5 -79t-115.5 -205
q-34 -127 5.5 -205t140.5 -78t182.5 79t115.5 205q34 127 -5.5 205t-140.5 78z" />
    <glyph glyph-name="omacron" unicode="&#x14d;" horiz-adv-x="593" 
d="M577 791l-25 -92h-322l25 92h322zM510 255q-36 -124 -119.5 -195t-195.5 -71q-114 0 -160.5 82.5t-8.5 219.5q34 121 116.5 193t192.5 72q117 0 165.5 -83.5t9.5 -217.5zM401 272q22 82 -2.5 132.5t-87.5 51.5q-59 1 -107.5 -50.5t-69.5 -133.5q-22 -83 1.5 -132.5
t85.5 -50.5q59 -1 108.5 50t71.5 133z" />
    <glyph glyph-name="Obreve" unicode="&#x14e;" horiz-adv-x="785" 
d="M740 1004q-20 -84 -78 -132.5t-142 -48.5q-83 0 -121.5 52t-18.5 129h83q-9 -42 9.5 -66.5t62.5 -24.5q45 0 77 24.5t45 66.5h83zM33 255q-1 89 32.5 183.5t93.5 169.5q65 81 150 123.5t181 42.5q124 0 193.5 -69t71.5 -197q1 -89 -32.5 -183.5t-93.5 -169.5
q-65 -81 -150 -123.5t-181 -42.5q-124 0 -193.5 69t-71.5 197zM470 665q-101 0 -182.5 -79t-115.5 -205q-34 -127 5.5 -205t140.5 -78t182.5 79t115.5 205q34 127 -5.5 205t-140.5 78z" />
    <glyph glyph-name="obreve" unicode="&#x14f;" horiz-adv-x="593" 
d="M587 832q-20 -82 -74 -131.5t-127 -49.5q-76 0 -108 50.5t-11 130.5h83q-10 -42 3.5 -66.5t48.5 -24.5q36 0 62.5 24t39.5 67h83zM510 255q-36 -124 -119.5 -195t-195.5 -71q-114 0 -160.5 82.5t-8.5 219.5q34 121 116.5 193t192.5 72q117 0 165.5 -83.5t9.5 -217.5z
M401 272q22 82 -2.5 132.5t-87.5 51.5q-59 1 -107.5 -50.5t-69.5 -133.5q-22 -83 1.5 -132.5t85.5 -50.5q59 -1 108.5 50t71.5 133z" />
    <glyph glyph-name="Ohungarumlaut" unicode="&#x150;" horiz-adv-x="785" 
d="M632 969l-259 -159l-36 64l228 184zM868 927l-273 -117l-20 73l248 148zM33 255q-1 89 32.5 183.5t93.5 169.5q65 81 150 123.5t181 42.5q124 0 193.5 -69t71.5 -197q1 -89 -32.5 -183.5t-93.5 -169.5q-65 -81 -150 -123.5t-181 -42.5q-124 0 -193.5 69t-71.5 197z
M470 665q-101 0 -182.5 -79t-115.5 -205q-34 -127 5.5 -205t140.5 -78t182.5 79t115.5 205q34 127 -5.5 205t-140.5 78z" />
    <glyph glyph-name="ohungarumlaut" unicode="&#x151;" horiz-adv-x="593" 
d="M495 847l-222 -212l-56 48l183 225zM701 812l-246 -184l-44 57l210 204zM510 255q-36 -124 -119.5 -195t-195.5 -71q-114 0 -160.5 82.5t-8.5 219.5q34 121 116.5 193t192.5 72q117 0 165.5 -83.5t9.5 -217.5zM401 272q22 82 -2.5 132.5t-87.5 51.5q-59 1 -107.5 -50.5
t-69.5 -133.5q-22 -83 1.5 -132.5t85.5 -50.5q59 -1 108.5 50t71.5 133z" />
    <glyph glyph-name="OE" unicode="&#x152;" horiz-adv-x="1097" 
d="M513 0l16 61q-51 -35 -109.5 -53.5t-121.5 -18.5q-124 0 -193.5 69t-71.5 197q-1 89 32.5 183.5t93.5 169.5q65 81 150 123.5t181 42.5q69 0 121.5 -21.5t86.5 -62.5l19 73h396l-29 -109h-275l-55 -207h260l-29 -109h-258q-2 -7 -4.5 -13.5t-4.5 -13.5l-55 -202h302
l-29 -109h-423zM172 381q-34 -127 5.5 -205t140.5 -78q95 0 173.5 71t116.5 185l15 57q24 115 -17 184.5t-136 69.5q-101 0 -182.5 -79t-115.5 -205z" />
    <glyph glyph-name="oe" unicode="&#x153;" horiz-adv-x="939" 
d="M770 29q-51 -21 -92 -30.5t-79 -9.5q-65 0 -111.5 25t-70.5 71q-43 -46 -99.5 -71t-122.5 -25q-114 0 -160.5 82.5t-8.5 219.5q34 121 116.5 193t192.5 72q58 0 100 -21.5t65 -60.5q43 42 98.5 63.5t118.5 18.5q125 -5 157.5 -100t-38.5 -227h-334q-12 -69 20 -105
t105 -36q36 0 78 10.5t93 32.5zM698 467q-62 2 -107.5 -35t-65.5 -105q0 -2 -0.5 -4.5t-0.5 -5.5h243q28 59 8.5 104t-77.5 46zM134 272q-22 -83 1.5 -132.5t85.5 -50.5q59 -1 108.5 49.5t70.5 128.5v2q2 10 4 19.5t4 18.5q11 67 -15 107.5t-82 41.5q-59 1 -107.5 -50.5
t-69.5 -133.5z" />
    <glyph glyph-name="Racute" unicode="&#x154;" horiz-adv-x="656" 
d="M640 948l-265 -123l-29 69l242 155zM187 292l-78 -292h-121l204 763h186q139 0 198 -67t28 -185q-18 -70 -66 -120t-118 -69l104 -322h-133l-81 297q-17 -2 -36 -3.5t-38 -1.5h-49zM366 654h-82l-68 -255h72q86 0 134 29.5t63 89.5q18 68 -12 102t-107 34z" />
    <glyph glyph-name="racute" unicode="&#x155;" horiz-adv-x="425" 
d="M533 822l-245 -176l-47 60l213 197zM195 360l-96 -360h-112l146 545h112l-17 -65l3 -3q38 38 83 58.5t93 20.5q9 0 17 -0.5t16 -1.5l-32 -122q-5 1 -10 1h-12q-62 0 -111.5 -19.5t-79.5 -53.5z" />
    <glyph glyph-name="Rcommaaccent" unicode="&#x156;" horiz-adv-x="656" 
d="M187 292l-78 -292h-121l204 763h186q139 0 198 -67t28 -185q-18 -70 -66 -120t-118 -69l104 -322h-133l-81 297q-17 -2 -36 -3.5t-38 -1.5h-49zM366 654h-82l-68 -255h72q86 0 134 29.5t63 89.5q18 68 -12 102t-107 34zM318 -134l-185 -117l-42 60l152 138z" />
    <glyph glyph-name="rcommaaccent" unicode="&#x157;" horiz-adv-x="425" 
d="M195 360l-96 -360h-112l146 545h112l-17 -65l3 -3q38 38 83 58.5t93 20.5q9 0 17 -0.5t16 -1.5l-32 -122q-5 1 -10 1h-12q-62 0 -111.5 -19.5t-79.5 -53.5zM114 -134l-185 -117l-42 60l152 138z" />
    <glyph glyph-name="Rcaron" unicode="&#x158;" horiz-adv-x="656" 
d="M436 916l168 116l42 -65l-184 -149h-85l-106 160l66 54zM187 292l-78 -292h-121l204 763h186q139 0 198 -67t28 -185q-18 -70 -66 -120t-118 -69l104 -322h-133l-81 297q-17 -2 -36 -3.5t-38 -1.5h-49zM366 654h-82l-68 -255h72q86 0 134 29.5t63 89.5q18 68 -12 102
t-107 34z" />
    <glyph glyph-name="rcaron" unicode="&#x159;" horiz-adv-x="425" 
d="M326 744l138 123l53 -51l-168 -175h-85l-77 181l74 45zM195 360l-96 -360h-112l146 545h112l-17 -65l3 -3q38 38 83 58.5t93 20.5q9 0 17 -0.5t16 -1.5l-32 -122q-5 1 -10 1h-12q-62 0 -111.5 -19.5t-79.5 -53.5z" />
    <glyph glyph-name="Sacute" unicode="&#x15a;" horiz-adv-x="570" 
d="M650 948l-265 -123l-29 69l242 155zM455 180q-21 -89 -102.5 -140t-204.5 -51q-55 0 -99 9.5t-83 30.5l32 120q31 -26 76 -40t95 -14q65 0 110 26t55 68q10 41 -6.5 74.5t-87.5 86.5q-50 37 -71 59t-34 46q-16 31 -19 67.5t8 79.5q20 79 95.5 125.5t187.5 46.5
q50 0 90.5 -9.5t70.5 -27.5l-33 -126q-22 25 -63.5 39.5t-90.5 14.5q-55 0 -92 -21t-46 -57q-11 -41 5.5 -74t87.5 -85q50 -36 71.5 -58t33.5 -45q17 -31 20.5 -67t-6.5 -78z" />
    <glyph glyph-name="sacute" unicode="&#x15b;" horiz-adv-x="497" 
d="M571 822l-245 -176l-47 60l213 197zM376 142q-15 -73 -77.5 -113t-162.5 -40q-46 0 -88.5 12t-67.5 31q7 27 14 53.5t14 53.5q10 -13 26 -23.5t38 -18.5q17 -6 36.5 -9.5t39.5 -3.5q48 0 78 14.5t36 41.5q5 23 -8.5 41.5t-67.5 47.5q-42 22 -61 36.5t-31 30.5
q-18 22 -24 49.5t0 60.5q13 72 72.5 111t159.5 39q45 0 83 -10.5t63 -29.5l-27 -100q-34 22 -69.5 33.5t-68.5 11.5q-42 0 -69.5 -15.5t-32.5 -40.5q-5 -22 8.5 -40t68.5 -45q44 -22 63.5 -36t32.5 -30q18 -22 23.5 -50t-1.5 -62z" />
    <glyph glyph-name="Scircumflex" unicode="&#x15c;" horiz-adv-x="570" 
d="M443 933l-168 -116l-42 65l184 149h85l106 -160l-66 -54zM455 180q-21 -89 -102.5 -140t-204.5 -51q-55 0 -99 9.5t-83 30.5l32 120q31 -26 76 -40t95 -14q65 0 110 26t55 68q10 41 -6.5 74.5t-87.5 86.5q-50 37 -71 59t-34 46q-16 31 -19 67.5t8 79.5q20 79 95.5 125.5
t187.5 46.5q50 0 90.5 -9.5t70.5 -27.5l-33 -126q-22 25 -63.5 39.5t-90.5 14.5q-55 0 -92 -21t-46 -57q-11 -41 5.5 -74t87.5 -85q50 -36 71.5 -58t33.5 -45q17 -31 20.5 -67t-6.5 -78z" />
    <glyph glyph-name="scircumflex" unicode="&#x15d;" horiz-adv-x="497" 
d="M370 760l-138 -123l-53 51l168 175h85l77 -181l-74 -45zM376 142q-15 -73 -77.5 -113t-162.5 -40q-46 0 -88.5 12t-67.5 31q7 27 14 53.5t14 53.5q10 -13 26 -23.5t38 -18.5q17 -6 36.5 -9.5t39.5 -3.5q48 0 78 14.5t36 41.5q5 23 -8.5 41.5t-67.5 47.5q-42 22 -61 36.5
t-31 30.5q-18 22 -24 49.5t0 60.5q13 72 72.5 111t159.5 39q45 0 83 -10.5t63 -29.5l-27 -100q-34 22 -69.5 33.5t-68.5 11.5q-42 0 -69.5 -15.5t-32.5 -40.5q-5 -22 8.5 -40t68.5 -45q44 -22 63.5 -36t32.5 -30q18 -22 23.5 -50t-1.5 -62z" />
    <glyph glyph-name="Scedilla" unicode="&#x15e;" horiz-adv-x="570" 
d="M288 -56q-16 -59 -61.5 -91t-106.5 -32q-18 0 -33.5 2t-28.5 6q6 23 12.5 46t12.5 46q11 -4 23 -6t24 -2q22 0 38.5 11t21.5 30q3 10 2.5 19.5t-3.5 17.5q-10 -1 -20.5 -1.5t-20.5 -0.5q-55 0 -99 9.5t-83 30.5l32 120q31 -26 76 -40t95 -14q65 0 110 26t55 68
q10 41 -6.5 74.5t-87.5 86.5q-50 37 -71 59t-34 46q-16 31 -19 67.5t8 79.5q20 79 95.5 125.5t187.5 46.5q50 0 90.5 -9.5t70.5 -27.5l-33 -126q-22 25 -63.5 39.5t-90.5 14.5q-55 0 -92 -21t-46 -57q-11 -41 5.5 -74t87.5 -85q50 -36 71.5 -58t33.5 -45q17 -31 20.5 -67
t-6.5 -78q-15 -62 -59.5 -106.5t-112.5 -65.5q7 -15 8.5 -31.5t-3.5 -32.5z" />
    <glyph glyph-name="scedilla" unicode="&#x15f;" horiz-adv-x="497" 
d="M229 -56q-16 -59 -61.5 -91t-106.5 -32q-18 0 -33.5 2t-28.5 6q6 23 12.5 46t12.5 46q11 -4 23 -6t24 -2q22 0 38.5 11t21.5 30q2 9 2 18t-3 17q-44 1 -85 13t-65 30q7 27 14 53.5t14 53.5q10 -13 26 -23.5t38 -18.5q17 -6 36.5 -9.5t39.5 -3.5q48 0 78 14.5t36 41.5
q5 23 -8.5 41.5t-67.5 47.5q-42 22 -61 36.5t-31 30.5q-18 22 -24 49.5t0 60.5q13 72 72.5 111t159.5 39q45 0 83 -10.5t63 -29.5l-27 -100q-34 22 -69.5 33.5t-68.5 11.5q-42 0 -69.5 -15.5t-32.5 -40.5q-5 -22 8.5 -40t68.5 -45q44 -22 63.5 -36t32.5 -30q18 -22 23.5 -50
t-1.5 -62q-11 -55 -49.5 -91.5t-99.5 -51.5q5 -13 5.5 -27t-3.5 -28z" />
    <glyph glyph-name="Scaron" unicode="&#x160;" horiz-adv-x="570" 
d="M423 916l168 116l42 -65l-184 -149h-85l-106 160l66 54zM455 180q-21 -89 -102.5 -140t-204.5 -51q-55 0 -99 9.5t-83 30.5l32 120q31 -26 76 -40t95 -14q65 0 110 26t55 68q10 41 -6.5 74.5t-87.5 86.5q-50 37 -71 59t-34 46q-16 31 -19 67.5t8 79.5q20 79 95.5 125.5
t187.5 46.5q50 0 90.5 -9.5t70.5 -27.5l-33 -126q-22 25 -63.5 39.5t-90.5 14.5q-55 0 -92 -21t-46 -57q-11 -41 5.5 -74t87.5 -85q50 -36 71.5 -58t33.5 -45q17 -31 20.5 -67t-6.5 -78z" />
    <glyph glyph-name="scaron" unicode="&#x161;" horiz-adv-x="497" 
d="M335 744l138 123l53 -51l-168 -175h-85l-77 181l74 45zM376 142q-15 -73 -77.5 -113t-162.5 -40q-46 0 -88.5 12t-67.5 31q7 27 14 53.5t14 53.5q10 -13 26 -23.5t38 -18.5q17 -6 36.5 -9.5t39.5 -3.5q48 0 78 14.5t36 41.5q5 23 -8.5 41.5t-67.5 47.5q-42 22 -61 36.5
t-31 30.5q-18 22 -24 49.5t0 60.5q13 72 72.5 111t159.5 39q45 0 83 -10.5t63 -29.5l-27 -100q-34 22 -69.5 33.5t-68.5 11.5q-42 0 -69.5 -15.5t-32.5 -40.5q-5 -22 8.5 -40t68.5 -45q44 -22 63.5 -36t32.5 -30q18 -22 23.5 -50t-1.5 -62z" />
    <glyph glyph-name="Tcommaaccent" unicode="&#x162;" horiz-adv-x="550" 
d="M408 654l-175 -654h-120l175 654h-205l29 109h530l-29 -109h-205zM243 -134l-185 -117l-42 60l152 138z" />
    <glyph glyph-name="tcommaaccent" unicode="&#x163;" horiz-adv-x="434" 
d="M296 16q-27 -13 -56 -20t-57 -7q-78 0 -108.5 56.5t-4.5 154.5l65 249h-88l26 96h88l39 144h112l-39 -144h152l-26 -96h-152l-61 -225q-19 -70 -7.5 -102t55.5 -32q16 0 38 6.5t51 19.5zM226 -134l-185 -117l-42 60l152 138z" />
    <glyph glyph-name="Tcaron" unicode="&#x164;" horiz-adv-x="550" 
d="M413 916l168 116l42 -65l-184 -149h-85l-106 160l66 54zM408 654l-175 -654h-120l175 654h-205l29 109h530l-29 -109h-205z" />
    <glyph glyph-name="tcaron" unicode="&#x165;" horiz-adv-x="434" 
d="M602 880l-162 -252l-73 25l118 252zM296 16q-27 -13 -56 -20t-57 -7q-78 0 -108.5 56.5t-4.5 154.5l65 249h-88l26 96h88l39 144h112l-39 -144h152l-26 -96h-152l-61 -225q-19 -70 -7.5 -102t55.5 -32q16 0 38 6.5t51 19.5z" />
    <glyph glyph-name="Tbar" unicode="&#x166;" horiz-adv-x="550" 
d="M545 339h-221l-91 -339h-120l91 339h-189l29 109h189l55 206h-205l29 109h530l-29 -109h-205l-55 -206h221z" />
    <glyph glyph-name="tbar" unicode="&#x167;" horiz-adv-x="434" 
d="M296 16q-27 -13 -56 -20t-57 -7q-78 0 -108.5 56.5t-4.5 154.5l7 25h-80l26 96h79l33 128h-88l26 96h88l39 144h112l-39 -144h152l-26 -96h-152l-35 -128h164l-26 -96h-164v-1q-19 -70 -7.5 -102t55.5 -32q16 0 38 6.5t51 19.5z" />
    <glyph glyph-name="Utilde" unicode="&#x168;" horiz-adv-x="762" 
d="M711 998q-12 -78 -41 -113.5t-82 -35.5q-17 0 -35.5 7t-49.5 28q-21 14 -30 18t-16 4q-14 0 -23 -14.5t-14 -44.5h-79q12 78 41 113.5t81 35.5q19 0 38.5 -7t51.5 -28q19 -13 27.5 -16.5t15.5 -3.5q14 0 23 14t13 43h79zM555 99q-46 -58 -111.5 -84.5t-157.5 -25.5
q-148 3 -198.5 98t-0.5 281l105 395h121l-103 -386q-40 -150 -19 -213t116 -64q62 0 104 20t70 65q17 27 31.5 66t37.5 126l103 386h121l-102 -386q-29 -107 -56 -171t-61 -107z" />
    <glyph glyph-name="utilde" unicode="&#x169;" 
d="M607 839q-15 -93 -53.5 -138.5t-94.5 -37.5q-16 2 -30.5 12.5t-33.5 37.5q-13 17 -19.5 22.5t-12.5 5.5q-14 1 -26 -18t-23 -58h-82q15 92 54 137t94 37q17 -2 31.5 -12.5t34.5 -37.5q12 -17 18 -22t12 -5q14 -1 26 18t23 59h82zM328 50q-45 -30 -89.5 -45.5t-87.5 -15.5
q-77 0 -107.5 52t-5.5 144l96 360h112l-86 -323q-19 -71 -7.5 -102t55.5 -31q36 0 80.5 18t68.5 43l105 395h112l-146 -545h-112l14 47z" />
    <glyph glyph-name="Umacron" unicode="&#x16a;" horiz-adv-x="762" 
d="M721 975l-24 -92h-362l24 92h362zM555 99q-46 -58 -111.5 -84.5t-157.5 -25.5q-148 3 -198.5 98t-0.5 281l105 395h121l-103 -386q-40 -150 -19 -213t116 -64q62 0 104 20t70 65q17 27 31.5 66t37.5 126l103 386h121l-102 -386q-29 -107 -56 -171t-61 -107z" />
    <glyph glyph-name="umacron" unicode="&#x16b;" 
d="M591 791l-25 -92h-322l25 92h322zM328 50q-45 -30 -89.5 -45.5t-87.5 -15.5q-77 0 -107.5 52t-5.5 144l96 360h112l-86 -323q-19 -71 -7.5 -102t55.5 -31q36 0 80.5 18t68.5 43l105 395h112l-146 -545h-112l14 47z" />
    <glyph glyph-name="Ubreve" unicode="&#x16c;" horiz-adv-x="762" 
d="M728 1004q-20 -84 -78 -132.5t-142 -48.5q-83 0 -121.5 52t-18.5 129h83q-9 -42 9.5 -66.5t62.5 -24.5q45 0 77 24.5t45 66.5h83zM555 99q-46 -58 -111.5 -84.5t-157.5 -25.5q-148 3 -198.5 98t-0.5 281l105 395h121l-103 -386q-40 -150 -19 -213t116 -64q62 0 104 20
t70 65q17 27 31.5 66t37.5 126l103 386h121l-102 -386q-29 -107 -56 -171t-61 -107z" />
    <glyph glyph-name="ubreve" unicode="&#x16d;" 
d="M601 832q-20 -82 -74 -131.5t-127 -49.5q-76 0 -108 50.5t-11 130.5h83q-10 -42 3.5 -66.5t48.5 -24.5q36 0 62.5 24t39.5 67h83zM328 50q-45 -30 -89.5 -45.5t-87.5 -15.5q-77 0 -107.5 52t-5.5 144l96 360h112l-86 -323q-19 -71 -7.5 -102t55.5 -31q36 0 80.5 18
t68.5 43l105 395h112l-146 -545h-112l14 47z" />
    <glyph glyph-name="Uring" unicode="&#x16e;" horiz-adv-x="762" 
d="M554 1044q75 -1 112.5 -39t22.5 -92q-15 -52 -66 -82t-123 -29q-76 1 -113.5 38.5t-22.5 91.5q15 53 66 83t124 29zM531 969q-31 0 -51.5 -11t-25.5 -29q-6 -24 11 -38t54 -14q32 0 54 11t26 28q6 24 -12 38.5t-56 14.5zM555 99q-46 -58 -111.5 -84.5t-157.5 -25.5
q-148 3 -198.5 98t-0.5 281l105 395h121l-103 -386q-40 -150 -19 -213t116 -64q62 0 104 20t70 65q17 27 31.5 66t37.5 126l103 386h121l-102 -386q-29 -107 -56 -171t-61 -107z" />
    <glyph glyph-name="uring" unicode="&#x16f;" 
d="M453 903q58 -2 85.5 -41.5t11.5 -100.5q-13 -50 -57.5 -83.5t-98.5 -32.5q-56 2 -82.5 42t-11.5 101q13 50 57 83.5t96 31.5zM437 829q-24 1 -43.5 -14.5t-23.5 -40.5q-4 -24 7.5 -39t35.5 -16t43 15t24 40t-7 39t-36 16zM328 50q-45 -30 -89.5 -45.5t-87.5 -15.5
q-77 0 -107.5 52t-5.5 144l96 360h112l-86 -323q-19 -71 -7.5 -102t55.5 -31q36 0 80.5 18t68.5 43l105 395h112l-146 -545h-112l14 47z" />
    <glyph glyph-name="Uhungarumlaut" unicode="&#x170;" horiz-adv-x="762" 
d="M614 969l-259 -159l-36 64l228 184zM850 927l-273 -117l-20 73l248 148zM555 99q-46 -58 -111.5 -84.5t-157.5 -25.5q-148 3 -198.5 98t-0.5 281l105 395h121l-103 -386q-40 -150 -19 -213t116 -64q62 0 104 20t70 65q17 27 31.5 66t37.5 126l103 386h121l-102 -386
q-29 -107 -56 -171t-61 -107z" />
    <glyph glyph-name="uhungarumlaut" unicode="&#x171;" 
d="M520 847l-222 -212l-56 48l183 225zM726 812l-246 -184l-44 57l210 204zM328 50q-45 -30 -89.5 -45.5t-87.5 -15.5q-77 0 -107.5 52t-5.5 144l96 360h112l-86 -323q-19 -71 -7.5 -102t55.5 -31q36 0 80.5 18t68.5 43l105 395h112l-146 -545h-112l14 47z" />
    <glyph glyph-name="Uogonek" unicode="&#x172;" horiz-adv-x="762" 
d="M323 -214q-20 -11 -43.5 -16.5t-45.5 -4.5q-43 2 -65 30.5t-13 69.5q7 35 30 64t69 62q-130 12 -172.5 106.5t4.5 270.5l105 395h121l-103 -386q-40 -150 -19 -213t116 -64q62 0 104 20t70 65q17 27 31.5 66t37.5 126l103 386h121l-102 -386q-29 -107 -56 -171t-61 -107
q-35 -44 -80 -69.5t-104 -34.5q-41 -23 -70.5 -53.5t-33.5 -54.5q-2 -17 5.5 -25.5t24.5 -8.5q11 0 23.5 3.5t23.5 9.5z" />
    <glyph glyph-name="uogonek" unicode="&#x173;" 
d="M370 -214q-20 -11 -43.5 -16.5t-45.5 -4.5q-43 2 -65 30.5t-13 69.5q8 37 33.5 68t79.5 67l14 47l-2 3q-45 -30 -89.5 -45.5t-87.5 -15.5q-77 0 -107.5 52t-5.5 144l96 360h112l-86 -323q-19 -71 -7.5 -102t55.5 -31q36 0 80.5 18t68.5 43l105 395h112l-146 -545
q-44 -22 -77 -55t-37 -58q-2 -17 5.5 -25.5t24.5 -8.5q11 0 23.5 3.5t23.5 9.5z" />
    <glyph glyph-name="Wcircumflex" unicode="&#x174;" horiz-adv-x="1015" 
d="M665 933l-168 -116l-42 65l184 149h85l106 -160l-66 -54zM564 596l-302 -596h-149l39 763h122l-26 -373q-3 -40 -6 -78.5t-10 -97.5q-2 -29 -3.5 -42.5t-2.5 -24.5h3l18 36t32 65l40.5 81l30.5 61l188 373h139l-8 -372q-1 -32 -2.5 -67t-4.5 -97q-2 -35 -3 -51t-1 -29h3
q19 42 46.5 102.5t64.5 142.5l168 371h127l-369 -763h-149l18 596h-3z" />
    <glyph glyph-name="wcircumflex" unicode="&#x175;" horiz-adv-x="804" 
d="M521 760l-138 -123l-53 51l168 175h85l77 -181l-74 -45zM355 297l-172 -297h-113l-17 545h108l4 -314q1 -44 0 -69.5t-3 -32.5h3q0 8 11.5 33.5t35.5 68.5l175 314h113l5 -314q1 -44 0 -69.5t-4 -32.5h3q0 7 12 32.5t36 69.5l169 314h116l-311 -545h-113l-9 297
q-1 41 -0.5 66.5t3.5 35.5h-3q-1 -11 -13.5 -36.5t-35.5 -65.5z" />
    <glyph glyph-name="Ycircumflex" unicode="&#x176;" horiz-adv-x="625" 
d="M470 933l-168 -116l-42 65l184 149h85l106 -160l-66 -54zM364 348l-93 -348h-120l93 348l-148 415h127l81 -238q6 -18 11 -36.5t8 -37.5h3q12 19 25 37t26 34l199 241h145z" />
    <glyph glyph-name="ycircumflex" unicode="&#x177;" horiz-adv-x="522" 
d="M380 760l-138 -123l-53 51l168 175h85l77 -181l-74 -45zM214 0q-84 -136 -148 -181t-156 -52q-8 -1 -17 -1h-28l27 100q17 0 25 0.5t14 1.5q60 10 102.5 44t68.5 93l-49 540h119l18 -342q2 -36 1.5 -56t-3.5 -25h3q1 5 11.5 25t30.5 56l195 342h127z" />
    <glyph glyph-name="Ydieresis" unicode="&#x178;" horiz-adv-x="625" 
d="M665 941q-9 -33 -37 -55.5t-62 -22.5q-33 0 -49.5 22.5t-7.5 55.5t37.5 55.5t61.5 22.5t49.5 -22.5t7.5 -55.5zM415 941q-9 -33 -37 -55.5t-62 -22.5q-33 0 -49.5 22.5t-7.5 55.5t37.5 55.5t61.5 22.5t49.5 -22.5t7.5 -55.5zM364 348l-93 -348h-120l93 348l-148 415h127
l81 -238q6 -18 11 -36.5t8 -37.5h3q12 19 25 37t26 34l199 241h145z" />
    <glyph glyph-name="Zacute" unicode="&#x179;" horiz-adv-x="618" 
d="M663 948l-265 -123l-29 69l242 155zM485 109l-29 -109h-498l27 102l486 549l-2 3h-326l29 109h478l-28 -103l-485 -548l2 -3h346z" />
    <glyph glyph-name="zacute" unicode="&#x17a;" horiz-adv-x="508" 
d="M568 822l-245 -176l-47 60l213 197zM382 99l-27 -99h-398l27 98l342 345l-2 3h-236l26 99h376l-27 -99l-341 -344l3 -3h257z" />
    <glyph glyph-name="Zdotaccent" unicode="&#x17b;" horiz-adv-x="618" 
d="M537 941q-9 -33 -37 -55.5t-62 -22.5q-33 0 -49.5 22.5t-7.5 55.5t37.5 55.5t61.5 22.5t49.5 -22.5t7.5 -55.5zM485 109l-29 -109h-498l27 102l486 549l-2 3h-326l29 109h478l-28 -103l-485 -548l2 -3h346z" />
    <glyph glyph-name="zdotaccent" unicode="&#x17c;" horiz-adv-x="508" 
d="M445 751q-9 -33 -37 -55.5t-62 -22.5q-33 0 -49.5 22.5t-7.5 55.5t37.5 55.5t61.5 22.5t49.5 -22.5t7.5 -55.5zM382 99l-27 -99h-398l27 98l342 345l-2 3h-236l26 99h376l-27 -99l-341 -344l3 -3h257z" />
    <glyph glyph-name="Zcaron" unicode="&#x17d;" horiz-adv-x="618" 
d="M447 916l168 116l42 -65l-184 -149h-85l-106 160l66 54zM485 109l-29 -109h-498l27 102l486 549l-2 3h-326l29 109h478l-28 -103l-485 -548l2 -3h346z" />
    <glyph glyph-name="zcaron" unicode="&#x17e;" horiz-adv-x="508" 
d="M343 744l138 123l53 -51l-168 -175h-85l-77 181l74 45zM382 99l-27 -99h-398l27 98l342 345l-2 3h-236l26 99h376l-27 -99l-341 -344l3 -3h257z" />
    <glyph glyph-name="longs" unicode="&#x17f;" horiz-adv-x="412" 
d="M58 450l25 95h82q43 145 105 200.5t170 55.5q26 0 50 -4t49 -13l-28 -104q-13 11 -35 17t-50 6q-61 0 -92 -30t-57 -128l-146 -545h-112l121 450h-82z" />
    <glyph glyph-name="Schwa" unicode="&#x18f;" horiz-adv-x="713" 
d="M166 730q61 22 117 32.5t112 10.5q168 0 234 -116.5t11 -325.5q-39 -150 -153.5 -246t-263.5 -96q-125 0 -183 87.5t-22 220.5q8 32 21 67t32 77h479q17 111 -30 167t-157 56q-49 0 -108.5 -12.5t-119.5 -34.5zM120 274q-22 -78 13 -127t115 -49q98 0 168.5 60t108.5 176
h-385q-4 -10 -9.5 -26.5t-10.5 -33.5z" />
    <glyph glyph-name="florin" unicode="&#x192;" horiz-adv-x="378" 
d="M134 8q-45 -132 -120.5 -187.5t-204.5 -55.5h-14l27 101q85 0 128 31t67 101l117 349h-94l26 95h100l38 114q38 112 101 163t160 51q17 0 34.5 -3t30.5 -8l-30 -110q-9 7 -25.5 12t-33.5 5q-45 0 -76 -32t-55 -104l-30 -88h125l-26 -95h-131z" />
    <glyph glyph-name="Aringacute" unicode="&#x1fa;" horiz-adv-x="685" 
d="M692 1179l-265 -123l-29 69l242 155zM517 1044q75 -1 112.5 -39t22.5 -92q-15 -52 -66 -82t-123 -29q-76 1 -113.5 38.5t-22.5 91.5q15 53 66 83t124 29zM494 969q-31 0 -51.5 -11t-25.5 -29q-6 -24 11 -38t54 -14q32 0 54 11t26 28q6 24 -12 38.5t-56 14.5zM158 175
l-99 -175h-131l447 763h141l37 -763h-121l-5 175h-269zM417 642q-56 -106 -70.5 -132.5t-28.5 -51.5l-98 -174h204l-3 175q-1 105 -1 135.5v47.5h-3z" />
    <glyph glyph-name="aringacute" unicode="&#x1fb;" horiz-adv-x="566" 
d="M588 1022l-265 -123l-29 69l242 155zM401 869q58 -2 85.5 -41.5t11.5 -100.5q-13 -50 -57.5 -83.5t-98.5 -32.5q-56 2 -82.5 42t-11.5 101q13 50 57 83.5t96 31.5zM385 795q-24 1 -43.5 -14.5t-23.5 -40.5q-4 -24 7.5 -39t35.5 -16t43 15t24 40t-7 39t-36 16zM296 51
q-31 -28 -73.5 -45t-85.5 -17q-71 0 -108.5 46.5t-27.5 120.5q12 86 81 130.5t192 44.5h86q1 3 2.5 7t3.5 14q15 57 -9 80.5t-93 23.5q-44 0 -87.5 -8.5t-83.5 -25.5l30 110q39 12 82 18t90 6q130 0 167 -62t-2 -208l-77 -286h-81l-4 50zM273 248q-74 0 -113 -20.5
t-46 -63.5q-7 -39 10 -60.5t54 -21.5q39 0 79.5 17.5t60.5 41.5l28 107h-73z" />
    <glyph glyph-name="AEacute" unicode="&#x1fc;" horiz-adv-x="934" 
d="M920 948l-265 -123l-29 69l242 155zM-91 0l566 763h474l-29 -109h-275l-55 -207h260l-29 -109h-260l-62 -229h302l-29 -109h-423l47 175h-217l-124 -175h-146zM520 656l-264 -372h169l99 372h-4z" />
    <glyph glyph-name="aeacute" unicode="&#x1fd;" horiz-adv-x="878" 
d="M771 822l-245 -176l-47 60l213 197zM710 29q-51 -21 -92 -30.5t-79 -9.5q-66 0 -113 26t-71 74q-63 -56 -116 -78t-107 -22q-71 0 -108.5 46.5t-27.5 120.5q12 84 79.5 125t193.5 41h84q1 4 2.5 8.5t2.5 8.5q1 6 2 8.5t1 4.5q15 57 -9 80.5t-93 23.5q-44 0 -87.5 -8.5
t-83.5 -25.5l30 110q39 12 82 18t90 6q68 0 109.5 -16t59.5 -49q41 34 91.5 50.5t106.5 14.5q125 -5 157.5 -97.5t-38.5 -224.5h-334q-12 -70 20.5 -108t104.5 -38q36 0 78 10.5t93 32.5zM707 322q28 59 8.5 101.5t-77.5 43.5q-66 2 -112 -35.5t-64 -109.5h245zM115 164
q-7 -39 10 -60.5t54 -21.5q39 0 82.5 19.5t74.5 50.5q-3 20 -3 41t2 44h-61q-78 0 -115 -16.5t-44 -56.5z" />
    <glyph glyph-name="Oslashacute" unicode="&#x1fe;" horiz-adv-x="785" 
d="M753 948l-265 -123l-29 69l242 155zM297 -11q-56 0 -102 14.5t-79 42.5l-66 -66l-62 60l75 74q-15 29 -22.5 64.5t-8.5 76.5q-1 89 32.5 183.5t93.5 169.5q65 81 150 123.5t181 42.5q56 0 101.5 -14.5t78.5 -41.5l65 65l62 -60l-73 -73q14 -29 22 -64.5t9 -77.5
q1 -89 -32.5 -183.5t-93.5 -169.5q-65 -81 -150 -123.5t-181 -42.5zM171 381q-13 -49 -15 -91.5t6 -75.5l417 414q-20 18 -48 27.5t-62 9.5q-101 0 -182.5 -79t-115.5 -205zM615 382q13 49 15 92t-7 77l-417 -415q20 -18 48 -28t63 -10q101 0 182.5 79t115.5 205z" />
    <glyph glyph-name="oslashacute" unicode="&#x1ff;" horiz-adv-x="593" 
d="M610 822l-245 -176l-47 60l213 197zM194 -11q-36 0 -65.5 8.5t-51.5 24.5l-43 -43l-51 46l49 49q-21 39 -23.5 94.5t16.5 122.5q34 121 116.5 193t192.5 72q41 0 74.5 -11t58.5 -32l51 52l52 -46l-62 -62q17 -39 18 -90.5t-17 -111.5q-36 -124 -119.5 -195t-195.5 -71z
M133 272q-8 -30 -10 -56.5t2 -47.5l257 260q-13 13 -31 20.5t-41 7.5q-59 1 -107.5 -50.5t-69.5 -133.5zM400 272q6 24 8.5 45.5t1.5 40.5l-249 -251q11 -9 26 -13.5t33 -4.5q59 -1 108.5 50t71.5 133z" />
    <glyph glyph-name="Scommaaccent" unicode="&#x218;" horiz-adv-x="570" 
d="M455 180q-21 -89 -102.5 -140t-204.5 -51q-55 0 -99 9.5t-83 30.5l32 120q31 -26 76 -40t95 -14q65 0 110 26t55 68q10 41 -6.5 74.5t-87.5 86.5q-50 37 -71 59t-34 46q-16 31 -19 67.5t8 79.5q20 79 95.5 125.5t187.5 46.5q50 0 90.5 -9.5t70.5 -27.5l-33 -126
q-22 25 -63.5 39.5t-90.5 14.5q-55 0 -92 -21t-46 -57q-11 -41 5.5 -74t87.5 -85q50 -36 71.5 -58t33.5 -45q17 -31 20.5 -67t-6.5 -78zM272 -134l-185 -117l-42 60l152 138z" />
    <glyph glyph-name="scommaaccent" unicode="&#x219;" horiz-adv-x="497" 
d="M376 142q-15 -73 -77.5 -113t-162.5 -40q-46 0 -88.5 12t-67.5 31q7 27 14 53.5t14 53.5q10 -13 26 -23.5t38 -18.5q17 -6 36.5 -9.5t39.5 -3.5q48 0 78 14.5t36 41.5q5 23 -8.5 41.5t-67.5 47.5q-42 22 -61 36.5t-31 30.5q-18 22 -24 49.5t0 60.5q13 72 72.5 111
t159.5 39q45 0 83 -10.5t63 -29.5l-27 -100q-34 22 -69.5 33.5t-68.5 11.5q-42 0 -69.5 -15.5t-32.5 -40.5q-5 -22 8.5 -40t68.5 -45q44 -22 63.5 -36t32.5 -30q18 -22 23.5 -50t-1.5 -62zM204 -134l-185 -117l-42 60l152 138z" />
    <glyph glyph-name="uni021A" unicode="&#x21a;" horiz-adv-x="550" 
d="M408 654l-175 -654h-120l175 654h-205l29 109h530l-29 -109h-205zM243 -134l-185 -117l-42 60l152 138z" />
    <glyph glyph-name="dotlessj" unicode="&#x237;" horiz-adv-x="292" 
d="M-208 -132q43 -2 75 6t56 26q26 19 42 49t35 100l133 496h112l-133 -496q-26 -97 -56.5 -150t-79.5 -85q-40 -26 -93 -38.5t-119 -10.5z" />
    <glyph glyph-name="schwa" unicode="&#x259;" horiz-adv-x="559" 
d="M160 517q51 21 92 30.5t79 9.5q115 0 169 -76t30 -204q-25 -138 -112 -215t-205 -72q-125 5 -157.5 100t38.5 227h334q12 69 -20 105t-105 36q-36 0 -78 -10.5t-93 -32.5zM163 229q-28 -59 -8.5 -104t77.5 -46q64 -2 110.5 37.5t65.5 112.5h-245z" />
    <glyph glyph-name="circumflex" unicode="&#x2c6;" horiz-adv-x="407" 
d="M342 760l-138 -123l-53 51l168 175h85l77 -181l-74 -45z" />
    <glyph glyph-name="caron" unicode="&#x2c7;" horiz-adv-x="407" 
d="M307 744l138 123l53 -51l-168 -175h-85l-77 181l74 45z" />
    <glyph glyph-name="breve" unicode="&#x2d8;" horiz-adv-x="400" 
d="M511 832q-20 -82 -74 -131.5t-127 -49.5q-76 0 -108 50.5t-11 130.5h83q-10 -42 3.5 -66.5t48.5 -24.5q36 0 62.5 24t39.5 67h83z" />
    <glyph glyph-name="dotaccent" unicode="&#x2d9;" horiz-adv-x="276" 
d="M345 751q-9 -33 -37 -55.5t-62 -22.5q-33 0 -49.5 22.5t-7.5 55.5t37.5 55.5t61.5 22.5t49.5 -22.5t7.5 -55.5z" />
    <glyph glyph-name="ring" unicode="&#x2da;" horiz-adv-x="296" 
d="M311 903q58 -2 85.5 -41.5t11.5 -100.5q-13 -50 -57.5 -83.5t-98.5 -32.5q-56 2 -82.5 42t-11.5 101q13 50 57 83.5t96 31.5zM295 829q-24 1 -43.5 -14.5t-23.5 -40.5q-4 -24 7.5 -39t35.5 -16t43 15t24 40t-7 39t-36 16z" />
    <glyph glyph-name="ogonek" unicode="&#x2db;" horiz-adv-x="269" 
d="M-77 -135q8 37 33.5 68t79.5 67q6 4 12.5 8.5t20.5 11.5l79 -20q-44 -22 -77 -55t-37 -58q-2 -17 5.5 -25.5t24.5 -8.5q11 0 23.5 3.5t23.5 9.5l-21 -80q-20 -11 -43.5 -16.5t-45.5 -4.5q-43 2 -65 30.5t-13 69.5z" />
    <glyph glyph-name="tilde" unicode="&#x2dc;" horiz-adv-x="408" 
d="M520 839q-15 -93 -53.5 -138.5t-94.5 -37.5q-16 2 -30.5 12.5t-33.5 37.5q-13 17 -19.5 22.5t-12.5 5.5q-14 1 -26 -18t-23 -58h-82q15 92 54 137t94 37q17 -2 31.5 -12.5t34.5 -37.5q12 -17 18 -22t12 -5q14 -1 26 18t23 59h82z" />
    <glyph glyph-name="hungarumlaut" unicode="&#x2dd;" horiz-adv-x="508" 
d="M418 847l-222 -212l-56 48l183 225zM624 812l-246 -184l-44 57l210 204z" />
    <glyph glyph-name="Omega" unicode="&#x3a9;" horiz-adv-x="788" 
d="M133 109q-49 64 -64.5 155t9.5 188q36 143 149.5 232t263.5 89q148 0 218.5 -102t28.5 -252q-25 -90 -87 -174.5t-142 -135.5h131l-29 -109h-252l29 109q97 80 152.5 156t78.5 159q30 110 -11 174t-144 66q-99 -2 -170.5 -65.5t-100.5 -174.5q-23 -83 -8 -159t69 -156
l-29 -109h-252l29 109h131z" />
    <glyph glyph-name="alpha" unicode="&#x3b1;" horiz-adv-x="622" 
d="M587 545l-127 -273v-272h-104l6 137q-50 -71 -108 -109.5t-115 -38.5q-82 0 -114 83.5t-1 206.5q32 126 105.5 201.5t166.5 75.5q62 0 97.5 -40t39.5 -110l47 139h107zM116 287q-20 -82 -1.5 -134t65.5 -52q48 0 101 43.5t94 119.5q-3 90 -30 135t-78 45t-92 -42
t-59 -115z" />
    <glyph glyph-name="beta" unicode="&#x3b2;" horiz-adv-x="605" 
d="M104 64l-55 -288h-121l204 760q37 137 108 201.5t186 64.5q101 0 145.5 -60t17.5 -159q-13 -47 -51 -93t-85 -71q46 -27 61.5 -81.5t-4.5 -127.5q-27 -97 -99 -159t-163 -62q-52 0 -87.5 18.5t-56.5 56.5zM402 690q-68 0 -110.5 -36.5t-62.5 -113.5l-99 -374
q24 -33 53.5 -49t69.5 -16q58 0 105 37t63 96q15 55 -6 93.5t-71 45.5q-25 -5 -47 -7t-50 -2l27 103q21 0 43 -2t50 -7q44 8 79 42.5t48 80.5q14 52 -10 80.5t-82 28.5z" />
    <glyph glyph-name="delta" unicode="&#x3b4;" horiz-adv-x="539" 
d="M447 222q-27 -99 -109.5 -166t-171.5 -67q-92 0 -134.5 74t-14.5 189q17 73 64 135t126 116q-30 31 -39 66t2 78q19 68 73.5 111.5t125.5 43.5q55 0 117 -20t98 -49l-54 -88q-49 22 -96 34t-88 12q-39 0 -58 -8t-24 -27q-7 -26 15.5 -59.5t77.5 -83.5q74 -67 94 -134.5
t-4 -156.5zM107 254q-19 -72 4 -112.5t82 -40.5q58 0 105.5 40.5t63.5 102.5q15 54 -6 99.5t-77 82.5q-55 -14 -105.5 -64t-66.5 -108z" />
    <glyph glyph-name="epsilon" unicode="&#x3b5;" horiz-adv-x="510" 
d="M295 446q-56 0 -86 -14.5t-39 -45.5q-7 -26 14 -47t63 -27q39 5 68.5 7t61.5 2l-28 -103q-37 -1 -66.5 1t-59.5 8q-56 -9 -86 -25t-37 -42q-8 -31 17 -48.5t80 -17.5q42 0 77 7.5t72 25.5l26 -71q-46 -33 -100.5 -50t-112.5 -17q-88 0 -135 44.5t-29 109.5q12 46 50 80
t95 50q-39 13 -56.5 54t-4.5 91q16 63 83 100.5t165 37.5q51 0 92.5 -17t66.5 -48l-65 -74q-32 16 -60.5 22.5t-65.5 6.5z" />
    <glyph glyph-name="theta" unicode="&#x3b8;" horiz-adv-x="551" 
d="M387 797q101 0 133.5 -112t-16.5 -294t-141.5 -294t-193.5 -112t-133 112t17 294q48 182 140.5 294t193.5 112zM357 685q-58 0 -110.5 -63.5t-89.5 -181.5h269q26 118 7.5 181.5t-76.5 63.5zM199 97q60 0 112 64.5t90 183.5h-269q-27 -119 -9.5 -183.5t76.5 -64.5z" />
    <glyph glyph-name="lambda" unicode="&#x3bb;" horiz-adv-x="512" 
d="M146 677q-12 1 -21 1.5t-17 0.5l27 100h28t16 -1q89 -8 129 -55.5t51 -177.5l48 -545h-118l-17 337q-2 36 -1.5 56.5t3.5 24.5h-3q0 -4 -10.5 -24.5t-31.5 -56.5l-198 -337h-126l342 545q5 59 -20 91.5t-81 40.5z" />
    <glyph glyph-name="nu" unicode="&#x3bd;" horiz-adv-x="522" 
d="M103 0q2 152 -10 282t-39 263h123q18 -88 25 -201.5t1 -216.5h2q66 86 128 198.5t100 219.5h123q-60 -136 -160.5 -296t-180.5 -249h-112z" />
    <glyph glyph-name="pi" unicode="&#x3c0;" horiz-adv-x="683" 
d="M38 449l26 96h600l-26 -96h-100l-60 -226q-21 -77 -15 -105t42 -28q11 0 22.5 2t41.5 12l-26 -96q-35 -12 -53 -15.5t-38 -3.5q-74 0 -100 43.5t-3 128.5l77 288h-176l-120 -449h-112l120 449h-100z" />
    <glyph glyph-name="rho" unicode="&#x3c1;" horiz-adv-x="601" 
d="M100 54l-51 -278h-121l206 769h97l-30 -113q41 56 96 90t108 34q86 0 118.5 -78.5t0.5 -197.5q-34 -126 -117 -208.5t-178 -82.5q-42 0 -75.5 17t-53.5 48zM364 444q-52 0 -108 -43.5t-97 -119.5l-33 -123q20 -28 52 -42.5t75 -14.5q55 0 107 49t72 122q21 79 2.5 125.5
t-70.5 46.5z" />
    <glyph glyph-name="Wgrave" unicode="&#x1e80;" horiz-adv-x="1015" 
d="M385 952l74 94l201 -160l-54 -61zM564 596l-302 -596h-149l39 763h122l-26 -373q-3 -40 -6 -78.5t-10 -97.5q-2 -29 -3.5 -42.5t-2.5 -24.5h3l18 36t32 65l40.5 81l30.5 61l188 373h139l-8 -372q-1 -32 -2.5 -67t-4.5 -97q-2 -35 -3 -51t-1 -29h3q19 42 46.5 102.5
t64.5 142.5l168 371h127l-369 -763h-149l18 596h-3z" />
    <glyph glyph-name="wgrave" unicode="&#x1e81;" horiz-adv-x="804" 
d="M429 897l141 -195l-56 -55l-176 177zM355 297l-172 -297h-113l-17 545h108l4 -314q1 -44 0 -69.5t-3 -32.5h3q0 8 11.5 33.5t35.5 68.5l175 314h113l5 -314q1 -44 0 -69.5t-4 -32.5h3q0 7 12 32.5t36 69.5l169 314h116l-311 -545h-113l-9 297q-1 41 -0.5 66.5t3.5 35.5
h-3q-1 -11 -13.5 -36.5t-35.5 -65.5z" />
    <glyph glyph-name="Wacute" unicode="&#x1e82;" horiz-adv-x="1015" 
d="M864 948l-265 -123l-29 69l242 155zM564 596l-302 -596h-149l39 763h122l-26 -373q-3 -40 -6 -78.5t-10 -97.5q-2 -29 -3.5 -42.5t-2.5 -24.5h3l18 36t32 65l40.5 81l30.5 61l188 373h139l-8 -372q-1 -32 -2.5 -67t-4.5 -97q-2 -35 -3 -51t-1 -29h3q19 42 46.5 102.5
t64.5 142.5l168 371h127l-369 -763h-149l18 596h-3z" />
    <glyph glyph-name="wacute" unicode="&#x1e83;" horiz-adv-x="804" 
d="M728 822l-245 -176l-47 60l213 197zM355 297l-172 -297h-113l-17 545h108l4 -314q1 -44 0 -69.5t-3 -32.5h3q0 8 11.5 33.5t35.5 68.5l175 314h113l5 -314q1 -44 0 -69.5t-4 -32.5h3q0 7 12 32.5t36 69.5l169 314h116l-311 -545h-113l-9 297q-1 41 -0.5 66.5t3.5 35.5h-3
q-1 -11 -13.5 -36.5t-35.5 -65.5z" />
    <glyph glyph-name="Wdieresis" unicode="&#x1e84;" horiz-adv-x="1015" 
d="M860 941q-9 -33 -37 -55.5t-62 -22.5q-33 0 -49.5 22.5t-7.5 55.5t37.5 55.5t61.5 22.5t49.5 -22.5t7.5 -55.5zM610 941q-9 -33 -37 -55.5t-62 -22.5q-33 0 -49.5 22.5t-7.5 55.5t37.5 55.5t61.5 22.5t49.5 -22.5t7.5 -55.5zM564 596l-302 -596h-149l39 763h122l-26 -373
q-3 -40 -6 -78.5t-10 -97.5q-2 -29 -3.5 -42.5t-2.5 -24.5h3l18 36t32 65l40.5 81l30.5 61l188 373h139l-8 -372q-1 -32 -2.5 -67t-4.5 -97q-2 -35 -3 -51t-1 -29h3q19 42 46.5 102.5t64.5 142.5l168 371h127l-369 -763h-149l18 596h-3z" />
    <glyph glyph-name="wdieresis" unicode="&#x1e85;" horiz-adv-x="804" 
d="M647 852q33 0 49.5 -22.5t7.5 -55.5t-37 -55.5t-62 -22.5q-33 0 -49.5 22.5t-7.5 55.5t37.5 55.5t61.5 22.5zM427 852q33 0 49.5 -22.5t7.5 -55.5t-37 -55.5t-62 -22.5q-33 0 -49.5 22.5t-7.5 55.5t37.5 55.5t61.5 22.5zM355 297l-172 -297h-113l-17 545h108l4 -314
q1 -44 0 -69.5t-3 -32.5h3q0 8 11.5 33.5t35.5 68.5l175 314h113l5 -314q1 -44 0 -69.5t-4 -32.5h3q0 7 12 32.5t36 69.5l169 314h116l-311 -545h-113l-9 297q-1 41 -0.5 66.5t3.5 35.5h-3q-1 -11 -13.5 -36.5t-35.5 -65.5z" />
    <glyph glyph-name="Ygrave" unicode="&#x1ef2;" horiz-adv-x="625" 
d="M199 952l74 94l201 -160l-54 -61zM364 348l-93 -348h-120l93 348l-148 415h127l81 -238q6 -18 11 -36.5t8 -37.5h3q12 19 25 37t26 34l199 241h145z" />
    <glyph glyph-name="ygrave" unicode="&#x1ef3;" horiz-adv-x="522" 
d="M285 897l141 -195l-56 -55l-176 177zM214 0q-84 -136 -148 -181t-156 -52q-8 -1 -17 -1h-28l27 100q17 0 25 0.5t14 1.5q60 10 102.5 44t68.5 93l-49 540h119l18 -342q2 -36 1.5 -56t-3.5 -25h3q1 5 11.5 25t30.5 56l195 342h127z" />
    <glyph glyph-name="thinspace" unicode="&#x2009;" horiz-adv-x="180" 
 />
    <glyph glyph-name="endash" unicode="&#x2013;" horiz-adv-x="604" 
d="M548 323l-28 -101h-504l28 101h504z" />
    <glyph glyph-name="emdash" unicode="&#x2014;" horiz-adv-x="772" 
d="M716 323l-28 -101h-672l28 101h672z" />
    <glyph glyph-name="quoteleft" unicode="&#x2018;" horiz-adv-x="226" 
d="M226 474l-169 273l117 22l126 -272z" />
    <glyph glyph-name="quoteright" unicode="&#x2019;" horiz-adv-x="226" 
d="M293 747l-169 -273l-74 23l126 272z" />
    <glyph glyph-name="quotesinglbase" unicode="&#x201a;" horiz-adv-x="252" 
d="M157 86l-209 -251l-65 37l168 258z" />
    <glyph glyph-name="quotedblleft" unicode="&#x201c;" horiz-adv-x="434" 
d="M226 474l-169 273l117 22l126 -272zM434 474l-169 273l117 22l126 -272z" />
    <glyph glyph-name="quotedblright" unicode="&#x201d;" horiz-adv-x="434" 
d="M291 747l-169 -273l-74 23l126 272zM499 747l-169 -273l-74 23l126 272z" />
    <glyph glyph-name="quotedblbase" unicode="&#x201e;" horiz-adv-x="467" 
d="M157 86l-209 -251l-65 37l168 258zM372 86l-209 -251l-65 37l168 258z" />
    <glyph glyph-name="dagger" unicode="&#x2020;" horiz-adv-x="484" 
d="M463 482l-155 8l-120 -490h-112l144 490l-161 -8l27 101l155 -7l39 187h112l-60 -187l158 7z" />
    <glyph glyph-name="daggerdbl" unicode="&#x2021;" horiz-adv-x="484" 
d="M382 180l-154 8l-40 -188h-112l61 188l-159 -8l27 101l154 -7l22 118l36 98l-158 -8l27 101l155 -7l39 187h112l-60 -187l158 7l-27 -101l-152 8l-17 -95l-42 -121l157 7z" />
    <glyph glyph-name="bullet" unicode="&#x2022;" horiz-adv-x="338" 
d="M182 392q50 0 75 -35t12 -84q-14 -50 -58 -84.5t-93 -34.5q-50 0 -75 35t-12 84q14 50 58 84.5t93 34.5z" />
    <glyph glyph-name="ellipsis" unicode="&#x2026;" horiz-adv-x="868" 
d="M742 68q-8 -32 -37.5 -55t-61.5 -23t-48.5 23t-8.5 55q9 32 38 55t61 23t49 -23t8 -55zM436 68q-8 -32 -37.5 -55t-61.5 -23t-48.5 23t-8.5 55q9 32 38 55t61 23t49 -23t8 -55zM130 68q-8 -32 -37.5 -55t-61.5 -23t-48.5 23t-8.5 55q9 32 38 55t61 23t49 -23t8 -55z" />
    <glyph glyph-name="perthousand" unicode="&#x2030;" horiz-adv-x="1721" 
d="M501 519q-33 -123 -102.5 -187.5t-170.5 -64.5t-135.5 64.5t-1.5 187.5t102.5 187.5t169.5 64.5q101 0 136 -64.5t2 -187.5zM983 764l-582 -763h-132l582 763h132zM395 519q22 82 8 121t-64 39t-85 -39t-57 -121t-8 -121t64 -39t85 39t57 121zM1171 242
q-33 -123 -102.5 -187.5t-170.5 -64.5t-135.5 64.5t-1.5 187.5t102.5 187.5t169.5 64.5q101 0 136 -64.5t2 -187.5zM1679 241q-33 -123 -102.5 -187.5t-170.5 -64.5t-135.5 64.5t-1.5 187.5t102.5 187.5t169.5 64.5q101 0 136 -64.5t2 -187.5zM1065 242q22 82 8 121t-64 39
t-85 -39t-57 -121t-8 -121t64 -39t85 39t57 121zM1573 241q22 82 8 121t-64 39t-85 -39t-57 -121t-8 -121t64 -39t85 39t57 121z" />
    <glyph glyph-name="guilsinglleft" unicode="&#x2039;" horiz-adv-x="389" 
d="M272 75l-70 -75l-193 228l20 77l319 240l37 -86l-266 -201z" />
    <glyph glyph-name="guilsinglright" unicode="&#x203a;" horiz-adv-x="389" 
d="M77 467l70 78l192 -227l-20 -77l-318 -241l-38 90l264 198z" />
    <glyph glyph-name="asterism" unicode="&#x2042;" horiz-adv-x="1149" 
d="M658 567l72 -123l-92 -53l-51 126l-116 -125l-71 60l130 118l-135 38l53 98l126 -54l29 139h102l-45 -139l149 53l5 -97zM253 67l72 -123l-92 -53l-51 126l-116 -125l-71 60l130 118l-135 38l53 98l126 -54l29 139h102l-45 -139l149 53l5 -97zM883 67l72 -123l-92 -53
l-51 126l-116 -125l-71 60l130 118l-135 38l53 98l126 -54l29 139h102l-45 -139l149 53l5 -97z" />
    <glyph glyph-name="fraction" unicode="&#x2044;" horiz-adv-x="506" 
d="M610 763l-582 -763h-132l582 763h132z" />
    <glyph glyph-name="zerosuperior" unicode="&#x2070;" horiz-adv-x="530" 
d="M508 518q-33 -123 -102.5 -187.5t-170.5 -64.5t-135.5 64.5t-1.5 187.5t102.5 187.5t169.5 64.5q101 0 136 -64.5t2 -187.5zM402 518q22 82 8 121t-64 39t-85 -39t-57 -121t-8 -121t64 -39t85 39t57 121z" />
    <glyph glyph-name="i.superior" unicode="&#x2071;" horiz-adv-x="242" 
d="M306 752q-7 -28 -31 -46.5t-52 -18.5t-42 19t-7 46q7 28 31.5 47t52.5 19t42 -19t6 -47zM258 623l-94 -350h-104l94 350h104z" />
    <glyph glyph-name="foursuperior" unicode="&#x2074;" horiz-adv-x="490" 
d="M245 273l29 109h-234l22 82l294 299h121l-79 -297h60l-23 -84h-60l-29 -109h-101zM172 468l2 -2h123l35 118q1 4 6.5 22t14.5 51h-2l-10.5 -13t-20.5 -24q-8 -10 -16.5 -19t-16.5 -17z" />
    <glyph glyph-name="fivesuperior" unicode="&#x2075;" horiz-adv-x="457" 
d="M412 420q-17 -72 -82.5 -113t-167.5 -41q-42 0 -72.5 5.5t-49.5 15.5l26 99q25 -14 56.5 -21t69.5 -7q45 0 76.5 17.5t39.5 46.5q13 46 -31 64.5t-170 9.5l71 267h297l-23 -89h-195l-26 -96q107 7 153.5 -34t27.5 -124z" />
    <glyph glyph-name="sixsuperior" unicode="&#x2076;" horiz-adv-x="493" 
d="M450 421q-16 -71 -76 -114t-142 -40q-95 4 -129 71t-3 191q29 119 105.5 181.5t190.5 60.5q32 -1 62 -6t53 -14l-27 -100q-29 15 -56 22.5t-54 7.5q-65 0 -106.5 -32t-57.5 -93q29 15 59 23t60 7q71 -1 104 -46t17 -119zM350 428q9 39 -8.5 58.5t-59.5 19.5q-26 0 -50 -7
t-42 -20q-16 -61 0 -93t64 -32q37 0 63 20t33 54z" />
    <glyph glyph-name="sevensuperior" unicode="&#x2077;" horiz-adv-x="413" 
d="M452 676l-297 -403h-118l302 395v2h-231l24 93h343z" />
    <glyph glyph-name="eightsuperior" unicode="&#x2078;" horiz-adv-x="511" 
d="M457 403q-15 -60 -79 -98.5t-146 -38.5q-91 0 -136 41.5t-26 109.5q9 31 42 61t81 51q-33 21 -42.5 49t0.5 66q15 56 71 91t133 35q76 0 115 -39.5t24 -99.5q-6 -25 -35 -51.5t-65 -41.5q45 -23 60 -56t3 -79zM392 628q7 26 -8.5 42t-49.5 16q-32 0 -55.5 -14.5
t-29.5 -36.5q-5 -21 13.5 -36.5t64.5 -28.5q28 12 44.5 26.5t20.5 31.5zM358 411q7 26 -18.5 46.5t-85.5 36.5q-32 -14 -54.5 -34t-28.5 -41q-8 -31 12.5 -49.5t62.5 -18.5q44 0 74.5 16t37.5 44z" />
    <glyph glyph-name="ninesuperior" unicode="&#x2079;" horiz-adv-x="493" 
d="M123 616q16 71 76 114t142 40q95 -4 129 -71t3 -191q-29 -119 -105.5 -181.5t-190.5 -60.5q-32 1 -62 6t-53 14l27 100q29 -15 56 -22.5t54 -7.5q65 0 106.5 32t57.5 93q-29 -15 -59 -23t-60 -7q-71 1 -104 46t-17 119zM223 609q-9 -39 8.5 -58.5t59.5 -19.5q26 0 50 7
t42 20q16 61 0 93t-64 32q-37 0 -63 -20t-33 -54z" />
    <glyph glyph-name="n.superior" unicode="&#x207f;" horiz-adv-x="466" 
d="M220 521l-66 -248h-104l94 350h104l-7 -24l2 -2q26 16 55 24.5t60 8.5q53 0 74.5 -34.5t4.5 -96.5l-61 -226h-103l54 201q10 38 3 54t-33 16q-19 0 -41.5 -6.5t-35.5 -16.5z" />
    <glyph glyph-name="zeroinferior" unicode="&#x2080;" horiz-adv-x="530" 
d="M390 21q-33 -123 -102.5 -187.5t-170.5 -64.5t-135.5 64.5t-1.5 187.5t102.5 187.5t169.5 64.5q101 0 136 -64.5t2 -187.5zM284 21q22 82 8 121t-64 39t-85 -39t-57 -121t-8 -121t64 -39t85 39t57 121z" />
    <glyph glyph-name="oneinferior" unicode="&#x2081;" horiz-adv-x="406" 
d="M241 -135l-24 -89h-312l24 89h106l69 256h-110l20 78q15 0 28 1.5t24 4.5q14 3 25 8.5t21 12.5q12 9 20 19t10 21h100l-107 -401h106z" />
    <glyph glyph-name="twoinferior" unicode="&#x2082;" horiz-adv-x="443" 
d="M257 -138l-23 -86h-333l26 96q15 11 72.5 52.5t86.5 62.5q68 51 97.5 81.5t36.5 56.5q7 29 -11 45t-58 16q-35 0 -73 -10.5t-70 -29.5l25 93q33 16 74.5 25.5t80.5 9.5q77 0 113.5 -42t16.5 -113q-13 -48 -72.5 -105.5t-191.5 -149.5l1 -2h202z" />
    <glyph glyph-name="threeinferior" unicode="&#x2083;" horiz-adv-x="433" 
d="M281 -97q-15 -62 -79.5 -98t-160.5 -36q-41 0 -72 6t-51 17l26 97q12 -7 26.5 -12.5t33.5 -9.5q16 -4 32 -6t32 -2q46 0 77 17t39 46q8 30 -16 44.5t-90 14.5h-56l24 89h68q48 0 79 16t39 45q7 26 -10.5 39t-59.5 13q-17 0 -35 -2.5t-37 -8.5q-20 -5 -37 -12t-31 -15
l27 100q28 13 68 20.5t82 7.5q78 0 115.5 -39t20.5 -100q-9 -33 -39 -62t-68 -42v-2q34 -9 49 -44t4 -81z" />
    <glyph glyph-name="fourinferior" unicode="&#x2084;" horiz-adv-x="490" 
d="M122 -224l29 109h-234l22 82l294 299h121l-79 -297h60l-23 -84h-60l-29 -109h-101zM49 -29l2 -2h123l35 118q1 4 6.5 22t14.5 51h-2l-10.5 -13t-20.5 -24q-8 -10 -16.5 -19t-16.5 -17z" />
    <glyph glyph-name="fiveinferior" unicode="&#x2085;" horiz-adv-x="457" 
d="M293 -77q-17 -72 -82.5 -113t-167.5 -41q-42 0 -72.5 5.5t-49.5 15.5l26 99q25 -14 56.5 -21t69.5 -7q45 0 76.5 17.5t39.5 46.5q13 46 -31 64.5t-170 9.5l71 267h297l-23 -89h-195l-26 -96q107 7 153.5 -34t27.5 -124z" />
    <glyph glyph-name="sixinferior" unicode="&#x2086;" horiz-adv-x="493" 
d="M330 -76q-16 -71 -76 -114t-142 -40q-95 4 -129 71t-3 191q29 119 105.5 181.5t190.5 60.5q32 -1 62 -6t53 -14l-27 -100q-29 15 -56 22.5t-54 7.5q-65 0 -106.5 -32t-57.5 -93q29 15 59 23t60 7q71 -1 104 -46t17 -119zM230 -69q9 39 -8.5 58.5t-59.5 19.5q-26 0 -50 -7
t-42 -20q-16 -61 0 -93t64 -32q37 0 63 20t33 54z" />
    <glyph glyph-name="seveninferior" unicode="&#x2087;" horiz-adv-x="413" 
d="M334 179l-297 -403h-118l302 395v2h-231l24 93h343z" />
    <glyph glyph-name="eightinferior" unicode="&#x2088;" horiz-adv-x="511" 
d="M340 -94q-15 -60 -79 -98.5t-146 -38.5q-91 0 -136 41.5t-26 109.5q9 31 42 61t81 51q-33 21 -42.5 49t0.5 66q15 56 71 91t133 35q76 0 115 -39.5t24 -99.5q-6 -25 -35 -51.5t-65 -41.5q45 -23 60 -56t3 -79zM275 131q7 26 -8.5 42t-49.5 16q-32 0 -55.5 -14.5
t-29.5 -36.5q-5 -21 13.5 -36.5t64.5 -28.5q28 12 44.5 26.5t20.5 31.5zM241 -86q7 26 -18.5 46.5t-85.5 36.5q-32 -14 -54.5 -34t-28.5 -41q-8 -31 12.5 -49.5t62.5 -18.5q44 0 74.5 16t37.5 44z" />
    <glyph glyph-name="nineinferior" unicode="&#x2089;" horiz-adv-x="493" 
d="M2 119q16 71 76 114t142 40q95 -4 129 -71t3 -191q-29 -119 -105.5 -181.5t-190.5 -60.5q-32 1 -62 6t-53 14l27 100q29 -15 56 -22.5t54 -7.5q65 0 106.5 32t57.5 93q-29 -15 -59 -23t-60 -7q-71 1 -104 46t-17 119zM102 112q-9 -39 8.5 -58.5t59.5 -19.5q26 0 50 7
t42 20q16 61 0 93t-64 32q-37 0 -63 -20t-33 -54z" />
    <glyph glyph-name="Euro" unicode="&#x20ac;" horiz-adv-x="679" 
d="M539 44q-48 -27 -105 -41t-116 -14q-79 0 -134.5 40t-79.5 114q-7 22 -11.5 47t-5.5 52h-118l28 101h97q3 19 7.5 39.5t10.5 41.5l1 5h-97l28 101h109q58 114 158.5 179t225.5 65q54 0 103 -14t75 -38l-31 -117q-34 29 -77 44.5t-88 15.5q-70 0 -132 -36t-104 -99h265
l-28 -101h-286q-2 -5 -3.5 -10t-2.5 -10q-5 -17 -8.5 -33.5t-5.5 -32.5h287l-28 -101h-264q7 -69 46 -106t107 -37q47 0 101 17.5t108 50.5z" />
    <glyph glyph-name="litre" unicode="&#x2113;" horiz-adv-x="460" 
d="M291 9q-22 -9 -56.5 -14t-64.5 -5q-62 0 -91.5 36.5t-24.5 106.5l-59 -42l-31 72l112 78l87 322q31 116 91.5 177.5t142.5 61.5q74 0 100 -53.5t1 -147.5q-28 -107 -106.5 -203t-209.5 -186q-15 -74 -2.5 -98t54.5 -24q20 0 43.5 4t39.5 10zM270 546l-58 -219
q71 56 111 116.5t61 140.5q17 64 13 92.5t-31 28.5q-31 0 -51.5 -35t-44.5 -124z" />
    <glyph glyph-name="Ndblstruck" unicode="&#x2115;" horiz-adv-x="807" 
d="M190 293l-79 -293h-121l176 658v0l28 105h125l245 -308q9 -11 18.5 -26t19.5 -35h3q5 24 9 43t8 33l78 293h121l-176 -658v0l-28 -105h-125l-244 308q-9 12 -18.5 27t-19.5 34h-3q-5 -23 -9 -42t-8 -34zM531 121h5q3 23 10.5 55.5t21.5 85.5l-272 353q-7 9 -10.5 15
t-5.5 15h-4q-2 -20 -9 -51.5t-24 -92.5l272 -353q10 -14 12.5 -18t3.5 -9z" />
    <glyph glyph-name="numero" unicode="&#x2116;" horiz-adv-x="1198" 
d="M1200 597q-20 -76 -75.5 -118t-135.5 -41q-83 2 -120 60t-13 149q19 73 73.5 113.5t132.5 39.5q86 -1 123.5 -57t14.5 -146zM233 463l-124 -463h-121l204 763h121l158 -468q7 -20 14 -49t14 -67h4q7 38 13.5 68t12.5 53l124 463h121l-204 -763h-121l-157 468
q-9 26 -16 55t-12 61h-4q-6 -32 -12.5 -62t-14.5 -59zM1098 604q13 55 -0.5 83.5t-51.5 28.5q-32 0 -56.5 -22t-32.5 -59q-13 -55 0 -83.5t52 -29.5q32 -1 56 21.5t33 60.5zM1142 374l-28 -101h-336l28 101h336z" />
    <glyph glyph-name="soundcopyright" unicode="&#x2117;" horiz-adv-x="858" 
d="M429 773q165 0 272 -111t107 -281t-107 -280.5t-272 -110.5t-272 110.5t-107 280.5t107 281t272 111zM429 676q-123 0 -203 -83.5t-80 -211.5t80 -211.5t203 -83.5t203 83.5t80 211.5t-80 211.5t-203 83.5zM400 293v-135h-98v433h130q88 0 133.5 -37t45.5 -110
q0 -72 -49 -111.5t-137 -39.5h-25zM432 505h-32v-126h25q44 0 66 16t22 48q0 31 -20.5 46.5t-60.5 15.5z" />
    <glyph glyph-name="Rdblstruck" unicode="&#x211d;" horiz-adv-x="898" 
d="M296 654l-175 -654h-121l204 763h412q137 0 204.5 -69.5t37.5 -182.5q-19 -70 -57 -115t-101 -71l78 -325h-121l-65 302q-16 -3 -34.5 -4.5t-47.5 -1.5l50 -296h-110l-42 293l-28 -1l-78 -292h-111l175 654h-70zM750 524q17 66 -12 103.5t-95 37.5q26 -20 35.5 -57
t-0.5 -78q-13 -51 -44 -89t-76 -59q77 2 126 38t66 104zM570 527q18 67 -7 103t-83 34l-75 -281q63 2 104.5 38.5t60.5 105.5z" />
    <glyph glyph-name="trademark" unicode="&#x2122;" horiz-adv-x="1134" 
d="M370 677l-109 -404h-107l109 404h-141l22 86h389l-22 -86h-141zM651 515l-70 -242h-102l159 490h108l37 -298q2 -16 3 -33.5t1 -59.5h2q20 44 29.5 60.5t19.5 32.5l197 298h111l-103 -490h-106l57 242q7 27 15 53t17 51h-3q-13 -25 -28 -51t-32 -53l-155 -242h-98
l-26 242q-3 28 -5 54t-3 50h-2q-4 -25 -9.5 -51t-13.5 -53z" />
    <glyph glyph-name="Zdblstruck" unicode="&#x2124;" horiz-adv-x="735" 
d="M155 654l29 109h595l-27 -104l-406 -547l2 -3h266l-29 -109h-615l28 105l405 546l-2 3h-246zM131 109h85l404 542l-2 3h-85l-404 -542z" />
    <glyph glyph-name="estimated" unicode="&#x212e;" horiz-adv-x="771" 
d="M655 203h6v-77q-45 -65 -116 -100.5t-155 -35.5q-146 0 -244 95t-98 241q0 140 91.5 232t234.5 92t234 -95t91 -239q0 -11 -0.5 -21t-2.5 -21h-522v-133q38 -46 95 -71t122 -25q82 0 155.5 44.5t108.5 113.5zM565 519q-37 38 -85.5 57.5t-105.5 19.5q-61 0 -112.5 -22.5
t-87.5 -64.5v-183h391v193z" />
    <glyph glyph-name="arrowleft" unicode="&#x2190;" horiz-adv-x="1020" 
d="M970 222h-623v-130l-347 180v1l347 180v-130h623v-101z" />
    <glyph glyph-name="arrowup" unicode="&#x2191;" horiz-adv-x="361" 
d="M130 -213v623h-130l180 347h1l180 -347h-130v-623h-101z" />
    <glyph glyph-name="arrowright" unicode="&#x2192;" horiz-adv-x="1020" 
d="M50 323h623v130l347 -180v-1l-347 -180v130h-623v101z" />
    <glyph glyph-name="arrowdown" unicode="&#x2193;" horiz-adv-x="361" 
d="M231 757v-623h130l-180 -347h-1l-180 347h130v623h101z" />
    <glyph glyph-name="arrowleftfrombar" unicode="&#x21a4;" horiz-adv-x="1020" 
d="M327 456l-143 -133h685v130h101v-361h-101v130h-684l142 -133l-72 -72l-255 255v1l255 255z" />
    <glyph glyph-name="arrowupfrombar" unicode="&#x21a5;" horiz-adv-x="511" 
d="M439 430l-133 143v-685h130v-101h-361v101h130v684l-133 -142l-72 72l255 255h1l255 -255z" />
    <glyph glyph-name="arrowrightfrombar" unicode="&#x21a6;" horiz-adv-x="1020" 
d="M693 89l143 133h-685v-130h-101v361h101v-130h684l-142 133l72 72l255 -255v-1l-255 -255z" />
    <glyph glyph-name="arrowdownfrombar" unicode="&#x21a7;" horiz-adv-x="511" 
d="M72 114l133 -143v685h-130v101h361v-101h-130v-684l133 142l72 -72l-255 -255h-1l-255 255z" />
    <glyph glyph-name="dblarrowleftstroke" unicode="&#x21cd;" horiz-adv-x="1120" 
d="M519 -144l124 265h-348l133 -133l-72 -72l-356 356v1l356 356l72 -72l-133 -133h489l144 308l92 -43l-124 -265h174v-101h-221l-47 -101h268v-101h-315l-144 -308zM193 323l-50 -50v-1l50 -50h497l47 101h-544z" />
    <glyph glyph-name="dblarrowleftrightstroke" unicode="&#x21ce;" horiz-adv-x="1439" 
d="M470 -144l124 265h-299l133 -133l-72 -72l-356 356v1l356 356l72 -72l-133 -133h440l144 308l92 -43l-124 -265h297l-133 133l72 72l356 -356v-1l-356 -356l-72 72l133 133h-438l-144 -308zM193 323l-50 -50v-1l50 -50h448l47 101h-495zM1246 222l50 50v1l-50 50h-446
l-47 -101h493z" />
    <glyph glyph-name="dblarrowrightstroke" unicode="&#x21cf;" horiz-adv-x="1120" 
d="M100 -144l124 265h-174v101h221l47 101h-268v101h315l144 308l92 -43l-124 -265h348l-133 133l72 72l356 -356v-1l-356 -356l-72 72l133 133h-489l-144 -308zM927 222l50 50v1l-50 50h-497l-47 -101h544z" />
    <glyph glyph-name="arrowdblleft" unicode="&#x21d0;" horiz-adv-x="1120" 
d="M428 557l-133 -133h775v-101h-877l-50 -50v-1l50 -50h877v-101h-775l133 -133l-72 -72l-356 356v1l356 356z" />
    <glyph glyph-name="arrowdblright" unicode="&#x21d2;" horiz-adv-x="1120" 
d="M692 -12l133 133h-775v101h877l50 50v1l-50 50h-877v101h775l-133 133l72 72l356 -356v-1l-356 -356z" />
    <glyph glyph-name="arrowdblboth" unicode="&#x21d4;" horiz-adv-x="1439" 
d="M428 557l-133 -133h849l-133 133l72 72l356 -356v-1l-356 -356l-72 72l133 133h-849l133 -133l-72 -72l-356 356v1l356 356zM1246 222l50 50v1l-50 50h-1053l-50 -50v-1l50 -50h1053z" />
    <glyph glyph-name="partialdiff" unicode="&#x2202;" horiz-adv-x="612" 
d="M528 292q-35 -142 -119 -222.5t-200 -80.5t-161.5 81t-11.5 220q30 122 107.5 194t182.5 72q26 0 48 -5.5t41 -19.5q-25 59 -76 107t-128 87l97 76q142 -73 201.5 -208.5t18.5 -300.5zM150 290q-26 -94 -6 -146.5t83 -52.5q67 0 112 44.5t70 136.5t4 137t-88 45
q-65 0 -109 -41.5t-66 -122.5z" />
    <glyph glyph-name="emptyset" unicode="&#x2205;" horiz-adv-x="865" 
d="M341 -11q-55 0 -101.5 12.5t-82.5 35.5l-57 -57l-72 60l61 62q-39 55 -48 133.5t16 172.5q44 163 172 264.5t297 101.5q53 0 99 -12.5t82 -35.5l57 57l72 -60l-61 -62q1 -2 2.5 -4.5t3.5 -4.5q36 -56 44 -130t-14 -156q-45 -169 -172.5 -273t-297.5 -104zM178 408
q-16 -63 -14 -116.5t21 -92.5l432 436q-24 14 -54 22t-66 8q-113 0 -201.5 -72.5t-117.5 -184.5zM690 366q16 60 13 111t-22 89l-433 -437q24 -15 54.5 -23t67.5 -8q113 0 200.5 74.5t119.5 193.5z" />
    <glyph glyph-name="increment" unicode="&#x2206;" horiz-adv-x="762" 
d="M-67 0l3 12l541 751h12l139 -751l-3 -12h-692zM492 103l-70 434l-298 -434h368z" />
    <glyph glyph-name="element" unicode="&#x2208;" horiz-adv-x="794" 
d="M681 184l-29 -110h-278q-179 0 -262 89.5t-44 249.5q35 145 145 214t312 69h284l-29 -110h-274q-139 0 -215.5 -37.5t-102.5 -116.5h504l-28 -101h-492q3 -74 59 -110.5t167 -36.5h283z" />
    <glyph glyph-name="notelement" unicode="&#x2209;" horiz-adv-x="794" 
d="M373 74q-35 0 -67.5 3.5t-60.5 10.5l-67 -88h-132l100 132q-60 42 -81 113.5t2 167.5q35 145 145 214t312 69h53l51 67h132l-51 -67h99l-29 -110h-154l-117 -154h183l-28 -101h-233l-108 -142q17 -3 35.5 -4t39.5 -1h283l-29 -110h-278zM187 432h189l117 154
q-133 -2 -206.5 -39.5t-99.5 -114.5zM171 331q1 -34 13.5 -59.5t35.5 -43.5l78 103h-127z" />
    <glyph glyph-name="suchthat" unicode="&#x220b;" horiz-adv-x="794" 
d="M738 349q-35 -145 -145 -214t-312 -69h-284l29 110h274q139 0 215.5 37.5t102.5 116.5h-503l28 101h491q-3 74 -59 110.5t-167 36.5h-283l29 110h278q179 0 262 -89.5t44 -249.5z" />
    <glyph glyph-name="notcontains" unicode="&#x220c;" horiz-adv-x="794" 
d="M281 66h-41l-50 -66h-132l50 66h-111l29 110h166l118 154h-195l28 101h244l107 140q-19 4 -40.5 5.5t-45.5 1.5h-283l29 110h278q39 0 73.5 -4.5t64.5 -12.5l70 92h132l-106 -138q56 -43 75.5 -113t-3.5 -163q-35 -145 -145 -214t-312 -69zM519 431h115q-1 31 -11.5 55.5
t-29.5 41.5zM442 330l-118 -154q127 3 198 41t96 113h-176z" />
    <glyph glyph-name="product" unicode="&#x220f;" horiz-adv-x="762" 
d="M363 -78l198 740h-249l-198 -740h-112l198 740h-117l28 101h672l-28 -101h-82l-198 -740h-112z" />
    <glyph glyph-name="summation" unicode="&#x2211;" horiz-adv-x="614" 
d="M629 662h-339l176 -315l-347 -324h339l-27 -101h-494l20 76l374 349l-189 340l20 76h494z" />
    <glyph glyph-name="minus" unicode="&#x2212;" horiz-adv-x="724" 
d="M609 323l-28 -101h-524l28 101h524z" />
    <glyph glyph-name="bulletoperator" unicode="&#x2219;" horiz-adv-x="256" 
d="M170 273q-8 -32 -37.5 -55t-61.5 -23t-48.5 23t-8.5 55q9 32 38 55t61 23t49 -23t8 -55z" />
    <glyph glyph-name="radical" unicode="&#x221a;" horiz-adv-x="705" 
d="M36 291l27 101h205l11 -174q3 -31 2.5 -51t-2.5 -30h3q4 11 14.5 31t27.5 50l320 545h123l-468 -763h-112l-31 291h-120z" />
    <glyph glyph-name="infinity" unicode="&#x221e;" horiz-adv-x="869" 
d="M654 509q85 0 126.5 -70.5t17.5 -180.5q-22 -98 -94 -158t-164 -60q-60 0 -101 27.5t-67 87.5q-40 -52 -97 -83.5t-115 -31.5q-43 0 -79 23t-55 63q-17 34 -19 76.5t10 89.5q26 99 97 158t163 59q62 0 101 -27.5t62 -90.5q34 52 92.5 85t121.5 33zM120 291
q-17 -63 6.5 -104.5t69.5 -41.5q43 0 83.5 24.5t74.5 70.5q-1 83 -25 123.5t-72 40.5q-44 0 -84 -32.5t-53 -80.5zM694 258q17 65 -5.5 105.5t-71.5 40.5q-42 0 -82 -24.5t-74 -70.5q2 -83 26 -123.5t71 -40.5q43 0 83 32.5t53 80.5z" />
    <glyph glyph-name="intersection" unicode="&#x2229;" horiz-adv-x="802" 
d="M87 324q49 183 143.5 266.5t249.5 83.5q153 0 213 -97t13 -268l-84 -309h-110l80 299q36 135 2.5 200t-137.5 65q-101 0 -165 -61.5t-101 -201.5l-81 -301h-110z" />
    <glyph glyph-name="union" unicode="&#x222a;" horiz-adv-x="802" 
d="M703 339q-49 -183 -143.5 -266.5t-249.5 -83.5q-153 0 -213 97t-13 268l84 309h110l-80 -299q-36 -135 -2.5 -200t137.5 -65q101 0 165 61.5t101 201.5l81 301h110z" />
    <glyph glyph-name="integral" unicode="&#x222b;" horiz-adv-x="427" 
d="M-143 -117q10 -7 27 -12t33 -5q43 0 71 32.5t48 107.5l139 522q32 117 97.5 179.5t159.5 62.5q17 0 35 -3t31 -8l-28 -106q-10 7 -27 12t-33 5q-43 0 -71 -32.5t-48 -107.5l-140 -522q-31 -117 -97 -179.5t-160 -62.5q-16 0 -34.5 3t-31.5 8z" />
    <glyph glyph-name="approxequal" unicode="&#x2248;" horiz-adv-x="724" 
d="M441 462q25 -23 36.5 -30t22.5 -7q26 0 43 21t31 74h107q-20 -100 -73.5 -157t-128.5 -57q-31 0 -59 13t-69 51q-25 24 -36.5 30.5t-21.5 6.5q-27 0 -44 -20.5t-31 -74.5h-107q23 101 76 157.5t126 56.5q31 0 59 -13t69 -51zM364 175q25 -23 36.5 -30t22.5 -7q26 0 43 21
t31 74h107q-20 -100 -73.5 -157t-128.5 -57q-31 0 -59 13t-69 51q-25 24 -36.5 30.5t-21.5 6.5q-27 0 -44 -21t-30 -74h-107q22 101 75 157.5t126 56.5q31 0 59 -13t69 -51z" />
    <glyph glyph-name="notequal" unicode="&#x2260;" horiz-adv-x="724" 
d="M549 101h-276l-68 -101h-112l68 101h-136l27 101h178l95 141h-235l27 101h277l68 101h112l-68 -101h135l-27 -101h-177l-95 -141h234z" />
    <glyph glyph-name="lessequal" unicode="&#x2264;" horiz-adv-x="724" 
d="M590 247l-61 -98l-447 165l27 99l524 161l9 -107l-399 -110zM568 101l-28 -101h-524l28 101h524z" />
    <glyph glyph-name="greaterequal" unicode="&#x2265;" horiz-adv-x="724" 
d="M597 313l-529 -162l-7 96l405 117l-344 117l60 94l441 -163zM566 101l-28 -101h-524l28 101h524z" />
    <glyph glyph-name="propersubset" unicode="&#x2282;" horiz-adv-x="794" 
d="M374 70q-179 0 -262 89.5t-44 249.5q35 145 145 214t312 69h284l-29 -110h-274q-147 0 -224.5 -42.5t-99.5 -131.5q-28 -115 25 -171.5t191 -56.5h283l-29 -110h-278z" />
    <glyph glyph-name="propersuperset" unicode="&#x2283;" horiz-adv-x="794" 
d="M432 692q179 0 262 -89.5t44 -249.5q-35 -145 -145 -214t-312 -69h-284l29 110h274q147 0 224.5 42.5t99.5 131.5q28 115 -25 171.5t-191 56.5h-283l29 110h278z" />
    <glyph glyph-name="intersectionarray" unicode="&#x22c2;" horiz-adv-x="802" 
d="M87 324q49 183 143.5 266.5t249.5 83.5q153 0 213 -97t13 -268l-84 -309h-110l80 299q36 135 2.5 200t-137.5 65q-101 0 -165 -61.5t-101 -201.5l-81 -301h-110z" />
    <glyph glyph-name="unionarray" unicode="&#x22c3;" horiz-adv-x="802" 
d="M703 339q-49 -183 -143.5 -266.5t-249.5 -83.5q-153 0 -213 97t-13 268l84 309h110l-80 -299q-36 -135 -2.5 -200t137.5 -65q101 0 165 61.5t101 201.5l81 301h110z" />
    <glyph glyph-name="triangleupblack" unicode="&#x25b2;" horiz-adv-x="480" 
d="M240 450l200 -354h-400z" />
    <glyph glyph-name="trianglerightblack" unicode="&#x25b6;" horiz-adv-x="468" 
d="M80 477l348 -204l-348 -203v407z" />
    <glyph glyph-name="triangledownblack" unicode="&#x25bc;" horiz-adv-x="480" 
d="M240 96l-200 354h400z" />
    <glyph glyph-name="triangleleftblack" unicode="&#x25c0;" horiz-adv-x="468" 
d="M388 70l-348 204l348 203v-407z" />
    <glyph glyph-name="lozenge" unicode="&#x25ca;" horiz-adv-x="585" 
d="M555 382v-2l-365 -391h-4l-156 391v2l366 392h4zM236 168l191 213l-77 213l-192 -213z" />
    <glyph glyph-name="circlewhite" unicode="&#x25cb;" horiz-adv-x="454" 
d="M415 273q0 -78 -55 -133t-133 -55t-133 55t-55 133t55 133t133 55t133 -55t55 -133zM319 273q0 38 -27 65t-65 27t-65 -27t-27 -65t27 -65t65 -27t65 27t27 65z" />
    <glyph glyph-name="circleblack" unicode="&#x25cf;" horiz-adv-x="454" 
d="M415 273q0 -78 -55 -133t-133 -55t-133 55t-55 133t55 133t133 55t133 -55t55 -133z" />
    <glyph glyph-name="largecircle" unicode="&#x25ef;" horiz-adv-x="482" 
d="M30 279q22 86 84 135.5t150 49.5q82 0 124.5 -57.5t19.5 -140.5q-22 -83 -87 -133.5t-148 -50.5q-82 0 -123 56.5t-20 140.5zM307 266q12 44 -6.5 71t-61.5 27q-38 0 -67.5 -23.5t-39.5 -61.5q-11 -43 7 -69.5t59 -26.5q37 0 68 23.5t41 59.5z" />
    <glyph glyph-name="squaremediumwhite" unicode="&#x25fb;" horiz-adv-x="474" 
d="M414 450v-354h-354v354h354zM324 360h-174v-174h174v174z" />
    <glyph glyph-name="squaremediumblack" unicode="&#x25fc;" horiz-adv-x="474" 
d="M414 450v-354h-354v354h354z" />
    <glyph glyph-name="checkbox" unicode="&#x2610;" horiz-adv-x="723" 
d="M80 545h563v-545h-563v545zM533 449h-343v-353h343v353z" />
    <glyph glyph-name="checkboxchekced" unicode="&#x2611;" horiz-adv-x="723" 
d="M712 533l-69 -77v-456h-563v545h539l38 42zM190 96h343v237l-163 -182l-144 180l58 50l88 -111l161 179h-343v-353z" />
    <glyph glyph-name="checkboxx" unicode="&#x2612;" horiz-adv-x="723" 
d="M80 545h563v-545h-563v545zM239 449l122 -122l122 122h-244zM416 273l117 -118v235zM190 389v-233l117 117zM239 96h244l-122 122z" />
    <glyph glyph-name="parendblleft" unicode="&#x2e28;" horiz-adv-x="556" 
d="M130 121q0 -83 9.5 -154.5t32.5 -154.5l-85 -47q-33 66 -51 156t-18 186q0 204 86 385.5t246 310.5l70 -58q-137 -115 -213.5 -283.5t-76.5 -340.5zM341 121q0 -83 9.5 -154.5t32.5 -154.5l-85 -47q-33 66 -51 156t-18 186q0 204 86 385.5t246 310.5l70 -58
q-137 -115 -213.5 -283.5t-76.5 -340.5z" />
    <glyph glyph-name="parendblright" unicode="&#x2e29;" horiz-adv-x="556" 
d="M143 447q0 83 -9.5 154.5t-32.5 154.5l85 47q33 -66 51 -156t18 -186q0 -204 -86 -385.5t-246 -310.5l-70 58q137 115 213.5 283.5t76.5 340.5zM354 447q0 83 -9.5 154.5t-32.5 154.5l85 47q33 -66 51 -156t18 -186q0 -204 -86 -385.5t-246 -310.5l-70 58
q137 115 213.5 283.5t76.5 340.5z" />
    <glyph glyph-name="whitesquarebracketleft" unicode="&#x301a;" horiz-adv-x="512" 
d="M-103 -224l272 1015h422l-25 -94h-99l-222 -827h99l-25 -94h-211l247 921h-99l-222 -827h99l-25 -94h-211z" />
    <glyph glyph-name="whitesquarebracketright" unicode="&#x301b;" horiz-adv-x="512" 
d="M541 791l-272 -1015h-422l25 94h99l222 827h-99l25 94h211l-247 -921h99l222 827h-99l25 94h211z" />
    <glyph glyph-name="A.small" unicode="&#xe000;" horiz-adv-x="563" 
d="M125 116l-70 -116h-117l336 546h124l43 -546h-113l-8 116h-195zM308 435q-24 -44 -39 -70t-28 -49l-65 -107h144l-6 107q-2 25 -2.5 53t-0.5 66h-3z" />
    <glyph glyph-name="AE.small" unicode="&#xe001;" horiz-adv-x="812" 
d="M-90 0l518 546h369l-25 -93h-216l-34 -127h203l-25 -93h-203l-37 -140h225l-25 -93h-335l31 116h-206l-106 -116h-134zM235 209h146l60 224z" />
    <glyph glyph-name="AEacute.small" unicode="&#xe002;" horiz-adv-x="812" 
d="M852 822l-245 -176l-47 60l213 197zM-90 0l518 546h369l-25 -93h-216l-34 -127h203l-25 -93h-203l-37 -140h225l-25 -93h-335l31 116h-206l-106 -116h-134zM235 209h146l60 224z" />
    <glyph glyph-name="Aacute.small" unicode="&#xe003;" horiz-adv-x="563" 
d="M563 822l-245 -176l-47 60l213 197zM125 116l-70 -116h-117l336 546h124l43 -546h-113l-8 116h-195zM308 435q-24 -44 -39 -70t-28 -49l-65 -107h144l-6 107q-2 25 -2.5 53t-0.5 66h-3z" />
    <glyph glyph-name="Abreve.small" unicode="&#xe004;" horiz-adv-x="563" 
d="M552 832q-20 -82 -74 -131.5t-127 -49.5q-76 0 -108 50.5t-11 130.5h83q-10 -42 3.5 -66.5t48.5 -24.5q36 0 62.5 24t39.5 67h83zM125 116l-70 -116h-117l336 546h124l43 -546h-113l-8 116h-195zM308 435q-24 -44 -39 -70t-28 -49l-65 -107h144l-6 107q-2 25 -2.5 53
t-0.5 66h-3z" />
    <glyph glyph-name="Acircumflex.small" unicode="&#xe005;" horiz-adv-x="563" 
d="M356 760l-138 -123l-53 51l168 175h85l77 -181l-74 -45zM125 116l-70 -116h-117l336 546h124l43 -546h-113l-8 116h-195zM308 435q-24 -44 -39 -70t-28 -49l-65 -107h144l-6 107q-2 25 -2.5 53t-0.5 66h-3z" />
    <glyph glyph-name="Adieresis.small" unicode="&#xe006;" horiz-adv-x="563" 
d="M494 852q33 0 49.5 -22.5t7.5 -55.5t-37 -55.5t-62 -22.5q-33 0 -49.5 22.5t-7.5 55.5t37.5 55.5t61.5 22.5zM274 852q33 0 49.5 -22.5t7.5 -55.5t-37 -55.5t-62 -22.5q-33 0 -49.5 22.5t-7.5 55.5t37.5 55.5t61.5 22.5zM125 116l-70 -116h-117l336 546h124l43 -546h-113
l-8 116h-195zM308 435q-24 -44 -39 -70t-28 -49l-65 -107h144l-6 107q-2 25 -2.5 53t-0.5 66h-3z" />
    <glyph glyph-name="Agrave.small" unicode="&#xe007;" horiz-adv-x="563" 
d="M263 897l141 -195l-56 -55l-176 177zM125 116l-70 -116h-117l336 546h124l43 -546h-113l-8 116h-195zM308 435q-24 -44 -39 -70t-28 -49l-65 -107h144l-6 107q-2 25 -2.5 53t-0.5 66h-3z" />
    <glyph glyph-name="Amacron.small" unicode="&#xe008;" horiz-adv-x="563" 
d="M532 791l-25 -92h-322l25 92h322zM125 116l-70 -116h-117l336 546h124l43 -546h-113l-8 116h-195zM308 435q-24 -44 -39 -70t-28 -49l-65 -107h144l-6 107q-2 25 -2.5 53t-0.5 66h-3z" />
    <glyph glyph-name="Aogonek.small" unicode="&#xe009;" horiz-adv-x="564" 
d="M382 -214q-20 -11 -43.5 -16.5t-45.5 -4.5q-43 2 -65 30.5t-13 69.5q8 37 33.5 68t79.5 67l-8 116h-195l-70 -116h-117l336 546h124l43 -546h-1q-44 -22 -77 -55t-37 -58q-2 -17 5.5 -25.5t24.5 -8.5q11 0 23.5 3.5t23.5 9.5zM308 435q-24 -44 -39 -70t-28 -49l-65 -107
h144l-6 107q-2 25 -2.5 53t-0.5 66h-3z" />
    <glyph glyph-name="Aring.small" unicode="&#xe00a;" horiz-adv-x="563" 
d="M388 903q58 -2 85.5 -41.5t11.5 -100.5q-13 -50 -57.5 -83.5t-98.5 -32.5q-56 2 -82.5 42t-11.5 101q13 50 57 83.5t96 31.5zM372 829q-24 1 -43.5 -14.5t-23.5 -40.5q-4 -24 7.5 -39t35.5 -16t43 15t24 40t-7 39t-36 16zM125 116l-70 -116h-117l336 546h124l43 -546
h-113l-8 116h-195zM308 435q-24 -44 -39 -70t-28 -49l-65 -107h144l-6 107q-2 25 -2.5 53t-0.5 66h-3z" />
    <glyph glyph-name="Aringacute.small" unicode="&#xe00b;" horiz-adv-x="563" 
d="M580 1040l-245 -176l-47 60l213 197zM397 839q58 -2 85.5 -41.5t11.5 -100.5q-13 -50 -57.5 -83.5t-98.5 -32.5q-56 2 -82.5 42t-11.5 101q13 50 57 83.5t96 31.5zM381 765q-24 1 -43.5 -14.5t-23.5 -40.5q-4 -24 7.5 -39t35.5 -16t43 15t24 40t-7 39t-36 16zM125 116
l-70 -116h-117l336 546h124l43 -546h-113l-8 116h-195zM308 435q-24 -44 -39 -70t-28 -49l-65 -107h144l-6 107q-2 25 -2.5 53t-0.5 66h-3z" />
    <glyph glyph-name="Atilde.small" unicode="&#xe00c;" horiz-adv-x="563" 
d="M547 839q-15 -93 -53.5 -138.5t-94.5 -37.5q-16 2 -30.5 12.5t-33.5 37.5q-13 17 -19.5 22.5t-12.5 5.5q-14 1 -26 -18t-23 -58h-82q15 92 54 137t94 37q17 -2 31.5 -12.5t34.5 -37.5q12 -17 18 -22t12 -5q14 -1 26 18t23 59h82zM125 116l-70 -116h-117l336 546h124
l43 -546h-113l-8 116h-195zM308 435q-24 -44 -39 -70t-28 -49l-65 -107h144l-6 107q-2 25 -2.5 53t-0.5 66h-3z" />
    <glyph glyph-name="B.small" unicode="&#xe00d;" horiz-adv-x="541" 
d="M334 546q88 0 128 -41t20 -111q-11 -38 -43.5 -68.5t-74.5 -42.5v-1q45 -6 67 -44.5t8 -89.5q-21 -74 -86 -111t-174 -37h-191l146 546h200zM185 325h77q46 0 73.5 16.5t36.5 48.5q8 32 -10.5 48t-61.5 16h-80zM123 92h82q51 0 84.5 19t42.5 54q9 32 -15 50t-74 18h-83z
" />
    <glyph glyph-name="C.small" unicode="&#xe00e;" horiz-adv-x="517" 
d="M144 286q-25 -93 3 -143.5t103 -50.5q39 0 81 11.5t81 33.5l-28 -104q-37 -19 -84 -30t-92 -11q-109 0 -157 86.5t-13 219.5q30 114 120 185t210 71q45 0 82 -9.5t60 -26.5l-29 -106q-27 22 -58.5 32.5t-70.5 10.5q-74 0 -130.5 -45t-77.5 -124z" />
    <glyph glyph-name="Cacute.small" unicode="&#xe00f;" horiz-adv-x="529" 
d="M576 822l-245 -176l-47 60l213 197zM144 286q-25 -93 3 -143.5t103 -50.5q39 0 81 11.5t81 33.5l-28 -104q-37 -19 -84 -30t-92 -11q-109 0 -157 86.5t-13 219.5q30 114 120 185t210 71q45 0 82 -9.5t60 -26.5l-29 -106q-27 22 -58.5 32.5t-70.5 10.5q-74 0 -130.5 -45
t-77.5 -124z" />
    <glyph glyph-name="Ccaron.small" unicode="&#xe010;" horiz-adv-x="517" 
d="M382 744l138 123l53 -51l-168 -175h-85l-77 181l74 45zM144 286q-25 -93 3 -143.5t103 -50.5q39 0 81 11.5t81 33.5l-28 -104q-37 -19 -84 -30t-92 -11q-109 0 -157 86.5t-13 219.5q30 114 120 185t210 71q45 0 82 -9.5t60 -26.5l-29 -106q-27 22 -58.5 32.5t-70.5 10.5
q-74 0 -130.5 -45t-77.5 -124z" />
    <glyph glyph-name="Ccedilla.small" unicode="&#xe011;" horiz-adv-x="517" 
d="M267 -66q-16 -59 -61.5 -91t-106.5 -32q-18 0 -33.5 2t-28.5 6q6 23 12.5 46t12.5 46q11 -4 23 -6t24 -2q22 0 38.5 11t21.5 30q4 16 0.5 30.5t-11.5 23.5q-83 19 -117 101t-3 199q30 114 120 185t210 71q45 0 82 -9.5t60 -26.5l-29 -106q-27 22 -58.5 32.5t-70.5 10.5
q-74 0 -130.5 -45t-77.5 -124q-25 -93 3 -143.5t103 -50.5q39 0 81 11.5t81 33.5l-28 -104q-26 -13 -57.5 -22.5t-63.5 -14.5q6 -14 7 -30t-3 -32z" />
    <glyph glyph-name="Ccircumflex.small" unicode="&#xe012;" horiz-adv-x="517" 
d="M378 760l-138 -123l-53 51l168 175h85l77 -181l-74 -45zM144 286q-25 -93 3 -143.5t103 -50.5q39 0 81 11.5t81 33.5l-28 -104q-37 -19 -84 -30t-92 -11q-109 0 -157 86.5t-13 219.5q30 114 120 185t210 71q45 0 82 -9.5t60 -26.5l-29 -106q-27 22 -58.5 32.5t-70.5 10.5
q-74 0 -130.5 -45t-77.5 -124z" />
    <glyph glyph-name="Cdotaccent.small" unicode="&#xe013;" horiz-adv-x="517" 
d="M478 751q-9 -33 -37 -55.5t-62 -22.5q-33 0 -49.5 22.5t-7.5 55.5t37.5 55.5t61.5 22.5t49.5 -22.5t7.5 -55.5zM144 286q-25 -93 3 -143.5t103 -50.5q39 0 81 11.5t81 33.5l-28 -104q-37 -19 -84 -30t-92 -11q-109 0 -157 86.5t-13 219.5q30 114 120 185t210 71
q45 0 82 -9.5t60 -26.5l-29 -106q-27 22 -58.5 32.5t-70.5 10.5q-74 0 -130.5 -45t-77.5 -124z" />
    <glyph glyph-name="D.small" unicode="&#xe014;" horiz-adv-x="594" 
d="M519 249q-29 -110 -121 -179.5t-217 -69.5h-193l146 546h186q126 0 180 -81.5t19 -215.5zM293 450h-74l-95 -354h83q73 0 129.5 46.5t75.5 118.5q24 89 -7 139t-112 50z" />
    <glyph glyph-name="Dcaron.small" unicode="&#xe015;" horiz-adv-x="594" 
d="M354 744l138 123l53 -51l-168 -175h-85l-77 181l74 45zM519 249q-29 -110 -121 -179.5t-217 -69.5h-193l146 546h186q126 0 180 -81.5t19 -215.5zM293 450h-74l-95 -354h83q73 0 129.5 46.5t75.5 118.5q24 89 -7 139t-112 50z" />
    <glyph glyph-name="Dcroat.small" unicode="&#xe016;" horiz-adv-x="594" 
d="M519 249q-29 -110 -121 -179.5t-217 -69.5h-193l60 225h-59l26 96h59l60 225h186q126 0 180 -81.5t19 -215.5zM124 96h83q73 0 129.5 46.5t75.5 118.5q24 89 -7 139t-112 50h-74l-35 -129h107l-26 -96h-106z" />
    <glyph glyph-name="E.small" unicode="&#xe017;" horiz-adv-x="475" 
d="M348 93l-25 -93h-335l146 546h326l-25 -93h-216l-34 -127h203l-25 -93h-203l-37 -140h225z" />
    <glyph glyph-name="Eacute.small" unicode="&#xe018;" horiz-adv-x="475" 
d="M542 822l-245 -176l-47 60l213 197zM348 93l-25 -93h-335l146 546h326l-25 -93h-216l-34 -127h203l-25 -93h-203l-37 -140h225z" />
    <glyph glyph-name="Ebreve.small" unicode="&#xe019;" horiz-adv-x="475" 
d="M522 832q-20 -82 -74 -131.5t-127 -49.5q-76 0 -108 50.5t-11 130.5h83q-10 -42 3.5 -66.5t48.5 -24.5q36 0 62.5 24t39.5 67h83zM348 93l-25 -93h-335l146 546h326l-25 -93h-216l-34 -127h203l-25 -93h-203l-37 -140h225z" />
    <glyph glyph-name="Ecaron.small" unicode="&#xe01a;" horiz-adv-x="475" 
d="M336 744l138 123l53 -51l-168 -175h-85l-77 181l74 45zM348 93l-25 -93h-335l146 546h326l-25 -93h-216l-34 -127h203l-25 -93h-203l-37 -140h225z" />
    <glyph glyph-name="Ecircumflex.small" unicode="&#xe01b;" horiz-adv-x="475" 
d="M361 760l-138 -123l-53 51l168 175h85l77 -181l-74 -45zM348 93l-25 -93h-335l146 546h326l-25 -93h-216l-34 -127h203l-25 -93h-203l-37 -140h225z" />
    <glyph glyph-name="Edieresis.small" unicode="&#xe01c;" horiz-adv-x="475" 
d="M472 852q33 0 49.5 -22.5t7.5 -55.5t-37 -55.5t-62 -22.5q-33 0 -49.5 22.5t-7.5 55.5t37.5 55.5t61.5 22.5zM252 852q33 0 49.5 -22.5t7.5 -55.5t-37 -55.5t-62 -22.5q-33 0 -49.5 22.5t-7.5 55.5t37.5 55.5t61.5 22.5zM348 93l-25 -93h-335l146 546h326l-25 -93h-216
l-34 -127h203l-25 -93h-203l-37 -140h225z" />
    <glyph glyph-name="Edotaccent.small" unicode="&#xe01d;" horiz-adv-x="475" 
d="M422 751q-9 -33 -37 -55.5t-62 -22.5q-33 0 -49.5 22.5t-7.5 55.5t37.5 55.5t61.5 22.5t49.5 -22.5t7.5 -55.5zM348 93l-25 -93h-335l146 546h326l-25 -93h-216l-34 -127h203l-25 -93h-203l-37 -140h225z" />
    <glyph glyph-name="Egrave.small" unicode="&#xe01e;" horiz-adv-x="475" 
d="M256 897l141 -195l-56 -55l-176 177zM348 93l-25 -93h-335l146 546h326l-25 -93h-216l-34 -127h203l-25 -93h-203l-37 -140h225z" />
    <glyph glyph-name="Emacron.small" unicode="&#xe01f;" horiz-adv-x="475" 
d="M503 791l-25 -92h-322l25 92h322zM348 93l-25 -93h-335l146 546h326l-25 -93h-216l-34 -127h203l-25 -93h-203l-37 -140h225z" />
    <glyph glyph-name="Eng.small" unicode="&#xe020;" horiz-adv-x="622" 
d="M323 -184q-43 -27 -95 -39.5t-114 -11.5l27 101q46 0 78 8t54 26q23 17 38 40.5t28 66.5l-112 283l-16 42t-17 43h-3q-4 -22 -9 -44t-11 -43l-74 -288h-109l146 546h107l117 -289q7 -17 15.5 -38.5t17.5 -46.5h3q5 25 9.5 47t9.5 40l74 287h109l-130 -482l-1 -4l-3 -11
q-25 -91 -58 -147t-81 -86z" />
    <glyph glyph-name="Eogonek.small" unicode="&#xe021;" horiz-adv-x="475" 
d="M262 -214q-20 -11 -43.5 -16.5t-45.5 -4.5q-43 2 -65 30.5t-13 69.5q8 37 33.5 68t79.5 67h-220l146 546h326l-25 -93h-216l-34 -127h203l-25 -93h-203l-37 -140h225l-25 -93h-3q-44 -22 -77 -55t-37 -58q-2 -17 5.5 -25.5t24.5 -8.5q11 0 23.5 3.5t23.5 9.5z" />
    <glyph glyph-name="Eth.small" unicode="&#xe022;" horiz-adv-x="594" 
d="M519 249q-29 -110 -121 -179.5t-217 -69.5h-193l60 225h-59l26 96h59l60 225h186q126 0 180 -81.5t19 -215.5zM124 96h83q73 0 129.5 46.5t75.5 118.5q24 89 -7 139t-112 50h-74l-35 -129h107l-26 -96h-106z" />
    <glyph glyph-name="Euro.LP" unicode="&#xe023;" horiz-adv-x="679" 
d="M539 44q-48 -27 -105 -41t-116 -14q-79 0 -134.5 40t-79.5 114q-7 22 -11.5 47t-5.5 52h-118l28 101h97q3 19 7.5 39.5t10.5 41.5l1 5h-97l28 101h109q58 114 158.5 179t225.5 65q54 0 103 -14t75 -38l-31 -117q-34 29 -77 44.5t-88 15.5q-70 0 -132 -36t-104 -99h265
l-28 -101h-286q-2 -5 -3.5 -10t-2.5 -10q-5 -17 -8.5 -33.5t-5.5 -32.5h287l-28 -101h-264q7 -69 46 -106t107 -37q47 0 101 17.5t108 50.5z" />
    <glyph glyph-name="Euro.LT" unicode="&#xe024;" horiz-adv-x="661" 
d="M535 44q-48 -27 -105 -41t-116 -14q-79 0 -134.5 40t-79.5 114q-7 22 -11.5 47t-5.5 52h-118l28 101h97q3 19 7.5 39.5t10.5 41.5l1 5h-97l28 101h109q58 114 158.5 179t225.5 65q54 0 103 -14t75 -38l-31 -117q-34 29 -77 44.5t-88 15.5q-70 0 -132 -36t-104 -99h265
l-28 -101h-286q-2 -5 -3.5 -10t-2.5 -10q-5 -17 -8.5 -33.5t-5.5 -32.5h287l-28 -101h-264q7 -69 46 -106t107 -37q47 0 101 17.5t108 50.5z" />
    <glyph glyph-name="Euro.OP" unicode="&#xe025;" horiz-adv-x="579" 
d="M425 33q-37 -19 -84 -30t-92 -11q-74 0 -121 41t-59 111h-101l27 101h73q2 11 4 22.5t5 23.5h-70l27 101h84q45 74 121.5 118t169.5 44q45 0 82 -9.5t60 -26.5l-29 -106q-27 22 -58.5 32.5t-70.5 10.5q-44 0 -82.5 -16.5t-67.5 -46.5h187l-27 -101h-217q0 -1 -0.5 -2.5
t-0.5 -2.5q-3 -11 -5 -21l-4 -20h215l-27 -101h-177q13 -25 39.5 -38.5t64.5 -13.5q39 0 81 11.5t81 33.5z" />
    <glyph glyph-name="Euro.OT" unicode="&#xe026;" horiz-adv-x="660" 
d="M463 33q-37 -19 -84 -30t-92 -11q-74 0 -121 41t-59 111h-101l27 101h73q2 11 4 22.5t5 23.5h-70l27 101h84q45 74 121.5 118t169.5 44q45 0 82 -9.5t60 -26.5l-29 -106q-27 22 -58.5 32.5t-70.5 10.5q-44 0 -82.5 -16.5t-67.5 -46.5h187l-27 -101h-217q0 -1 -0.5 -2.5
t-0.5 -2.5q-3 -11 -5 -21l-4 -20h215l-27 -101h-177q13 -25 39.5 -38.5t64.5 -13.5q39 0 81 11.5t81 33.5z" />
    <glyph glyph-name="F.small" unicode="&#xe027;" horiz-adv-x="457" 
d="M134 546h327l-25 -93h-217l-34 -127h203l-25 -93h-203l-62 -233h-110z" />
    <glyph glyph-name="G.small" unicode="&#xe028;" horiz-adv-x="593" 
d="M282 292h217l-69 -259q-56 -21 -106 -31t-97 -10q-120 0 -173.5 83.5t-15.5 222.5q34 124 124 190t224 66q43 0 83.5 -8.5t80.5 -25.5l-28 -106q-37 22 -76.5 33t-82.5 11q-80 0 -138.5 -45.5t-79.5 -125.5q-27 -100 2.5 -151t113.5 -51q20 0 39.5 2.5t35.5 7.5l28 104
h-107z" />
    <glyph glyph-name="Gbreve.small" unicode="&#xe029;" horiz-adv-x="593" 
d="M576 832q-20 -82 -74 -131.5t-127 -49.5q-76 0 -108 50.5t-11 130.5h83q-10 -42 3.5 -66.5t48.5 -24.5q36 0 62.5 24t39.5 67h83zM282 292h217l-69 -259q-56 -21 -106 -31t-97 -10q-120 0 -173.5 83.5t-15.5 222.5q34 124 124 190t224 66q43 0 83.5 -8.5t80.5 -25.5
l-28 -106q-37 22 -76.5 33t-82.5 11q-80 0 -138.5 -45.5t-79.5 -125.5q-27 -100 2.5 -151t113.5 -51q20 0 39.5 2.5t35.5 7.5l28 104h-107z" />
    <glyph glyph-name="Gcircumflex.small" unicode="&#xe02a;" horiz-adv-x="593" 
d="M410 760l-138 -123l-53 51l168 175h85l77 -181l-74 -45zM282 292h217l-69 -259q-56 -21 -106 -31t-97 -10q-120 0 -173.5 83.5t-15.5 222.5q34 124 124 190t224 66q43 0 83.5 -8.5t80.5 -25.5l-28 -106q-37 22 -76.5 33t-82.5 11q-80 0 -138.5 -45.5t-79.5 -125.5
q-27 -100 2.5 -151t113.5 -51q20 0 39.5 2.5t35.5 7.5l28 104h-107z" />
    <glyph glyph-name="Gcommaaccent.small" unicode="&#xe02b;" horiz-adv-x="593" 
d="M282 292h217l-69 -259q-56 -21 -106 -31t-97 -10q-120 0 -173.5 83.5t-15.5 222.5q34 124 124 190t224 66q43 0 83.5 -8.5t80.5 -25.5l-28 -106q-37 22 -76.5 33t-82.5 11q-80 0 -138.5 -45.5t-79.5 -125.5q-27 -100 2.5 -151t113.5 -51q20 0 39.5 2.5t35.5 7.5l28 104
h-107zM290 -134l-185 -117l-42 60l152 138z" />
    <glyph glyph-name="Gdotaccent.small" unicode="&#xe02c;" horiz-adv-x="593" 
d="M504 751q-9 -33 -37 -55.5t-62 -22.5q-33 0 -49.5 22.5t-7.5 55.5t37.5 55.5t61.5 22.5t49.5 -22.5t7.5 -55.5zM282 292h217l-69 -259q-56 -21 -106 -31t-97 -10q-120 0 -173.5 83.5t-15.5 222.5q34 124 124 190t224 66q43 0 83.5 -8.5t80.5 -25.5l-28 -106
q-37 22 -76.5 33t-82.5 11q-80 0 -138.5 -45.5t-79.5 -125.5q-27 -100 2.5 -151t113.5 -51q20 0 39.5 2.5t35.5 7.5l28 104h-107z" />
    <glyph glyph-name="H.small" unicode="&#xe02d;" horiz-adv-x="622" 
d="M160 231l-62 -231h-110l146 546h110l-58 -219h241l58 219h111l-146 -546h-111l62 231h-241z" />
    <glyph glyph-name="Hbar.small" unicode="&#xe02e;" horiz-adv-x="622" 
d="M160 231l-62 -231h-110l100 375h-52l26 96h52l20 75h110l-20 -75h241l20 75h111l-20 -75h48l-26 -96h-48l-100 -375h-111l62 231h-241zM186 327h241l13 48h-241z" />
    <glyph glyph-name="Hcircumflex.small" unicode="&#xe02f;" horiz-adv-x="622" 
d="M407 760l-138 -123l-53 51l168 175h85l77 -181l-74 -45zM160 231l-62 -231h-110l146 546h110l-58 -219h241l58 219h111l-146 -546h-111l62 231h-241z" />
    <glyph glyph-name="I.small" unicode="&#xe030;" horiz-adv-x="410" 
d="M283 93l-25 -93h-290l25 93h90l96 360h-90l25 93h290l-25 -93h-90l-96 -360h90z" />
    <glyph glyph-name="IJ.small" unicode="&#xe031;" horiz-adv-x="856" 
d="M740 209q-32 -122 -87.5 -169.5t-159.5 -47.5q-30 0 -66 6t-46 13l28 105q17 -11 45 -17t58 -6q49 0 74 25t51 119l57 216h-179l25 93h290zM283 93l-25 -93h-290l25 93h90l96 360h-90l25 93h290l-25 -93h-90l-96 -360h90z" />
    <glyph glyph-name="Iacute.small" unicode="&#xe032;" horiz-adv-x="410" 
d="M508 822l-245 -176l-47 60l213 197zM283 93l-25 -93h-290l25 93h90l96 360h-90l25 93h290l-25 -93h-90l-96 -360h90z" />
    <glyph glyph-name="Ibreve.small" unicode="&#xe033;" horiz-adv-x="410" 
d="M481 832q-20 -82 -74 -131.5t-127 -49.5q-76 0 -108 50.5t-11 130.5h83q-10 -42 3.5 -66.5t48.5 -24.5q36 0 62.5 24t39.5 67h83zM283 93l-25 -93h-290l25 93h90l96 360h-90l25 93h290l-25 -93h-90l-96 -360h90z" />
    <glyph glyph-name="Icircumflex.small" unicode="&#xe034;" horiz-adv-x="410" 
d="M304 760l-138 -123l-53 51l168 175h85l77 -181l-74 -45zM283 93l-25 -93h-290l25 93h90l96 360h-90l25 93h290l-25 -93h-90l-96 -360h90z" />
    <glyph glyph-name="Idieresis.small" unicode="&#xe035;" horiz-adv-x="410" 
d="M438 852q33 0 49.5 -22.5t7.5 -55.5t-37 -55.5t-62 -22.5q-33 0 -49.5 22.5t-7.5 55.5t37.5 55.5t61.5 22.5zM218 852q33 0 49.5 -22.5t7.5 -55.5t-37 -55.5t-62 -22.5q-33 0 -49.5 22.5t-7.5 55.5t37.5 55.5t61.5 22.5zM283 93l-25 -93h-290l25 93h90l96 360h-90l25 93
h290l-25 -93h-90l-96 -360h90z" />
    <glyph glyph-name="Idotaccent.small" unicode="&#xe036;" horiz-adv-x="410" 
d="M392 751q-9 -33 -37 -55.5t-62 -22.5q-33 0 -49.5 22.5t-7.5 55.5t37.5 55.5t61.5 22.5t49.5 -22.5t7.5 -55.5zM283 93l-25 -93h-290l25 93h90l96 360h-90l25 93h290l-25 -93h-90l-96 -360h90z" />
    <glyph glyph-name="Igrave.small" unicode="&#xe037;" horiz-adv-x="410" 
d="M198 897l141 -195l-56 -55l-176 177zM283 93l-25 -93h-290l25 93h90l96 360h-90l25 93h290l-25 -93h-90l-96 -360h90z" />
    <glyph glyph-name="Imacron.small" unicode="&#xe038;" horiz-adv-x="410" 
d="M482 791l-25 -92h-322l25 92h322zM283 93l-25 -93h-290l25 93h90l96 360h-90l25 93h290l-25 -93h-90l-96 -360h90z" />
    <glyph glyph-name="Iogonek.small" unicode="&#xe039;" horiz-adv-x="410" 
d="M198 -214q-20 -11 -43.5 -16.5t-45.5 -4.5q-43 2 -65 30.5t-13 69.5q8 37 33.5 68t79.5 67h-176l25 93h90l96 360h-90l25 93h290l-25 -93h-90l-96 -360h90l-25 -93h-2q-44 -22 -77 -55t-37 -58q-2 -17 5.5 -25.5t24.5 -8.5q11 0 23.5 3.5t23.5 9.5z" />
    <glyph glyph-name="Itilde.small" unicode="&#xe03a;" horiz-adv-x="410" 
d="M485 839q-15 -93 -53.5 -138.5t-94.5 -37.5q-16 2 -30.5 12.5t-33.5 37.5q-13 17 -19.5 22.5t-12.5 5.5q-14 1 -26 -18t-23 -58h-82q15 92 54 137t94 37q17 -2 31.5 -12.5t34.5 -37.5q12 -17 18 -22t12 -5q14 -1 26 18t23 59h82zM283 93l-25 -93h-290l25 93h90l96 360
h-90l25 93h290l-25 -93h-90l-96 -360h90z" />
    <glyph glyph-name="J.small" unicode="&#xe03b;" horiz-adv-x="441" 
d="M325 209q-32 -122 -87.5 -169.5t-159.5 -47.5q-30 0 -66 6t-46 13l28 105q17 -11 45 -17t58 -6q49 0 74 25t51 119l57 216h-179l25 93h290z" />
    <glyph glyph-name="Jcircumflex.small" unicode="&#xe03c;" horiz-adv-x="441" 
d="M326 760l-138 -123l-53 51l168 175h85l77 -181l-74 -45zM325 209q-32 -122 -87.5 -169.5t-159.5 -47.5q-30 0 -66 6t-46 13l28 105q17 -11 45 -17t58 -6q49 0 74 25t51 119l57 216h-179l25 93h290z" />
    <glyph glyph-name="K.small" unicode="&#xe03d;" horiz-adv-x="533" 
d="M160 230l-62 -230h-110l146 546h110l-58 -218q29 0 51.5 17.5t77.5 77.5q14 15 33 35.5t80 87.5h129l-210 -216q-15 -16 -31 -27.5t-34 -18.5q-3 -1 -4 -1.5l-1 -0.5l-1 -2l0.5 -0.5t2.5 -1.5q11 -8 19.5 -20t15.5 -29l112 -229h-113q-21 49 -27.5 64t-11.5 26
q-15 33 -24.5 53.5t-16.5 34.5q-16 31 -29 42t-44 10z" />
    <glyph glyph-name="Kcommaaccent.small" unicode="&#xe03e;" horiz-adv-x="533" 
d="M160 230l-62 -230h-110l146 546h110l-58 -218q29 0 51.5 17.5t77.5 77.5q14 15 33 35.5t80 87.5h129l-210 -216q-15 -16 -31 -27.5t-34 -18.5q-3 -1 -4 -1.5l-1 -0.5l-1 -2l0.5 -0.5t2.5 -1.5q11 -8 19.5 -20t15.5 -29l112 -229h-113q-21 49 -27.5 64t-11.5 26
q-15 33 -24.5 53.5t-16.5 34.5q-16 31 -29 42t-44 10zM253 -134l-185 -117l-42 60l152 138z" />
    <glyph glyph-name="L.small" unicode="&#xe03f;" horiz-adv-x="455" 
d="M349 96l-26 -96h-335l146 546h110l-120 -450h225z" />
    <glyph glyph-name="Lacute.small" unicode="&#xe040;" horiz-adv-x="455" 
d="M450 822l-245 -176l-47 60l213 197zM349 96l-26 -96h-335l146 546h110l-120 -450h225z" />
    <glyph glyph-name="Lcaron.small" unicode="&#xe041;" horiz-adv-x="455" 
d="M349 96l-26 -96h-335l146 546h110l-120 -450h225zM487 507l-162 -252l-73 25l118 252z" />
    <glyph glyph-name="Lcommaaccent.small" unicode="&#xe042;" horiz-adv-x="455" 
d="M349 96l-26 -96h-335l146 546h110l-120 -450h225zM212 -134l-185 -117l-42 60l152 138z" />
    <glyph glyph-name="Ldot.small" unicode="&#xe043;" horiz-adv-x="455" 
d="M349 96l-26 -96h-335l146 546h110l-120 -450h225zM410 352q-9 -33 -37 -55.5t-62 -22.5q-33 0 -49.5 22.5t-7.5 55.5t37.5 55.5t61.5 22.5t49.5 -22.5t7.5 -55.5z" />
    <glyph glyph-name="Lslash.small" unicode="&#xe044;" horiz-adv-x="455" 
d="M349 96l-26 -96h-335l41 153l-75 -45l30 115l76 45l74 278h110l-53 -199l155 93l-30 -115l-156 -93l-36 -136h225z" />
    <glyph glyph-name="M.small" unicode="&#xe045;" horiz-adv-x="754" 
d="M165 270l-78 -270h-109l177 546h111l41 -332q6 -48 7.5 -68.5t1.5 -35.5h2q16 34 29.5 57.5t28.5 46.5l221 332h110l-115 -546h-109l64 270q7 30 16 58.5t19 56.5h-3q-14 -28 -31 -57t-36 -59l-172 -269h-109l-30 269q-3 31 -5 60t-3 56h-3q-4 -28 -10.5 -57t-14.5 -58z
" />
    <glyph glyph-name="N.small" unicode="&#xe046;" horiz-adv-x="622" 
d="M171 288l-74 -288h-109l146 546h107l117 -289q7 -17 15.5 -38.5t17.5 -46.5h3q5 25 9.5 47t9.5 40l74 287h109l-146 -546h-108l-115 290l-16 42t-17 43h-3q-4 -22 -9 -44t-11 -43z" />
    <glyph glyph-name="Nacute.small" unicode="&#xe047;" horiz-adv-x="622" 
d="M605 822l-245 -176l-47 60l213 197zM171 288l-74 -288h-109l146 546h107l117 -289q7 -17 15.5 -38.5t17.5 -46.5h3q5 25 9.5 47t9.5 40l74 287h109l-146 -546h-108l-115 290l-16 42t-17 43h-3q-4 -22 -9 -44t-11 -43z" />
    <glyph glyph-name="Ncaron.small" unicode="&#xe048;" horiz-adv-x="622" 
d="M400 744l138 123l53 -51l-168 -175h-85l-77 181l74 45zM171 288l-74 -288h-109l146 546h107l117 -289q7 -17 15.5 -38.5t17.5 -46.5h3q5 25 9.5 47t9.5 40l74 287h109l-146 -546h-108l-115 290l-16 42t-17 43h-3q-4 -22 -9 -44t-11 -43z" />
    <glyph glyph-name="Ncommaaccent.small" unicode="&#xe049;" horiz-adv-x="622" 
d="M171 288l-74 -288h-109l146 546h107l117 -289q7 -17 15.5 -38.5t17.5 -46.5h3q5 25 9.5 47t9.5 40l74 287h109l-146 -546h-108l-115 290l-16 42t-17 43h-3q-4 -22 -9 -44t-11 -43zM282 -134l-185 -117l-42 60l152 138z" />
    <glyph glyph-name="Ntilde.small" unicode="&#xe04a;" horiz-adv-x="622" 
d="M595 839q-15 -93 -53.5 -138.5t-94.5 -37.5q-16 2 -30.5 12.5t-33.5 37.5q-13 17 -19.5 22.5t-12.5 5.5q-14 1 -26 -18t-23 -58h-82q15 92 54 137t94 37q17 -2 31.5 -12.5t34.5 -37.5q12 -17 18 -22t12 -5q14 -1 26 18t23 59h82zM171 288l-74 -288h-109l146 546h107
l117 -289q7 -17 15.5 -38.5t17.5 -46.5h3q5 25 9.5 47t9.5 40l74 287h109l-146 -546h-108l-115 290l-16 42t-17 43h-3q-4 -22 -9 -44t-11 -43z" />
    <glyph glyph-name="O.small" unicode="&#xe04b;" horiz-adv-x="640" 
d="M567 255q-32 -118 -122.5 -190.5t-210.5 -72.5q-123 0 -177.5 84.5t-18.5 218.5q31 115 122 187t211 72q122 0 176.5 -84.5t19.5 -214.5zM457 255q25 93 -5 148t-106 55q-71 0 -125 -45.5t-73 -117.5q-25 -95 5.5 -151t106.5 -56q71 0 124 45.5t73 121.5z" />
    <glyph glyph-name="OE.small" unicode="&#xe04c;" horiz-adv-x="875" 
d="M389 0l9 33q-36 -20 -77.5 -30.5t-86.5 -10.5q-123 0 -177.5 84.5t-18.5 218.5q31 115 122 187t211 72q48 0 86.5 -14t65.5 -40l12 46h326l-25 -93h-216l-34 -127h203l-25 -93h-203l-37 -140h225l-25 -93h-335zM457 255q25 93 -5 148t-106 55q-71 0 -125 -45.5
t-73 -117.5q-25 -95 5.5 -151t106.5 -56q71 0 124 45.5t73 121.5z" />
    <glyph glyph-name="Oacute.small" unicode="&#xe04d;" horiz-adv-x="640" 
d="M629 822l-245 -176l-47 60l213 197zM567 255q-32 -118 -122.5 -190.5t-210.5 -72.5q-123 0 -177.5 84.5t-18.5 218.5q31 115 122 187t211 72q122 0 176.5 -84.5t19.5 -214.5zM457 255q25 93 -5 148t-106 55q-71 0 -125 -45.5t-73 -117.5q-25 -95 5.5 -151t106.5 -56
q71 0 124 45.5t73 121.5z" />
    <glyph glyph-name="Obreve.small" unicode="&#xe04e;" horiz-adv-x="640" 
d="M590 832q-20 -82 -74 -131.5t-127 -49.5q-76 0 -108 50.5t-11 130.5h83q-10 -42 3.5 -66.5t48.5 -24.5q36 0 62.5 24t39.5 67h83zM567 255q-32 -118 -122.5 -190.5t-210.5 -72.5q-123 0 -177.5 84.5t-18.5 218.5q31 115 122 187t211 72q122 0 176.5 -84.5t19.5 -214.5z
M457 255q25 93 -5 148t-106 55q-71 0 -125 -45.5t-73 -117.5q-25 -95 5.5 -151t106.5 -56q71 0 124 45.5t73 121.5z" />
    <glyph glyph-name="Ocircumflex.small" unicode="&#xe04f;" horiz-adv-x="640" 
d="M407 760l-138 -123l-53 51l168 175h85l77 -181l-74 -45zM567 255q-32 -118 -122.5 -190.5t-210.5 -72.5q-123 0 -177.5 84.5t-18.5 218.5q31 115 122 187t211 72q122 0 176.5 -84.5t19.5 -214.5zM457 255q25 93 -5 148t-106 55q-71 0 -125 -45.5t-73 -117.5
q-25 -95 5.5 -151t106.5 -56q71 0 124 45.5t73 121.5z" />
    <glyph glyph-name="Odieresis.small" unicode="&#xe050;" horiz-adv-x="640" 
d="M529 852q33 0 49.5 -22.5t7.5 -55.5t-37 -55.5t-62 -22.5q-33 0 -49.5 22.5t-7.5 55.5t37.5 55.5t61.5 22.5zM309 852q33 0 49.5 -22.5t7.5 -55.5t-37 -55.5t-62 -22.5q-33 0 -49.5 22.5t-7.5 55.5t37.5 55.5t61.5 22.5zM567 255q-32 -118 -122.5 -190.5t-210.5 -72.5
q-123 0 -177.5 84.5t-18.5 218.5q31 115 122 187t211 72q122 0 176.5 -84.5t19.5 -214.5zM457 255q25 93 -5 148t-106 55q-71 0 -125 -45.5t-73 -117.5q-25 -95 5.5 -151t106.5 -56q71 0 124 45.5t73 121.5z" />
    <glyph glyph-name="Ograve.small" unicode="&#xe051;" horiz-adv-x="640" 
d="M325 897l141 -195l-56 -55l-176 177zM567 255q-32 -118 -122.5 -190.5t-210.5 -72.5q-123 0 -177.5 84.5t-18.5 218.5q31 115 122 187t211 72q122 0 176.5 -84.5t19.5 -214.5zM457 255q25 93 -5 148t-106 55q-71 0 -125 -45.5t-73 -117.5q-25 -95 5.5 -151t106.5 -56
q71 0 124 45.5t73 121.5z" />
    <glyph glyph-name="Ohungarumlaut.small" unicode="&#xe052;" horiz-adv-x="640" 
d="M518 847l-222 -212l-56 48l183 225zM724 812l-246 -184l-44 57l210 204zM567 255q-32 -118 -122.5 -190.5t-210.5 -72.5q-123 0 -177.5 84.5t-18.5 218.5q31 115 122 187t211 72q122 0 176.5 -84.5t19.5 -214.5zM457 255q25 93 -5 148t-106 55q-71 0 -125 -45.5
t-73 -117.5q-25 -95 5.5 -151t106.5 -56q71 0 124 45.5t73 121.5z" />
    <glyph glyph-name="Omacron.small" unicode="&#xe053;" horiz-adv-x="640" 
d="M601 791l-25 -92h-322l25 92h322zM567 255q-32 -118 -122.5 -190.5t-210.5 -72.5q-123 0 -177.5 84.5t-18.5 218.5q31 115 122 187t211 72q122 0 176.5 -84.5t19.5 -214.5zM457 255q25 93 -5 148t-106 55q-71 0 -125 -45.5t-73 -117.5q-25 -95 5.5 -151t106.5 -56
q71 0 124 45.5t73 121.5z" />
    <glyph glyph-name="Oslash.small" unicode="&#xe054;" horiz-adv-x="640" 
d="M233 -8q-40 0 -74 9.5t-59 27.5l-53 -50l-56 56l57 54q-21 39 -24.5 91.5t13.5 114.5q31 115 122 187t211 72q38 0 70.5 -9t57.5 -26l48 46l57 -56l-51 -48q23 -39 27 -92t-13 -114q-32 -118 -122.5 -190.5t-210.5 -72.5zM147 295q-9 -34 -10.5 -64t3.5 -54l276 264
q-14 8 -32 12.5t-39 4.5q-71 0 -125 -45.5t-73 -117.5zM456 255q9 35 10.5 65.5t-4.5 54.5l-279 -266q15 -10 34 -15.5t42 -5.5q71 0 124 45.5t73 121.5z" />
    <glyph glyph-name="Oslashacute.small" unicode="&#xe055;" horiz-adv-x="640" 
d="M642 822l-245 -176l-47 60l213 197zM233 -8q-40 0 -74 9.5t-59 27.5l-53 -50l-56 56l57 54q-21 39 -24.5 91.5t13.5 114.5q31 115 122 187t211 72q38 0 70.5 -9t57.5 -26l48 46l57 -56l-51 -48q23 -39 27 -92t-13 -114q-32 -118 -122.5 -190.5t-210.5 -72.5zM147 295
q-9 -34 -10.5 -64t3.5 -54l276 264q-14 8 -32 12.5t-39 4.5q-71 0 -125 -45.5t-73 -117.5zM456 255q9 35 10.5 65.5t-4.5 54.5l-279 -266q15 -10 34 -15.5t42 -5.5q71 0 124 45.5t73 121.5z" />
    <glyph glyph-name="Otilde.small" unicode="&#xe056;" horiz-adv-x="640" 
d="M630 839q-15 -93 -53.5 -138.5t-94.5 -37.5q-16 2 -30.5 12.5t-33.5 37.5q-13 17 -19.5 22.5t-12.5 5.5q-14 1 -26 -18t-23 -58h-82q15 92 54 137t94 37q17 -2 31.5 -12.5t34.5 -37.5q12 -17 18 -22t12 -5q14 -1 26 18t23 59h82zM567 255q-32 -118 -122.5 -190.5
t-210.5 -72.5q-123 0 -177.5 84.5t-18.5 218.5q31 115 122 187t211 72q122 0 176.5 -84.5t19.5 -214.5zM457 255q25 93 -5 148t-106 55q-71 0 -125 -45.5t-73 -117.5q-25 -95 5.5 -151t106.5 -56q71 0 124 45.5t73 121.5z" />
    <glyph glyph-name="P.small" unicode="&#xe057;" horiz-adv-x="509" 
d="M144 171l-46 -171h-110l146 546h163q108 0 154 -54.5t17 -152.5q-24 -81 -94 -124.5t-176 -43.5h-54zM272 451h-53l-50 -185h54q54 0 89.5 21.5t46.5 61.5q14 51 -7.5 76.5t-79.5 25.5z" />
    <glyph glyph-name="Q.small" unicode="&#xe058;" horiz-adv-x="640" 
d="M530 40l-90 -66l-41 60q-36 -20 -78 -31t-87 -11q-123 0 -177.5 84.5t-18.5 218.5q31 115 122 187t211 72q122 0 176.5 -84.5t19.5 -214.5q-13 -46 -35 -86.5t-52 -72.5zM148 295q-25 -95 5.5 -151t106.5 -56q22 0 42.5 4.5t39.5 13.5l-72 79l86 67l62 -81q13 17 23 38.5
t16 45.5q25 93 -5 148t-106 55q-71 0 -125 -45.5t-73 -117.5z" />
    <glyph glyph-name="R.small" unicode="&#xe059;" horiz-adv-x="531" 
d="M151 198l-53 -198h-110l146 546h161q109 0 157.5 -47.5t22.5 -132.5q-14 -45 -49 -81.5t-84 -56.5l77 -228h-121l-59 200q-17 -1 -30 -1.5t-25 -0.5h-33zM278 451h-59l-43 -159h50q60 0 95 20t45 60t-11 59.5t-77 19.5z" />
    <glyph glyph-name="Racute.small" unicode="&#xe05a;" horiz-adv-x="531" 
d="M583 822l-245 -176l-47 60l213 197zM151 198l-53 -198h-110l146 546h161q109 0 157.5 -47.5t22.5 -132.5q-14 -45 -49 -81.5t-84 -56.5l77 -228h-121l-59 200q-17 -1 -30 -1.5t-25 -0.5h-33zM278 451h-59l-43 -159h50q60 0 95 20t45 60t-11 59.5t-77 19.5z" />
    <glyph glyph-name="Rcaron.small" unicode="&#xe05b;" horiz-adv-x="531" 
d="M354 744l138 123l53 -51l-168 -175h-85l-77 181l74 45zM151 198l-53 -198h-110l146 546h161q109 0 157.5 -47.5t22.5 -132.5q-14 -45 -49 -81.5t-84 -56.5l77 -228h-121l-59 200q-17 -1 -30 -1.5t-25 -0.5h-33zM278 451h-59l-43 -159h50q60 0 95 20t45 60t-11 59.5
t-77 19.5z" />
    <glyph glyph-name="Rcommaaccent.small" unicode="&#xe05c;" horiz-adv-x="531" 
d="M151 198l-53 -198h-110l146 546h161q109 0 157.5 -47.5t22.5 -132.5q-14 -45 -49 -81.5t-84 -56.5l77 -228h-121l-59 200q-17 -1 -30 -1.5t-25 -0.5h-33zM278 451h-59l-43 -159h50q60 0 95 20t45 60t-11 59.5t-77 19.5zM256 -134l-185 -117l-42 60l152 138z" />
    <glyph glyph-name="S.small" unicode="&#xe05d;" horiz-adv-x="474" 
d="M362 129q-16 -62 -80.5 -99.5t-160.5 -37.5q-47 0 -83 6.5t-70 21.5l28 104q26 -19 63 -29.5t80 -10.5q47 0 76.5 14.5t36.5 39.5t-6 46.5t-67 55.5q-41 25 -59 41t-29 34q-15 23 -18 51t6 61q15 56 74 91.5t139 35.5q50 0 86 -7t62 -22l-30 -109q-18 20 -52.5 32
t-72.5 12q-42 0 -67 -11.5t-31 -33.5q-7 -26 6 -47t67 -55q41 -25 59 -40.5t29 -32.5q15 -23 18.5 -50.5t-4.5 -60.5z" />
    <glyph glyph-name="Sacute.small" unicode="&#xe05e;" horiz-adv-x="474" 
d="M570 822l-245 -176l-47 60l213 197zM362 129q-16 -62 -80.5 -99.5t-160.5 -37.5q-47 0 -83 6.5t-70 21.5l28 104q26 -19 63 -29.5t80 -10.5q47 0 76.5 14.5t36.5 39.5t-6 46.5t-67 55.5q-41 25 -59 41t-29 34q-15 23 -18 51t6 61q15 56 74 91.5t139 35.5q50 0 86 -7
t62 -22l-30 -109q-18 20 -52.5 32t-72.5 12q-42 0 -67 -11.5t-31 -33.5q-7 -26 6 -47t67 -55q41 -25 59 -40.5t29 -32.5q15 -23 18.5 -50.5t-4.5 -60.5z" />
    <glyph glyph-name="Scaron.small" unicode="&#xe05f;" horiz-adv-x="474" 
d="M346 744l138 123l53 -51l-168 -175h-85l-77 181l74 45zM362 129q-16 -62 -80.5 -99.5t-160.5 -37.5q-47 0 -83 6.5t-70 21.5l28 104q26 -19 63 -29.5t80 -10.5q47 0 76.5 14.5t36.5 39.5t-6 46.5t-67 55.5q-41 25 -59 41t-29 34q-15 23 -18 51t6 61q15 56 74 91.5
t139 35.5q50 0 86 -7t62 -22l-30 -109q-18 20 -52.5 32t-72.5 12q-42 0 -67 -11.5t-31 -33.5q-7 -26 6 -47t67 -55q41 -25 59 -40.5t29 -32.5q15 -23 18.5 -50.5t-4.5 -60.5z" />
    <glyph glyph-name="Scedilla.small" unicode="&#xe060;" horiz-adv-x="474" 
d="M189 -66q-16 -59 -61.5 -91t-106.5 -32q-18 0 -33.5 2t-28.5 6q6 23 12.5 46t12.5 46q11 -4 23 -6t24 -2q22 0 38.5 11t21.5 30q4 14 1.5 27t-8.5 22q-33 2 -61 8.5t-55 18.5l28 104q26 -19 63 -29.5t80 -10.5q47 0 76.5 14.5t36.5 39.5t-6 46.5t-67 55.5q-41 25 -59 41
t-29 34q-15 23 -18 51t6 61q15 56 74 91.5t139 35.5q50 0 86 -7t62 -22l-30 -109q-18 20 -52.5 32t-72.5 12q-42 0 -67 -11.5t-31 -33.5q-7 -26 6 -47t67 -55q41 -25 59 -40.5t29 -32.5q15 -23 18.5 -50.5t-4.5 -60.5q-13 -51 -60 -86t-118 -46q7 -15 8.5 -31t-3.5 -32z" />
    <glyph glyph-name="Schwa.small" unicode="&#xe062;" horiz-adv-x="549" 
d="M150 516q51 21 92 30.5t79 9.5q115 0 169 -76t30 -204q-25 -138 -112 -215t-205 -72q-125 5 -157.5 100t38.5 227h334q12 69 -20 105t-105 36q-36 0 -78 -10.5t-93 -32.5zM153 228q-28 -59 -8.5 -104t77.5 -46q64 -2 110.5 37.5t65.5 112.5h-245z" />
    <glyph glyph-name="Scircumflex.small" unicode="&#xe063;" horiz-adv-x="474" 
d="M339 760l-138 -123l-53 51l168 175h85l77 -181l-74 -45zM362 129q-16 -62 -80.5 -99.5t-160.5 -37.5q-47 0 -83 6.5t-70 21.5l28 104q26 -19 63 -29.5t80 -10.5q47 0 76.5 14.5t36.5 39.5t-6 46.5t-67 55.5q-41 25 -59 41t-29 34q-15 23 -18 51t6 61q15 56 74 91.5
t139 35.5q50 0 86 -7t62 -22l-30 -109q-18 20 -52.5 32t-72.5 12q-42 0 -67 -11.5t-31 -33.5q-7 -26 6 -47t67 -55q41 -25 59 -40.5t29 -32.5q15 -23 18.5 -50.5t-4.5 -60.5z" />
    <glyph glyph-name="Scommaaccent.small" unicode="&#xe064;" horiz-adv-x="474" 
d="M362 129q-16 -62 -80.5 -99.5t-160.5 -37.5q-47 0 -83 6.5t-70 21.5l28 104q26 -19 63 -29.5t80 -10.5q47 0 76.5 14.5t36.5 39.5t-6 46.5t-67 55.5q-41 25 -59 41t-29 34q-15 23 -18 51t6 61q15 56 74 91.5t139 35.5q50 0 86 -7t62 -22l-30 -109q-18 20 -52.5 32
t-72.5 12q-42 0 -67 -11.5t-31 -33.5q-7 -26 6 -47t67 -55q41 -25 59 -40.5t29 -32.5q15 -23 18.5 -50.5t-4.5 -60.5zM172 -134l-185 -117l-42 60l152 138z" />
    <glyph glyph-name="T.small" unicode="&#xe065;" horiz-adv-x="444" 
d="M306 450l-121 -450h-110l121 450h-157l25 96h424l-25 -96h-157z" />
    <glyph glyph-name="Tbar.small" unicode="&#xe066;" horiz-adv-x="444" 
d="M416 225h-170l-61 -225h-110l61 225h-144l26 96h143l35 129h-157l25 96h424l-25 -96h-157l-35 -129h171z" />
    <glyph glyph-name="Tcaron.small" unicode="&#xe067;" horiz-adv-x="444" 
d="M326 744l138 123l53 -51l-168 -175h-85l-77 181l74 45zM306 450l-121 -450h-110l121 450h-157l25 96h424l-25 -96h-157z" />
    <glyph glyph-name="Tcommaaccent.small" unicode="&#xe068;" horiz-adv-x="444" 
d="M306 450l-121 -450h-110l121 450h-157l25 96h424l-25 -96h-157zM202 -134l-185 -117l-42 60l152 138z" />
    <glyph glyph-name="Thorn.small" unicode="&#xe069;" horiz-adv-x="509" 
d="M133 546h110l30 -85q108 0 154 -54.5t17 -152.5q-24 -81 -94 -124.5t-176 -43.5h-54l-23 -86h-110zM248 366h-53l-50 -185h54q54 0 89.5 21.5t46.5 61.5q14 51 -7.5 76.5t-79.5 25.5z" />
    <glyph glyph-name="U.small" unicode="&#xe06a;" horiz-adv-x="622" 
d="M432 67q-35 -39 -85.5 -57t-123.5 -18q-120 0 -159.5 69.5t-0.5 215.5l72 269h110l-74 -278q-13 -49 -16 -74.5t0 -43.5q4 -29 26.5 -43t64.5 -14q40 0 69 12.5t49 39.5q12 17 22 41.5t26 81.5l74 278h111l-72 -269q-22 -83 -43.5 -131t-49.5 -79z" />
    <glyph glyph-name="Uacute.small" unicode="&#xe06b;" horiz-adv-x="622" 
d="M615 822l-245 -176l-47 60l213 197zM432 67q-35 -39 -85.5 -57t-123.5 -18q-120 0 -159.5 69.5t-0.5 215.5l72 269h110l-74 -278q-13 -49 -16 -74.5t0 -43.5q4 -29 26.5 -43t64.5 -14q40 0 69 12.5t49 39.5q12 17 22 41.5t26 81.5l74 278h111l-72 -269
q-22 -83 -43.5 -131t-49.5 -79z" />
    <glyph glyph-name="Ubreve.small" unicode="&#xe06c;" horiz-adv-x="622" 
d="M579 832q-20 -82 -74 -131.5t-127 -49.5q-76 0 -108 50.5t-11 130.5h83q-10 -42 3.5 -66.5t48.5 -24.5q36 0 62.5 24t39.5 67h83zM432 67q-35 -39 -85.5 -57t-123.5 -18q-120 0 -159.5 69.5t-0.5 215.5l72 269h110l-74 -278q-13 -49 -16 -74.5t0 -43.5q4 -29 26.5 -43
t64.5 -14q40 0 69 12.5t49 39.5q12 17 22 41.5t26 81.5l74 278h111l-72 -269q-22 -83 -43.5 -131t-49.5 -79z" />
    <glyph glyph-name="Ucircumflex.small" unicode="&#xe06d;" horiz-adv-x="622" 
d="M410 760l-138 -123l-53 51l168 175h85l77 -181l-74 -45zM432 67q-35 -39 -85.5 -57t-123.5 -18q-120 0 -159.5 69.5t-0.5 215.5l72 269h110l-74 -278q-13 -49 -16 -74.5t0 -43.5q4 -29 26.5 -43t64.5 -14q40 0 69 12.5t49 39.5q12 17 22 41.5t26 81.5l74 278h111
l-72 -269q-22 -83 -43.5 -131t-49.5 -79z" />
    <glyph glyph-name="Udieresis.small" unicode="&#xe06e;" horiz-adv-x="622" 
d="M547 852q33 0 49.5 -22.5t7.5 -55.5t-37 -55.5t-62 -22.5q-33 0 -49.5 22.5t-7.5 55.5t37.5 55.5t61.5 22.5zM327 852q33 0 49.5 -22.5t7.5 -55.5t-37 -55.5t-62 -22.5q-33 0 -49.5 22.5t-7.5 55.5t37.5 55.5t61.5 22.5zM432 67q-35 -39 -85.5 -57t-123.5 -18
q-120 0 -159.5 69.5t-0.5 215.5l72 269h110l-74 -278q-13 -49 -16 -74.5t0 -43.5q4 -29 26.5 -43t64.5 -14q40 0 69 12.5t49 39.5q12 17 22 41.5t26 81.5l74 278h111l-72 -269q-22 -83 -43.5 -131t-49.5 -79z" />
    <glyph glyph-name="Ugrave.small" unicode="&#xe06f;" horiz-adv-x="622" 
d="M301 897l141 -195l-56 -55l-176 177zM432 67q-35 -39 -85.5 -57t-123.5 -18q-120 0 -159.5 69.5t-0.5 215.5l72 269h110l-74 -278q-13 -49 -16 -74.5t0 -43.5q4 -29 26.5 -43t64.5 -14q40 0 69 12.5t49 39.5q12 17 22 41.5t26 81.5l74 278h111l-72 -269
q-22 -83 -43.5 -131t-49.5 -79z" />
    <glyph glyph-name="Uhungarumlaut.small" unicode="&#xe070;" horiz-adv-x="622" 
d="M516 847l-222 -212l-56 48l183 225zM722 812l-246 -184l-44 57l210 204zM432 67q-35 -39 -85.5 -57t-123.5 -18q-120 0 -159.5 69.5t-0.5 215.5l72 269h110l-74 -278q-13 -49 -16 -74.5t0 -43.5q4 -29 26.5 -43t64.5 -14q40 0 69 12.5t49 39.5q12 17 22 41.5t26 81.5
l74 278h111l-72 -269q-22 -83 -43.5 -131t-49.5 -79z" />
    <glyph glyph-name="Umacron.small" unicode="&#xe071;" horiz-adv-x="622" 
d="M583 791l-25 -92h-322l25 92h322zM432 67q-35 -39 -85.5 -57t-123.5 -18q-120 0 -159.5 69.5t-0.5 215.5l72 269h110l-74 -278q-13 -49 -16 -74.5t0 -43.5q4 -29 26.5 -43t64.5 -14q40 0 69 12.5t49 39.5q12 17 22 41.5t26 81.5l74 278h111l-72 -269q-22 -83 -43.5 -131
t-49.5 -79z" />
    <glyph glyph-name="Uogonek.small" unicode="&#xe072;" horiz-adv-x="622" 
d="M229 -214q-20 -11 -43.5 -16.5t-45.5 -4.5q-43 2 -65 30.5t-13 69.5q8 36 32 66t75 65q-88 14 -114 83.5t8 197.5l72 269h110l-74 -278q-13 -49 -16 -74.5t0 -43.5q4 -29 26.5 -43t64.5 -14q40 0 69 12.5t49 39.5q12 17 22 41.5t26 81.5l74 278h111l-72 -269
q-22 -83 -43.5 -131t-49.5 -79t-66 -49t-89 -23q-41 -23 -70.5 -53.5t-33.5 -54.5q-2 -17 5.5 -25.5t24.5 -8.5q11 0 23.5 3.5t23.5 9.5z" />
    <glyph glyph-name="Uring.small" unicode="&#xe073;" horiz-adv-x="622" 
d="M440 903q58 -2 85.5 -41.5t11.5 -100.5q-13 -50 -57.5 -83.5t-98.5 -32.5q-56 2 -82.5 42t-11.5 101q13 50 57 83.5t96 31.5zM424 829q-24 1 -43.5 -14.5t-23.5 -40.5q-4 -24 7.5 -39t35.5 -16t43 15t24 40t-7 39t-36 16zM432 67q-35 -39 -85.5 -57t-123.5 -18
q-120 0 -159.5 69.5t-0.5 215.5l72 269h110l-74 -278q-13 -49 -16 -74.5t0 -43.5q4 -29 26.5 -43t64.5 -14q40 0 69 12.5t49 39.5q12 17 22 41.5t26 81.5l74 278h111l-72 -269q-22 -83 -43.5 -131t-49.5 -79z" />
    <glyph glyph-name="Utilde.small" unicode="&#xe074;" horiz-adv-x="622" 
d="M596 839q-15 -93 -53.5 -138.5t-94.5 -37.5q-16 2 -30.5 12.5t-33.5 37.5q-13 17 -19.5 22.5t-12.5 5.5q-14 1 -26 -18t-23 -58h-82q15 92 54 137t94 37q17 -2 31.5 -12.5t34.5 -37.5q12 -17 18 -22t12 -5q14 -1 26 18t23 59h82zM432 67q-35 -39 -85.5 -57t-123.5 -18
q-120 0 -159.5 69.5t-0.5 215.5l72 269h110l-74 -278q-13 -49 -16 -74.5t0 -43.5q4 -29 26.5 -43t64.5 -14q40 0 69 12.5t49 39.5q12 17 22 41.5t26 81.5l74 278h111l-72 -269q-22 -83 -43.5 -131t-49.5 -79z" />
    <glyph glyph-name="V.small" unicode="&#xe075;" horiz-adv-x="563" 
d="M587 546l-335 -546h-124l-44 546h113l22 -428h3l248 428h117z" />
    <glyph glyph-name="W.small" unicode="&#xe076;" horiz-adv-x="781" 
d="M400 386l-209 -386h-127l20 546h114l-12 -234q-1 -21 -3 -45t-7 -65q-3 -30 -4 -41t-1 -17h3l8 16l18 36q21 43 34 68.5t26 48.5l127 233h115l5 -233q0 -17 -0.5 -37t-1.5 -58t-1.5 -52.5t0.5 -21.5h2q4 7 10 20.5t21 49.5q17 40 26.5 61t17.5 38l110 233h114l-272 -546
h-127l-4 386h-2z" />
    <glyph glyph-name="Wacute.small" unicode="&#xe077;" horiz-adv-x="781" 
d="M713 822l-245 -176l-47 60l213 197zM400 386l-209 -386h-127l20 546h114l-12 -234q-1 -21 -3 -45t-7 -65q-3 -30 -4 -41t-1 -17h3l8 16l18 36q21 43 34 68.5t26 48.5l127 233h115l5 -233q0 -17 -0.5 -37t-1.5 -58t-1.5 -52.5t0.5 -21.5h2q4 7 10 20.5t21 49.5
q17 40 26.5 61t17.5 38l110 233h114l-272 -546h-127l-4 386h-2z" />
    <glyph glyph-name="Wcircumflex.small" unicode="&#xe078;" horiz-adv-x="781" 
d="M486 760l-138 -123l-53 51l168 175h85l77 -181l-74 -45zM400 386l-209 -386h-127l20 546h114l-12 -234q-1 -21 -3 -45t-7 -65q-3 -30 -4 -41t-1 -17h3l8 16l18 36q21 43 34 68.5t26 48.5l127 233h115l5 -233q0 -17 -0.5 -37t-1.5 -58t-1.5 -52.5t0.5 -21.5h2q4 7 10 20.5
t21 49.5q17 40 26.5 61t17.5 38l110 233h114l-272 -546h-127l-4 386h-2z" />
    <glyph glyph-name="Wdieresis.small" unicode="&#xe079;" horiz-adv-x="781" 
d="M630 852q33 0 49.5 -22.5t7.5 -55.5t-37 -55.5t-62 -22.5q-33 0 -49.5 22.5t-7.5 55.5t37.5 55.5t61.5 22.5zM410 852q33 0 49.5 -22.5t7.5 -55.5t-37 -55.5t-62 -22.5q-33 0 -49.5 22.5t-7.5 55.5t37.5 55.5t61.5 22.5zM400 386l-209 -386h-127l20 546h114l-12 -234
q-1 -21 -3 -45t-7 -65q-3 -30 -4 -41t-1 -17h3l8 16l18 36q21 43 34 68.5t26 48.5l127 233h115l5 -233q0 -17 -0.5 -37t-1.5 -58t-1.5 -52.5t0.5 -21.5h2q4 7 10 20.5t21 49.5q17 40 26.5 61t17.5 38l110 233h114l-272 -546h-127l-4 386h-2z" />
    <glyph glyph-name="Wgrave.small" unicode="&#xe07a;" horiz-adv-x="781" 
d="M386 897l141 -195l-56 -55l-176 177zM400 386l-209 -386h-127l20 546h114l-12 -234q-1 -21 -3 -45t-7 -65q-3 -30 -4 -41t-1 -17h3l8 16l18 36q21 43 34 68.5t26 48.5l127 233h115l5 -233q0 -17 -0.5 -37t-1.5 -58t-1.5 -52.5t0.5 -21.5h2q4 7 10 20.5t21 49.5
q17 40 26.5 61t17.5 38l110 233h114l-272 -546h-127l-4 386h-2z" />
    <glyph glyph-name="X.small" unicode="&#xe07b;" horiz-adv-x="524" 
d="M215 188l-165 -188h-122l261 286l-107 260h123l67 -176h2l154 176h123l-250 -274l111 -272h-123l-72 188h-2z" />
    <glyph glyph-name="Y.small" unicode="&#xe07c;" horiz-adv-x="524" 
d="M288 230l-62 -230h-110l62 230l-114 316h124l63 -172q3 -11 5 -25.5t2 -21.5h2q2 5 11.5 19t20.5 28l152 172h124z" />
    <glyph glyph-name="Yacute.small" unicode="&#xe07d;" horiz-adv-x="524" 
d="M591 822l-245 -176l-47 60l213 197zM288 230l-62 -230h-110l62 230l-114 316h124l63 -172q3 -11 5 -25.5t2 -21.5h2q2 5 11.5 19t20.5 28l152 172h124z" />
    <glyph glyph-name="Ycircumflex.small" unicode="&#xe07e;" horiz-adv-x="524" 
d="M366 760l-138 -123l-53 51l168 175h85l77 -181l-74 -45zM288 230l-62 -230h-110l62 230l-114 316h124l63 -172q3 -11 5 -25.5t2 -21.5h2q2 5 11.5 19t20.5 28l152 172h124z" />
    <glyph glyph-name="Ydieresis.small" unicode="&#xe07f;" horiz-adv-x="524" 
d="M498 852q33 0 49.5 -22.5t7.5 -55.5t-37 -55.5t-62 -22.5q-33 0 -49.5 22.5t-7.5 55.5t37.5 55.5t61.5 22.5zM278 852q33 0 49.5 -22.5t7.5 -55.5t-37 -55.5t-62 -22.5q-33 0 -49.5 22.5t-7.5 55.5t37.5 55.5t61.5 22.5zM288 230l-62 -230h-110l62 230l-114 316h124
l63 -172q3 -11 5 -25.5t2 -21.5h2q2 5 11.5 19t20.5 28l152 172h124z" />
    <glyph glyph-name="Ygrave.small" unicode="&#xe080;" horiz-adv-x="524" 
d="M256 897l141 -195l-56 -55l-176 177zM288 230l-62 -230h-110l62 230l-114 316h124l63 -172q3 -11 5 -25.5t2 -21.5h2q2 5 11.5 19t20.5 28l152 172h124z" />
    <glyph glyph-name="Z.small" unicode="&#xe081;" horiz-adv-x="504" 
d="M383 96l-26 -96h-394l25 92l355 356l-1 2h-251l25 96h380l-25 -95l-356 -353l3 -2h265z" />
    <glyph glyph-name="Zacute.small" unicode="&#xe082;" horiz-adv-x="504" 
d="M568 822l-245 -176l-47 60l213 197zM383 96l-26 -96h-394l25 92l355 356l-1 2h-251l25 96h380l-25 -95l-356 -353l3 -2h265z" />
    <glyph glyph-name="Zcaron.small" unicode="&#xe083;" horiz-adv-x="504" 
d="M345 744l138 123l53 -51l-168 -175h-85l-77 181l74 45zM383 96l-26 -96h-394l25 92l355 356l-1 2h-251l25 96h380l-25 -95l-356 -353l3 -2h265z" />
    <glyph glyph-name="Zdotaccent.small" unicode="&#xe084;" horiz-adv-x="504" 
d="M447 751q-9 -33 -37 -55.5t-62 -22.5q-33 0 -49.5 22.5t-7.5 55.5t37.5 55.5t61.5 22.5t49.5 -22.5t7.5 -55.5zM383 96l-26 -96h-394l25 92l355 356l-1 2h-251l25 96h380l-25 -95l-356 -353l3 -2h265z" />
    <glyph glyph-name="ampersand.small" unicode="&#xe087;" horiz-adv-x="582" 
d="M178 397q-9 -34 18 -53.5t81 -19.5h253l-25 -93h-97l-18 -67q-11 -43 -4 -59t35 -16q11 0 24.5 2.5t31.5 7.5l-25 -92q-24 -8 -43.5 -11.5t-39.5 -3.5q-38 0 -61.5 15.5t-32.5 46.5q-12 -12 -27 -22t-32 -18q-22 -11 -44.5 -16.5t-45.5 -5.5q-77 0 -112 44t-15 118
q13 47 47 81.5t78 45.5l1 2q-35 13 -48.5 47.5t-0.5 80.5q18 65 76 103.5t141 38.5q42 0 79.5 -8.5t60.5 -22.5l-28 -104q-11 9 -25 16.5t-33 13.5q-16 6 -32.5 8.5t-33.5 2.5q-42 0 -68.5 -16t-34.5 -46zM107 161q-10 -36 7.5 -55.5t59.5 -19.5q33 0 60 11t43 30l27 104
h-52q-68 0 -101.5 -17t-43.5 -53z" />
    <glyph glyph-name="at.small" unicode="&#xe08d;" horiz-adv-x="611" 
d="M444 38q-38 -21 -91 -33t-107 -12q-119 0 -180 91t-28 223q29 117 115 181.5t215 64.5q109 0 148 -52.5t11 -159.5l-46 -174h-81l-4 33l-2 1q-26 -20 -54.5 -30.5t-58.5 -10.5q-53 0 -75.5 31t-9.5 82q15 57 65 86t134 29h39l3 12q8 31 -16 45.5t-84 14.5
q-78 0 -128 -37.5t-70 -112.5q-27 -96 11.5 -160.5t119.5 -64.5q44 0 91.5 13.5t97.5 39.5zM384 319q-39 0 -59 -9t-26 -30q-5 -19 4 -29t32 -10q22 0 44 8.5t32 19.5l13 50h-40z" />
    <glyph glyph-name="braceleft.small" unicode="&#xe090;" horiz-adv-x="285" 
d="M35 106q18 28 25 41.5t10 24.5q6 22 -1 40.5t-26 24.5l19 72q23 6 40 24.5t22 40.5q3 11 3.5 24.5t-3.5 41.5q-4 29 -3.5 44t3.5 28q19 69 75.5 101.5t141.5 23.5l-19 -85q-45 5 -66.5 -6.5t-29.5 -41.5q-3 -12 -3.5 -26t3.5 -43q3 -30 2.5 -45t-3.5 -28
q-8 -29 -26 -50.5t-47 -38.5q21 -17 27 -38.5t-2 -50.5q-3 -13 -11 -28t-28 -45q-18 -29 -25.5 -43t-10.5 -26q-8 -30 6.5 -41t59.5 -7l-22 -85q-90 -9 -129.5 23.5t-20.5 101.5q3 13 11 28t28 44z" />
    <glyph glyph-name="braceright.small" unicode="&#xe092;" horiz-adv-x="285" 
d="M237 441q-18 -28 -25 -41.5t-10 -24.5q-6 -22 1 -40.5t26 -24.5l-19 -72q-23 -6 -40 -24.5t-22 -40.5q-3 -11 -3.5 -24.5t3.5 -41.5q4 -29 3.5 -44t-3.5 -28q-19 -69 -75.5 -101.5t-141.5 -23.5l19 85q45 -5 66.5 6.5t29.5 41.5q3 12 3.5 26t-3.5 43q-3 30 -2.5 45
t3.5 28q8 29 26 50.5t47 38.5q-21 17 -27 38.5t2 50.5q3 13 11 28t28 45q18 29 25.5 43t10.5 26q8 30 -6.5 41t-59.5 7l22 85q90 9 129.5 -23.5t20.5 -101.5q-3 -13 -11 -28t-28 -44z" />
    <glyph glyph-name="bracketleft.small" unicode="&#xe094;" horiz-adv-x="269" 
d="M321 548h-75l-147 -549h75l-24 -88h-179l194 725h179z" />
    <glyph glyph-name="bracketright.small" unicode="&#xe096;" horiz-adv-x="269" 
d="M-70 -1h75l147 549h-75l24 88h179l-194 -725h-179z" />
    <glyph glyph-name="breve.cap" unicode="&#xe097;" horiz-adv-x="460" 
d="M577 1004q-20 -84 -78 -132.5t-142 -48.5q-83 0 -121.5 52t-18.5 129h83q-9 -42 9.5 -66.5t62.5 -24.5q45 0 77 24.5t45 66.5h83z" />
    <glyph glyph-name="caronSlovak" unicode="&#xe09a;" horiz-adv-x="301" 
d="M427 880l-162 -252l-73 25l118 252z" />
    <glyph glyph-name="cent.LP" unicode="&#xe09b;" horiz-adv-x="484" 
d="M371 136q-26 -13 -54 -21.5t-56 -12.5l-27 -102h-112l28 108q-78 24 -107.5 105t-1.5 197q28 112 93.5 176t164.5 77l27 100h112l-27 -102q24 -3 44 -10t32 -17l-29 -108q-23 19 -54 29t-66 10q-73 0 -120 -43t-67 -130q-20 -88 4.5 -138t88.5 -54q36 -2 80 10t75 31z
" />
    <glyph glyph-name="cent.LT" unicode="&#xe09c;" horiz-adv-x="660" 
d="M454 136q-26 -13 -54 -21.5t-56 -12.5l-27 -102h-112l28 108q-78 24 -107.5 105t-1.5 197q28 112 93.5 176t164.5 77l27 100h112l-27 -102q24 -3 44 -10t32 -17l-29 -108q-23 19 -54 29t-66 10q-73 0 -120 -43t-67 -130q-20 -88 4.5 -138t88.5 -54q36 -2 80 10t75 31z
" />
    <glyph glyph-name="cent.OP" unicode="&#xe09d;" horiz-adv-x="494" 
d="M356 26q-27 -13 -56 -22t-58 -12l-19 -70h-112l21 77q-77 26 -105.5 106t-0.5 195q28 111 92.5 174.5t161.5 77.5l19 71h112l-19 -71q26 -4 46.5 -11t33.5 -17l-29 -108q-23 19 -54 29t-66 10q-73 0 -120 -43t-67 -130q-20 -88 4.5 -138t88.5 -54q36 -2 80 10t75 31z" />
    <glyph glyph-name="cent.OT" unicode="&#xe09e;" horiz-adv-x="660" 
d="M439 26q-27 -13 -56 -22t-58 -12l-19 -70h-112l21 77q-77 26 -105.5 106t-0.5 195q28 111 92.5 174.5t161.5 77.5l19 71h112l-19 -71q26 -4 46.5 -11t33.5 -17l-29 -108q-23 19 -54 29t-66 10q-73 0 -120 -43t-67 -130q-20 -88 4.5 -138t88.5 -54q36 -2 80 10t75 31z" />
    <glyph glyph-name="commaaccent" unicode="&#xe0a4;" horiz-adv-x="500" 
d="M274 -134l-185 -117l-42 60l152 138z" />
    <glyph glyph-name="commaaccent.alt" unicode="&#xe0a5;" horiz-adv-x="500" 
d="M289 729l245 176l47 -60l-213 -197z" />
    <glyph glyph-name="dollar.LP" unicode="&#xe0a8;" horiz-adv-x="570" 
d="M455 180q-17 -73 -75 -120.5t-146 -63.5l-20 -74h-112l18 68q-45 2 -82.5 11.5t-71.5 27.5l32 120q31 -26 76 -40t95 -14q65 0 110 26t55 68q10 41 -6.5 74.5t-87.5 86.5q-50 37 -71 59t-34 46q-16 31 -19 67.5t8 79.5q16 64 70 107.5t134 57.5l28 103h112l-26 -97
q38 -3 69.5 -12t56.5 -24l-33 -126q-22 25 -63.5 39.5t-90.5 14.5q-55 0 -92 -21t-46 -57q-11 -41 5.5 -74t87.5 -85q50 -36 71.5 -58t33.5 -45q17 -31 20.5 -67t-6.5 -78z" />
    <glyph glyph-name="dollar.LT" unicode="&#xe0a9;" horiz-adv-x="660" 
d="M500 180q-17 -73 -75 -120.5t-146 -63.5l-20 -74h-112l18 68q-45 2 -82.5 11.5t-71.5 27.5l32 120q31 -26 76 -40t95 -14q65 0 110 26t55 68q10 41 -6.5 74.5t-87.5 86.5q-50 37 -71 59t-34 46q-16 31 -19 67.5t8 79.5q16 64 70 107.5t134 57.5l28 103h112l-26 -97
q38 -3 69.5 -12t56.5 -24l-33 -126q-22 25 -63.5 39.5t-90.5 14.5q-55 0 -92 -21t-46 -57q-11 -41 5.5 -74t87.5 -85q50 -36 71.5 -58t33.5 -45q17 -31 20.5 -67t-6.5 -78z" />
    <glyph glyph-name="dollar.OP" unicode="&#xe0aa;" horiz-adv-x="497" 
d="M376 141q-12 -58 -54 -95.5t-109 -50.5l-20 -73h-112l18 68q-36 4 -67.5 15t-51.5 26q7 27 14 53.5t14 53.5q10 -13 26 -23.5t38 -18.5q17 -6 36.5 -9.5t39.5 -3.5q48 0 78 14.5t36 41.5q5 23 -8.5 41.5t-67.5 47.5q-42 22 -61 36.5t-31 30.5q-18 22 -24 49.5t0 60.5
q11 62 57 100t123 47l19 71h112l-20 -73q26 -5 48.5 -14t38.5 -21l-27 -100q-34 22 -69.5 33.5t-68.5 11.5q-42 0 -69.5 -15.5t-32.5 -40.5q-5 -22 8.5 -40t68.5 -45q44 -22 63.5 -36t32.5 -30q18 -22 23.5 -50t-1.5 -62z" />
    <glyph glyph-name="dollar.OT" unicode="&#xe0ab;" horiz-adv-x="660" 
d="M455 141q-12 -58 -54 -95.5t-109 -50.5l-20 -73h-112l18 68q-36 4 -67.5 15t-51.5 26q7 27 14 53.5t14 53.5q10 -13 26 -23.5t38 -18.5q17 -6 36.5 -9.5t39.5 -3.5q48 0 78 14.5t36 41.5q5 23 -8.5 41.5t-67.5 47.5q-42 22 -61 36.5t-31 30.5q-18 22 -24 49.5t0 60.5
q11 62 57 100t123 47l19 71h112l-20 -73q26 -5 48.5 -14t38.5 -21l-27 -100q-34 22 -69.5 33.5t-68.5 11.5q-42 0 -69.5 -15.5t-32.5 -40.5q-5 -22 8.5 -40t68.5 -45q44 -22 63.5 -36t32.5 -30q18 -22 23.5 -50t-1.5 -62z" />
    <glyph glyph-name="eight.LP" unicode="&#xe0af;" horiz-adv-x="674" 
d="M560 186q-25 -93 -109.5 -146.5t-207.5 -50.5q-120 2 -179 65.5t-32 164.5q15 58 73.5 113t124.5 74q-48 29 -68.5 79.5t-5.5 110.5q19 78 96.5 129.5t179.5 48.5q108 -3 161 -60.5t28 -146.5q-14 -50 -59 -96t-99 -66q63 -37 89 -94.5t8 -124.5zM503 565q14 52 -11.5 83
t-86.5 30q-50 -1 -87.5 -26t-47.5 -65q-12 -47 17.5 -84.5t92.5 -56.5q48 20 81 51.5t42 67.5zM445 195q15 59 -20 100.5t-121 65.5q-55 -18 -99.5 -58.5t-56.5 -85.5q-16 -60 14.5 -94.5t100.5 -37.5q69 -3 118.5 27t63.5 83z" />
    <glyph glyph-name="eight.LT" unicode="&#xe0b0;" horiz-adv-x="660" 
d="M553 186q-25 -93 -109.5 -146.5t-207.5 -50.5q-120 2 -179 65.5t-32 164.5q15 58 73.5 113t124.5 74q-48 29 -68.5 79.5t-5.5 110.5q19 78 96.5 129.5t179.5 48.5q108 -3 161 -60.5t28 -146.5q-14 -50 -59 -96t-99 -66q63 -37 89 -94.5t8 -124.5zM496 565q14 52 -11.5 83
t-86.5 30q-50 -1 -87.5 -26t-47.5 -65q-12 -47 17.5 -84.5t92.5 -56.5q48 20 81 51.5t42 67.5zM438 195q15 59 -20 100.5t-121 65.5q-55 -18 -99.5 -58.5t-56.5 -85.5q-16 -60 14.5 -94.5t100.5 -37.5q69 -3 118.5 27t63.5 83z" />
    <glyph glyph-name="eight.OP" unicode="&#xe0b1;" horiz-adv-x="674" 
d="M584 186q-25 -93 -109.5 -146.5t-207.5 -50.5q-120 2 -179 65.5t-32 164.5q15 58 73.5 113t124.5 74q-48 29 -68.5 79.5t-5.5 110.5q19 78 96.5 129.5t179.5 48.5q108 -3 161 -60.5t28 -146.5q-14 -50 -59 -96t-99 -66q63 -37 89 -94.5t8 -124.5zM527 565q14 52 -11.5 83
t-86.5 30q-50 -1 -87.5 -26t-47.5 -65q-12 -47 17.5 -84.5t92.5 -56.5q48 20 81 51.5t42 67.5zM469 195q15 59 -20 100.5t-121 65.5q-55 -18 -99.5 -58.5t-56.5 -85.5q-16 -60 14.5 -94.5t100.5 -37.5q69 -3 118.5 27t63.5 83z" />
    <glyph glyph-name="eight.OT" unicode="&#xe0b2;" horiz-adv-x="660" 
d="M577 186q-25 -93 -109.5 -146.5t-207.5 -50.5q-120 2 -179 65.5t-32 164.5q15 58 73.5 113t124.5 74q-48 29 -68.5 79.5t-5.5 110.5q19 78 96.5 129.5t179.5 48.5q108 -3 161 -60.5t28 -146.5q-14 -50 -59 -96t-99 -66q63 -37 89 -94.5t8 -124.5zM520 565q14 52 -11.5 83
t-86.5 30q-50 -1 -87.5 -26t-47.5 -65q-12 -47 17.5 -84.5t92.5 -56.5q48 20 81 51.5t42 67.5zM462 195q15 59 -20 100.5t-121 65.5q-55 -18 -99.5 -58.5t-56.5 -85.5q-16 -60 14.5 -94.5t100.5 -37.5q69 -3 118.5 27t63.5 83z" />
    <glyph glyph-name="five.LP" unicode="&#xe0bf;" horiz-adv-x="601" 
d="M171 -11q-27 0 -51 2t-46 6q-33 6 -55.5 14t-33.5 19l30 113q13 -12 33 -22t47 -18q20 -5 42.5 -8t46.5 -3q72 0 121 33t64 91t-7.5 93t-81.5 48q-27 6 -63.5 7.5t-128.5 -4.5l109 404h396l-28 -103h-281l-53 -200q154 10 220 -57.5t32 -198.5q-26 -98 -109.5 -157
t-202.5 -59z" />
    <glyph glyph-name="five.LT" unicode="&#xe0c0;" horiz-adv-x="661" 
d="M196 -11q-27 0 -51 2t-46 6q-33 6 -55.5 14t-33.5 19l30 113q13 -12 33 -22t47 -18q20 -5 42.5 -8t46.5 -3q72 0 121 33t64 91t-7.5 93t-81.5 48q-27 6 -63.5 7.5t-128.5 -4.5l109 404h396l-28 -103h-281l-53 -200q154 10 220 -57.5t32 -198.5q-26 -98 -109.5 -157
t-202.5 -59z" />
    <glyph glyph-name="five.OP" unicode="&#xe0c1;" horiz-adv-x="591" 
d="M130 -230q-27 0 -51 2t-46 6q-33 6 -55.5 14t-33.5 19l30 113q13 -12 33 -22t47 -18q20 -5 42.5 -8t46.5 -3q72 0 121 33t64 91t-7.5 93t-81.5 48q-27 6 -63.5 7.5t-128.5 -4.5l109 404h396l-28 -103h-281l-53 -200q154 10 220 -57.5t32 -198.5q-26 -98 -109.5 -157
t-202.5 -59z" />
    <glyph glyph-name="five.OT" unicode="&#xe0c2;" horiz-adv-x="661" 
d="M155 -230q-27 0 -51 2t-46 6q-33 6 -55.5 14t-33.5 19l30 113q13 -12 33 -22t47 -18q20 -5 42.5 -8t46.5 -3q72 0 121 33t64 91t-7.5 93t-81.5 48q-27 6 -63.5 7.5t-128.5 -4.5l109 404h396l-28 -103h-281l-53 -200q154 10 220 -57.5t32 -198.5q-26 -98 -109.5 -157
t-202.5 -59z" />
    <glyph glyph-name="florin.LP" unicode="&#xe0c6;" horiz-adv-x="378" 
d="M134 8q-45 -132 -120.5 -187.5t-204.5 -55.5h-14l27 101q85 0 128 31t67 101l117 349h-94l26 95h100l38 114q38 112 101 163t160 51q17 0 34.5 -3t30.5 -8l-30 -110q-9 7 -25.5 12t-33.5 5q-45 0 -76 -32t-55 -104l-30 -88h125l-26 -95h-131z" />
    <glyph glyph-name="florin.LT" unicode="&#xe0c7;" horiz-adv-x="660" 
d="M300 8q-45 -132 -120.5 -187.5t-204.5 -55.5h-14l27 101q85 0 128 31t67 101l117 349h-94l26 95h100l38 114q38 112 101 163t160 51q17 0 34.5 -3t30.5 -8l-30 -110q-9 7 -25.5 12t-33.5 5q-45 0 -76 -32t-55 -104l-30 -88h125l-26 -95h-131z" />
    <glyph glyph-name="florin.OP" unicode="&#xe0c8;" horiz-adv-x="378" 
d="M100 8q-45 -132 -120.5 -187.5t-204.5 -55.5h-14l27 101q85 0 128 31t67 101l117 349h-94l26 95h100l38 114q38 112 101 163t160 51q17 0 34.5 -3t30.5 -8l-30 -110q-9 7 -25.5 12t-33.5 5q-45 0 -76 -32t-55 -104l-30 -88h125l-26 -95h-131z" />
    <glyph glyph-name="florin.OT" unicode="&#xe0c9;" horiz-adv-x="660" 
d="M300 8q-45 -132 -120.5 -187.5t-204.5 -55.5h-14l27 101q85 0 128 31t67 101l117 349h-94l26 95h100l38 114q38 112 101 163t160 51q17 0 34.5 -3t30.5 -8l-30 -110q-9 7 -25.5 12t-33.5 5q-45 0 -76 -32t-55 -104l-30 -88h125l-26 -95h-131z" />
    <glyph glyph-name="four.LP" unicode="&#xe0ca;" horiz-adv-x="651" 
d="M275 0l48 179h-328l26 96l437 488h136l-130 -488h88l-26 -96h-88l-48 -179h-115zM148 278l3 -3h198l71 242q5 17 9.5 34t11.5 45q4 16 6 23.5t4 13.5h-3q-6 -9 -29.5 -38t-65.5 -78z" />
    <glyph glyph-name="four.LT" unicode="&#xe0cb;" horiz-adv-x="661" 
d="M290 0l48 179h-328l26 96l437 488h136l-130 -488h88l-26 -96h-88l-48 -179h-115zM163 278l3 -3h198l71 242q5 17 9.5 34t11.5 45q4 16 6 23.5t4 13.5h-3q-6 -9 -29.5 -38t-65.5 -78z" />
    <glyph glyph-name="four.OP" unicode="&#xe0cc;" horiz-adv-x="651" 
d="M254 -218l48 179h-328l26 96l437 488h136l-130 -488h88l-26 -96h-88l-48 -179h-115zM127 60l3 -3h198l71 242q5 17 9.5 34t11.5 45q4 16 6 23.5t4 13.5h-3q-6 -9 -29.5 -38t-65.5 -78z" />
    <glyph glyph-name="four.OT" unicode="&#xe0cd;" horiz-adv-x="661" 
d="M269 -218l48 179h-328l26 96l437 488h136l-130 -488h88l-26 -96h-88l-48 -179h-115zM142 60l3 -3h198l71 242q5 17 9.5 34t11.5 45q4 16 6 23.5t4 13.5h-3q-6 -9 -29.5 -38t-65.5 -78z" />
    </font>
</defs>
</svg>
